<svg
  xmlns="http://www.w3.org/2000/svg"
  xmlns:xlink="http://www.w3.org/1999/xlink"
  viewBox="0 0 346.06 194.18"
>
  <defs>
    <style>
      .cls-1 {
        fill: none;
      }
      .cls-2 {
        clip-path: url(#clip-path);
      }
      .cls-3 {
        fill: #fff;
      }
    </style>
    <clipPath id="clip-path" transform="translate(-25.06 -25.07)">
      <rect class="cls-1" width="396.19" height="137.88" />
    </clipPath>
  </defs>
  <title>2资源 6</title>
  <g transform="translate(0,60.2)">
     <g transform="translate(51.91,0) scale(0.7)">
  <g id="图层_2" data-name="图层 2">
    <g id="图层_1-2" data-name="图层 1">
      <g class="cls-2">
        <path
          class="cls-3"
          d="M142.25,43.87c4.91,0,8.7,1.12,11.51,3.51a11.26,11.26,0,0,1,4,9.13,12,12,0,0,1-2.11,7.16,12.38,12.38,0,0,1-5.83,4.14,11.22,11.22,0,0,1,10,12.15c0,5.06-1.75,8.71-5.19,11.1q-4.43,3-12.43,3h-22.9V43.87ZM127,65.15h13.2c3.51,0,6-.64,7.58-1.83s2.32-3.23,2.32-5.9-.77-4.35-2.32-5.48-4.07-1.75-7.44-1.75H127Zm0,22.54h14.18a16,16,0,0,0,7.59-1.55,6.88,6.88,0,0,0,3.44-6.32c0-2.95-.92-5.12-2.67-6.46s-4.49-2-8.15-2H127Z"
          transform="translate(-25.06 -25.07)"
        />
        <path
          class="cls-3"
          d="M175.42,57.7V94H168V57.7Zm0-6.39H168V43.87h7.44Z"
          transform="translate(-25.06 -25.07)"
        />
        <path
          class="cls-3"
          d="M320.36,94V57.7h7.43v7.91h0c1.35-4.08,5.42-7.91,12-7.91h2.49v7.43h-3.68c-6.87,0-10.86,2.71-10.86,6.79V94Z"
          transform="translate(-25.06 -25.07)"
        />
        <path
          class="cls-3"
          d="M308.83,60.72q-3.79-4-11.8-4c-4.5,0-8.15.77-10.82,2.45a12.43,12.43,0,0,0-5.83,8.71l7.38.64a6.42,6.42,0,0,1,3.16-4.5,10.93,10.93,0,0,1,5.62-1.26q8.22,0,8.21,7.58v.49H293.46c-5.22,0-9.31,1.79-12.2,5.44a10.35,10.35,0,0,0-2.33,6.59c0,6.16,5.36,11.15,12,11.15.65,0,2.52-.07,3.55-.21a9.29,9.29,0,0,0,1.1-.22A18.31,18.31,0,0,0,300,92.25a15.17,15.17,0,0,0,4.7-3.77V94h7.45V70.83C312.13,66.41,311,63,308.83,60.72ZM304.68,79c-.18,2.52-1.3,5.68-3.37,7.42-2.24,1.9-4.92,1.89-8.08,1.89a7.09,7.09,0,0,1-4.56-1.4,4.11,4.11,0,0,1-1.75-3.44c0-4.2,3-6.53,8.92-6.94h8.84Z"
          transform="translate(-25.06 -25.07)"
        />
        <polygon
          class="cls-3"
          points="236.61 18.8 217.49 60.76 198.38 18.8 189.78 18.8 189.78 68.94 197.23 68.94 197.23 32.63 213.77 68.94 221.21 68.94 237.79 32.55 237.79 68.94 245.24 68.94 245.24 18.8 236.61 18.8"
        />
        <path
          class="cls-3"
          d="M362.86,87.68V65.13h8.26V57.7h-8.26V47.59h-7.43V57.7h-6.72v7.43h6.72v21c0,4.81,2.72,7.85,7.84,7.85h7.85V87.68Z"
          transform="translate(-25.06 -25.07)"
        />
        <path
          class="cls-3"
          d="M197.94,87.68V65.13h8.26V57.7h-8.26V47.59h-7.42V57.7h-6.73v7.43h6.73v21c0,4.81,2.71,7.85,7.84,7.85h7.84V87.68Z"
          transform="translate(-25.06 -25.07)"
        />
        <rect class="cls-3" x="20.25" y="63.04" width="27.01" height="2.36" />
        <rect class="cls-3" x="6.75" y="77.72" width="20.26" height="2.36" />
        <rect class="cls-3" y="63.05" width="13.48" height="2.36" />
        <rect class="cls-3" x="27" y="56.22" width="20.26" height="2.36" />
        <rect class="cls-3" x="6.76" y="56.22" width="13.47" height="2.36" />
        <rect class="cls-3" x="13.49" y="25.71" width="33.77" height="2.36" />
        <rect class="cls-3" x="6.75" y="17.86" width="13.48" height="2.36" />
        <path
          class="cls-3"
          d="M90.23,65.62l0-.06A27.05,27.05,0,0,0,66.83,25.07H38.55v3.38H66.91A23.65,23.65,0,0,1,89.62,58.37,20.68,20.68,0,0,0,69.52,33H45.31v3.38H69.55A17.27,17.27,0,0,1,86,58.89a13.53,13.53,0,0,0-13-17H52V45.3H72.9a10.16,10.16,0,0,1,8.82,15.17,27.11,27.11,0,0,0-9.44-1.7h-27v3.38h27A23.66,23.66,0,0,1,95.52,81.39,20.28,20.28,0,0,0,75.78,65.65H38.54V69H75.83A16.88,16.88,0,0,1,92.48,83.47,13.51,13.51,0,0,0,79.21,72.4H38.56v3.38H79.2a10.13,10.13,0,0,1,0,20.26H31.81v3.38h47.4A13.51,13.51,0,0,0,92.48,88.35a16.88,16.88,0,0,1-16.7,14.44h-17v3.38h17A20.29,20.29,0,0,0,95.26,91.46a23.67,23.67,0,0,1-22.93,18H38.59v3.38H72.28a27,27,0,0,0,18-47.24Z"
          transform="translate(-25.06 -25.07)"
        />
      </g>
    </g>
  </g>
  </g>
  </g>
</svg>
