<svg xmlns="http://www.w3.org/2000/svg" viewBox="-17 -27 140 79" fill="none">
<path d="M81.7196 12.0001C81.7196 11.3752 81.7196 10.7966 81.6964 10.2643C81.6733 9.73203 81.627 9.22287 81.5575 8.78314C81.4881 8.32027 81.3493 7.90368 81.141 7.4871C80.9558 7.07051 80.655 6.70021 80.3078 6.32991C79.7986 5.82075 79.2432 5.45045 78.6183 5.17273C77.9934 4.91815 77.276 4.75614 76.466 4.75614C75.6559 4.75614 74.9385 4.895 74.3136 5.17273C73.6887 5.42731 73.1101 5.82075 72.601 6.32991C72.2307 6.70021 71.9761 7.07051 71.7909 7.4871C71.6058 7.90368 71.4438 8.32027 71.3743 8.78314C71.3049 9.24602 71.2586 9.73203 71.2355 10.2643C71.2123 10.7966 71.2123 11.3752 71.2123 12.0001C71.2123 12.625 71.2123 13.1804 71.2355 13.7359C71.2586 14.2682 71.3049 14.7774 71.3743 15.2171C71.4438 15.68 71.5826 16.0965 71.7909 16.5131C71.9761 16.9297 72.2769 17.3 72.601 17.6703C73.1101 18.1795 73.6656 18.5498 74.3136 18.8275C74.9385 19.0821 75.6559 19.2441 76.466 19.2441C77.276 19.2441 77.9703 19.1052 78.6183 18.8275C79.2432 18.5729 79.8218 18.1795 80.3078 17.6703C80.6781 17.3 80.9327 16.9297 81.141 16.5131C81.3261 16.0965 81.4881 15.68 81.5575 15.2171C81.627 14.7542 81.6964 14.2682 81.6964 13.7359C81.7196 13.1573 81.7196 12.625 81.7196 12.0001ZM78.9655 12.0001C78.9655 12.6713 78.9655 13.2499 78.9423 13.7127C78.9192 14.1756 78.896 14.5228 78.8266 14.8236C78.7803 15.1014 78.7109 15.3559 78.6183 15.518C78.5257 15.7031 78.4332 15.8883 78.2712 16.0271C78.086 16.2586 77.8083 16.4437 77.5306 16.5826C77.2297 16.7214 76.8825 16.7677 76.4891 16.7909C76.0957 16.7909 75.7716 16.7214 75.4476 16.5826C75.1468 16.4437 74.8922 16.2817 74.6839 16.0271C74.545 15.8883 74.4525 15.7262 74.3367 15.518C74.2442 15.3328 74.1747 15.1014 74.1284 14.8236C74.0822 14.5459 74.0359 14.1756 74.0359 13.7127C74.0127 13.2499 74.0127 12.6944 74.0127 12.0001C74.0127 11.3289 74.0127 10.7504 74.0359 10.2875C74.059 9.82461 74.0822 9.47745 74.1284 9.17659C74.1747 8.87572 74.2442 8.64428 74.3367 8.48228C74.4293 8.29713 74.5219 8.11198 74.6839 7.97312C74.869 7.74168 75.1468 7.55653 75.4476 7.41767C75.7485 7.2788 76.0957 7.23252 76.4891 7.20937C76.8825 7.20937 77.2066 7.2788 77.5306 7.41767C77.8083 7.55653 78.086 7.71854 78.2712 7.97312C78.41 8.11198 78.5026 8.27398 78.6183 8.48228C78.7109 8.66743 78.7803 8.89886 78.8266 9.17659C78.8729 9.45431 78.9192 9.82461 78.9423 10.2875C78.9423 10.7504 78.9655 11.3289 78.9655 12.0001Z" fill="#00B47D"/>
<path d="M103.822 5.12653C103.822 4.98766 103.707 4.89509 103.591 4.89509H101.323C101.184 4.89509 101.091 5.01081 101.091 5.12653V13.5971L95.5137 4.96452C95.4675 4.91823 95.4443 4.89509 95.3749 4.89509H93.2457C93.1299 4.89509 93.0142 5.01081 93.0142 5.12653C93.0142 9.70897 93.0142 14.2914 93.0142 18.8276C93.0142 18.9664 93.1299 19.059 93.2457 19.059H95.5137C95.6526 19.059 95.7452 18.9433 95.7452 18.8276V10.3339L101.323 18.9896C101.369 19.0359 101.392 19.059 101.462 19.059H103.591C103.73 19.059 103.822 18.9433 103.822 18.8276V5.12653Z" fill="#00B47D"/>
<path d="M88.4778 5.12644C88.4778 4.98758 88.3621 4.895 88.2464 4.895H85.9783C85.8395 4.895 85.7469 5.01072 85.7469 5.12644V18.8275C85.7469 18.9664 85.8626 19.0589 85.9783 19.0589H88.2464C88.3853 19.0589 88.4778 18.9432 88.4778 18.8275V5.12644Z" fill="#00B47D"/>
<path d="M61.1221 12.0001C61.1221 11.3289 61.1221 10.7504 61.1452 10.2875C61.1684 9.82461 61.1915 9.47745 61.2378 9.17659C61.4461 7.94997 62.395 7.23252 63.5984 7.23252C64.3853 7.23252 65.0796 7.51024 65.5425 8.18141C65.7276 8.45913 65.8897 8.80629 65.9822 9.19973C65.9822 9.24602 66.0054 9.26916 66.0517 9.26916H68.7363C68.7826 9.26916 68.7826 9.24602 68.7826 9.19973C68.5049 7.55653 67.6023 6.02904 66.0285 5.28845C65.3111 4.94129 64.4779 4.75614 63.5521 4.75614C62.0478 4.75614 60.7518 5.28845 59.7103 6.30677C59.1086 6.90851 58.7383 7.62596 58.5531 8.43599C58.3911 9.22287 58.3217 10.4032 58.3217 11.9538C58.3217 13.5045 58.3911 14.6848 58.5531 15.4717C58.7151 16.2817 59.1317 16.9991 59.7103 17.6009C60.7518 18.6424 62.0247 19.1515 63.5521 19.1515C64.4547 19.1515 65.2879 18.9895 66.0285 18.6192C67.5791 17.8786 68.5049 16.3974 68.7826 14.7079C68.7826 14.6616 68.7826 14.6385 68.7363 14.6385H66.0517C66.0054 14.6385 65.9822 14.6616 65.9822 14.7079C65.8897 15.1014 65.7508 15.4254 65.5425 15.7262C65.0796 16.3743 64.3853 16.652 63.5984 16.6751C62.395 16.6751 61.4692 15.9577 61.2378 14.7311C61.1915 14.4533 61.1452 14.083 61.1452 13.6202C61.1221 13.2499 61.1221 12.6713 61.1221 12.0001Z" fill="#00B47D"/>
<path d="M32.7017 5.12644C32.7017 4.98758 32.5859 4.895 32.4702 4.895H30.2021C30.0633 4.895 29.9707 5.01072 29.9707 5.12644V18.8275C29.9707 18.9664 30.0864 19.0589 30.2021 19.0589H32.4702C32.6091 19.0589 32.7017 18.9432 32.7017 18.8275V14.8005L34.5531 12.6019L38.3256 19.0127C38.3487 19.0589 38.395 19.0821 38.4644 19.0821H41.2417C41.3574 19.0821 41.3805 19.0127 41.3342 18.8969L36.4046 10.5421L40.9408 5.1033C41.0334 4.98758 40.9871 4.895 40.8482 4.895H37.7933C37.747 4.895 37.7238 4.895 37.7007 4.94129L32.7017 10.8892V5.12644Z" fill="#00B47D"/>
<path d="M49.3647 16.7445C48.0687 16.7445 46.9115 15.5411 46.9115 14.1293V5.14954C46.9115 5.01068 46.7958 4.91811 46.6801 4.91811H44.412C44.2731 4.91811 44.1805 5.03382 44.1805 5.14954V14.1061C44.1805 17.2537 46.5412 19.244 49.411 19.244C52.2808 19.244 54.6415 17.2537 54.6415 14.1061V5.14954C54.6415 5.01068 54.5257 4.91811 54.41 4.91811H52.142C52.0031 4.91811 51.9105 5.03382 51.9105 5.14954V14.1293C51.7948 15.5411 50.6376 16.7445 49.3647 16.7445Z" fill="#00B47D"/>
<path d="M6.91995 12L14.0251 19.1051L18.5149 14.6152C19.3018 13.8284 20.5979 13.8284 21.3847 14.6152C22.1716 15.4021 22.1716 16.6982 21.3847 17.4851L15.46 23.4098C14.6731 24.1967 13.377 24.1967 12.5901 23.4098L4.07328 14.8698V19.9614C4.07328 21.0723 3.17068 21.9981 2.03664 21.9981C0.902603 21.9981 0 21.0955 0 19.9614V4.08486C0 2.95082 0.902603 2.04822 2.03664 2.04822C3.17068 2.04822 4.07328 2.95082 4.07328 4.08486V9.13019L12.6133 0.590164C13.4002 -0.196721 14.6962 -0.196721 15.4831 0.590164L21.4079 6.51495C22.1948 7.30183 22.1948 8.59788 21.4079 9.38476C20.621 10.1716 19.325 10.1716 18.5381 9.38476L14.0482 4.89489L6.91995 12ZM14.0482 9.96336C12.9142 9.96336 12.0116 10.866 12.0116 12C12.0116 13.134 12.9142 14.0366 14.0482 14.0366C15.1822 14.0366 16.0848 13.134 16.0848 12C16.0617 10.866 15.1591 9.96336 14.0482 9.96336Z" fill="#00B47D"/>
</svg>