<svg width="403" height="226.6875" viewBox="0 0 403 226.6875" fill="none" xmlns="http://www.w3.org/2000/svg">
<g clip-path="url(#clip0_18_299)" transform="translate(100.45,33.15) scale(0.5)">
<path d="M352.821 233.644C357.317 229.471 365.008 227.564 376.366 227.564H402.869V212.422H371.634C364.18 212.422 357.909 213.257 352.939 214.807C348.088 216.356 343.829 218.86 340.28 222.318C336.375 226.014 333.417 230.783 331.287 236.387C329.158 241.991 328.093 248.19 328.093 254.629C328.093 260.829 329.158 266.671 331.406 272.155C333.536 277.64 336.612 282.29 340.398 286.105C343.947 289.563 348.088 292.066 352.939 293.616C357.79 295.166 364.18 296.001 371.752 296.001H402.988V281.097H376.485C370.45 281.097 366.428 280.859 363.943 280.382C361.458 279.905 359.21 279.071 357.317 277.998C353.531 275.613 350.691 272.513 348.917 268.698C347.142 265.002 346.195 260.232 346.195 254.629C346.077 244.733 348.325 237.698 352.821 233.644Z" fill="white"/>
<path d="M122.576 296.001H196.288V281.336H140.561V260.352H189.307V246.521H140.561V227.087H196.288V212.422H122.576V296.001Z" fill="white"/>
<path d="M214.746 212.422L249.294 254.152L214.746 296.001H236.989L264.32 262.855V245.567L236.989 212.422H214.746Z" fill="white"/>
<path d="M298.514 212.422L271.182 245.567V262.855L298.514 296.001H320.876L286.209 254.152L320.876 212.422H298.514Z" fill="white"/>
<path d="M50.2847 253.556L17.156 212.422H0V296.001H17.9842V240.202L46.7352 274.897H53.716L82.467 239.964V296.001H100.451V212.422H83.5319L50.2847 253.556Z" fill="white"/>
<path fill-rule="evenodd" clip-rule="evenodd" d="M102.227 162.365H248.703C257.787 162.365 263.497 152.09 259.115 144.362L185.758 16.1911C180.316 6.89134 170.259 0.572266 158.782 0.572266C146.595 0.572266 135.947 7.60671 130.859 17.9796L75.132 115.151C63.7785 135.432 78.9465 162.365 102.227 162.365Z" fill="#0043FF"/>
<path fill-rule="evenodd" clip-rule="evenodd" d="M217.705 47.9049C209.068 32.8821 214.156 13.567 229.182 4.86336C244.09 -3.84031 263.257 1.28659 271.894 16.4286L328.568 115.269C337.205 130.292 332.118 149.607 317.091 158.31C302.183 167.014 283.016 161.887 274.379 146.745L217.705 47.9049Z" fill="#0043FF"/>
</g>
<defs>
<clipPath id="clip0_18_299">
<rect width="402.988" height="296" fill="white"/>
</clipPath>
</defs>
</svg>
