<svg width="24" height="24" viewBox="0 0 24 24" fill="none" xmlns="http://www.w3.org/2000/svg">
<g id="Sign up/Variant4">
<path id="Vector (Stroke)" fill-rule="evenodd" clip-rule="evenodd" d="M20.0711 12.0009C20.0711 12.5532 19.6234 13.0009 19.0711 13.0009H4.92893C4.37665 13.0009 3.92893 12.5532 3.92893 12.0009C3.92893 11.4486 4.37665 11.0009 4.92893 11.0009H19.0711C19.6234 11.0009 20.0711 11.4486 20.0711 12.0009Z" fill="#262626"/>
<path id="Vector (Stroke)_2" fill-rule="evenodd" clip-rule="evenodd" d="M11.2929 4.22273C11.6834 3.83221 12.3166 3.83221 12.7071 4.22273L19.7782 11.2938C20.1687 11.6843 20.1687 12.3175 19.7782 12.708L12.7071 19.7791C12.3166 20.1696 11.6834 20.1696 11.2929 19.7791C10.9024 19.3886 10.9024 18.7554 11.2929 18.3649L17.6569 12.0009L11.2929 5.63695C10.9024 5.24642 10.9024 4.61326 11.2929 4.22273Z" fill="#262626"/>
</g>
</svg>
