<?xml version="1.0" encoding="UTF-8"?>
<svg id="Layer_1" data-name="Layer 1" xmlns="http://www.w3.org/2000/svg" xmlns:xlink="http://www.w3.org/1999/xlink" version="1.1" viewBox="0 0 1920 1080">
  <defs>
    <style>
      .cls-1 {
        fill: url(#linear-gradient);
      }

      .cls-1, .cls-2, .cls-3, .cls-4, .cls-5, .cls-6, .cls-7 {
        stroke-width: 0px;
      }

      .cls-2 {
        fill: #38ff9c;
      }

      .cls-3 {
        fill: url(#linear-gradient-4);
      }

      .cls-4 {
        fill: url(#linear-gradient-2);
      }

      .cls-5 {
        fill: url(#linear-gradient-3);
      }

      .cls-6 {
        fill: url(#linear-gradient-5);
      }

      .cls-7 {
        fill: #fff;
      }
    </style>
    <linearGradient id="linear-gradient" x1="156" y1="539.6" x2="679.7" y2="539.6" gradientTransform="translate(0 1079.6) scale(1 -1)" gradientUnits="userSpaceOnUse">
      <stop offset="0" stop-color="#38ff9c"/>
      <stop offset="1" stop-color="#171717"/>
    </linearGradient>
    <linearGradient id="linear-gradient-2" x1="240.5" y1="569.3" x2="437.5" y2="569.3" gradientTransform="translate(0 1079.6) scale(1 -1)" gradientUnits="userSpaceOnUse">
      <stop offset="0" stop-color="#38ff9c"/>
      <stop offset="1" stop-color="#171717"/>
    </linearGradient>
    <linearGradient id="linear-gradient-3" x1="302.6" y1="509.7" x2="498.6" y2="509.7" gradientTransform="translate(0 1079.6) scale(1 -1)" gradientUnits="userSpaceOnUse">
      <stop offset="0" stop-color="#38ff9c"/>
      <stop offset="1" stop-color="#171717"/>
    </linearGradient>
    <linearGradient id="linear-gradient-4" x1="240.6" y1="481.6" x2="389.1" y2="481.6" gradientTransform="translate(0 1079.6) scale(1 -1)" gradientUnits="userSpaceOnUse">
      <stop offset="0" stop-color="#38ff9c"/>
      <stop offset="1" stop-color="#171717"/>
    </linearGradient>
    <linearGradient id="linear-gradient-5" x1="357.4" y1="598.2" x2="494.5" y2="598.2" gradientTransform="translate(0 1079.6) scale(1 -1)" gradientUnits="userSpaceOnUse">
      <stop offset="0" stop-color="#38ff9c"/>
      <stop offset="1" stop-color="#171717"/>
    </linearGradient>
  </defs>
  <g>
    <path class="cls-1" d="M343.6,352.4c-103.6,0-187.6,84-187.6,187.6s84,187.6,187.6,187.6,187.6-84,187.6-187.6-84-187.6-187.6-187.6ZM343.6,694.4c-85.2,0-154.4-69.1-154.4-154.4s69.1-154.4,154.4-154.4,154.4,69.1,154.4,154.4-69.1,154.4-154.4,154.4Z"/>
    <path class="cls-4" d="M342.6,436.9c-56.8.6-102.8,47.6-102.1,104.3.2,14.5,3.3,28.3,8.9,40.8.8,1.9,3.3,2.3,4.7.8l22.7-23.5c1.5-1.5,2.1-3.7,1.7-5.8-.9-4.4-1.4-8.9-1.4-13.5,0-36.7,29.8-66.5,66.5-66.5s7.4.3,11,.9c2.4.4,4.9-.4,6.5-2.1l22.6-23.3c1.3-1.4.9-3.6-.9-4.4-12.4-5.1-26-7.9-40.3-7.7h0Z"/>
    <path class="cls-5" d="M344.6,643.3c56.8-.6,102.8-47.6,102.1-104.3-.2-14.5-3.3-28.3-8.9-40.8-.8-1.9-3.3-2.3-4.7-.8l-22.7,23.5c-1.5,1.5-2.1,3.7-1.7,5.8.9,4.4,1.4,8.9,1.4,13.5,0,36.7-29.8,66.5-66.5,66.5s-7.4-.3-11-.9c-2.4-.4-4.9.4-6.5,2.1l-22.6,23.3c-1.3,1.4-.9,3.7.9,4.4,12.4,5.1,26,7.9,40.3,7.7h0Z"/>
    <path class="cls-3" d="M247.2,603.7l43.3-43.3c8.8-8.8,23-8.8,31.8,0h0c8.8,8.8,8.8,23,0,31.8l-43.3,43.3c-8.8,8.8-23,8.8-31.8,0h0c-8.8-8.8-8.8-23,0-31.8Z"/>
    <path class="cls-6" d="M364,487.2l43.3-43.3c8.8-8.8,23-8.8,31.8,0h0c8.8,8.8,8.8,23,0,31.8l-43.3,43.3c-8.8,8.8-23,8.8-31.8,0h0c-8.8-8.8-8.8-23,0-31.8Z"/>
  </g>
  <g>
    <path class="cls-7" d="M650.9,637.9v-192.2h125v29.2h-90.2v52.2h83.7v29.2h-83.7v52.5h91v29.2h-125.8Z"/>
    <path class="cls-7" d="M882,493.7v26.3h-82.9v-26.3h82.9ZM819.6,459.2h34v135.3c0,4.6.7,8.1,2.1,10.5s3.3,4,5.6,4.9,4.9,1.3,7.7,1.3,4.1-.2,5.9-.5c1.8-.3,3.1-.6,4.1-.8l5.7,26.6c-1.8.6-4.4,1.3-7.7,2.1-3.3.8-7.4,1.2-12.2,1.3-8.5.2-16.2-1-23-3.9-6.8-2.8-12.2-7.3-16.2-13.3-4-6-5.9-13.5-5.9-22.5v-141h0Z"/>
    <path class="cls-7" d="M944.4,553.4v84.5h-34v-192.2h33.2v72.6h1.7c3.4-8.1,8.6-14.6,15.7-19.3,7.1-4.7,16.2-7.1,27.2-7.1s18.7,2.1,26.2,6.3,13.2,10.3,17.3,18.4c4.1,8.1,6.2,17.9,6.2,29.6v91.8h-34v-86.5c0-9.7-2.5-17.2-7.5-22.7-5-5.4-11.9-8.1-20.9-8.1s-11.4,1.3-16.1,3.9c-4.7,2.6-8.4,6.3-11.1,11.2-2.7,4.9-4,10.8-4,17.7h0Z"/>
    <path class="cls-7" d="M1136.2,640.7c-14.4,0-26.9-3-37.4-9.1s-18.5-14.6-24.2-25.7-8.4-24.2-8.4-39.3,2.8-27.9,8.5-39.1c5.7-11.2,13.6-20,23.8-26.3,10.2-6.3,22.2-9.4,35.9-9.4s17.3,1.4,25.2,4.3c7.9,2.9,14.9,7.2,21,13.2s10.9,13.5,14.4,22.7c3.5,9.2,5.3,20.1,5.3,32.7v10.4h-118.2v-22.9h85.6c0-6.5-1.5-12.3-4.2-17.4s-6.6-9.1-11.5-12.1-10.6-4.4-17.1-4.4-13.1,1.7-18.3,5c-5.3,3.3-9.3,7.7-12.2,13.1-2.9,5.4-4.4,11.3-4.5,17.8v20c0,8.4,1.5,15.6,4.6,21.5,3.1,6,7.3,10.5,12.9,13.7,5.5,3.2,11.9,4.7,19.3,4.7s9.4-.7,13.4-2.1,7.5-3.5,10.4-6.2c2.9-2.8,5.2-6.2,6.7-10.2l31.7,3.6c-2,8.4-5.8,15.7-11.4,21.9s-12.8,11-21.4,14.5c-8.7,3.4-18.7,5.1-29.8,5.1h0Z"/>
    <path class="cls-7" d="M1229.1,637.9v-144.2h32.9v24h1.5c2.6-8.3,7.2-14.8,13.6-19.3s13.8-6.8,22-6.8,4,0,6.3.2c2.3.2,4.3.4,5.9.7v31.2c-1.4-.5-3.7-1-6.8-1.4-3.1-.4-6.1-.6-9-.6-6.2,0-11.8,1.3-16.7,4s-8.8,6.3-11.6,11c-2.8,4.7-4.2,10.1-4.2,16.2v84.8h-34Z"/>
    <path class="cls-7" d="M1367.9,445.7v192.2h-34v-192.2h34Z"/>
    <path class="cls-7" d="M1419.9,473.3c-5.4,0-10-1.8-13.9-5.4s-5.8-8-5.8-13,1.9-9.4,5.8-13,8.5-5.4,13.9-5.4,10.1,1.8,13.9,5.4c3.8,3.6,5.8,8,5.8,13s-1.9,9.4-5.8,13-8.5,5.4-13.9,5.4ZM1402.8,637.9v-144.2h34v144.2h-34Z"/>
    <path class="cls-7" d="M1505.7,553.4v84.5h-34v-144.2h32.5v24.5h1.7c3.3-8.1,8.6-14.5,15.9-19.2,7.3-4.8,16.3-7.1,27.1-7.1s18.6,2.1,26.1,6.4c7.4,4.3,13.2,10.4,17.3,18.5,4.1,8.1,6.1,17.9,6.1,29.4v91.8h-34v-86.5c0-9.6-2.5-17.2-7.5-22.6s-11.8-8.2-20.6-8.2-11.2,1.3-15.8,3.9c-4.6,2.6-8.2,6.3-10.8,11.2-2.6,4.9-3.9,10.8-3.9,17.7h0Z"/>
    <path class="cls-7" d="M1632.8,637.9v-192.2h34v192.2h-34ZM1663.8,592.7v-41c0,0,5.3,0,5.3,0l51.8-57.9h39.7l-63.7,71h-7l-26.1,28h0ZM1723.3,637.9l-46.9-65.6,22.9-23.9,64.7,89.5h-40.6Z"/>
  </g>
  <g>
    <path class="cls-2" d="M1515.7,753.2v-87.3h33.4c6.3,0,11.6,1,15.7,3,4.2,2,7.3,4.7,9.4,8.1,2.1,3.4,3.1,7.3,3.1,11.6s-.7,6.6-2,9.1c-1.4,2.5-3.2,4.6-5.5,6.1-2.3,1.6-4.9,2.7-7.7,3.4v.9c3.1.2,6.1,1.1,8.9,2.8s5.2,4.1,7,7.3,2.7,6.9,2.7,11.3-1.1,8.6-3.3,12.2c-2.2,3.6-5.5,6.4-9.9,8.5-4.4,2.1-9.9,3.1-16.6,3.1h-35.3ZM1531.5,703.1h15.6c2.7,0,5.2-.5,7.4-1.5,2.2-1,3.9-2.4,5.2-4.3,1.3-1.9,1.9-4.1,1.9-6.6s-1.2-6.2-3.6-8.4c-2.4-2.2-5.9-3.3-10.5-3.3h-16v24.1ZM1531.5,740h17c5.7,0,9.9-1.1,12.4-3.3,2.5-2.2,3.8-5,3.8-8.5s-.6-4.9-1.9-7-3.1-3.7-5.5-4.9c-2.4-1.2-5.2-1.8-8.4-1.8h-17.4v25.6Z"/>
    <path class="cls-2" d="M1622.9,754.5c-6.6,0-12.2-1.4-17-4.1-4.8-2.7-8.4-6.6-11-11.7-2.6-5-3.8-11-3.8-17.8s1.3-12.6,3.9-17.7c2.6-5.1,6.2-9.1,10.8-11.9,4.6-2.9,10.1-4.3,16.3-4.3s7.8.6,11.4,1.9c3.6,1.3,6.8,3.3,9.5,6,2.8,2.7,5,6.1,6.5,10.3,1.6,4.2,2.4,9.1,2.4,14.9v4.7h-53.7v-10.4h38.9c0-3-.7-5.6-1.9-7.9-1.2-2.3-3-4.1-5.2-5.5-2.2-1.3-4.8-2-7.8-2s-5.9.8-8.3,2.3-4.2,3.5-5.6,6c-1.3,2.5-2,5.1-2,8.1v9.1c0,3.8.7,7.1,2.1,9.8,1.4,2.7,3.3,4.8,5.8,6.2s5.4,2.2,8.8,2.2,4.3-.3,6.1-1c1.8-.6,3.4-1.6,4.7-2.8,1.3-1.2,2.3-2.8,3-4.6l14.4,1.6c-.9,3.8-2.6,7.1-5.2,10-2.5,2.8-5.8,5-9.7,6.6-3.9,1.5-8.5,2.3-13.6,2.3Z"/>
    <path class="cls-2" d="M1697.7,687.8v11.9h-37.6v-11.9h37.6ZM1669.4,672.1h15.4v61.4c0,2.1.3,3.7,1,4.8.6,1.1,1.5,1.8,2.5,2.2,1.1.4,2.2.6,3.5.6s1.9,0,2.7-.2c.8-.1,1.4-.3,1.9-.4l2.6,12.1c-.8.3-2,.6-3.5.9-1.5.3-3.4.5-5.6.6-3.9.1-7.3-.5-10.4-1.8-3.1-1.3-5.5-3.3-7.4-6-1.8-2.7-2.7-6.1-2.7-10.2v-64Z"/>
    <path class="cls-2" d="M1729.5,754.6c-4.1,0-7.9-.7-11.2-2.2s-5.9-3.7-7.8-6.6c-1.9-2.9-2.9-6.5-2.9-10.8s.7-6.7,2-9.2c1.4-2.4,3.2-4.3,5.6-5.8,2.4-1.4,5-2.5,8-3.3s6-1.3,9.2-1.6c3.8-.4,6.9-.8,9.3-1.1,2.4-.3,4.1-.8,5.2-1.5s1.6-1.8,1.6-3.3v-.3c0-3.2-1-5.7-2.9-7.5-1.9-1.8-4.6-2.6-8.2-2.6s-6.8.8-9,2.5c-2.2,1.6-3.7,3.6-4.5,5.8l-14.4-2c1.1-4,3-7.3,5.6-10s5.8-4.7,9.6-6.1c3.8-1.3,8-2,12.5-2s6.3.4,9.4,1.1c3.1.7,6,2,8.6,3.6,2.6,1.7,4.7,4,6.2,6.9,1.6,2.9,2.4,6.5,2.4,10.9v43.8h-14.8v-9h-.5c-.9,1.8-2.3,3.5-3.9,5.1-1.7,1.6-3.8,2.8-6.3,3.8-2.5,1-5.5,1.4-8.9,1.4ZM1733.5,743.2c3.1,0,5.8-.6,8.1-1.9,2.3-1.2,4-2.9,5.3-4.9,1.2-2,1.9-4.3,1.9-6.7v-7.7c-.5.4-1.3.8-2.5,1.1s-2.4.6-3.9.9c-1.4.3-2.8.5-4.2.7-1.4.2-2.6.4-3.6.5-2.3.3-4.4.8-6.2,1.5s-3.3,1.7-4.3,3c-1.1,1.3-1.6,2.9-1.6,4.9,0,2.8,1,5,3.1,6.4,2.1,1.4,4.7,2.2,7.9,2.2Z"/>
  </g>
</svg>