<svg width="20" height="20" viewBox="0 0 20 20" fill="none" xmlns="http://www.w3.org/2000/svg">
<path id="Vector" d="M15.9464 6.03571L15.9464 14.0304C14.8232 14.2946 13.9643 15.3518 13.9643 16.6071C13.9643 18.0607 15.1536 19.25 16.6071 19.25C18.0607 19.25 19.25 18.0607 19.25 16.6071C19.25 15.3518 18.3911 14.3607 17.2679 14.0304L17.2679 6.03571C17.2679 3.85536 15.4839 2.07143 13.3036 2.07143C11.1232 2.07143 9.33929 3.85536 9.33929 6.03571L9.33929 13.9643C9.33929 15.4179 8.15 16.6071 6.69643 16.6071C5.24286 16.6071 4.05357 15.4179 4.05357 13.9643L4.05357 5.96964C5.17679 5.70536 6.03571 4.64821 6.03571 3.39286C6.03572 1.93929 4.84643 0.749999 3.39286 0.749999C1.93929 0.749999 0.75 1.93928 0.75 3.39286C0.75 4.64821 1.60893 5.63928 2.73214 5.96964L2.73214 13.9643C2.73214 16.1446 4.51607 17.9286 6.69643 17.9286C8.87679 17.9286 10.6607 16.1446 10.6607 13.9643L10.6607 6.03571C10.6607 4.58214 11.85 3.39286 13.3036 3.39286C14.7571 3.39286 15.9464 4.58214 15.9464 6.03571Z" fill="#38FF9C"/>
</svg>
