<svg width="194" height="158" viewBox="0 0 194 158" fill="none" xmlns="http://www.w3.org/2000/svg">
<g id="Group 115">
<ellipse id="Ellipse 2" cx="97" cy="89" rx="73" ry="55" fill="#2A9660"/>
<g id="Subtract" filter="url(#filter0_d_444_20)">
<path fill-rule="evenodd" clip-rule="evenodd" d="M170 70.9647C170 101.321 137.317 125.929 97 125.929C56.6832 125.929 24 101.321 24 70.9647C24 40.6085 56.6832 16 97 16C137.317 16 170 40.6085 170 70.9647ZM84.4571 56.7483H116.938C117.405 56.7481 117.872 56.7704 118.335 56.8148C118.178 55.9878 117.799 55.1931 117.221 54.4788C116.644 53.7645 115.879 53.1453 114.974 52.6585C114.069 52.1718 113.041 51.8276 111.954 51.6468C110.866 51.4659 109.741 51.452 108.646 51.6061L76.9087 55.6699C76.5327 55.7141 76.1534 55.7624 75.7736 55.8153L75.75 55.8183H75.7125C75.4717 55.8528 75.234 55.8952 75.0001 55.9453C70.363 56.878 69 60.0634 69 62V64.2557C68.9589 64.5007 68.9379 64.7487 68.9375 64.9983V82.9983C68.9398 84.5891 69.7834 86.1142 71.2832 87.239C72.783 88.3638 74.8165 88.9965 76.9375 88.9983H116.938C119.059 88.9965 121.092 88.3638 122.592 87.239C124.092 86.1142 124.935 84.5891 124.938 82.9983V64.9983C124.935 63.4075 124.092 61.8824 122.592 60.7576C121.092 59.6327 119.059 59 116.938 58.9983H84.8916C82.8728 58.9337 82.6823 57.0643 84.4571 56.7483ZM111 76.9983C110.209 76.9983 109.436 76.8223 108.778 76.4927C108.12 76.163 107.607 75.6945 107.304 75.1463C107.002 74.5982 106.923 73.995 107.077 73.413C107.231 72.8311 107.612 72.2965 108.172 71.877C108.731 71.4574 109.444 71.1717 110.22 71.0559C110.996 70.9402 111.8 70.9996 112.531 71.2266C113.262 71.4537 113.886 71.8382 114.326 72.3316C114.765 72.8249 115 73.4049 115 73.9983C115 74.7939 114.579 75.557 113.828 76.1196C113.078 76.6822 112.061 76.9983 111 76.9983Z" fill="#38FF9C"/>
</g>
</g>
<defs>
<filter id="filter0_d_444_20" x="0" y="0" width="194" height="157.93" filterUnits="userSpaceOnUse" color-interpolation-filters="sRGB">
<feFlood flood-opacity="0" result="BackgroundImageFix"/>
<feColorMatrix in="SourceAlpha" type="matrix" values="0 0 0 0 0 0 0 0 0 0 0 0 0 0 0 0 0 0 127 0" result="hardAlpha"/>
<feOffset dy="8"/>
<feGaussianBlur stdDeviation="12"/>
<feComposite in2="hardAlpha" operator="out"/>
<feColorMatrix type="matrix" values="0 0 0 0 0.14902 0 0 0 0 0.14902 0 0 0 0 0.14902 0 0 0 0.25 0"/>
<feBlend mode="normal" in2="BackgroundImageFix" result="effect1_dropShadow_444_20"/>
<feBlend mode="normal" in="SourceGraphic" in2="effect1_dropShadow_444_20" result="shape"/>
</filter>
</defs>
</svg>
