<svg width="588" height="311" viewBox="0 0 588 311" fill="none" xmlns="http://www.w3.org/2000/svg">
<path d="M1.00001 24.75H587C587.552 24.75 588 25.1977 588 25.75C588 26.3023 587.552 26.75 587 26.75H1C0.447715 26.75 0 26.3023 0 25.75C0 25.1977 0.447726 24.75 1.00001 24.75Z" fill="url(#paint0_linear_220_28407)" fill-opacity="0.04"/>
<path d="M1.00001 50.75H587C587.552 50.75 588 51.1977 588 51.75C588 52.3023 587.552 52.75 587 52.75H1C0.447715 52.75 0 52.3023 0 51.75C0 51.1977 0.447726 50.75 1.00001 50.75Z" fill="url(#paint1_linear_220_28407)" fill-opacity="0.04"/>
<path d="M1.00001 76.75H587C587.552 76.75 588 77.1977 588 77.75C588 78.3023 587.552 78.75 587 78.75H1C0.447715 78.75 0 78.3023 0 77.75C0 77.1977 0.447726 76.75 1.00001 76.75Z" fill="url(#paint2_linear_220_28407)" fill-opacity="0.04"/>
<path d="M1.00001 102.75H587C587.552 102.75 588 103.198 588 103.75C588 104.302 587.552 104.75 587 104.75H1C0.447715 104.75 0 104.302 0 103.75C0 103.198 0.447726 102.75 1.00001 102.75Z" fill="url(#paint3_linear_220_28407)" fill-opacity="0.04"/>
<path d="M1.00001 128.75H587C587.552 128.75 588 129.198 588 129.75C588 130.302 587.552 130.75 587 130.75H1C0.447715 130.75 0 130.302 0 129.75C0 129.198 0.447726 128.75 1.00001 128.75Z" fill="url(#paint4_linear_220_28407)" fill-opacity="0.04"/>
<path d="M1.00001 154.75H587C587.552 154.75 588 155.198 588 155.75C588 156.302 587.552 156.75 587 156.75H1C0.447715 156.75 0 156.302 0 155.75C0 155.198 0.447726 154.75 1.00001 154.75Z" fill="url(#paint5_linear_220_28407)" fill-opacity="0.04"/>
<path d="M1.00001 180.75H587C587.552 180.75 588 181.198 588 181.75C588 182.302 587.552 182.75 587 182.75H1C0.447715 182.75 0 182.302 0 181.75C0 181.198 0.447726 180.75 1.00001 180.75Z" fill="url(#paint6_linear_220_28407)" fill-opacity="0.04"/>
<path d="M1.00001 206.75H587C587.552 206.75 588 207.198 588 207.75C588 208.302 587.552 208.75 587 208.75H1C0.447715 208.75 0 208.302 0 207.75C0 207.198 0.447726 206.75 1.00001 206.75Z" fill="url(#paint7_linear_220_28407)" fill-opacity="0.04"/>
<path d="M1.00001 232.75H587C587.552 232.75 588 233.198 588 233.75C588 234.302 587.552 234.75 587 234.75H1C0.447715 234.75 0 234.302 0 233.75C0 233.198 0.447726 232.75 1.00001 232.75Z" fill="url(#paint8_linear_220_28407)" fill-opacity="0.04"/>
<path d="M1.00001 258.75H587C587.552 258.75 588 259.198 588 259.75C588 260.302 587.552 260.75 587 260.75H1C0.447715 260.75 0 260.302 0 259.75C0 259.198 0.447726 258.75 1.00001 258.75Z" fill="url(#paint9_linear_220_28407)" fill-opacity="0.04"/>
<path d="M1.00001 284.75H587C587.552 284.75 588 285.198 588 285.75C588 286.302 587.552 286.75 587 286.75H1C0.447715 286.75 0 286.302 0 285.75C0 285.198 0.447726 284.75 1.00001 284.75Z" fill="url(#paint10_linear_220_28407)" fill-opacity="0.04"/>
<path d="M236 3.74999L236 309.75C236 310.302 235.552 310.75 235 310.75C234.448 310.75 234 310.302 234 309.75L234 3.74999C234 3.19771 234.448 2.75 235 2.75C235.552 2.75 236 3.19771 236 3.74999Z" fill="url(#paint11_linear_220_28407)" fill-opacity="0.04"/>
<path d="M262 3.74999L262 309.75C262 310.302 261.552 310.75 261 310.75C260.448 310.75 260 310.302 260 309.75L260 3.74999C260 3.19771 260.448 2.75 261 2.75C261.552 2.75 262 3.19771 262 3.74999Z" fill="url(#paint12_linear_220_28407)" fill-opacity="0.04"/>
<path d="M288 3.75L288 308.75C288 309.302 287.552 309.75 287 309.75C286.448 309.75 286 309.302 286 308.75L286 3.74999C286 3.19771 286.448 2.75 287 2.75C287.552 2.75 288 3.19772 288 3.75Z" fill="url(#paint13_linear_220_28407)" fill-opacity="0.04"/>
<path d="M314 3.75L314 308.75C314 309.302 313.552 309.75 313 309.75C312.448 309.75 312 309.302 312 308.75L312 3.74999C312 3.19771 312.448 2.75 313 2.75C313.552 2.75 314 3.19772 314 3.75Z" fill="url(#paint14_linear_220_28407)" fill-opacity="0.04"/>
<path d="M340 2.75L340 307.75C340 308.302 339.552 308.75 339 308.75C338.448 308.75 338 308.302 338 307.75L338 2.74999C338 2.19771 338.448 1.75 339 1.75C339.552 1.75 340 2.19772 340 2.75Z" fill="url(#paint15_linear_220_28407)" fill-opacity="0.04"/>
<path d="M366 2.75L366 307.75C366 308.302 365.552 308.75 365 308.75C364.448 308.75 364 308.302 364 307.75L364 2.74999C364 2.19771 364.448 1.75 365 1.75C365.552 1.75 366 2.19772 366 2.75Z" fill="url(#paint16_linear_220_28407)" fill-opacity="0.04"/>
<path d="M392 1.74999L392 307.75C392 308.302 391.552 308.75 391 308.75C390.448 308.75 390 308.302 390 307.75L390 1.74999C390 1.19771 390.448 0.75 391 0.75C391.552 0.75 392 1.19771 392 1.74999Z" fill="url(#paint17_linear_220_28407)" fill-opacity="0.04"/>
<path d="M418 1.74999L418 307.75C418 308.302 417.552 308.75 417 308.75C416.448 308.75 416 308.302 416 307.75L416 1.74999C416 1.19771 416.448 0.75 417 0.75C417.552 0.75 418 1.19771 418 1.74999Z" fill="url(#paint18_linear_220_28407)" fill-opacity="0.04"/>
<path d="M444 1.74999L444 307.75C444 308.302 443.552 308.75 443 308.75C442.448 308.75 442 308.302 442 307.75L442 1.74999C442 1.19771 442.448 0.75 443 0.75C443.552 0.75 444 1.19771 444 1.74999Z" fill="url(#paint19_linear_220_28407)" fill-opacity="0.04"/>
<path d="M470 1.74999L470 307.75C470 308.302 469.552 308.75 469 308.75C468.448 308.75 468 308.302 468 307.75L468 1.74999C468 1.19771 468.448 0.75 469 0.75C469.552 0.75 470 1.19771 470 1.74999Z" fill="url(#paint20_linear_220_28407)" fill-opacity="0.04"/>
<path d="M496 1.74999L496 307.75C496 308.302 495.552 308.75 495 308.75C494.448 308.75 494 308.302 494 307.75L494 1.74999C494 1.19771 494.448 0.75 495 0.75C495.552 0.75 496 1.19771 496 1.74999Z" fill="url(#paint21_linear_220_28407)" fill-opacity="0.04"/>
<path d="M522 1.74999L522 307.75C522 308.302 521.552 308.75 521 308.75C520.448 308.75 520 308.302 520 307.75L520 1.74999C520 1.19771 520.448 0.75 521 0.75C521.552 0.75 522 1.19771 522 1.74999Z" fill="url(#paint22_linear_220_28407)" fill-opacity="0.04"/>
<path d="M548 1.74999L548 307.75C548 308.302 547.552 308.75 547 308.75C546.448 308.75 546 308.302 546 307.75L546 1.74999C546 1.19771 546.448 0.75 547 0.75C547.552 0.75 548 1.19771 548 1.74999Z" fill="url(#paint23_linear_220_28407)" fill-opacity="0.04"/>
<path d="M210 3.74999L210 309.75C210 310.302 209.552 310.75 209 310.75C208.448 310.75 208 310.302 208 309.75L208 3.74999C208 3.19771 208.448 2.75 209 2.75C209.552 2.75 210 3.19771 210 3.74999Z" fill="url(#paint24_linear_220_28407)" fill-opacity="0.04"/>
<path d="M184 3.74999L184 309.75C184 310.302 183.552 310.75 183 310.75C182.448 310.75 182 310.302 182 309.75L182 3.74999C182 3.19771 182.448 2.75 183 2.75C183.552 2.75 184 3.19771 184 3.74999Z" fill="url(#paint25_linear_220_28407)" fill-opacity="0.04"/>
<path d="M158 3.74999L158 309.75C158 310.302 157.552 310.75 157 310.75C156.448 310.75 156 310.302 156 309.75L156 3.74999C156 3.19771 156.448 2.75 157 2.75C157.552 2.75 158 3.19771 158 3.74999Z" fill="url(#paint26_linear_220_28407)" fill-opacity="0.04"/>
<path d="M132 3.74999L132 309.75C132 310.302 131.552 310.75 131 310.75C130.448 310.75 130 310.302 130 309.75L130 3.74999C130 3.19771 130.448 2.75 131 2.75C131.552 2.75 132 3.19771 132 3.74999Z" fill="url(#paint27_linear_220_28407)" fill-opacity="0.04"/>
<path d="M106 3.74999L106 309.75C106 310.302 105.552 310.75 105 310.75C104.448 310.75 104 310.302 104 309.75L104 3.74999C104 3.19771 104.448 2.75 105 2.75C105.552 2.75 106 3.19771 106 3.74999Z" fill="url(#paint28_linear_220_28407)" fill-opacity="0.04"/>
<path d="M80 3.74999L80 309.75C80 310.302 79.5523 310.75 79 310.75C78.4477 310.75 78 310.302 78 309.75L78 3.74999C78 3.19771 78.4477 2.75 79 2.75C79.5523 2.75 80 3.19771 80 3.74999Z" fill="url(#paint29_linear_220_28407)" fill-opacity="0.04"/>
<path d="M54 3.74999L54 309.75C54 310.302 53.5523 310.75 53 310.75C52.4477 310.75 52 310.302 52 309.75L52 3.74999C52 3.19771 52.4477 2.75 53 2.75C53.5523 2.75 54 3.19771 54 3.74999Z" fill="url(#paint30_linear_220_28407)" fill-opacity="0.04"/>
<path d="M28 3.74999L28 309.75C28 310.302 27.5523 310.75 27 310.75C26.4477 310.75 26 310.302 26 309.75L26 3.74999C26 3.19771 26.4477 2.75 27 2.75C27.5523 2.75 28 3.19771 28 3.74999Z" fill="url(#paint31_linear_220_28407)" fill-opacity="0.04"/>
<defs>
<linearGradient id="paint0_linear_220_28407" x1="0" y1="25.75" x2="588" y2="25.75" gradientUnits="userSpaceOnUse">
<stop stop-color="#38FF9C" stop-opacity="0"/>
<stop offset="0.108435" stop-color="#38FF9C"/>
<stop offset="0.88" stop-color="#38FF9C"/>
<stop offset="1" stop-color="#38FF9C" stop-opacity="0"/>
</linearGradient>
<linearGradient id="paint1_linear_220_28407" x1="0" y1="51.75" x2="588" y2="51.75" gradientUnits="userSpaceOnUse">
<stop stop-color="#38FF9C" stop-opacity="0"/>
<stop offset="0.108435" stop-color="#38FF9C"/>
<stop offset="0.88" stop-color="#38FF9C"/>
<stop offset="1" stop-color="#38FF9C" stop-opacity="0"/>
</linearGradient>
<linearGradient id="paint2_linear_220_28407" x1="0" y1="77.75" x2="588" y2="77.75" gradientUnits="userSpaceOnUse">
<stop stop-color="#38FF9C" stop-opacity="0"/>
<stop offset="0.108435" stop-color="#38FF9C"/>
<stop offset="0.88" stop-color="#38FF9C"/>
<stop offset="1" stop-color="#38FF9C" stop-opacity="0"/>
</linearGradient>
<linearGradient id="paint3_linear_220_28407" x1="0" y1="103.75" x2="588" y2="103.75" gradientUnits="userSpaceOnUse">
<stop stop-color="#38FF9C" stop-opacity="0"/>
<stop offset="0.108435" stop-color="#38FF9C"/>
<stop offset="0.88" stop-color="#38FF9C"/>
<stop offset="1" stop-color="#38FF9C" stop-opacity="0"/>
</linearGradient>
<linearGradient id="paint4_linear_220_28407" x1="0" y1="129.75" x2="588" y2="129.75" gradientUnits="userSpaceOnUse">
<stop stop-color="#38FF9C" stop-opacity="0"/>
<stop offset="0.108435" stop-color="#38FF9C"/>
<stop offset="0.88" stop-color="#38FF9C"/>
<stop offset="1" stop-color="#38FF9C" stop-opacity="0"/>
</linearGradient>
<linearGradient id="paint5_linear_220_28407" x1="0" y1="155.75" x2="588" y2="155.75" gradientUnits="userSpaceOnUse">
<stop stop-color="#38FF9C" stop-opacity="0"/>
<stop offset="0.108435" stop-color="#38FF9C"/>
<stop offset="0.88" stop-color="#38FF9C"/>
<stop offset="1" stop-color="#38FF9C" stop-opacity="0"/>
</linearGradient>
<linearGradient id="paint6_linear_220_28407" x1="0" y1="181.75" x2="588" y2="181.75" gradientUnits="userSpaceOnUse">
<stop stop-color="#38FF9C" stop-opacity="0"/>
<stop offset="0.108435" stop-color="#38FF9C"/>
<stop offset="0.88" stop-color="#38FF9C"/>
<stop offset="1" stop-color="#38FF9C" stop-opacity="0"/>
</linearGradient>
<linearGradient id="paint7_linear_220_28407" x1="0" y1="207.75" x2="588" y2="207.75" gradientUnits="userSpaceOnUse">
<stop stop-color="#38FF9C" stop-opacity="0"/>
<stop offset="0.108435" stop-color="#38FF9C"/>
<stop offset="0.88" stop-color="#38FF9C"/>
<stop offset="1" stop-color="#38FF9C" stop-opacity="0"/>
</linearGradient>
<linearGradient id="paint8_linear_220_28407" x1="0" y1="233.75" x2="588" y2="233.75" gradientUnits="userSpaceOnUse">
<stop stop-color="#38FF9C" stop-opacity="0"/>
<stop offset="0.108435" stop-color="#38FF9C"/>
<stop offset="0.88" stop-color="#38FF9C"/>
<stop offset="1" stop-color="#38FF9C" stop-opacity="0"/>
</linearGradient>
<linearGradient id="paint9_linear_220_28407" x1="0" y1="259.75" x2="588" y2="259.75" gradientUnits="userSpaceOnUse">
<stop stop-color="#38FF9C" stop-opacity="0"/>
<stop offset="0.108435" stop-color="#38FF9C"/>
<stop offset="0.88" stop-color="#38FF9C"/>
<stop offset="1" stop-color="#38FF9C" stop-opacity="0"/>
</linearGradient>
<linearGradient id="paint10_linear_220_28407" x1="0" y1="285.75" x2="588" y2="285.75" gradientUnits="userSpaceOnUse">
<stop stop-color="#38FF9C" stop-opacity="0"/>
<stop offset="0.108435" stop-color="#38FF9C"/>
<stop offset="0.88" stop-color="#38FF9C"/>
<stop offset="1" stop-color="#38FF9C" stop-opacity="0"/>
</linearGradient>
<linearGradient id="paint11_linear_220_28407" x1="235" y1="2.75" x2="235" y2="310.75" gradientUnits="userSpaceOnUse">
<stop stop-color="#38FF9C" stop-opacity="0"/>
<stop offset="0.108435" stop-color="#38FF9C"/>
<stop offset="0.88" stop-color="#38FF9C"/>
<stop offset="1" stop-color="#38FF9C" stop-opacity="0"/>
</linearGradient>
<linearGradient id="paint12_linear_220_28407" x1="261" y1="2.75" x2="261" y2="310.75" gradientUnits="userSpaceOnUse">
<stop stop-color="#38FF9C" stop-opacity="0"/>
<stop offset="0.108435" stop-color="#38FF9C"/>
<stop offset="0.88" stop-color="#38FF9C"/>
<stop offset="1" stop-color="#38FF9C" stop-opacity="0"/>
</linearGradient>
<linearGradient id="paint13_linear_220_28407" x1="287" y1="2.75" x2="287" y2="309.75" gradientUnits="userSpaceOnUse">
<stop stop-color="#38FF9C" stop-opacity="0"/>
<stop offset="0.108435" stop-color="#38FF9C"/>
<stop offset="0.88" stop-color="#38FF9C"/>
<stop offset="1" stop-color="#38FF9C" stop-opacity="0"/>
</linearGradient>
<linearGradient id="paint14_linear_220_28407" x1="313" y1="2.75" x2="313" y2="309.75" gradientUnits="userSpaceOnUse">
<stop stop-color="#38FF9C" stop-opacity="0"/>
<stop offset="0.108435" stop-color="#38FF9C"/>
<stop offset="0.88" stop-color="#38FF9C"/>
<stop offset="1" stop-color="#38FF9C" stop-opacity="0"/>
</linearGradient>
<linearGradient id="paint15_linear_220_28407" x1="339" y1="1.75" x2="339" y2="308.75" gradientUnits="userSpaceOnUse">
<stop stop-color="#38FF9C" stop-opacity="0"/>
<stop offset="0.108435" stop-color="#38FF9C"/>
<stop offset="0.88" stop-color="#38FF9C"/>
<stop offset="1" stop-color="#38FF9C" stop-opacity="0"/>
</linearGradient>
<linearGradient id="paint16_linear_220_28407" x1="365" y1="1.75" x2="365" y2="308.75" gradientUnits="userSpaceOnUse">
<stop stop-color="#38FF9C" stop-opacity="0"/>
<stop offset="0.108435" stop-color="#38FF9C"/>
<stop offset="0.88" stop-color="#38FF9C"/>
<stop offset="1" stop-color="#38FF9C" stop-opacity="0"/>
</linearGradient>
<linearGradient id="paint17_linear_220_28407" x1="391" y1="0.75" x2="391" y2="308.75" gradientUnits="userSpaceOnUse">
<stop stop-color="#38FF9C" stop-opacity="0"/>
<stop offset="0.108435" stop-color="#38FF9C"/>
<stop offset="0.88" stop-color="#38FF9C"/>
<stop offset="1" stop-color="#38FF9C" stop-opacity="0"/>
</linearGradient>
<linearGradient id="paint18_linear_220_28407" x1="417" y1="0.75" x2="417" y2="308.75" gradientUnits="userSpaceOnUse">
<stop stop-color="#38FF9C" stop-opacity="0"/>
<stop offset="0.108435" stop-color="#38FF9C"/>
<stop offset="0.88" stop-color="#38FF9C"/>
<stop offset="1" stop-color="#38FF9C" stop-opacity="0"/>
</linearGradient>
<linearGradient id="paint19_linear_220_28407" x1="443" y1="0.75" x2="443" y2="308.75" gradientUnits="userSpaceOnUse">
<stop stop-color="#38FF9C" stop-opacity="0"/>
<stop offset="0.108435" stop-color="#38FF9C"/>
<stop offset="0.88" stop-color="#38FF9C"/>
<stop offset="1" stop-color="#38FF9C" stop-opacity="0"/>
</linearGradient>
<linearGradient id="paint20_linear_220_28407" x1="469" y1="0.75" x2="469" y2="308.75" gradientUnits="userSpaceOnUse">
<stop stop-color="#38FF9C" stop-opacity="0"/>
<stop offset="0.108435" stop-color="#38FF9C"/>
<stop offset="0.88" stop-color="#38FF9C"/>
<stop offset="1" stop-color="#38FF9C" stop-opacity="0"/>
</linearGradient>
<linearGradient id="paint21_linear_220_28407" x1="495" y1="0.75" x2="495" y2="308.75" gradientUnits="userSpaceOnUse">
<stop stop-color="#38FF9C" stop-opacity="0"/>
<stop offset="0.108435" stop-color="#38FF9C"/>
<stop offset="0.88" stop-color="#38FF9C"/>
<stop offset="1" stop-color="#38FF9C" stop-opacity="0"/>
</linearGradient>
<linearGradient id="paint22_linear_220_28407" x1="521" y1="0.75" x2="521" y2="308.75" gradientUnits="userSpaceOnUse">
<stop stop-color="#38FF9C" stop-opacity="0"/>
<stop offset="0.108435" stop-color="#38FF9C"/>
<stop offset="0.88" stop-color="#38FF9C"/>
<stop offset="1" stop-color="#38FF9C" stop-opacity="0"/>
</linearGradient>
<linearGradient id="paint23_linear_220_28407" x1="547" y1="0.75" x2="547" y2="308.75" gradientUnits="userSpaceOnUse">
<stop stop-color="#38FF9C" stop-opacity="0"/>
<stop offset="0.108435" stop-color="#38FF9C"/>
<stop offset="0.88" stop-color="#38FF9C"/>
<stop offset="1" stop-color="#38FF9C" stop-opacity="0"/>
</linearGradient>
<linearGradient id="paint24_linear_220_28407" x1="209" y1="2.75" x2="209" y2="310.75" gradientUnits="userSpaceOnUse">
<stop stop-color="#38FF9C" stop-opacity="0"/>
<stop offset="0.108435" stop-color="#38FF9C"/>
<stop offset="0.88" stop-color="#38FF9C"/>
<stop offset="1" stop-color="#38FF9C" stop-opacity="0"/>
</linearGradient>
<linearGradient id="paint25_linear_220_28407" x1="183" y1="2.75" x2="183" y2="310.75" gradientUnits="userSpaceOnUse">
<stop stop-color="#38FF9C" stop-opacity="0"/>
<stop offset="0.108435" stop-color="#38FF9C"/>
<stop offset="0.88" stop-color="#38FF9C"/>
<stop offset="1" stop-color="#38FF9C" stop-opacity="0"/>
</linearGradient>
<linearGradient id="paint26_linear_220_28407" x1="157" y1="2.75" x2="157" y2="310.75" gradientUnits="userSpaceOnUse">
<stop stop-color="#38FF9C" stop-opacity="0"/>
<stop offset="0.108435" stop-color="#38FF9C"/>
<stop offset="0.88" stop-color="#38FF9C"/>
<stop offset="1" stop-color="#38FF9C" stop-opacity="0"/>
</linearGradient>
<linearGradient id="paint27_linear_220_28407" x1="131" y1="2.75" x2="131" y2="310.75" gradientUnits="userSpaceOnUse">
<stop stop-color="#38FF9C" stop-opacity="0"/>
<stop offset="0.108435" stop-color="#38FF9C"/>
<stop offset="0.88" stop-color="#38FF9C"/>
<stop offset="1" stop-color="#38FF9C" stop-opacity="0"/>
</linearGradient>
<linearGradient id="paint28_linear_220_28407" x1="105" y1="2.75" x2="105" y2="310.75" gradientUnits="userSpaceOnUse">
<stop stop-color="#38FF9C" stop-opacity="0"/>
<stop offset="0.108435" stop-color="#38FF9C"/>
<stop offset="0.88" stop-color="#38FF9C"/>
<stop offset="1" stop-color="#38FF9C" stop-opacity="0"/>
</linearGradient>
<linearGradient id="paint29_linear_220_28407" x1="79" y1="2.75" x2="79" y2="310.75" gradientUnits="userSpaceOnUse">
<stop stop-color="#38FF9C" stop-opacity="0"/>
<stop offset="0.108435" stop-color="#38FF9C"/>
<stop offset="0.88" stop-color="#38FF9C"/>
<stop offset="1" stop-color="#38FF9C" stop-opacity="0"/>
</linearGradient>
<linearGradient id="paint30_linear_220_28407" x1="53" y1="2.75" x2="53" y2="310.75" gradientUnits="userSpaceOnUse">
<stop stop-color="#38FF9C" stop-opacity="0"/>
<stop offset="0.108435" stop-color="#38FF9C"/>
<stop offset="0.88" stop-color="#38FF9C"/>
<stop offset="1" stop-color="#38FF9C" stop-opacity="0"/>
</linearGradient>
<linearGradient id="paint31_linear_220_28407" x1="27" y1="2.75" x2="27" y2="310.75" gradientUnits="userSpaceOnUse">
<stop stop-color="#38FF9C" stop-opacity="0"/>
<stop offset="0.108435" stop-color="#38FF9C"/>
<stop offset="0.88" stop-color="#38FF9C"/>
<stop offset="1" stop-color="#38FF9C" stop-opacity="0"/>
</linearGradient>
</defs>
</svg>
