<svg width="20" height="18" viewBox="0 0 20 18" fill="none" xmlns="http://www.w3.org/2000/svg">
<path id="Vector" fill-rule="evenodd" clip-rule="evenodd" d="M1.8065 2.20757C2.70663 1.30771 3.92731 0.802196 5.2001 0.802196C6.47289 0.802196 7.69357 1.30771 8.5937 2.20757L10.0001 3.61277L11.4065 2.20757C11.8493 1.74912 12.3789 1.38345 12.9646 1.13188C13.5502 0.880321 14.18 0.747907 14.8174 0.742369C15.4547 0.73683 16.0868 0.858279 16.6767 1.09963C17.2666 1.34098 17.8025 1.69739 18.2532 2.14807C18.7039 2.59876 19.0603 3.13469 19.3016 3.72459C19.543 4.31449 19.6644 4.94656 19.6589 5.5839C19.6534 6.22124 19.5209 6.85109 19.2694 7.43671C19.0178 8.02233 18.6521 8.55199 18.1937 8.99477L10.0001 17.1896L1.8065 8.99477C0.906637 8.09464 0.401123 6.87396 0.401123 5.60117C0.401123 4.32838 0.906637 3.1077 1.8065 2.20757Z" fill="#38FF9C"/>
</svg>
