<svg width="24" height="18" viewBox="0 0 24 18" fill="none" xmlns="http://www.w3.org/2000/svg">
<path id="Vector" d="M15.7499 9C14.7862 9 13.8543 8.56969 13.1249 7.78875C12.4157 7.02703 11.9826 6.01125 11.9062 4.92938C11.8246 3.77531 12.1767 2.71406 12.8971 1.94063C13.6176 1.16719 14.6249 0.75 15.7499 0.75C16.867 0.75 17.8771 1.17469 18.5953 1.94625C19.3204 2.72531 19.6734 3.78469 19.5918 4.92891C19.5135 6.01219 19.0809 7.0275 18.3731 7.78828C17.6456 8.56969 16.7142 9 15.7499 9ZM21.9295 17.25H9.57088C9.37219 17.2511 9.17589 17.2065 8.99711 17.1198C8.81833 17.0331 8.66182 16.9065 8.53963 16.7498C8.41003 16.58 8.32052 16.383 8.27782 16.1736C8.23513 15.9643 8.24034 15.748 8.29307 15.5409C8.68776 13.9561 9.66557 12.6417 11.1206 11.7403C12.412 10.9406 14.0559 10.5 15.7499 10.5C17.4773 10.5 19.0781 10.9219 20.377 11.7211C21.8353 12.6178 22.8145 13.9397 23.2073 15.5438C23.2594 15.751 23.264 15.9673 23.2208 16.1765C23.1777 16.3857 23.0878 16.5825 22.9579 16.7522C22.8359 16.9082 22.6797 17.0341 22.5014 17.1204C22.3232 17.2067 22.1275 17.251 21.9295 17.25ZM6.89057 9.1875C5.24104 9.1875 3.79073 7.65375 3.6562 5.76891C3.58963 4.80328 3.89057 3.91031 4.49995 3.25547C5.10276 2.60719 5.95307 2.25 6.89057 2.25C7.82807 2.25 8.67182 2.60906 9.27792 3.26109C9.89198 3.92109 10.192 4.81219 10.1217 5.76984C9.98713 7.65422 8.53729 9.1875 6.89057 9.1875ZM9.96838 10.6617C9.14385 10.2586 8.0737 10.057 6.89104 10.057C5.5101 10.057 4.16901 10.417 3.11432 11.0705C1.91854 11.8125 1.11417 12.893 0.789322 14.1975C0.741783 14.3851 0.737287 14.5811 0.776169 14.7707C0.815051 14.9603 0.896305 15.1387 1.01385 15.2925C1.12539 15.4357 1.26828 15.5514 1.43154 15.6307C1.5948 15.71 1.77407 15.7508 1.95557 15.75H7.1587C7.24652 15.75 7.33155 15.7192 7.39896 15.6629C7.46638 15.6066 7.51191 15.5284 7.5276 15.442C7.53276 15.4125 7.53932 15.383 7.54682 15.3539C7.94432 13.7573 8.87573 12.4083 10.252 11.4248C10.3026 11.3884 10.3433 11.3398 10.3704 11.2836C10.3975 11.2274 10.4102 11.1653 10.4073 11.103C10.4044 11.0407 10.3859 10.9801 10.3536 10.9267C10.3214 10.8733 10.2763 10.8288 10.2224 10.7972C10.1489 10.7541 10.0645 10.7086 9.96838 10.6617Z" fill="#38FF9C"/>
</svg>
