<svg width="24" height="24" viewBox="0 0 24 24" fill="none" xmlns="http://www.w3.org/2000/svg">
<g id="IoSpeedometer">
<path id="Vector" d="M19.9545 5.54079C17.8846 3.4832 15.096 2.3106 12.1777 2.27059C9.25932 2.23058 6.43965 3.3263 4.31407 5.32637C2.18849 7.32643 0.923398 10.0743 0.785934 12.9897C0.648469 15.905 1.64939 18.7597 3.57735 20.9509L3.58579 20.9603C3.60125 20.9767 3.61579 20.9936 3.63266 21.0095C3.66735 21.0489 3.70672 21.0934 3.75313 21.1399C3.93512 21.3333 4.15508 21.4871 4.39925 21.5916C4.64341 21.6961 4.90652 21.7491 5.17211 21.7473C5.4377 21.7454 5.70005 21.6888 5.94273 21.5809C6.18542 21.473 6.40322 21.3161 6.5825 21.1202C7.27234 20.3704 8.11022 19.772 9.04317 19.3626C9.97612 18.9532 10.9839 18.7419 12.0027 18.7419C13.0215 18.7419 14.0292 18.9532 14.9622 19.3626C15.8951 19.772 16.733 20.3704 17.4228 21.1202C17.6034 21.3171 17.823 21.4745 18.0676 21.5822C18.3121 21.6899 18.5764 21.7457 18.8437 21.7459C19.1109 21.7462 19.3753 21.691 19.6201 21.5837C19.8649 21.4765 20.0848 21.3196 20.2658 21.123L20.4163 20.9589L20.4247 20.9495C22.3243 18.8045 23.3336 16.0152 23.2465 13.1513C23.1594 10.2873 21.9824 7.56456 19.9559 5.53891L19.9545 5.54079ZM11.2498 5.99782C11.2498 5.79891 11.3289 5.60814 11.4695 5.46749C11.6102 5.32684 11.8009 5.24782 11.9998 5.24782C12.1988 5.24782 12.3895 5.32684 12.5302 5.46749C12.6708 5.60814 12.7498 5.79891 12.7498 5.99782V7.49782C12.7498 7.69673 12.6708 7.8875 12.5302 8.02815C12.3895 8.1688 12.1988 8.24782 11.9998 8.24782C11.8009 8.24782 11.6102 8.1688 11.4695 8.02815C11.3289 7.8875 11.2498 7.69673 11.2498 7.49782V5.99782ZM5.99985 14.2478H4.49985C4.30094 14.2478 4.11017 14.1688 3.96952 14.0282C3.82887 13.8875 3.74985 13.6967 3.74985 13.4978C3.74985 13.2989 3.82887 13.1081 3.96952 12.9675C4.11017 12.8268 4.30094 12.7478 4.49985 12.7478H5.99985C6.19876 12.7478 6.38953 12.8268 6.53018 12.9675C6.67083 13.1081 6.74985 13.2989 6.74985 13.4978C6.74985 13.6967 6.67083 13.8875 6.53018 14.0282C6.38953 14.1688 6.19876 14.2478 5.99985 14.2478ZM8.28735 9.78532C8.14671 9.92587 7.95602 10.0048 7.75719 10.0048C7.55836 10.0048 7.36767 9.92587 7.22703 9.78532L6.16625 8.72501C6.02559 8.58434 5.94656 8.39355 5.94656 8.19462C5.94656 7.99568 6.02559 7.80489 6.16625 7.66423C6.30692 7.52356 6.49771 7.44453 6.69664 7.44453C6.89558 7.44453 7.08637 7.52356 7.22703 7.66423L8.28735 8.72501C8.42789 8.86564 8.50684 9.05634 8.50684 9.25516C8.50684 9.45399 8.42789 9.64468 8.28735 9.78532ZM15.2858 10.8681L13.0592 14.4072C12.9681 14.5334 12.8573 14.6442 12.7311 14.7353C12.4263 14.9479 12.05 15.0318 11.6838 14.9687C11.3176 14.9055 10.991 14.7005 10.775 14.3981C10.5591 14.0957 10.471 13.7204 10.5301 13.3535C10.5891 12.9866 10.7905 12.6578 11.0905 12.4384L14.6295 10.2119C14.71 10.1558 14.8057 10.1257 14.9038 10.1257C15.0018 10.1257 15.0975 10.1558 15.178 10.2119C15.279 10.2848 15.3471 10.3948 15.3673 10.5178C15.3875 10.6407 15.3582 10.7667 15.2858 10.8681ZM16.7727 9.78532C16.6309 9.92003 16.4421 9.99403 16.2465 9.99152C16.0509 9.98902 15.8641 9.91022 15.7258 9.77192C15.5875 9.63361 15.5086 9.44676 15.5061 9.25119C15.5036 9.05562 15.5776 8.8668 15.7123 8.72501L16.7727 7.66423C16.9133 7.52356 17.1041 7.44453 17.3031 7.44453C17.502 7.44453 17.6928 7.52356 17.8334 7.66423C17.9741 7.80489 18.0531 7.99568 18.0531 8.19462C18.0531 8.39355 17.9741 8.58434 17.8334 8.72501L16.7727 9.78532ZM19.4998 14.2478H17.9998C17.8009 14.2478 17.6102 14.1688 17.4695 14.0282C17.3289 13.8875 17.2498 13.6967 17.2498 13.4978C17.2498 13.2989 17.3289 13.1081 17.4695 12.9675C17.6102 12.8268 17.8009 12.7478 17.9998 12.7478H19.4998C19.6988 12.7478 19.8895 12.8268 20.0302 12.9675C20.1708 13.1081 20.2498 13.2989 20.2498 13.4978C20.2498 13.6967 20.1708 13.8875 20.0302 14.0282C19.8895 14.1688 19.6988 14.2478 19.4998 14.2478Z" fill="#38FF9C"/>
</g>
</svg>
