<svg width="25" height="24" viewBox="0 0 25 24" fill="none" xmlns="http://www.w3.org/2000/svg">
<path d="M12.3333 6C13.4378 6 14.3333 5.10457 14.3333 4C14.3333 2.89543 13.4378 2 12.3333 2C11.2287 2 10.3333 2.89543 10.3333 4C10.3333 5.10457 11.2287 6 12.3333 6Z" fill="#38FF9C"/>
<path d="M16.2233 8.11C15.8333 7.72 15.1633 7 13.8633 7H11.3233C8.57325 6.99 6.33325 4.75 6.33325 2H4.33325C4.33325 5.16 6.44325 7.84 9.33325 8.71V22H11.3333V16H13.3333V22H15.3333V10.05L19.2833 14L20.6933 12.59L16.2233 8.11Z" fill="#38FF9C"/>
</svg>
