<svg width="20" height="20" viewBox="0 0 20 20" fill="none" xmlns="http://www.w3.org/2000/svg">
<path id="Vector" d="M4.01001 0C2.08001 0 0.51001 1.57 0.51001 3.5C0.51001 5.08 1.57001 6.403 3.01001 6.837V13.997C3.00901 14.176 3.03701 15.778 4.18401 16.928C4.89201 17.64 5.84001 18 7.00001 18V20L11 17L7.00001 14V16C5.17701 16 5.01601 14.466 5.01001 14V6.837C6.45001 6.403 7.51001 5.08 7.51001 3.5C7.51001 1.57 5.93901 0 4.01001 0ZM4.01001 5C3.18301 5 2.51001 4.327 2.51001 3.5C2.51001 2.673 3.18301 2 4.01001 2C4.83701 2 5.51001 2.673 5.51001 3.5C5.51001 4.327 4.83701 5 4.01001 5ZM17.01 13.163V5.997C17.005 4.391 15.933 2 13 2V0L9.00001 3L13 6V4C14.829 4 15.001 5.539 15.01 6V13.163C13.57 13.597 12.51 14.92 12.51 16.5C12.51 18.43 14.08 20 16.01 20C17.94 20 19.51 18.43 19.51 16.5C19.51 14.92 18.45 13.597 17.01 13.163ZM16.01 18C15.183 18 14.51 17.327 14.51 16.5C14.51 15.673 15.183 15 16.01 15C16.837 15 17.51 15.673 17.51 16.5C17.51 17.327 16.837 18 16.01 18Z" fill="#38FF9C"/>
</svg>
