<svg width="190" height="191" viewBox="0 0 190 191" fill="none" xmlns="http://www.w3.org/2000/svg">
<g id="Group 48" filter="url(#filter0_d_2011_25)">
<g id="Group 45">
<path id="Vector 4" d="M86.0474 179.7C46.1734 152.194 27.9936 131.884 13.9105 98.295C10.9854 91.3184 14.6149 83.4425 21.5865 80.5052C48.9605 68.9719 65.8472 58.835 81.5663 42.3445C88.0669 35.5249 99.3038 35.8009 105.709 42.7103C120.149 58.288 137.638 68.5953 167.985 80.8116C174.881 83.5878 178.646 91.2143 175.909 98.1266C163.171 130.308 143.526 150.528 101.649 179.653C96.9719 182.906 90.7371 182.935 86.0474 179.7Z" fill="#59AD8C"/>
<g id="Subtract" filter="url(#filter1_d_2011_25)">
<path fill-rule="evenodd" clip-rule="evenodd" d="M13.9101 63.6625C27.9932 97.2519 46.173 117.562 86.047 145.067C90.7367 148.302 96.9715 148.273 101.649 145.02C143.526 115.896 163.17 95.6755 175.909 63.494C178.645 56.5818 174.881 48.9552 167.985 46.1791C137.638 33.9627 120.149 23.6555 105.708 8.0778C99.3034 1.1683 88.0665 0.892351 81.5659 7.71196C65.8468 24.2025 48.9601 34.3394 21.5861 45.8726C14.6146 48.8099 10.985 56.6858 13.9101 63.6625ZM115.537 65.247L116.701 65.2267C120.619 65.1583 123.945 67.584 123.997 70.5477L124.186 81.3609C124.36 91.3732 113.807 99.6498 100.571 99.8809L87.4412 100.11C74.2053 100.341 63.3696 92.4378 63.1948 82.4255L63.0061 71.6123C62.9543 68.6486 66.0876 66.1101 70.1113 66.0399L71.3819 66.0177L71.2463 58.2482C71.0939 49.5175 80.3934 42.2242 91.935 42.0228L94.1587 41.984C105.7 41.7825 115.249 48.7467 115.401 57.4775L115.537 65.247ZM96.7323 92.3362L96.5701 83.0448C98.8842 82.1231 100.442 80.3332 100.301 78.3326C100.245 75.1286 96.2824 72.6339 91.8492 73.5125C89.4208 73.9555 87.4355 75.5125 86.9382 77.364C86.2418 79.9401 87.9765 82.2333 90.7463 83.1465L90.9085 92.4379L96.7323 92.3362ZM83.1056 58.0412L83.2412 65.8107L103.571 65.4558L103.436 57.6863C103.369 53.8416 99.186 50.8699 94.2094 50.9568L92.0916 50.9938C87.0091 51.0825 83.0399 54.2766 83.1056 58.0412Z" fill="#B6FEDA"/>
</g>
</g>
</g>
<defs>
<filter id="filter0_d_2011_25" x="8.89209" y="2.74365" width="171.915" height="187.366" filterUnits="userSpaceOnUse" color-interpolation-filters="sRGB">
<feFlood flood-opacity="0" result="BackgroundImageFix"/>
<feColorMatrix in="SourceAlpha" type="matrix" values="0 0 0 0 0 0 0 0 0 0 0 0 0 0 0 0 0 0 127 0" result="hardAlpha"/>
<feOffset dy="4"/>
<feGaussianBlur stdDeviation="2"/>
<feComposite in2="hardAlpha" operator="out"/>
<feColorMatrix type="matrix" values="0 0 0 0 0 0 0 0 0 0 0 0 0 0 0 0 0 0 0.25 0"/>
<feBlend mode="normal" in2="BackgroundImageFix" result="effect1_dropShadow_2011_25"/>
<feBlend mode="normal" in="SourceGraphic" in2="effect1_dropShadow_2011_25" result="shape"/>
</filter>
<filter id="filter1_d_2011_25" x="0.440206" y="0.884171" width="188.819" height="169.637" filterUnits="userSpaceOnUse" color-interpolation-filters="sRGB">
<feFlood flood-opacity="0" result="BackgroundImageFix"/>
<feColorMatrix in="SourceAlpha" type="matrix" values="0 0 0 0 0 0 0 0 0 0 0 0 0 0 0 0 0 0 127 0" result="hardAlpha"/>
<feOffset dy="10.5924"/>
<feGaussianBlur stdDeviation="6.22594"/>
<feComposite in2="hardAlpha" operator="out"/>
<feColorMatrix type="matrix" values="0 0 0 0 0 0 0 0 0 0 0 0 0 0 0 0 0 0 0.25 0"/>
<feBlend mode="normal" in2="BackgroundImageFix" result="effect1_dropShadow_2011_25"/>
<feBlend mode="normal" in="SourceGraphic" in2="effect1_dropShadow_2011_25" result="shape"/>
</filter>
</defs>
</svg>
