<svg width="24" height="24" viewBox="0 0 24 24" fill="none" xmlns="http://www.w3.org/2000/svg">
<g id="IoRocket">
<path id="Vector" d="M15.415 7.34766C15.1255 7.34782 14.8451 7.44833 14.6214 7.63206C14.3978 7.8158 14.2448 8.07139 14.1885 8.3553C14.1321 8.63921 14.176 8.93386 14.3126 9.18905C14.4491 9.44425 14.67 9.6442 14.9374 9.75484C15.2049 9.86547 15.5024 9.87996 15.7794 9.79581C16.0563 9.71167 16.2955 9.53411 16.4562 9.29338C16.6169 9.05265 16.6892 8.76365 16.6607 8.47562C16.6322 8.18758 16.5047 7.91834 16.3 7.71375C16.1839 7.59741 16.0459 7.50517 15.894 7.44235C15.7421 7.37952 15.5793 7.34734 15.415 7.34766Z" fill="#38FF9C"/>
<path id="Vector_2" d="M22.3799 2.34646C22.3797 2.34506 22.3797 2.34364 22.3799 2.34224C22.3403 2.16848 22.2529 2.00926 22.1276 1.88253C22.0023 1.75581 21.844 1.66663 21.6707 1.62505C20.2739 1.28427 18.0764 1.64755 15.6412 2.62255C13.1868 3.60693 10.8871 5.06005 9.33276 6.61724C8.83455 7.11281 8.37169 7.6427 7.94761 8.20302C6.90089 8.15614 5.97886 8.30521 5.20214 8.64411C2.49557 9.83521 1.7226 12.8835 1.51682 14.135C1.48705 14.3129 1.49871 14.4952 1.55089 14.6678C1.60308 14.8404 1.69439 14.9986 1.81772 15.1301C1.94104 15.2616 2.09306 15.363 2.26193 15.4261C2.4308 15.4893 2.61198 15.5127 2.79135 15.4944H2.79745L5.81245 15.1654C5.8162 15.2038 5.82042 15.239 5.8237 15.2713C5.86242 15.6387 6.02626 15.9816 6.28776 16.2425L7.75917 17.7149C8.01972 17.9767 8.36257 18.1408 8.72995 18.1794L8.83073 18.1902L8.5026 21.2015V21.2075C8.48584 21.3697 8.50309 21.5336 8.55327 21.6887C8.60345 21.8439 8.68545 21.9868 8.79402 22.1085C8.9026 22.2301 9.03536 22.3277 9.18382 22.3951C9.33227 22.4625 9.49316 22.4982 9.6562 22.4999C9.72137 22.4999 9.78644 22.4946 9.85073 22.484C11.1093 22.2815 14.1562 21.5179 15.344 18.7968C15.6801 18.0252 15.8287 17.1069 15.787 16.0621C16.3498 15.6389 16.8816 15.176 17.3784 14.6769C18.9454 13.1179 20.4032 10.8369 21.3773 8.41817C22.3471 6.01067 22.7123 3.79677 22.3799 2.34646ZM17.3615 10.544C16.9764 10.9295 16.4855 11.1922 15.951 11.2987C15.4166 11.4052 14.8625 11.3508 14.359 11.1424C13.8554 10.934 13.425 10.5809 13.1222 10.1278C12.8193 9.67472 12.6577 9.14198 12.6577 8.597C12.6577 8.05202 12.8193 7.51929 13.1222 7.0662C13.425 6.6131 13.8554 6.26001 14.359 6.05158C14.8625 5.84316 15.4166 5.78877 15.951 5.8953C16.4855 6.00183 16.9764 6.26449 17.3615 6.65005C17.6197 6.90433 17.8247 7.20741 17.9646 7.54166C18.1045 7.87591 18.1766 8.23465 18.1766 8.597C18.1766 8.95936 18.1045 9.3181 17.9646 9.65235C17.8247 9.9866 17.6197 10.2897 17.3615 10.544Z" fill="#38FF9C"/>
<path id="Vector_3" d="M7.59047 18.1153C7.40909 18.0928 7.22573 18.1373 7.07485 18.2404C6.77531 18.4453 6.47438 18.6478 6.17063 18.8451C5.5561 19.2445 4.8211 18.5433 5.18625 17.9076L5.75578 16.9233C5.83721 16.8041 5.88255 16.6641 5.88636 16.5198C5.89018 16.3756 5.85231 16.2333 5.77731 16.1101C5.7023 15.9868 5.59333 15.8878 5.46347 15.825C5.3336 15.7621 5.18836 15.738 5.04516 15.7556C4.41305 15.8355 3.82549 16.1235 3.375 16.574C3.20344 16.7461 2.68172 17.2683 2.40094 19.2581C2.32102 19.8297 2.27064 20.4049 2.25 20.9817C2.24744 21.0818 2.26494 21.1814 2.30148 21.2746C2.33802 21.3678 2.39286 21.4528 2.46276 21.5245C2.53266 21.5962 2.61621 21.6532 2.70848 21.692C2.80075 21.7309 2.89987 21.7509 3 21.7509H3.01875C3.59594 21.7305 4.1717 21.6804 4.74375 21.6009C6.73453 21.3197 7.25672 20.7975 7.42828 20.6259C7.88095 20.1752 8.16818 19.5849 8.24344 18.9506C8.26754 18.7533 8.2123 18.5544 8.08986 18.3978C7.96742 18.2412 7.7878 18.1395 7.59047 18.1153Z" fill="#38FF9C"/>
</g>
</svg>
