<svg width="18" height="22" viewBox="0 0 18 22" fill="none" xmlns="http://www.w3.org/2000/svg">
<path id="Vector" fill-rule="evenodd" clip-rule="evenodd" d="M10.5599 0.253633C10.8035 0.330244 11.0163 0.48257 11.1674 0.68846C11.3185 0.894349 11.3999 1.14306 11.3999 1.39843V7.39843H16.1999C16.4194 7.39834 16.6347 7.45845 16.8224 7.57222C17.0102 7.686 17.1631 7.84908 17.2645 8.04372C17.366 8.23837 17.4121 8.45711 17.3979 8.67615C17.3837 8.89519 17.3097 9.10614 17.1839 9.28603L8.7839 21.286C8.6377 21.4955 8.4285 21.6528 8.18671 21.7351C7.94492 21.8175 7.68317 21.8205 7.43954 21.7438C7.1959 21.6671 6.9831 21.5147 6.83209 21.3087C6.68108 21.1027 6.59974 20.8539 6.5999 20.5984V14.5984H1.7999C1.5804 14.5985 1.36507 14.5384 1.17736 14.4246C0.989648 14.3109 0.836737 14.1478 0.735271 13.9531C0.633804 13.7585 0.587669 13.5398 0.601885 13.3207C0.616101 13.1017 0.690125 12.8907 0.815899 12.7108L9.2159 0.710833C9.36231 0.501777 9.57157 0.344848 9.81326 0.262844C10.055 0.180841 10.3165 0.178034 10.5599 0.254833V0.253633Z" fill="#38FF9C"/>
</svg>
