<svg width="209" height="180" viewBox="0 0 209 180" fill="none" xmlns="http://www.w3.org/2000/svg">
<g id="Frame 15">
<g id="Group 3">
<path id="Rectangle 7" d="M16.0061 117.585C8.23119 111.925 8.23119 100.329 16.0061 94.6687L96.1542 36.318C101.126 32.698 107.866 32.6981 112.838 36.318L192.986 94.6687C200.761 100.329 200.761 111.925 192.986 117.585L112.838 175.936C107.866 179.556 101.126 179.556 96.1542 175.936L16.0061 117.585Z" fill="#59AD8C"/>
<g id="Exclude" filter="url(#filter0_d_2011_84)">
<path fill-rule="evenodd" clip-rule="evenodd" d="M16.0199 61.0657C8.24498 66.7261 8.24498 78.3217 16.0199 83.9821L96.168 142.333C101.14 145.953 107.88 145.953 112.852 142.333L193 83.9821C200.775 78.3217 200.775 66.7261 193 61.0657L112.852 2.71499C107.88 -0.904994 101.14 -0.904998 96.168 2.71499L16.0199 61.0657ZM85.6293 94.0206C91.5778 96.2384 97.9191 97.4089 104.409 97.2579L104.406 97.259L104.612 97.258C106.736 97.2475 108.576 97.2384 110.421 97.048C114.517 96.6249 118.438 95.8141 122.163 94.5814C127.631 92.7734 132.27 90.228 136.125 86.9662C138.798 84.704 140.932 82.223 142.38 79.5032C144.319 75.8616 145.457 72.109 145.045 68.1631C144.822 66.0175 144.338 63.9241 143.46 61.8806C141.069 56.3122 136.582 51.69 129.991 48.1184C126.427 46.186 122.521 44.6301 118.185 43.6228C114.779 42.831 111.33 42.1768 107.743 42.0525C103.848 41.917 99.9535 41.9992 96.1098 42.5866C92.4098 43.1542 88.8694 44.0371 85.5255 45.2531C83.3234 46.0539 81.2554 47.0267 79.2864 48.1006C76.6818 49.52 74.3807 51.1392 72.3399 52.9394C70.1617 54.8618 68.4338 56.9619 67.0797 59.2275C65.28 62.2371 64.3282 65.3656 64.0919 68.604C63.9897 70.0022 64.1541 71.3982 64.3841 72.792C64.8871 75.8416 66.1646 78.7358 68.0761 81.4855C70.3118 84.7018 73.3012 87.5304 77.1881 89.9081C79.7926 91.5007 82.5888 92.8878 85.6293 94.0206ZM71.9311 72.4866C71.6963 71.4882 71.6644 70.4698 71.7314 69.4503H71.733C71.6867 64.6482 73.8074 60.3169 77.9003 56.4832C81.7632 52.865 86.8078 50.2718 92.8936 48.6815C96.0028 47.8685 99.2062 47.4065 102.529 47.2188C108.265 46.8946 113.612 47.7797 118.767 49.4355C121.844 50.424 124.643 51.7 127.144 53.2926C132.187 56.5043 135.315 60.4735 136.863 65.0779C137.562 67.1614 137.663 69.2826 137.458 71.3904C137.243 73.6116 136.395 75.7572 135.212 77.8395C133.811 80.3017 131.821 82.4939 129.319 84.4808C125.365 87.6203 120.512 89.8015 114.822 91.0887C112.556 91.6006 110.215 91.8827 107.842 92.046C103.056 92.3758 98.3758 92.0471 93.847 90.9199C89.6695 89.8804 85.8561 88.3977 82.5361 86.3143C78.7083 83.9121 75.8754 81.0546 73.9352 77.7396C72.9419 76.0415 72.351 74.2802 71.9311 72.4866ZM126.659 69.8633C126.58 73.2694 125.003 76.3346 121.992 78.9922C118.382 82.1806 113.586 84.0031 107.801 84.6217C104.268 84.9993 100.861 84.7172 97.496 83.9687C97.454 83.9594 97.4109 83.9517 97.3679 83.944L97.3677 83.944L97.3676 83.9439L97.3675 83.9439L97.3673 83.9439C97.3073 83.9331 97.2475 83.9224 97.191 83.9076C95.4391 83.4456 95.6707 83.0202 96.8109 82.385C98.1299 81.6487 99.2941 80.7702 100.441 79.8984C101.201 79.3209 102.085 79.1943 103.096 79.3032C105.215 79.5297 107.267 79.2954 109.252 78.8167C111.169 78.3536 112.924 77.6451 114.375 76.6522C116.531 75.1774 117.826 73.3705 118.339 71.2982C118.647 70.0532 118.578 68.8116 118.232 67.5744C118.109 67.1368 118.19 66.7737 118.711 66.4305C119.571 65.8614 120.409 65.2754 121.246 64.6895L121.247 64.6891L121.247 64.6887L121.248 64.6884C121.871 64.2525 122.494 63.8166 123.126 63.3876C124.029 62.7756 124.306 62.8145 124.841 63.5952C125.807 65.0023 126.318 66.4883 126.505 68.0442C126.579 68.6506 126.639 69.2536 126.662 69.8644L126.659 69.8633ZM90.6313 71.0903C90.5591 70.659 90.488 70.2337 90.5839 69.8178H90.5855C90.4944 69.036 90.5998 68.303 90.7883 67.5778C91.4015 65.2234 93.107 63.3199 95.8744 61.9139C98.9197 60.3657 102.361 59.7283 106.128 59.9771C106.971 60.0326 107.677 59.9693 108.34 59.4784C109.608 58.5378 110.903 57.6093 112.329 56.773C113.471 56.1034 113.343 55.678 111.968 55.3537C108.852 54.6197 105.686 54.282 102.371 54.5419C98.2969 54.8606 94.6112 55.8168 91.3025 57.4772C87.6998 59.2852 85.1049 61.6351 83.6182 64.5548C82.5147 66.7215 82.2352 68.9427 82.5642 71.2338C82.7958 72.8519 83.4489 74.3634 84.3703 75.836C84.6306 76.2525 85.1703 76.3247 85.6462 75.9893C86.5718 75.3361 87.488 74.6763 88.404 74.0167C89.0906 73.5223 89.777 73.028 90.4673 72.5365C90.6988 72.371 90.726 72.1878 90.7276 71.9801C90.7302 71.6815 90.6805 71.3845 90.6313 71.0903ZM97.0341 71.86C99.8542 71.86 102.016 73.3359 101.886 75.2494C101.818 76.2301 101.157 77.0574 100.194 77.7438C99.8754 77.9711 99.5571 78.1991 99.2388 78.4271L99.2385 78.4273C97.5568 79.6317 95.8734 80.8374 94.0782 81.9551C93.5724 82.27 93.1133 82.6147 92.6543 82.9593L92.6541 82.9594C92.0192 83.436 91.3846 83.9124 90.6273 84.3095C87.9174 85.731 83.6808 84.6171 83.058 82.3082C82.6971 80.9711 83.2864 79.8972 84.6437 78.971C85.0668 78.6822 85.4904 78.3938 85.9141 78.1053C87.7277 76.8705 89.5418 75.6354 91.314 74.3732C91.484 74.252 91.6528 74.1303 91.8216 74.0086L91.823 74.0076C92.4211 73.5763 93.0183 73.1456 93.6631 72.744C94.6212 72.1487 95.6895 71.8222 97.0341 71.86ZM125.248 59.3539C127.187 56.9894 124.362 54.2941 121.034 54.4451L121.032 54.4462C119.739 54.3441 118.572 54.7094 117.639 55.3436C114.56 57.4348 111.497 59.5382 108.502 61.6872C106.574 63.0687 106.474 65.6852 109.437 66.9524C111.379 67.7831 113.806 67.5132 115.662 66.2305C118.492 64.2748 121.312 62.3146 124.119 60.3456C124.544 60.0468 124.951 59.7159 125.248 59.3539Z" fill="#B6FEDA"/>
</g>
</g>
</g>
<defs>
<filter id="filter0_d_2011_84" x="0.83439" y="0" width="207.351" height="169.993" filterUnits="userSpaceOnUse" color-interpolation-filters="sRGB">
<feFlood flood-opacity="0" result="BackgroundImageFix"/>
<feColorMatrix in="SourceAlpha" type="matrix" values="0 0 0 0 0 0 0 0 0 0 0 0 0 0 0 0 0 0 127 0" result="hardAlpha"/>
<feOffset dy="15.5906"/>
<feGaussianBlur stdDeviation="4.67717"/>
<feComposite in2="hardAlpha" operator="out"/>
<feColorMatrix type="matrix" values="0 0 0 0 0 0 0 0 0 0 0 0 0 0 0 0 0 0 0.25 0"/>
<feBlend mode="normal" in2="BackgroundImageFix" result="effect1_dropShadow_2011_84"/>
<feBlend mode="normal" in="SourceGraphic" in2="effect1_dropShadow_2011_84" result="shape"/>
</filter>
</defs>
</svg>
