<svg width="21" height="24" viewBox="0 0 21 24" fill="none" xmlns="http://www.w3.org/2000/svg">
<path id="Vector" d="M3.20825 23.25H1.70825C1.40988 23.25 1.12374 23.1315 0.912757 22.9205C0.701778 22.7095 0.583252 22.4234 0.583252 22.125V15.375C0.583252 15.0766 0.701778 14.7905 0.912757 14.5795C1.12374 14.3685 1.40988 14.25 1.70825 14.25H3.20825C3.50662 14.25 3.79277 14.3685 4.00375 14.5795C4.21473 14.7905 4.33325 15.0766 4.33325 15.375V22.125C4.33325 22.4234 4.21473 22.7095 4.00375 22.9205C3.79277 23.1315 3.50662 23.25 3.20825 23.25ZM13.7083 23.25H12.2083C11.9099 23.25 11.6237 23.1315 11.4128 22.9205C11.2018 22.7095 11.0833 22.4234 11.0833 22.125V10.875C11.0833 10.5766 11.2018 10.2905 11.4128 10.0795C11.6237 9.86853 11.9099 9.75 12.2083 9.75H13.7083C14.0066 9.75 14.2928 9.86853 14.5037 10.0795C14.7147 10.2905 14.8333 10.5766 14.8333 10.875V22.125C14.8333 22.4234 14.7147 22.7095 14.5037 22.9205C14.2928 23.1315 14.0066 23.25 13.7083 23.25ZM18.9583 23.25H17.4583C17.1599 23.25 16.8737 23.1315 16.6628 22.9205C16.4518 22.7095 16.3333 22.4234 16.3333 22.125V5.625C16.3333 5.32663 16.4518 5.04048 16.6628 4.8295C16.8737 4.61853 17.1599 4.5 17.4583 4.5H18.9583C19.2566 4.5 19.5428 4.61853 19.7537 4.8295C19.9647 5.04048 20.0833 5.32663 20.0833 5.625V22.125C20.0833 22.4234 19.9647 22.7095 19.7537 22.9205C19.5428 23.1315 19.2566 23.25 18.9583 23.25ZM8.45825 23.25H6.95825C6.65988 23.25 6.37373 23.1315 6.16276 22.9205C5.95178 22.7095 5.83325 22.4234 5.83325 22.125V1.875C5.83325 1.57663 5.95178 1.29048 6.16276 1.0795C6.37373 0.868526 6.65988 0.75 6.95825 0.75H8.45825C8.75662 0.75 9.04277 0.868526 9.25375 1.0795C9.46473 1.29048 9.58325 1.57663 9.58325 1.875V22.125C9.58325 22.4234 9.46473 22.7095 9.25375 22.9205C9.04277 23.1315 8.75662 23.25 8.45825 23.25Z" fill="#38FF9C"/>
</svg>
