<svg width="222" height="213" viewBox="0 0 222 213" fill="none" xmlns="http://www.w3.org/2000/svg">
<g id="Group 46">
<g id="Ellipse 6" filter="url(#filter0_d_2011_224)">
<ellipse cx="111.058" cy="111.3" rx="94.0287" ry="72.1384" fill="#59AD8C"/>
</g>
<g id="Subtract" filter="url(#filter1_d_2011_224)">
<path fill-rule="evenodd" clip-rule="evenodd" d="M111.058 147.715C162.988 147.715 205.086 115.417 205.086 75.5764C205.086 35.7354 162.988 3.43799 111.058 3.43799C59.1269 3.43799 17.0288 35.7354 17.0288 75.5764C17.0288 115.417 59.1269 147.715 111.058 147.715ZM100.942 89.7395C99.0098 88.2688 98.0746 86.2632 98.137 83.7228H84.9516C85.575 88.9818 87.8505 92.9707 91.7781 95.6893C95.7056 98.4079 101.161 99.9455 108.143 100.302V105.984H113.66V100.302C118.336 100.079 122.17 99.4107 125.162 98.2965C128.155 97.1823 130.524 95.9121 132.269 94.486C134.077 93.0598 135.324 91.6113 136.01 90.1406C136.696 88.6253 137.039 87.3774 137.039 86.3969C137.039 85.2827 136.914 84.0125 136.665 82.5864C136.478 81.1602 135.792 79.734 134.607 78.3078C133.423 76.8817 131.584 75.5224 129.09 74.2299C126.596 72.8929 123.043 71.7787 118.429 70.8873C117.557 70.709 116.715 70.553 115.905 70.4193L113.66 70.0182V58.1855C115.78 58.1855 117.588 58.8094 119.084 60.0573C120.58 61.3052 121.36 62.8205 121.422 64.6032H134.701C134.514 62.2857 133.828 60.2802 132.643 58.5866C131.459 56.893 129.932 55.4891 128.061 54.3749C126.191 53.2162 124.009 52.3248 121.515 51.7008C119.084 51.0323 116.466 50.5867 113.66 50.3638V45.2162H108.143V50.3638C105.338 50.4975 102.626 50.8986 100.007 51.5671C97.3889 52.1911 95.0822 53.1047 93.0872 54.3081C91.0923 55.4668 89.4714 56.9153 88.2245 58.6534C87.04 60.3916 86.4478 62.3971 86.4478 64.6701C86.4478 66.8985 86.9777 68.7703 88.0375 70.2856C89.0973 71.7564 90.5 73.0043 92.2456 74.0293C94.0536 75.0098 96.0797 75.812 98.324 76.436C100.568 77.0154 102.844 77.5279 105.15 77.9736C105.774 78.0627 106.335 78.1741 106.834 78.3078C107.395 78.397 107.831 78.4861 108.143 78.5752V92.5473C105.275 92.1462 102.875 91.2102 100.942 89.7395ZM117.12 92.0125C115.936 92.2799 114.782 92.4581 113.66 92.5473V79.7117C117.338 80.4248 119.926 81.227 121.422 82.1184C122.98 82.9652 123.76 84.2577 123.76 85.9958C123.76 87.0654 123.448 88.0013 122.825 88.8036C122.201 89.5612 121.391 90.2075 120.393 90.7423C119.458 91.2771 118.367 91.7005 117.12 92.0125ZM105.057 58.5197C106.054 58.2969 107.083 58.1855 108.143 58.1855V69.0823C105.15 68.5921 103 67.9458 101.69 67.1436C100.381 66.3414 99.7267 65.2049 99.7267 63.7342C99.7267 62.7982 99.9449 61.996 100.381 61.3275C100.88 60.6144 101.535 60.035 102.345 59.5894C103.156 59.0991 104.06 58.7426 105.057 58.5197Z" fill="#B6FEDA"/>
</g>
</g>
<defs>
<filter id="filter0_d_2011_224" x="0.315193" y="35.1386" width="221.485" height="177.704" filterUnits="userSpaceOnUse" color-interpolation-filters="sRGB">
<feFlood flood-opacity="0" result="BackgroundImageFix"/>
<feColorMatrix in="SourceAlpha" type="matrix" values="0 0 0 0 0 0 0 0 0 0 0 0 0 0 0 0 0 0 127 0" result="hardAlpha"/>
<feOffset dy="12.6909"/>
<feGaussianBlur stdDeviation="8.35681"/>
<feComposite in2="hardAlpha" operator="out"/>
<feColorMatrix type="matrix" values="0 0 0 0 0 0 0 0 0 0 0 0 0 0 0 0 0 0 0.25 0"/>
<feBlend mode="normal" in2="BackgroundImageFix" result="effect1_dropShadow_2011_224"/>
<feBlend mode="normal" in="SourceGraphic" in2="effect1_dropShadow_2011_224" result="shape"/>
</filter>
<filter id="filter1_d_2011_224" x="1.37499" y="0.476455" width="219.365" height="175.584" filterUnits="userSpaceOnUse" color-interpolation-filters="sRGB">
<feFlood flood-opacity="0" result="BackgroundImageFix"/>
<feColorMatrix in="SourceAlpha" type="matrix" values="0 0 0 0 0 0 0 0 0 0 0 0 0 0 0 0 0 0 127 0" result="hardAlpha"/>
<feOffset dy="12.6923"/>
<feGaussianBlur stdDeviation="7.82691"/>
<feComposite in2="hardAlpha" operator="out"/>
<feColorMatrix type="matrix" values="0 0 0 0 0 0 0 0 0 0 0 0 0 0 0 0 0 0 0.25 0"/>
<feBlend mode="normal" in2="BackgroundImageFix" result="effect1_dropShadow_2011_224"/>
<feBlend mode="normal" in="SourceGraphic" in2="effect1_dropShadow_2011_224" result="shape"/>
</filter>
</defs>
</svg>
