<svg width="16" height="17" viewBox="0 0 16 17" fill="none" xmlns="http://www.w3.org/2000/svg">
<g id="IoWalletOutline">
<path id="Vector (Stroke)" fill-rule="evenodd" clip-rule="evenodd" d="M3 5.04102C2.44772 5.04102 2 5.48873 2 6.04102V12.041C2 12.5933 2.44772 13.041 3 13.041H13C13.5523 13.041 14 12.5933 14 12.041V6.04102C14 5.48873 13.5523 5.04102 13 5.04102H3ZM1 6.04102C1 4.93645 1.89543 4.04102 3 4.04102H13C14.1046 4.04102 15 4.93645 15 6.04102V12.041C15 13.1456 14.1046 14.041 13 14.041H3C1.89543 14.041 1 13.1456 1 12.041V6.04102Z" fill="#101010"/>
<path id="Vector (Stroke)_2" fill-rule="evenodd" clip-rule="evenodd" d="M10.9115 1.57701C11.208 1.52126 11.5132 1.53126 11.8055 1.60633C12.0995 1.68183 12.3732 1.82128 12.6071 2.01473C12.841 2.20818 13.0293 2.45087 13.1585 2.72547C13.2878 3.00007 13.3549 3.29983 13.355 3.60334V4.541H12.355V3.60366C12.355 3.60361 12.355 3.60372 12.355 3.60366C12.3549 3.44736 12.3204 3.29284 12.2538 3.15143C12.1872 3.00996 12.0902 2.88494 11.9697 2.78529C11.8492 2.68563 11.7082 2.61379 11.5568 2.5749C11.4054 2.53601 11.2472 2.53102 11.0936 2.56029L11.0841 2.562L2.85932 3.9658C2.618 4.01281 2.40039 4.14208 2.24366 4.33163C2.08601 4.5223 1.99983 4.76201 2 5.00941V6.541H1V5.0099C1 5.00985 1 5.00995 1 5.0099C0.999754 4.52976 1.16703 4.06443 1.47299 3.6944C1.77903 3.32428 2.20463 3.07256 2.6764 2.98265L2.68588 2.98094L10.9115 1.57701Z" fill="#101010"/>
<path id="Vector" d="M11.5 10.041C11.3022 10.041 11.1089 9.98237 10.9444 9.87249C10.78 9.7626 10.6518 9.60643 10.5761 9.4237C10.5004 9.24097 10.4806 9.03991 10.5192 8.84593C10.5578 8.65194 10.653 8.47376 10.7929 8.33391C10.9327 8.19406 11.1109 8.09882 11.3049 8.06023C11.4989 8.02165 11.7 8.04145 11.8827 8.11714C12.0654 8.19282 12.2216 8.321 12.3315 8.48545C12.4414 8.64989 12.5 8.84323 12.5 9.04102C12.5 9.30623 12.3946 9.56059 12.2071 9.74812C12.0196 9.93566 11.7652 10.041 11.5 10.041Z" fill="#101010"/>
</g>
</svg>
