<svg width="22" height="19" viewBox="0 0 22 19" fill="none" xmlns="http://www.w3.org/2000/svg">
<path id="Vector" d="M3.47656 2.87414H18.4766C18.6518 2.87406 18.8268 2.88518 19.0006 2.90742C18.9417 2.49388 18.7997 2.09655 18.583 1.73939C18.3664 1.38222 18.0797 1.07263 17.7402 0.829269C17.4007 0.585907 17.0154 0.413819 16.6076 0.32338C16.1998 0.232941 15.7779 0.226025 15.3673 0.303048L3.03125 2.40914H3.01719C2.24285 2.55722 1.55425 2.99533 1.09203 3.63399C1.7884 3.13867 2.622 2.87304 3.47656 2.87414ZM18.4766 3.99914H3.47656C2.68118 4.00001 1.91862 4.31636 1.3562 4.87878C0.79378 5.4412 0.477431 6.20376 0.476562 6.99914V15.9991C0.477431 16.7945 0.79378 17.5571 1.3562 18.1195C1.91862 18.6819 2.68118 18.9983 3.47656 18.9991H18.4766C19.2719 18.9983 20.0345 18.6819 20.5969 18.1195C21.1593 17.5571 21.4757 16.7945 21.4766 15.9991V6.99914C21.4757 6.20376 21.1593 5.4412 20.5969 4.87878C20.0345 4.31636 19.2719 4.00001 18.4766 3.99914ZM16.25 12.9991C15.9533 12.9991 15.6633 12.9112 15.4166 12.7463C15.17 12.5815 14.9777 12.3473 14.8642 12.0732C14.7506 11.7991 14.7209 11.4975 14.7788 11.2065C14.8367 10.9155 14.9796 10.6483 15.1893 10.4385C15.3991 10.2287 15.6664 10.0858 15.9574 10.028C16.2483 9.97009 16.5499 9.99979 16.824 10.1133C17.0981 10.2269 17.3324 10.4191 17.4972 10.6658C17.662 10.9125 17.75 11.2025 17.75 11.4991C17.75 11.897 17.592 12.2785 17.3107 12.5598C17.0294 12.8411 16.6478 12.9991 16.25 12.9991Z" fill="#38FF9C"/>
</svg>
