<svg width="25" height="24" viewBox="0 0 25 24" fill="none" xmlns="http://www.w3.org/2000/svg">
<g id="IoStopwatch">
<path id="Vector" d="M12.3333 13.5C12.7475 13.5 13.0833 13.1642 13.0833 12.75C13.0833 12.3358 12.7475 12 12.3333 12C11.919 12 11.5833 12.3358 11.5833 12.75C11.5833 13.1642 11.919 13.5 12.3333 13.5Z" fill="#38FF9C"/>
<path id="Vector_2" d="M13.4583 3.82031V3.375C13.4583 3.07663 13.3397 2.79048 13.1287 2.5795C12.9178 2.36853 12.6316 2.25 12.3333 2.25C12.0349 2.25 11.7487 2.36853 11.5378 2.5795C11.3268 2.79048 11.2083 3.07663 11.2083 3.375V3.82031C9.78759 3.99866 8.43041 4.51513 7.2506 5.32641L6.75513 4.82812C6.54379 4.61678 6.25714 4.49805 5.95826 4.49805C5.65937 4.49805 5.37273 4.61678 5.16138 4.82812C4.95004 5.03947 4.8313 5.32611 4.8313 5.625C4.8313 5.92389 4.95004 6.21053 5.16138 6.42188L5.56451 6.825C4.1246 8.46272 3.3313 10.5693 3.33326 12.75C3.33326 17.7127 7.3706 21.75 12.3333 21.75C17.2959 21.75 21.3333 17.7127 21.3333 12.75C21.3333 8.16844 17.8917 4.37531 13.4583 3.82031ZM12.3333 15C11.8026 14.9998 11.2891 14.8121 10.8834 14.4701C10.4777 14.128 10.206 13.6535 10.1163 13.1305C10.0266 12.6075 10.1246 12.0696 10.393 11.6118C10.6614 11.1541 11.083 10.8059 11.5833 10.6289V7.125C11.5833 6.92609 11.6623 6.73532 11.8029 6.59467C11.9436 6.45402 12.1343 6.375 12.3333 6.375C12.5322 6.375 12.7229 6.45402 12.8636 6.59467C13.0042 6.73532 13.0833 6.92609 13.0833 7.125V10.6289C13.5835 10.8059 14.0051 11.1541 14.2735 11.6118C14.5419 12.0696 14.6399 12.6075 14.5502 13.1305C14.4605 13.6535 14.1888 14.128 13.7831 14.4701C13.3774 14.8121 12.8639 14.9998 12.3333 15Z" fill="#38FF9C"/>
</g>
</svg>
