<svg width="412" height="165" viewBox="0 0 412 165" fill="none" xmlns="http://www.w3.org/2000/svg">
<mask id="mask0_3028_10378" style="mask-type:alpha" maskUnits="userSpaceOnUse" x="-1" y="0" width="413" height="165">
<rect x="-0.00146484" width="412" height="165" fill="#D9D9D9"/>
</mask>
<g mask="url(#mask0_3028_10378)">
<path opacity="0.08" d="M-44.5826 906.501C-291.289 849.32 -445.475 602.095 -388.3 355.412C-331.124 108.729 -83.8938 -45.4808 162.813 11.7005C409.52 68.8818 563.706 316.106 506.524 562.813C449.343 809.52 202.119 963.706 -44.5881 906.525L-44.5826 906.501ZM142.613 98.851C-56.0193 52.8123 -255.105 176.956 -301.149 375.612C-347.193 574.268 -223.045 773.33 -24.3885 819.374C174.268 865.418 373.33 741.269 419.374 542.613C465.418 343.957 341.246 144.89 142.613 98.851Z" fill="#38FF9C" fill-opacity="0.82"/>
<path d="M85.7219 299.974C6.53434 287.502 -70.9715 335.558 -94.3126 412.276C-95.5725 416.427 -98.3324 419.982 -102.041 422.274L-180.022 470.989C-184.437 473.763 -190.255 470.702 -190.41 465.479C-190.997 444.668 -189.296 422.874 -184.443 401.934C-153.215 267.204 -18.2153 183.009 116.515 214.236C138.467 219.324 159.083 227.18 178.079 237.317C181.921 239.374 182.073 244.82 178.383 247.141L97.8013 297.438C94.2036 299.681 89.9204 300.6 85.7274 299.95L85.7219 299.974Z" fill="#D2D2D2"/>
</g>
</svg>
