<svg width="447" height="91" viewBox="0 0 447 91" fill="none" xmlns="http://www.w3.org/2000/svg">
<mask id="mask0_3028_10384" style="mask-type:alpha" maskUnits="userSpaceOnUse" x="0" y="0" width="447" height="91">
<rect width="447" height="91" fill="#D9D9D9"/>
</mask>
<g mask="url(#mask0_3028_10384)">
<path opacity="0.08" d="M170.415 78.501C-76.2918 21.3197 -230.478 -225.905 -173.302 -472.588C-116.126 -719.271 131.104 -873.481 377.81 -816.3C624.517 -759.118 778.703 -511.894 721.522 -265.187C664.341 -18.4803 417.116 135.706 170.409 78.5245L170.415 78.501ZM357.611 -729.149C158.978 -775.188 -40.1073 -651.044 -86.1515 -452.388C-132.196 -253.732 -8.04702 -54.6702 190.609 -8.62603C389.265 37.4182 588.327 -86.7305 634.371 -285.387C680.416 -484.043 556.243 -683.11 357.611 -729.149Z" fill="#38FF9C" fill-opacity="0.82"/>
</g>
</svg>
