<svg width="822" height="624" viewBox="0 0 822 624" fill="none" xmlns="http://www.w3.org/2000/svg">
<path d="M0.931334 310.288H821.069C821.424 310.288 821.713 310.576 821.713 310.931C821.713 311.287 821.424 311.575 821.069 311.575H0.931348C0.575814 311.575 0.287598 311.287 0.287598 310.931C0.287598 310.576 0.5758 310.288 0.931334 310.288Z" fill="url(#paint0_linear_3063_9981)" fill-opacity="0.04"/>
<path d="M0.931334 142.913H821.069C821.424 142.913 821.713 143.201 821.713 143.556C821.713 143.912 821.424 144.2 821.069 144.2H0.931348C0.575814 144.2 0.287598 143.912 0.287598 143.556C0.287598 143.201 0.5758 142.913 0.931334 142.913Z" fill="url(#paint1_linear_3063_9981)" fill-opacity="0.04"/>
<path d="M0.931334 327.025H821.069C821.424 327.025 821.713 327.313 821.713 327.669C821.713 328.024 821.424 328.312 821.069 328.312H0.931348C0.575814 328.312 0.287598 328.024 0.287598 327.669C0.287598 327.313 0.5758 327.025 0.931334 327.025Z" fill="url(#paint2_linear_3063_9981)" fill-opacity="0.04"/>
<path d="M0.931334 159.65H821.069C821.424 159.65 821.713 159.938 821.713 160.294C821.713 160.649 821.424 160.937 821.069 160.937H0.931348C0.575814 160.937 0.287598 160.649 0.287598 160.294C0.287598 159.938 0.5758 159.65 0.931334 159.65Z" fill="url(#paint3_linear_3063_9981)" fill-opacity="0.04"/>
<path d="M0.931334 343.763H821.069C821.424 343.763 821.713 344.051 821.713 344.406C821.713 344.762 821.424 345.05 821.069 345.05H0.931348C0.575814 345.05 0.287598 344.762 0.287598 344.406C0.287598 344.051 0.5758 343.763 0.931334 343.763Z" fill="url(#paint4_linear_3063_9981)" fill-opacity="0.04"/>
<path d="M0.931334 176.388H821.069C821.424 176.388 821.713 176.676 821.713 177.031C821.713 177.387 821.424 177.675 821.069 177.675H0.931348C0.575814 177.675 0.287598 177.387 0.287598 177.031C0.287598 176.676 0.5758 176.388 0.931334 176.388Z" fill="url(#paint5_linear_3063_9981)" fill-opacity="0.04"/>
<path d="M0.931334 360.5H821.069C821.424 360.5 821.713 360.788 821.713 361.144C821.713 361.499 821.424 361.788 821.069 361.788H0.931348C0.575814 361.788 0.287598 361.499 0.287598 361.144C0.287598 360.788 0.5758 360.5 0.931334 360.5Z" fill="url(#paint6_linear_3063_9981)" fill-opacity="0.04"/>
<path d="M0.931334 193.125H821.069C821.424 193.125 821.713 193.413 821.713 193.769C821.713 194.124 821.424 194.413 821.069 194.413H0.931348C0.575814 194.413 0.287598 194.124 0.287598 193.769C0.287598 193.413 0.5758 193.125 0.931334 193.125Z" fill="url(#paint7_linear_3063_9981)" fill-opacity="0.04"/>
<path d="M0.931334 377.237H821.069C821.424 377.237 821.713 377.526 821.713 377.881C821.713 378.237 821.424 378.525 821.069 378.525H0.931348C0.575814 378.525 0.287598 378.237 0.287598 377.881C0.287598 377.526 0.5758 377.237 0.931334 377.237Z" fill="url(#paint8_linear_3063_9981)" fill-opacity="0.04"/>
<path d="M0.931334 209.862H821.069C821.424 209.862 821.713 210.151 821.713 210.506C821.713 210.862 821.424 211.15 821.069 211.15H0.931348C0.575814 211.15 0.287598 210.862 0.287598 210.506C0.287598 210.151 0.5758 209.862 0.931334 209.862Z" fill="url(#paint9_linear_3063_9981)" fill-opacity="0.04"/>
<path d="M0.931334 393.975H821.069C821.424 393.975 821.713 394.263 821.713 394.619C821.713 394.974 821.424 395.263 821.069 395.263H0.931348C0.575814 395.263 0.287598 394.974 0.287598 394.619C0.287598 394.263 0.5758 393.975 0.931334 393.975Z" fill="url(#paint10_linear_3063_9981)" fill-opacity="0.04"/>
<path d="M0.931334 226.6H821.069C821.424 226.6 821.713 226.888 821.713 227.244C821.713 227.599 821.424 227.888 821.069 227.888H0.931348C0.575814 227.888 0.287598 227.599 0.287598 227.244C0.287598 226.888 0.5758 226.6 0.931334 226.6Z" fill="url(#paint11_linear_3063_9981)" fill-opacity="0.04"/>
<path d="M0.931334 410.712H821.069C821.424 410.712 821.713 411.001 821.713 411.356C821.713 411.712 821.424 412 821.069 412H0.931348C0.575814 412 0.287598 411.712 0.287598 411.356C0.287598 411.001 0.5758 410.712 0.931334 410.712Z" fill="url(#paint12_linear_3063_9981)" fill-opacity="0.04"/>
<path d="M0.931334 243.337H821.069C821.424 243.337 821.713 243.626 821.713 243.981C821.713 244.337 821.424 244.625 821.069 244.625H0.931348C0.575814 244.625 0.287598 244.337 0.287598 243.981C0.287598 243.626 0.5758 243.337 0.931334 243.337Z" fill="url(#paint13_linear_3063_9981)" fill-opacity="0.04"/>
<path d="M0.931334 427.45H821.069C821.424 427.45 821.713 427.738 821.713 428.094C821.713 428.449 821.424 428.738 821.069 428.738H0.931348C0.575814 428.738 0.287598 428.449 0.287598 428.094C0.287598 427.738 0.5758 427.45 0.931334 427.45Z" fill="url(#paint14_linear_3063_9981)" fill-opacity="0.04"/>
<path d="M0.931334 260.075H821.069C821.424 260.075 821.713 260.363 821.713 260.719C821.713 261.074 821.424 261.363 821.069 261.363H0.931348C0.575814 261.363 0.287598 261.074 0.287598 260.719C0.287598 260.363 0.5758 260.075 0.931334 260.075Z" fill="url(#paint15_linear_3063_9981)" fill-opacity="0.04"/>
<path d="M0.931334 444.188H821.069C821.424 444.188 821.713 444.476 821.713 444.831C821.713 445.187 821.424 445.475 821.069 445.475H0.931348C0.575814 445.475 0.287598 445.187 0.287598 444.831C0.287598 444.476 0.5758 444.188 0.931334 444.188Z" fill="url(#paint16_linear_3063_9981)" fill-opacity="0.04"/>
<path d="M0.931334 276.812H821.069C821.424 276.812 821.713 277.101 821.713 277.456C821.713 277.812 821.424 278.1 821.069 278.1H0.931348C0.575814 278.1 0.287598 277.812 0.287598 277.456C0.287598 277.101 0.5758 276.812 0.931334 276.812Z" fill="url(#paint17_linear_3063_9981)" fill-opacity="0.04"/>
<path d="M0.931334 460.925H821.069C821.424 460.925 821.713 461.213 821.713 461.569C821.713 461.924 821.424 462.212 821.069 462.212H0.931348C0.575814 462.212 0.287598 461.924 0.287598 461.569C0.287598 461.213 0.5758 460.925 0.931334 460.925Z" fill="url(#paint18_linear_3063_9981)" fill-opacity="0.04"/>
<path d="M0.931334 293.55H821.069C821.424 293.55 821.713 293.838 821.713 294.194C821.713 294.549 821.424 294.837 821.069 294.837H0.931348C0.575814 294.837 0.287598 294.549 0.287598 294.194C0.287598 293.838 0.5758 293.55 0.931334 293.55Z" fill="url(#paint19_linear_3063_9981)" fill-opacity="0.04"/>
<path d="M168.95 129.394L168.95 478.306C168.95 478.662 168.662 478.95 168.306 478.95C167.951 478.95 167.662 478.662 167.662 478.306L167.662 129.394C167.662 129.038 167.951 128.75 168.306 128.75C168.662 128.75 168.95 129.038 168.95 129.394Z" fill="url(#paint20_linear_3063_9981)" fill-opacity="0.04"/>
<path d="M520.437 129.394L520.437 478.306C520.437 478.662 520.149 478.95 519.794 478.95C519.438 478.95 519.15 478.662 519.15 478.306L519.15 129.394C519.15 129.038 519.438 128.75 519.794 128.75C520.149 128.75 520.437 129.038 520.437 129.394Z" fill="url(#paint21_linear_3063_9981)" fill-opacity="0.04"/>
<path d="M185.687 129.394L185.687 478.306C185.687 478.662 185.399 478.95 185.044 478.95C184.688 478.95 184.4 478.662 184.4 478.306L184.4 129.394C184.4 129.038 184.688 128.75 185.044 128.75C185.399 128.75 185.687 129.038 185.687 129.394Z" fill="url(#paint22_linear_3063_9981)" fill-opacity="0.04"/>
<path d="M537.175 129.394L537.175 478.306C537.175 478.662 536.887 478.95 536.531 478.95C536.176 478.95 535.888 478.662 535.888 478.306L535.888 129.394C535.888 129.038 536.176 128.75 536.531 128.75C536.887 128.75 537.175 129.038 537.175 129.394Z" fill="url(#paint23_linear_3063_9981)" fill-opacity="0.04"/>
<path d="M202.425 129.394L202.425 477.019C202.425 477.374 202.137 477.663 201.781 477.663C201.426 477.663 201.138 477.374 201.138 477.019L201.138 129.394C201.138 129.038 201.426 128.75 201.781 128.75C202.137 128.75 202.425 129.038 202.425 129.394Z" fill="url(#paint24_linear_3063_9981)" fill-opacity="0.04"/>
<path d="M553.913 129.394L553.913 477.019C553.913 477.374 553.624 477.663 553.269 477.663C552.913 477.663 552.625 477.374 552.625 477.019L552.625 129.394C552.625 129.038 552.913 128.75 553.269 128.75C553.624 128.75 553.913 129.038 553.913 129.394Z" fill="url(#paint25_linear_3063_9981)" fill-opacity="0.04"/>
<path d="M219.163 129.394L219.163 477.019C219.163 477.374 218.874 477.663 218.519 477.663C218.163 477.663 217.875 477.374 217.875 477.019L217.875 129.394C217.875 129.038 218.163 128.75 218.519 128.75C218.874 128.75 219.163 129.038 219.163 129.394Z" fill="url(#paint26_linear_3063_9981)" fill-opacity="0.04"/>
<path d="M570.65 129.394L570.65 477.019C570.65 477.374 570.362 477.663 570.006 477.663C569.651 477.663 569.362 477.374 569.362 477.019L569.362 129.394C569.362 129.038 569.651 128.75 570.006 128.75C570.362 128.75 570.65 129.038 570.65 129.394Z" fill="url(#paint27_linear_3063_9981)" fill-opacity="0.04"/>
<path d="M235.9 128.106L235.9 475.731C235.9 476.087 235.612 476.375 235.256 476.375C234.901 476.375 234.612 476.087 234.612 475.731L234.612 128.106C234.612 127.751 234.901 127.462 235.256 127.462C235.612 127.462 235.9 127.751 235.9 128.106Z" fill="url(#paint28_linear_3063_9981)" fill-opacity="0.04"/>
<path d="M587.387 128.106L587.387 475.731C587.387 476.087 587.099 476.375 586.744 476.375C586.388 476.375 586.1 476.087 586.1 475.731L586.1 128.106C586.1 127.751 586.388 127.462 586.744 127.462C587.099 127.462 587.387 127.751 587.387 128.106Z" fill="url(#paint29_linear_3063_9981)" fill-opacity="0.04"/>
<path d="M252.637 128.106L252.637 475.731C252.637 476.087 252.349 476.375 251.994 476.375C251.638 476.375 251.35 476.087 251.35 475.731L251.35 128.106C251.35 127.751 251.638 127.462 251.994 127.462C252.349 127.462 252.637 127.751 252.637 128.106Z" fill="url(#paint30_linear_3063_9981)" fill-opacity="0.04"/>
<path d="M604.125 128.106L604.125 475.731C604.125 476.087 603.837 476.375 603.481 476.375C603.126 476.375 602.838 476.087 602.838 475.731L602.838 128.106C602.838 127.751 603.126 127.462 603.481 127.462C603.837 127.462 604.125 127.751 604.125 128.106Z" fill="url(#paint31_linear_3063_9981)" fill-opacity="0.04"/>
<path d="M738.025 128.106L738.025 475.731C738.025 476.087 737.737 476.375 737.381 476.375C737.026 476.375 736.737 476.087 736.737 475.731L736.737 128.106C736.737 127.751 737.026 127.462 737.381 127.462C737.737 127.462 738.025 127.751 738.025 128.106Z" fill="url(#paint32_linear_3063_9981)" fill-opacity="0.04"/>
<path d="M269.375 126.819L269.375 475.731C269.375 476.087 269.087 476.375 268.731 476.375C268.376 476.375 268.088 476.087 268.088 475.731L268.088 126.819C268.088 126.463 268.376 126.175 268.731 126.175C269.087 126.175 269.375 126.463 269.375 126.819Z" fill="url(#paint33_linear_3063_9981)" fill-opacity="0.04"/>
<path d="M620.863 126.819L620.863 475.731C620.863 476.087 620.574 476.375 620.219 476.375C619.863 476.375 619.575 476.087 619.575 475.731L619.575 126.819C619.575 126.463 619.863 126.175 620.219 126.175C620.574 126.175 620.863 126.463 620.863 126.819Z" fill="url(#paint34_linear_3063_9981)" fill-opacity="0.04"/>
<path d="M754.762 126.819L754.762 475.731C754.762 476.087 754.474 476.375 754.119 476.375C753.763 476.375 753.475 476.087 753.475 475.731L753.475 126.819C753.475 126.463 753.763 126.175 754.119 126.175C754.474 126.175 754.762 126.463 754.762 126.819Z" fill="url(#paint35_linear_3063_9981)" fill-opacity="0.04"/>
<path d="M286.113 126.819L286.113 475.731C286.113 476.087 285.824 476.375 285.469 476.375C285.113 476.375 284.825 476.087 284.825 475.731L284.825 126.819C284.825 126.463 285.113 126.175 285.469 126.175C285.824 126.175 286.113 126.463 286.113 126.819Z" fill="url(#paint36_linear_3063_9981)" fill-opacity="0.04"/>
<path d="M637.6 126.819L637.6 475.731C637.6 476.087 637.312 476.375 636.956 476.375C636.601 476.375 636.313 476.087 636.313 475.731L636.313 126.819C636.313 126.463 636.601 126.175 636.956 126.175C637.312 126.175 637.6 126.463 637.6 126.819Z" fill="url(#paint37_linear_3063_9981)" fill-opacity="0.04"/>
<path d="M771.5 126.819L771.5 475.731C771.5 476.087 771.212 476.375 770.856 476.375C770.501 476.375 770.212 476.087 770.212 475.731L770.213 126.819C770.213 126.463 770.501 126.175 770.856 126.175C771.212 126.175 771.5 126.463 771.5 126.819Z" fill="url(#paint38_linear_3063_9981)" fill-opacity="0.04"/>
<path d="M302.85 126.819L302.85 475.731C302.85 476.087 302.562 476.375 302.206 476.375C301.851 476.375 301.563 476.087 301.563 475.731L301.563 126.819C301.563 126.463 301.851 126.175 302.206 126.175C302.562 126.175 302.85 126.463 302.85 126.819Z" fill="url(#paint39_linear_3063_9981)" fill-opacity="0.04"/>
<path d="M654.337 126.819L654.337 475.731C654.337 476.087 654.049 476.375 653.694 476.375C653.338 476.375 653.05 476.087 653.05 475.731L653.05 126.819C653.05 126.463 653.338 126.175 653.694 126.175C654.049 126.175 654.337 126.463 654.337 126.819Z" fill="url(#paint40_linear_3063_9981)" fill-opacity="0.04"/>
<path d="M319.587 126.819L319.587 475.731C319.587 476.087 319.299 476.375 318.944 476.375C318.588 476.375 318.3 476.087 318.3 475.731L318.3 126.819C318.3 126.463 318.588 126.175 318.944 126.175C319.299 126.175 319.587 126.463 319.587 126.819Z" fill="url(#paint41_linear_3063_9981)" fill-opacity="0.04"/>
<path d="M671.075 126.819L671.075 475.731C671.075 476.087 670.787 476.375 670.431 476.375C670.076 476.375 669.787 476.087 669.787 475.731L669.787 126.819C669.787 126.463 670.076 126.175 670.431 126.175C670.787 126.175 671.075 126.463 671.075 126.819Z" fill="url(#paint42_linear_3063_9981)" fill-opacity="0.04"/>
<path d="M336.325 126.819L336.325 475.731C336.325 476.087 336.037 476.375 335.681 476.375C335.326 476.375 335.037 476.087 335.037 475.731L335.037 126.819C335.037 126.463 335.326 126.175 335.681 126.175C336.037 126.175 336.325 126.463 336.325 126.819Z" fill="url(#paint43_linear_3063_9981)" fill-opacity="0.04"/>
<path d="M687.812 126.819L687.812 475.731C687.812 476.087 687.524 476.375 687.169 476.375C686.813 476.375 686.525 476.087 686.525 475.731L686.525 126.819C686.525 126.463 686.813 126.175 687.169 126.175C687.524 126.175 687.812 126.463 687.812 126.819Z" fill="url(#paint44_linear_3063_9981)" fill-opacity="0.04"/>
<path d="M353.062 126.819L353.062 475.731C353.062 476.087 352.774 476.375 352.419 476.375C352.063 476.375 351.775 476.087 351.775 475.731L351.775 126.819C351.775 126.463 352.063 126.175 352.419 126.175C352.774 126.175 353.062 126.463 353.062 126.819Z" fill="url(#paint45_linear_3063_9981)" fill-opacity="0.04"/>
<path d="M704.55 126.819L704.55 475.731C704.55 476.087 704.262 476.375 703.906 476.375C703.551 476.375 703.263 476.087 703.263 475.731L703.263 126.819C703.263 126.463 703.551 126.175 703.906 126.175C704.262 126.175 704.55 126.463 704.55 126.819Z" fill="url(#paint46_linear_3063_9981)" fill-opacity="0.04"/>
<path d="M369.8 126.819L369.8 475.731C369.8 476.087 369.512 476.375 369.156 476.375C368.801 476.375 368.513 476.087 368.513 475.731L368.513 126.819C368.513 126.463 368.801 126.175 369.156 126.175C369.512 126.175 369.8 126.463 369.8 126.819Z" fill="url(#paint47_linear_3063_9981)" fill-opacity="0.04"/>
<path d="M721.288 126.819L721.288 475.731C721.288 476.087 720.999 476.375 720.644 476.375C720.288 476.375 720 476.087 720 475.731L720 126.819C720 126.463 720.288 126.175 720.644 126.175C720.999 126.175 721.288 126.463 721.288 126.819Z" fill="url(#paint48_linear_3063_9981)" fill-opacity="0.04"/>
<path d="M152.212 129.394L152.212 478.306C152.212 478.662 151.924 478.95 151.569 478.95C151.213 478.95 150.925 478.662 150.925 478.306L150.925 129.394C150.925 129.038 151.213 128.75 151.569 128.75C151.924 128.75 152.212 129.038 152.212 129.394Z" fill="url(#paint49_linear_3063_9981)" fill-opacity="0.04"/>
<path d="M503.7 129.394L503.7 478.306C503.7 478.662 503.412 478.95 503.056 478.95C502.701 478.95 502.412 478.662 502.412 478.306L502.412 129.394C502.412 129.038 502.701 128.75 503.056 128.75C503.412 128.75 503.7 129.038 503.7 129.394Z" fill="url(#paint50_linear_3063_9981)" fill-opacity="0.04"/>
<path d="M135.475 129.394L135.475 478.306C135.475 478.662 135.187 478.95 134.831 478.95C134.476 478.95 134.188 478.662 134.188 478.306L134.188 129.394C134.188 129.038 134.476 128.75 134.831 128.75C135.187 128.75 135.475 129.038 135.475 129.394Z" fill="url(#paint51_linear_3063_9981)" fill-opacity="0.04"/>
<path d="M486.962 129.394L486.962 478.306C486.962 478.662 486.674 478.95 486.319 478.95C485.963 478.95 485.675 478.662 485.675 478.306L485.675 129.394C485.675 129.038 485.963 128.75 486.319 128.75C486.674 128.75 486.962 129.038 486.962 129.394Z" fill="url(#paint52_linear_3063_9981)" fill-opacity="0.04"/>
<path d="M118.738 129.394L118.738 478.306C118.738 478.662 118.449 478.95 118.094 478.95C117.738 478.95 117.45 478.662 117.45 478.306L117.45 129.394C117.45 129.038 117.738 128.75 118.094 128.75C118.449 128.75 118.738 129.038 118.738 129.394Z" fill="url(#paint53_linear_3063_9981)" fill-opacity="0.04"/>
<path d="M470.225 129.394L470.225 478.306C470.225 478.662 469.937 478.95 469.581 478.95C469.226 478.95 468.938 478.662 468.938 478.306L468.938 129.394C468.938 129.038 469.226 128.75 469.581 128.75C469.937 128.75 470.225 129.038 470.225 129.394Z" fill="url(#paint54_linear_3063_9981)" fill-opacity="0.04"/>
<path d="M102 129.394L102 478.306C102 478.662 101.712 478.95 101.356 478.95C101.001 478.95 100.713 478.662 100.713 478.306L100.713 129.394C100.713 129.038 101.001 128.75 101.356 128.75C101.712 128.75 102 129.038 102 129.394Z" fill="url(#paint55_linear_3063_9981)" fill-opacity="0.04"/>
<path d="M453.488 129.394L453.488 478.306C453.488 478.662 453.199 478.95 452.844 478.95C452.488 478.95 452.2 478.662 452.2 478.306L452.2 129.394C452.2 129.038 452.488 128.75 452.844 128.75C453.199 128.75 453.488 129.038 453.488 129.394Z" fill="url(#paint56_linear_3063_9981)" fill-opacity="0.04"/>
<path d="M85.2625 129.394L85.2624 478.306C85.2624 478.662 84.9742 478.95 84.6187 478.95C84.2632 478.95 83.975 478.662 83.975 478.306L83.975 129.394C83.975 129.038 84.2632 128.75 84.6187 128.75C84.9742 128.75 85.2625 129.038 85.2625 129.394Z" fill="url(#paint57_linear_3063_9981)" fill-opacity="0.04"/>
<path d="M436.75 129.394L436.75 478.306C436.75 478.662 436.462 478.95 436.106 478.95C435.751 478.95 435.463 478.662 435.463 478.306L435.463 129.394C435.463 129.038 435.751 128.75 436.106 128.75C436.462 128.75 436.75 129.038 436.75 129.394Z" fill="url(#paint58_linear_3063_9981)" fill-opacity="0.04"/>
<path d="M68.5249 129.394L68.5249 478.306C68.5249 478.662 68.2367 478.95 67.8811 478.95C67.5256 478.95 67.2374 478.662 67.2374 478.306L67.2374 129.394C67.2374 129.038 67.5256 128.75 67.8812 128.75C68.2367 128.75 68.5249 129.038 68.5249 129.394Z" fill="url(#paint59_linear_3063_9981)" fill-opacity="0.04"/>
<path d="M420.012 129.394L420.012 478.306C420.012 478.662 419.724 478.95 419.369 478.95C419.013 478.95 418.725 478.662 418.725 478.306L418.725 129.394C418.725 129.038 419.013 128.75 419.369 128.75C419.724 128.75 420.012 129.038 420.012 129.394Z" fill="url(#paint60_linear_3063_9981)" fill-opacity="0.04"/>
<path d="M51.7876 129.394L51.7876 478.306C51.7876 478.662 51.4994 478.95 51.1438 478.95C50.7883 478.95 50.5001 478.662 50.5001 478.306L50.5001 129.394C50.5001 129.038 50.7883 128.75 51.1439 128.75C51.4994 128.75 51.7876 129.038 51.7876 129.394Z" fill="url(#paint61_linear_3063_9981)" fill-opacity="0.04"/>
<path d="M403.275 129.394L403.275 478.306C403.275 478.662 402.987 478.95 402.631 478.95C402.276 478.95 401.987 478.662 401.987 478.306L401.987 129.394C401.987 129.038 402.276 128.75 402.631 128.75C402.987 128.75 403.275 129.038 403.275 129.394Z" fill="url(#paint62_linear_3063_9981)" fill-opacity="0.04"/>
<path d="M386.538 129.394L386.538 478.306C386.538 478.662 386.249 478.95 385.894 478.95C385.538 478.95 385.25 478.662 385.25 478.306L385.25 129.394C385.25 129.038 385.538 128.75 385.894 128.75C386.249 128.75 386.538 129.038 386.538 129.394Z" fill="url(#paint63_linear_3063_9981)" fill-opacity="0.04"/>
<g opacity="0.3" filter="url(#filter0_d_3063_9981)">
<circle cx="411" cy="309" r="309" fill="url(#paint64_radial_3063_9981)" shape-rendering="crispEdges"/>
</g>
<defs>
<filter id="filter0_d_3063_9981" x="99.425" y="0" width="623.15" height="623.15" filterUnits="userSpaceOnUse" color-interpolation-filters="sRGB">
<feFlood flood-opacity="0" result="BackgroundImageFix"/>
<feColorMatrix in="SourceAlpha" type="matrix" values="0 0 0 0 0 0 0 0 0 0 0 0 0 0 0 0 0 0 127 0" result="hardAlpha"/>
<feOffset dy="2.575"/>
<feGaussianBlur stdDeviation="1.2875"/>
<feComposite in2="hardAlpha" operator="out"/>
<feColorMatrix type="matrix" values="0 0 0 0 0 0 0 0 0 0 0 0 0 0 0 0 0 0 0.25 0"/>
<feBlend mode="normal" in2="BackgroundImageFix" result="effect1_dropShadow_3063_9981"/>
<feBlend mode="normal" in="SourceGraphic" in2="effect1_dropShadow_3063_9981" result="shape"/>
</filter>
<linearGradient id="paint0_linear_3063_9981" x1="0.287598" y1="310.931" x2="821.713" y2="310.931" gradientUnits="userSpaceOnUse">
<stop stop-color="#38FF9C" stop-opacity="0"/>
<stop offset="0.108435" stop-color="#38FF9C"/>
<stop offset="0.88" stop-color="#38FF9C"/>
<stop offset="1" stop-color="#38FF9C" stop-opacity="0"/>
</linearGradient>
<linearGradient id="paint1_linear_3063_9981" x1="0.287598" y1="143.556" x2="821.713" y2="143.556" gradientUnits="userSpaceOnUse">
<stop stop-color="#38FF9C" stop-opacity="0"/>
<stop offset="0.108435" stop-color="#38FF9C"/>
<stop offset="0.88" stop-color="#38FF9C"/>
<stop offset="1" stop-color="#38FF9C" stop-opacity="0"/>
</linearGradient>
<linearGradient id="paint2_linear_3063_9981" x1="0.287598" y1="327.669" x2="821.713" y2="327.669" gradientUnits="userSpaceOnUse">
<stop stop-color="#38FF9C" stop-opacity="0"/>
<stop offset="0.108435" stop-color="#38FF9C"/>
<stop offset="0.88" stop-color="#38FF9C"/>
<stop offset="1" stop-color="#38FF9C" stop-opacity="0"/>
</linearGradient>
<linearGradient id="paint3_linear_3063_9981" x1="0.287598" y1="160.294" x2="821.713" y2="160.294" gradientUnits="userSpaceOnUse">
<stop stop-color="#38FF9C" stop-opacity="0"/>
<stop offset="0.108435" stop-color="#38FF9C"/>
<stop offset="0.88" stop-color="#38FF9C"/>
<stop offset="1" stop-color="#38FF9C" stop-opacity="0"/>
</linearGradient>
<linearGradient id="paint4_linear_3063_9981" x1="0.287598" y1="344.406" x2="821.713" y2="344.406" gradientUnits="userSpaceOnUse">
<stop stop-color="#38FF9C" stop-opacity="0"/>
<stop offset="0.108435" stop-color="#38FF9C"/>
<stop offset="0.88" stop-color="#38FF9C"/>
<stop offset="1" stop-color="#38FF9C" stop-opacity="0"/>
</linearGradient>
<linearGradient id="paint5_linear_3063_9981" x1="0.287598" y1="177.031" x2="821.713" y2="177.031" gradientUnits="userSpaceOnUse">
<stop stop-color="#38FF9C" stop-opacity="0"/>
<stop offset="0.108435" stop-color="#38FF9C"/>
<stop offset="0.88" stop-color="#38FF9C"/>
<stop offset="1" stop-color="#38FF9C" stop-opacity="0"/>
</linearGradient>
<linearGradient id="paint6_linear_3063_9981" x1="0.287598" y1="361.144" x2="821.713" y2="361.144" gradientUnits="userSpaceOnUse">
<stop stop-color="#38FF9C" stop-opacity="0"/>
<stop offset="0.108435" stop-color="#38FF9C"/>
<stop offset="0.88" stop-color="#38FF9C"/>
<stop offset="1" stop-color="#38FF9C" stop-opacity="0"/>
</linearGradient>
<linearGradient id="paint7_linear_3063_9981" x1="0.287598" y1="193.769" x2="821.713" y2="193.769" gradientUnits="userSpaceOnUse">
<stop stop-color="#38FF9C" stop-opacity="0"/>
<stop offset="0.108435" stop-color="#38FF9C"/>
<stop offset="0.88" stop-color="#38FF9C"/>
<stop offset="1" stop-color="#38FF9C" stop-opacity="0"/>
</linearGradient>
<linearGradient id="paint8_linear_3063_9981" x1="0.287598" y1="377.881" x2="821.713" y2="377.881" gradientUnits="userSpaceOnUse">
<stop stop-color="#38FF9C" stop-opacity="0"/>
<stop offset="0.108435" stop-color="#38FF9C"/>
<stop offset="0.88" stop-color="#38FF9C"/>
<stop offset="1" stop-color="#38FF9C" stop-opacity="0"/>
</linearGradient>
<linearGradient id="paint9_linear_3063_9981" x1="0.287598" y1="210.506" x2="821.713" y2="210.506" gradientUnits="userSpaceOnUse">
<stop stop-color="#38FF9C" stop-opacity="0"/>
<stop offset="0.108435" stop-color="#38FF9C"/>
<stop offset="0.88" stop-color="#38FF9C"/>
<stop offset="1" stop-color="#38FF9C" stop-opacity="0"/>
</linearGradient>
<linearGradient id="paint10_linear_3063_9981" x1="0.287598" y1="394.619" x2="821.713" y2="394.619" gradientUnits="userSpaceOnUse">
<stop stop-color="#38FF9C" stop-opacity="0"/>
<stop offset="0.108435" stop-color="#38FF9C"/>
<stop offset="0.88" stop-color="#38FF9C"/>
<stop offset="1" stop-color="#38FF9C" stop-opacity="0"/>
</linearGradient>
<linearGradient id="paint11_linear_3063_9981" x1="0.287598" y1="227.244" x2="821.713" y2="227.244" gradientUnits="userSpaceOnUse">
<stop stop-color="#38FF9C" stop-opacity="0"/>
<stop offset="0.108435" stop-color="#38FF9C"/>
<stop offset="0.88" stop-color="#38FF9C"/>
<stop offset="1" stop-color="#38FF9C" stop-opacity="0"/>
</linearGradient>
<linearGradient id="paint12_linear_3063_9981" x1="0.287598" y1="411.356" x2="821.713" y2="411.356" gradientUnits="userSpaceOnUse">
<stop stop-color="#38FF9C" stop-opacity="0"/>
<stop offset="0.108435" stop-color="#38FF9C"/>
<stop offset="0.88" stop-color="#38FF9C"/>
<stop offset="1" stop-color="#38FF9C" stop-opacity="0"/>
</linearGradient>
<linearGradient id="paint13_linear_3063_9981" x1="0.287598" y1="243.981" x2="821.713" y2="243.981" gradientUnits="userSpaceOnUse">
<stop stop-color="#38FF9C" stop-opacity="0"/>
<stop offset="0.108435" stop-color="#38FF9C"/>
<stop offset="0.88" stop-color="#38FF9C"/>
<stop offset="1" stop-color="#38FF9C" stop-opacity="0"/>
</linearGradient>
<linearGradient id="paint14_linear_3063_9981" x1="0.287598" y1="428.094" x2="821.713" y2="428.094" gradientUnits="userSpaceOnUse">
<stop stop-color="#38FF9C" stop-opacity="0"/>
<stop offset="0.108435" stop-color="#38FF9C"/>
<stop offset="0.88" stop-color="#38FF9C"/>
<stop offset="1" stop-color="#38FF9C" stop-opacity="0"/>
</linearGradient>
<linearGradient id="paint15_linear_3063_9981" x1="0.287598" y1="260.719" x2="821.713" y2="260.719" gradientUnits="userSpaceOnUse">
<stop stop-color="#38FF9C" stop-opacity="0"/>
<stop offset="0.108435" stop-color="#38FF9C"/>
<stop offset="0.88" stop-color="#38FF9C"/>
<stop offset="1" stop-color="#38FF9C" stop-opacity="0"/>
</linearGradient>
<linearGradient id="paint16_linear_3063_9981" x1="0.287598" y1="444.831" x2="821.713" y2="444.831" gradientUnits="userSpaceOnUse">
<stop stop-color="#38FF9C" stop-opacity="0"/>
<stop offset="0.108435" stop-color="#38FF9C"/>
<stop offset="0.88" stop-color="#38FF9C"/>
<stop offset="1" stop-color="#38FF9C" stop-opacity="0"/>
</linearGradient>
<linearGradient id="paint17_linear_3063_9981" x1="0.287598" y1="277.456" x2="821.713" y2="277.456" gradientUnits="userSpaceOnUse">
<stop stop-color="#38FF9C" stop-opacity="0"/>
<stop offset="0.108435" stop-color="#38FF9C"/>
<stop offset="0.88" stop-color="#38FF9C"/>
<stop offset="1" stop-color="#38FF9C" stop-opacity="0"/>
</linearGradient>
<linearGradient id="paint18_linear_3063_9981" x1="0.287598" y1="461.569" x2="821.713" y2="461.569" gradientUnits="userSpaceOnUse">
<stop stop-color="#38FF9C" stop-opacity="0"/>
<stop offset="0.108435" stop-color="#38FF9C"/>
<stop offset="0.88" stop-color="#38FF9C"/>
<stop offset="1" stop-color="#38FF9C" stop-opacity="0"/>
</linearGradient>
<linearGradient id="paint19_linear_3063_9981" x1="0.287598" y1="294.194" x2="821.713" y2="294.194" gradientUnits="userSpaceOnUse">
<stop stop-color="#38FF9C" stop-opacity="0"/>
<stop offset="0.108435" stop-color="#38FF9C"/>
<stop offset="0.88" stop-color="#38FF9C"/>
<stop offset="1" stop-color="#38FF9C" stop-opacity="0"/>
</linearGradient>
<linearGradient id="paint20_linear_3063_9981" x1="168.306" y1="128.75" x2="168.306" y2="478.95" gradientUnits="userSpaceOnUse">
<stop stop-color="#38FF9C" stop-opacity="0"/>
<stop offset="0.108435" stop-color="#38FF9C"/>
<stop offset="0.88" stop-color="#38FF9C"/>
<stop offset="1" stop-color="#38FF9C" stop-opacity="0"/>
</linearGradient>
<linearGradient id="paint21_linear_3063_9981" x1="519.794" y1="128.75" x2="519.794" y2="478.95" gradientUnits="userSpaceOnUse">
<stop stop-color="#38FF9C" stop-opacity="0"/>
<stop offset="0.108435" stop-color="#38FF9C"/>
<stop offset="0.88" stop-color="#38FF9C"/>
<stop offset="1" stop-color="#38FF9C" stop-opacity="0"/>
</linearGradient>
<linearGradient id="paint22_linear_3063_9981" x1="185.044" y1="128.75" x2="185.044" y2="478.95" gradientUnits="userSpaceOnUse">
<stop stop-color="#38FF9C" stop-opacity="0"/>
<stop offset="0.108435" stop-color="#38FF9C"/>
<stop offset="0.88" stop-color="#38FF9C"/>
<stop offset="1" stop-color="#38FF9C" stop-opacity="0"/>
</linearGradient>
<linearGradient id="paint23_linear_3063_9981" x1="536.531" y1="128.75" x2="536.531" y2="478.95" gradientUnits="userSpaceOnUse">
<stop stop-color="#38FF9C" stop-opacity="0"/>
<stop offset="0.108435" stop-color="#38FF9C"/>
<stop offset="0.88" stop-color="#38FF9C"/>
<stop offset="1" stop-color="#38FF9C" stop-opacity="0"/>
</linearGradient>
<linearGradient id="paint24_linear_3063_9981" x1="201.781" y1="128.75" x2="201.781" y2="477.663" gradientUnits="userSpaceOnUse">
<stop stop-color="#38FF9C" stop-opacity="0"/>
<stop offset="0.108435" stop-color="#38FF9C"/>
<stop offset="0.88" stop-color="#38FF9C"/>
<stop offset="1" stop-color="#38FF9C" stop-opacity="0"/>
</linearGradient>
<linearGradient id="paint25_linear_3063_9981" x1="553.269" y1="128.75" x2="553.269" y2="477.663" gradientUnits="userSpaceOnUse">
<stop stop-color="#38FF9C" stop-opacity="0"/>
<stop offset="0.108435" stop-color="#38FF9C"/>
<stop offset="0.88" stop-color="#38FF9C"/>
<stop offset="1" stop-color="#38FF9C" stop-opacity="0"/>
</linearGradient>
<linearGradient id="paint26_linear_3063_9981" x1="218.519" y1="128.75" x2="218.519" y2="477.663" gradientUnits="userSpaceOnUse">
<stop stop-color="#38FF9C" stop-opacity="0"/>
<stop offset="0.108435" stop-color="#38FF9C"/>
<stop offset="0.88" stop-color="#38FF9C"/>
<stop offset="1" stop-color="#38FF9C" stop-opacity="0"/>
</linearGradient>
<linearGradient id="paint27_linear_3063_9981" x1="570.006" y1="128.75" x2="570.006" y2="477.663" gradientUnits="userSpaceOnUse">
<stop stop-color="#38FF9C" stop-opacity="0"/>
<stop offset="0.108435" stop-color="#38FF9C"/>
<stop offset="0.88" stop-color="#38FF9C"/>
<stop offset="1" stop-color="#38FF9C" stop-opacity="0"/>
</linearGradient>
<linearGradient id="paint28_linear_3063_9981" x1="235.256" y1="127.462" x2="235.256" y2="476.375" gradientUnits="userSpaceOnUse">
<stop stop-color="#38FF9C" stop-opacity="0"/>
<stop offset="0.108435" stop-color="#38FF9C"/>
<stop offset="0.88" stop-color="#38FF9C"/>
<stop offset="1" stop-color="#38FF9C" stop-opacity="0"/>
</linearGradient>
<linearGradient id="paint29_linear_3063_9981" x1="586.744" y1="127.462" x2="586.744" y2="476.375" gradientUnits="userSpaceOnUse">
<stop stop-color="#38FF9C" stop-opacity="0"/>
<stop offset="0.108435" stop-color="#38FF9C"/>
<stop offset="0.88" stop-color="#38FF9C"/>
<stop offset="1" stop-color="#38FF9C" stop-opacity="0"/>
</linearGradient>
<linearGradient id="paint30_linear_3063_9981" x1="251.994" y1="127.462" x2="251.994" y2="476.375" gradientUnits="userSpaceOnUse">
<stop stop-color="#38FF9C" stop-opacity="0"/>
<stop offset="0.108435" stop-color="#38FF9C"/>
<stop offset="0.88" stop-color="#38FF9C"/>
<stop offset="1" stop-color="#38FF9C" stop-opacity="0"/>
</linearGradient>
<linearGradient id="paint31_linear_3063_9981" x1="603.481" y1="127.462" x2="603.481" y2="476.375" gradientUnits="userSpaceOnUse">
<stop stop-color="#38FF9C" stop-opacity="0"/>
<stop offset="0.108435" stop-color="#38FF9C"/>
<stop offset="0.88" stop-color="#38FF9C"/>
<stop offset="1" stop-color="#38FF9C" stop-opacity="0"/>
</linearGradient>
<linearGradient id="paint32_linear_3063_9981" x1="737.381" y1="127.462" x2="737.381" y2="476.375" gradientUnits="userSpaceOnUse">
<stop stop-color="#38FF9C" stop-opacity="0"/>
<stop offset="0.108435" stop-color="#38FF9C"/>
<stop offset="0.88" stop-color="#38FF9C"/>
<stop offset="1" stop-color="#38FF9C" stop-opacity="0"/>
</linearGradient>
<linearGradient id="paint33_linear_3063_9981" x1="268.731" y1="126.175" x2="268.731" y2="476.375" gradientUnits="userSpaceOnUse">
<stop stop-color="#38FF9C" stop-opacity="0"/>
<stop offset="0.108435" stop-color="#38FF9C"/>
<stop offset="0.88" stop-color="#38FF9C"/>
<stop offset="1" stop-color="#38FF9C" stop-opacity="0"/>
</linearGradient>
<linearGradient id="paint34_linear_3063_9981" x1="620.219" y1="126.175" x2="620.219" y2="476.375" gradientUnits="userSpaceOnUse">
<stop stop-color="#38FF9C" stop-opacity="0"/>
<stop offset="0.108435" stop-color="#38FF9C"/>
<stop offset="0.88" stop-color="#38FF9C"/>
<stop offset="1" stop-color="#38FF9C" stop-opacity="0"/>
</linearGradient>
<linearGradient id="paint35_linear_3063_9981" x1="754.119" y1="126.175" x2="754.119" y2="476.375" gradientUnits="userSpaceOnUse">
<stop stop-color="#38FF9C" stop-opacity="0"/>
<stop offset="0.108435" stop-color="#38FF9C"/>
<stop offset="0.88" stop-color="#38FF9C"/>
<stop offset="1" stop-color="#38FF9C" stop-opacity="0"/>
</linearGradient>
<linearGradient id="paint36_linear_3063_9981" x1="285.469" y1="126.175" x2="285.469" y2="476.375" gradientUnits="userSpaceOnUse">
<stop stop-color="#38FF9C" stop-opacity="0"/>
<stop offset="0.108435" stop-color="#38FF9C"/>
<stop offset="0.88" stop-color="#38FF9C"/>
<stop offset="1" stop-color="#38FF9C" stop-opacity="0"/>
</linearGradient>
<linearGradient id="paint37_linear_3063_9981" x1="636.956" y1="126.175" x2="636.956" y2="476.375" gradientUnits="userSpaceOnUse">
<stop stop-color="#38FF9C" stop-opacity="0"/>
<stop offset="0.108435" stop-color="#38FF9C"/>
<stop offset="0.88" stop-color="#38FF9C"/>
<stop offset="1" stop-color="#38FF9C" stop-opacity="0"/>
</linearGradient>
<linearGradient id="paint38_linear_3063_9981" x1="770.856" y1="126.175" x2="770.856" y2="476.375" gradientUnits="userSpaceOnUse">
<stop stop-color="#38FF9C" stop-opacity="0"/>
<stop offset="0.108435" stop-color="#38FF9C"/>
<stop offset="0.88" stop-color="#38FF9C"/>
<stop offset="1" stop-color="#38FF9C" stop-opacity="0"/>
</linearGradient>
<linearGradient id="paint39_linear_3063_9981" x1="302.206" y1="126.175" x2="302.206" y2="476.375" gradientUnits="userSpaceOnUse">
<stop stop-color="#38FF9C" stop-opacity="0"/>
<stop offset="0.108435" stop-color="#38FF9C"/>
<stop offset="0.88" stop-color="#38FF9C"/>
<stop offset="1" stop-color="#38FF9C" stop-opacity="0"/>
</linearGradient>
<linearGradient id="paint40_linear_3063_9981" x1="653.694" y1="126.175" x2="653.694" y2="476.375" gradientUnits="userSpaceOnUse">
<stop stop-color="#38FF9C" stop-opacity="0"/>
<stop offset="0.108435" stop-color="#38FF9C"/>
<stop offset="0.88" stop-color="#38FF9C"/>
<stop offset="1" stop-color="#38FF9C" stop-opacity="0"/>
</linearGradient>
<linearGradient id="paint41_linear_3063_9981" x1="318.944" y1="126.175" x2="318.944" y2="476.375" gradientUnits="userSpaceOnUse">
<stop stop-color="#38FF9C" stop-opacity="0"/>
<stop offset="0.108435" stop-color="#38FF9C"/>
<stop offset="0.88" stop-color="#38FF9C"/>
<stop offset="1" stop-color="#38FF9C" stop-opacity="0"/>
</linearGradient>
<linearGradient id="paint42_linear_3063_9981" x1="670.431" y1="126.175" x2="670.431" y2="476.375" gradientUnits="userSpaceOnUse">
<stop stop-color="#38FF9C" stop-opacity="0"/>
<stop offset="0.108435" stop-color="#38FF9C"/>
<stop offset="0.88" stop-color="#38FF9C"/>
<stop offset="1" stop-color="#38FF9C" stop-opacity="0"/>
</linearGradient>
<linearGradient id="paint43_linear_3063_9981" x1="335.681" y1="126.175" x2="335.681" y2="476.375" gradientUnits="userSpaceOnUse">
<stop stop-color="#38FF9C" stop-opacity="0"/>
<stop offset="0.108435" stop-color="#38FF9C"/>
<stop offset="0.88" stop-color="#38FF9C"/>
<stop offset="1" stop-color="#38FF9C" stop-opacity="0"/>
</linearGradient>
<linearGradient id="paint44_linear_3063_9981" x1="687.169" y1="126.175" x2="687.169" y2="476.375" gradientUnits="userSpaceOnUse">
<stop stop-color="#38FF9C" stop-opacity="0"/>
<stop offset="0.108435" stop-color="#38FF9C"/>
<stop offset="0.88" stop-color="#38FF9C"/>
<stop offset="1" stop-color="#38FF9C" stop-opacity="0"/>
</linearGradient>
<linearGradient id="paint45_linear_3063_9981" x1="352.419" y1="126.175" x2="352.419" y2="476.375" gradientUnits="userSpaceOnUse">
<stop stop-color="#38FF9C" stop-opacity="0"/>
<stop offset="0.108435" stop-color="#38FF9C"/>
<stop offset="0.88" stop-color="#38FF9C"/>
<stop offset="1" stop-color="#38FF9C" stop-opacity="0"/>
</linearGradient>
<linearGradient id="paint46_linear_3063_9981" x1="703.906" y1="126.175" x2="703.906" y2="476.375" gradientUnits="userSpaceOnUse">
<stop stop-color="#38FF9C" stop-opacity="0"/>
<stop offset="0.108435" stop-color="#38FF9C"/>
<stop offset="0.88" stop-color="#38FF9C"/>
<stop offset="1" stop-color="#38FF9C" stop-opacity="0"/>
</linearGradient>
<linearGradient id="paint47_linear_3063_9981" x1="369.156" y1="126.175" x2="369.156" y2="476.375" gradientUnits="userSpaceOnUse">
<stop stop-color="#38FF9C" stop-opacity="0"/>
<stop offset="0.108435" stop-color="#38FF9C"/>
<stop offset="0.88" stop-color="#38FF9C"/>
<stop offset="1" stop-color="#38FF9C" stop-opacity="0"/>
</linearGradient>
<linearGradient id="paint48_linear_3063_9981" x1="720.644" y1="126.175" x2="720.644" y2="476.375" gradientUnits="userSpaceOnUse">
<stop stop-color="#38FF9C" stop-opacity="0"/>
<stop offset="0.108435" stop-color="#38FF9C"/>
<stop offset="0.88" stop-color="#38FF9C"/>
<stop offset="1" stop-color="#38FF9C" stop-opacity="0"/>
</linearGradient>
<linearGradient id="paint49_linear_3063_9981" x1="151.569" y1="128.75" x2="151.569" y2="478.95" gradientUnits="userSpaceOnUse">
<stop stop-color="#38FF9C" stop-opacity="0"/>
<stop offset="0.108435" stop-color="#38FF9C"/>
<stop offset="0.88" stop-color="#38FF9C"/>
<stop offset="1" stop-color="#38FF9C" stop-opacity="0"/>
</linearGradient>
<linearGradient id="paint50_linear_3063_9981" x1="503.056" y1="128.75" x2="503.056" y2="478.95" gradientUnits="userSpaceOnUse">
<stop stop-color="#38FF9C" stop-opacity="0"/>
<stop offset="0.108435" stop-color="#38FF9C"/>
<stop offset="0.88" stop-color="#38FF9C"/>
<stop offset="1" stop-color="#38FF9C" stop-opacity="0"/>
</linearGradient>
<linearGradient id="paint51_linear_3063_9981" x1="134.831" y1="128.75" x2="134.831" y2="478.95" gradientUnits="userSpaceOnUse">
<stop stop-color="#38FF9C" stop-opacity="0"/>
<stop offset="0.108435" stop-color="#38FF9C"/>
<stop offset="0.88" stop-color="#38FF9C"/>
<stop offset="1" stop-color="#38FF9C" stop-opacity="0"/>
</linearGradient>
<linearGradient id="paint52_linear_3063_9981" x1="486.319" y1="128.75" x2="486.319" y2="478.95" gradientUnits="userSpaceOnUse">
<stop stop-color="#38FF9C" stop-opacity="0"/>
<stop offset="0.108435" stop-color="#38FF9C"/>
<stop offset="0.88" stop-color="#38FF9C"/>
<stop offset="1" stop-color="#38FF9C" stop-opacity="0"/>
</linearGradient>
<linearGradient id="paint53_linear_3063_9981" x1="118.094" y1="128.75" x2="118.094" y2="478.95" gradientUnits="userSpaceOnUse">
<stop stop-color="#38FF9C" stop-opacity="0"/>
<stop offset="0.108435" stop-color="#38FF9C"/>
<stop offset="0.88" stop-color="#38FF9C"/>
<stop offset="1" stop-color="#38FF9C" stop-opacity="0"/>
</linearGradient>
<linearGradient id="paint54_linear_3063_9981" x1="469.581" y1="128.75" x2="469.581" y2="478.95" gradientUnits="userSpaceOnUse">
<stop stop-color="#38FF9C" stop-opacity="0"/>
<stop offset="0.108435" stop-color="#38FF9C"/>
<stop offset="0.88" stop-color="#38FF9C"/>
<stop offset="1" stop-color="#38FF9C" stop-opacity="0"/>
</linearGradient>
<linearGradient id="paint55_linear_3063_9981" x1="101.356" y1="128.75" x2="101.356" y2="478.95" gradientUnits="userSpaceOnUse">
<stop stop-color="#38FF9C" stop-opacity="0"/>
<stop offset="0.108435" stop-color="#38FF9C"/>
<stop offset="0.88" stop-color="#38FF9C"/>
<stop offset="1" stop-color="#38FF9C" stop-opacity="0"/>
</linearGradient>
<linearGradient id="paint56_linear_3063_9981" x1="452.844" y1="128.75" x2="452.844" y2="478.95" gradientUnits="userSpaceOnUse">
<stop stop-color="#38FF9C" stop-opacity="0"/>
<stop offset="0.108435" stop-color="#38FF9C"/>
<stop offset="0.88" stop-color="#38FF9C"/>
<stop offset="1" stop-color="#38FF9C" stop-opacity="0"/>
</linearGradient>
<linearGradient id="paint57_linear_3063_9981" x1="84.6187" y1="128.75" x2="84.6187" y2="478.95" gradientUnits="userSpaceOnUse">
<stop stop-color="#38FF9C" stop-opacity="0"/>
<stop offset="0.108435" stop-color="#38FF9C"/>
<stop offset="0.88" stop-color="#38FF9C"/>
<stop offset="1" stop-color="#38FF9C" stop-opacity="0"/>
</linearGradient>
<linearGradient id="paint58_linear_3063_9981" x1="436.106" y1="128.75" x2="436.106" y2="478.95" gradientUnits="userSpaceOnUse">
<stop stop-color="#38FF9C" stop-opacity="0"/>
<stop offset="0.108435" stop-color="#38FF9C"/>
<stop offset="0.88" stop-color="#38FF9C"/>
<stop offset="1" stop-color="#38FF9C" stop-opacity="0"/>
</linearGradient>
<linearGradient id="paint59_linear_3063_9981" x1="67.8812" y1="128.75" x2="67.8811" y2="478.95" gradientUnits="userSpaceOnUse">
<stop stop-color="#38FF9C" stop-opacity="0"/>
<stop offset="0.108435" stop-color="#38FF9C"/>
<stop offset="0.88" stop-color="#38FF9C"/>
<stop offset="1" stop-color="#38FF9C" stop-opacity="0"/>
</linearGradient>
<linearGradient id="paint60_linear_3063_9981" x1="419.369" y1="128.75" x2="419.369" y2="478.95" gradientUnits="userSpaceOnUse">
<stop stop-color="#38FF9C" stop-opacity="0"/>
<stop offset="0.108435" stop-color="#38FF9C"/>
<stop offset="0.88" stop-color="#38FF9C"/>
<stop offset="1" stop-color="#38FF9C" stop-opacity="0"/>
</linearGradient>
<linearGradient id="paint61_linear_3063_9981" x1="51.1439" y1="128.75" x2="51.1438" y2="478.95" gradientUnits="userSpaceOnUse">
<stop stop-color="#38FF9C" stop-opacity="0"/>
<stop offset="0.108435" stop-color="#38FF9C"/>
<stop offset="0.88" stop-color="#38FF9C"/>
<stop offset="1" stop-color="#38FF9C" stop-opacity="0"/>
</linearGradient>
<linearGradient id="paint62_linear_3063_9981" x1="402.631" y1="128.75" x2="402.631" y2="478.95" gradientUnits="userSpaceOnUse">
<stop stop-color="#38FF9C" stop-opacity="0"/>
<stop offset="0.108435" stop-color="#38FF9C"/>
<stop offset="0.88" stop-color="#38FF9C"/>
<stop offset="1" stop-color="#38FF9C" stop-opacity="0"/>
</linearGradient>
<linearGradient id="paint63_linear_3063_9981" x1="385.894" y1="128.75" x2="385.894" y2="478.95" gradientUnits="userSpaceOnUse">
<stop stop-color="#38FF9C" stop-opacity="0"/>
<stop offset="0.108435" stop-color="#38FF9C"/>
<stop offset="0.88" stop-color="#38FF9C"/>
<stop offset="1" stop-color="#38FF9C" stop-opacity="0"/>
</linearGradient>
<radialGradient id="paint64_radial_3063_9981" cx="0" cy="0" r="1" gradientUnits="userSpaceOnUse" gradientTransform="translate(411 309) rotate(90) scale(309)">
<stop offset="0.25" stop-color="#38FF9C" stop-opacity="0.3"/>
<stop offset="0.58" stop-color="#38FF9C" stop-opacity="0.15"/>
<stop offset="1" stop-color="#38FF9C" stop-opacity="0"/>
</radialGradient>
</defs>
</svg>
