<svg width="16" height="16" viewBox="0 0 16 16" fill="none" xmlns="http://www.w3.org/2000/svg">
<path d="M4.99998 9.6665C3.94665 9.6665 3.06465 10.3732 2.77531 11.3332H1.33331V12.6665H2.77531C3.06465 13.6265 3.94665 14.3332 4.99998 14.3332C6.05331 14.3332 6.93531 13.6265 7.22465 12.6665H14.6666V11.3332H7.22465C6.93531 10.3732 6.05331 9.6665 4.99998 9.6665ZM4.99998 12.9998C4.44865 12.9998 3.99998 12.5512 3.99998 11.9998C3.99998 11.4485 4.44865 10.9998 4.99998 10.9998C5.55131 10.9998 5.99998 11.4485 5.99998 11.9998C5.99998 12.5512 5.55131 12.9998 4.99998 12.9998ZM11 5.6665C9.94665 5.6665 9.06465 6.37317 8.77531 7.33317H1.33331V8.6665H8.77531C9.06465 9.6265 9.94665 10.3332 11 10.3332C12.0533 10.3332 12.9353 9.6265 13.2246 8.6665H14.6666V7.33317H13.2246C12.9353 6.37317 12.0533 5.6665 11 5.6665ZM11 8.99984C10.4486 8.99984 9.99998 8.55117 9.99998 7.99984C9.99998 7.4485 10.4486 6.99984 11 6.99984C11.5513 6.99984 12 7.4485 12 7.99984C12 8.55117 11.5513 8.99984 11 8.99984Z" fill="#262626"/>
<path d="M8.55798 3.33317C8.26865 2.37317 7.38665 1.6665 6.33331 1.6665C5.27998 1.6665 4.39798 2.37317 4.10865 3.33317H1.33331V4.6665H4.10865C4.39798 5.6265 5.27998 6.33317 6.33331 6.33317C7.38665 6.33317 8.26865 5.6265 8.55798 4.6665H14.75V3.33317H8.55798ZM6.33331 4.99984C5.78198 4.99984 5.33331 4.55117 5.33331 3.99984C5.33331 3.4485 5.78198 2.99984 6.33331 2.99984C6.88465 2.99984 7.33331 3.4485 7.33331 3.99984C7.33331 4.55117 6.88465 4.99984 6.33331 4.99984Z" fill="#262626"/>
</svg>
