<svg width="492" height="126" viewBox="0 0 492 126" fill="none" xmlns="http://www.w3.org/2000/svg">
<path fill-rule="evenodd" clip-rule="evenodd" d="M82.6516 3.97559C100.793 10.1004 115.069 24.4656 121.266 42.6234C123.748 49.2146 125.109 56.3666 125.109 63.8296C125.109 84.5973 114.592 102.899 98.616 113.661C88.4821 120.918 76.077 125.189 62.6725 125.189C58.73 125.189 54.4265 124.506 50.6895 123.8L50.7006 123.778C50.9116 123.401 53.5547 118.675 58.6411 109.596L81.6021 68.4385L84.6284 63.18L74.6722 45.8662H58.7799C74.6888 17.941 82.646 3.97559 82.646 3.97559H82.6516Z" fill="#CBFF01"/>
<path fill-rule="evenodd" clip-rule="evenodd" d="M62.6783 0.810547C67.2594 0.810547 71.3463 1.12706 75.6442 2.07659C75.6775 2.08215 67.0984 17.4857 49.9123 48.2873L47.0249 53.3793L44.2262 58.399L41.1999 63.6576L51.1562 80.9713H67.0984L44.2984 120.757C44.254 120.824 44.2151 120.891 44.1763 120.957L44.0152 121.235C43.6487 121.874 43.4655 122.196 43.4655 122.196C18.4833 114.183 0.719727 90.7443 0.719727 63.0024C0.719727 28.6525 28.4562 0.810547 62.6728 0.810547H62.6783Z" fill="#00FFA3"/>
<path d="M184.691 100.761V33.5221H198.079V100.761H184.691ZM162.802 43.8837V32.0562H219.974V43.8837H162.802ZM235.783 101.739C231.485 101.739 227.603 100.661 224.155 98.5126C220.707 96.3636 217.997 93.4317 216.042 89.7168C214.088 86.002 213.11 81.8318 213.11 77.2063C213.11 72.5808 214.088 68.3107 216.042 64.6014C217.997 60.8865 220.701 57.9546 224.155 55.8057C227.609 53.6567 231.485 52.5795 235.783 52.5795C239.17 52.5795 242.202 53.2625 244.873 54.634C247.544 56 249.659 57.9213 251.225 60.3979C252.852 62.8078 253.735 65.5453 253.863 68.6049V85.6077C253.735 88.734 252.852 91.5049 251.225 93.9148C249.659 96.3247 247.544 98.246 244.873 99.6786C242.202 101.045 239.17 101.733 235.783 101.733V101.739ZM238.126 89.9112C241.708 89.9112 244.606 88.7395 246.822 86.3907C249.037 83.9808 250.142 80.8878 250.142 77.1063C250.142 74.6298 249.62 72.4475 248.576 70.5595C247.599 68.6049 246.2 67.1057 244.373 66.0618C242.613 64.9567 240.53 64.4014 238.12 64.4014C235.711 64.4014 233.689 64.9567 231.868 66.0618C230.108 67.1057 228.708 68.6049 227.664 70.5595C226.687 72.4475 226.199 74.6298 226.199 77.1063C226.199 79.5829 226.687 81.8929 227.664 83.8475C228.708 85.7355 230.108 87.2347 231.868 88.3453C233.689 89.3892 235.777 89.9112 238.12 89.9112H238.126ZM249.465 100.761V88.0565L251.519 76.5233L249.465 65.1844V53.5568H262.17V100.761H249.465ZM289.717 101.839C287.047 101.839 284.409 101.478 281.799 100.761C279.256 100.045 276.913 99.0678 274.764 97.8296C272.615 96.5246 270.755 94.9643 269.194 93.1374L276.818 85.4189C278.445 87.2458 280.339 88.6118 282.488 89.5225C284.637 90.4332 287.013 90.8885 289.623 90.8885C291.705 90.8885 293.271 90.5942 294.315 90.0112C295.42 89.4226 295.976 88.5452 295.976 87.3736C295.976 86.0686 295.387 85.058 294.215 84.3417C293.11 83.6254 291.639 83.0368 289.817 82.5815C287.991 82.0595 286.069 81.5042 284.054 80.9211C282.099 80.2715 280.211 79.4552 278.384 78.4779C276.557 77.434 275.064 76.0346 273.886 74.2744C272.781 72.4531 272.226 70.1042 272.226 67.239C272.226 64.3737 272.942 61.6361 274.375 59.4205C275.874 57.205 277.99 55.478 280.727 54.2398C283.465 53.0015 286.691 52.3851 290.4 52.3851C294.31 52.3851 297.83 53.0681 300.956 54.4397C304.149 55.8056 306.787 57.8602 308.875 60.5978L301.156 68.3162C299.724 66.556 298.097 65.2844 296.27 64.507C294.51 63.724 292.588 63.3353 290.506 63.3353C288.618 63.3353 287.152 63.6296 286.108 64.2127C285.131 64.8013 284.642 65.612 284.642 66.6559C284.642 67.8275 285.197 68.7438 286.302 69.3935C287.474 70.0431 288.973 70.6317 290.8 71.1537C292.627 71.609 294.515 72.1643 296.47 72.814C298.491 73.4026 300.379 74.2466 302.139 75.3572C303.966 76.4622 305.426 77.9337 306.537 79.7551C307.709 81.5819 308.297 83.9252 308.297 86.7905C308.297 91.416 306.637 95.0976 303.311 97.8351C299.99 100.506 295.459 101.844 289.729 101.844L289.717 101.839ZM347.023 100.761L328.748 76.4289L346.928 53.5623H361.688L340.382 79.3608L340.87 73.1083L362.665 100.767H347.028L347.023 100.761ZM316.921 100.761V30.1016H329.726V100.761H316.921ZM402.074 101.839C397.059 101.839 392.367 100.928 388.003 99.1012C383.705 97.2743 379.923 94.7699 376.664 91.577C373.471 88.3175 370.961 84.5416 369.14 80.2382C367.318 75.8736 366.402 71.2148 366.402 66.2617C366.402 61.3085 367.28 56.7163 369.04 52.4795C370.861 48.1816 373.371 44.4334 376.564 41.2406C379.823 37.981 383.599 35.4767 387.903 33.7165C392.201 31.8896 396.859 30.9789 401.879 30.9789C406.899 30.9789 411.652 31.8896 415.95 33.7165C420.248 35.4767 423.996 37.981 427.189 41.2406C430.449 44.4334 432.986 48.1816 434.813 52.4795C436.634 56.7774 437.551 61.4085 437.551 66.3561C437.551 71.3036 436.64 75.9347 434.813 80.2326C432.986 84.5305 430.449 88.312 427.189 91.5715C423.996 94.7644 420.248 97.2743 415.95 99.0956C411.713 100.922 407.088 101.833 402.074 101.833V101.839ZM401.879 89.4281C406.31 89.4281 410.153 88.4508 413.413 86.4962C416.672 84.5416 419.21 81.8374 421.037 78.3835C422.925 74.9296 423.869 70.8927 423.869 66.2672C423.869 62.88 423.347 59.7815 422.303 56.9829C421.259 54.1787 419.759 51.7687 417.805 49.7531C415.85 47.6652 413.54 46.0715 410.864 44.9665C408.193 43.8615 405.194 43.3062 401.874 43.3062C397.576 43.3062 393.761 44.2835 390.44 46.2381C387.181 48.1261 384.61 50.797 382.722 54.2509C380.895 57.7047 379.984 61.7083 379.984 66.2728C379.984 69.7266 380.506 72.8862 381.55 75.7515C382.661 78.6167 384.155 81.06 386.048 83.0812C388.003 85.1024 390.313 86.6628 392.989 87.7733C395.727 88.8784 398.692 89.4337 401.885 89.4337L401.879 89.4281ZM478.481 100.767V73.6969C478.481 70.8983 477.598 68.6161 475.838 66.8558C474.083 65.0956 471.801 64.2182 468.996 64.2182C467.175 64.2182 465.548 64.6069 464.116 65.3899C462.683 66.1728 461.539 67.2778 460.695 68.7105C459.912 70.1431 459.523 71.8034 459.523 73.6969L454.537 71.1537C454.537 67.4389 455.32 64.2127 456.88 61.4807C458.507 58.682 460.723 56.4942 463.527 54.9339C466.392 53.368 469.618 52.5906 473.2 52.5906C476.782 52.5906 479.747 53.4679 482.484 55.2282C485.222 56.9218 487.371 59.1707 488.937 61.9693C490.497 64.7069 491.28 67.6721 491.28 70.865V100.773H478.481V100.767ZM446.718 100.767V53.5623H459.523V100.767H446.718Z" fill="black"/>
</svg>
