<svg width="16" height="16" viewBox="0 0 16 16" fill="none" xmlns="http://www.w3.org/2000/svg">
<path d="M8.00039 1.35331e-07H7.99959C3.58122 -0.00080392 0 3.5814 0 8C0 12.4186 3.58204 16 8.00041 16C12.4188 16 16 12.4186 16 8C16 3.5814 12.4188 1.35331e-07 8.00039 1.35331e-07ZM5.38807 1.6275V1.62831C4.90401 2.34718 4.50038 3.12555 4.18841 3.94825V3.94905C3.7526 3.77537 3.33046 3.57354 2.92683 3.34517C3.60547 2.60538 4.4441 2.01518 5.38724 1.62841L5.38807 1.6275ZM10.6129 1.62831H10.6137C11.5569 2.01508 12.3955 2.6061 13.0741 3.34507L13.0733 3.34587C12.6697 3.57344 12.2476 3.77525 11.8126 3.94895C11.5006 3.12555 11.0961 2.34798 10.6129 1.62757L10.6129 1.62831ZM8.55773 1.137H8.55853C8.65663 1.14424 8.75151 1.15469 8.84798 1.16675H8.84879C9.65848 2.08182 10.309 3.14245 10.7544 4.30434H10.7528C10.0484 4.49813 9.31434 4.62036 8.55855 4.66056L8.55773 1.137ZM7.44168 4.66056V4.66136C6.68585 4.62035 5.95094 4.49893 5.24659 4.30433H5.24579C5.69125 3.14241 6.34092 2.08258 7.14982 1.16675C7.2463 1.15469 7.34279 1.14504 7.4409 1.137L7.44168 4.66056ZM4.90407 5.36657H4.90488C5.71778 5.59413 6.56848 5.73486 7.44413 5.77666L7.44252 7.44196H4.5801C4.61789 6.7279 4.72879 6.03478 4.90407 5.36657ZM2.23535 4.23438H2.23615C2.74835 4.53351 3.28627 4.79405 3.84509 5.01195V5.01275C3.63443 5.79274 3.50417 6.60569 3.46315 7.44283H1.13777C1.23184 6.2648 1.62266 5.17039 2.23535 4.23438ZM11.0962 5.36576V5.36657C11.2723 6.03398 11.3824 6.72873 11.421 7.44278H8.55777L8.55616 5.77749C9.43259 5.73487 10.2825 5.59415 11.0954 5.36659L11.0962 5.36576ZM13.7649 4.23358L13.7657 4.23439C14.3784 5.17037 14.7684 6.26476 14.8632 7.44278H12.537C12.4968 6.60491 12.3666 5.79196 12.1559 5.01189H12.1575C12.7163 4.79317 13.2526 4.53264 13.764 4.23352L13.7649 4.23358ZM7.44168 10.2234C6.56605 10.2645 5.71696 10.4052 4.90407 10.6335C4.72798 9.96533 4.61783 9.27058 4.58004 8.55732L7.44246 8.55813L7.44168 10.2234ZM11.421 8.55732V8.55813C11.3824 9.27136 11.2722 9.96531 11.0962 10.6335C10.2832 10.4051 9.43416 10.2652 8.55855 10.2226L8.55775 8.55732L11.421 8.55732ZM3.46319 8.55813C3.50339 9.3944 3.63365 10.2081 3.84432 10.9882L3.84352 10.989C3.2847 11.2061 2.74758 11.4674 2.23619 11.7666H2.23539C1.62268 10.8306 1.23191 9.7362 1.13785 8.55817L3.46319 8.55813ZM14.8633 8.55732V8.55813C14.7684 9.73615 14.3776 10.8305 13.7641 11.7665C13.2519 11.4674 12.7148 11.2069 12.1568 10.989H12.156C12.3666 10.2082 12.4969 9.39442 12.5371 8.55745L14.8633 8.55732ZM11.8119 12.0512L11.8127 12.052C12.2485 12.2249 12.6698 12.4268 13.0743 12.6551L13.0735 12.6559C12.3948 13.3949 11.5562 13.9851 10.613 14.3719C11.0963 13.6514 11.5007 12.8746 11.8119 12.0519L11.8119 12.0512ZM4.18857 12.052C4.50054 12.8754 4.9042 13.6522 5.38743 14.372L5.38823 14.3728C4.44507 13.9852 3.60644 13.395 2.92782 12.656L2.92943 12.6552C3.33306 12.4269 3.75118 12.2258 4.18699 12.0529L4.18857 12.052ZM8.55939 11.3396V11.3404C9.31602 11.3798 10.0501 11.5012 10.7553 11.6958V11.6966C10.3098 12.8578 9.66017 13.9176 8.85047 14.8334H8.84967C8.75318 14.8447 8.65589 14.8551 8.55779 14.8632L8.55939 11.3396ZM7.44174 11.3396L7.44254 14.8632C7.34445 14.8551 7.24716 14.8455 7.14986 14.8334H7.14906C6.34097 13.9175 5.69209 12.8569 5.24663 11.6958H5.24744C5.95261 11.5012 6.68596 11.3798 7.44174 11.3396Z" fill="#E9E9E9"/>
</svg>
