<svg width="24" height="25" viewBox="0 0 24 25" fill="none" xmlns="http://www.w3.org/2000/svg">
<g clip-path="url(#clip0_3705_9170)">
<path d="M20.2724 5.31683C18.7065 4.60741 17.0534 4.10412 15.3554 3.81982C15.123 4.23088 14.9128 4.65379 14.7255 5.0868C12.9168 4.81709 11.0774 4.81709 9.26863 5.0868C9.08128 4.65384 8.87104 4.23093 8.63877 3.81982C6.93964 4.10652 5.28547 4.611 3.71803 5.32054C0.606239 9.87647 -0.237318 14.3193 0.184461 18.699C2.0068 20.0313 4.04652 21.0446 6.21495 21.6948C6.70322 21.045 7.13527 20.3556 7.50653 19.6339C6.80138 19.3733 6.12079 19.0517 5.47262 18.673C5.64321 18.5506 5.81005 18.4244 5.97126 18.302C7.85726 19.1797 9.91573 19.6348 11.9999 19.6348C14.084 19.6348 16.1425 19.1797 18.0285 18.302C18.1916 18.4337 18.3584 18.5598 18.5271 18.673C17.8777 19.0523 17.1959 19.3745 16.4895 19.6357C16.8603 20.3571 17.2924 21.0459 17.7811 21.6948C19.9513 21.0473 21.9926 20.0344 23.8153 18.7008C24.3102 13.6218 22.9699 9.2198 20.2724 5.31683ZM8.04078 16.0055C6.86543 16.0055 5.8944 14.95 5.8944 13.6514C5.8944 12.3529 6.83169 11.2881 8.03704 11.2881C9.24238 11.2881 10.2059 12.3529 10.1853 13.6514C10.1647 14.95 9.23864 16.0055 8.04078 16.0055ZM15.959 16.0055C14.7817 16.0055 13.8145 14.95 13.8145 13.6514C13.8145 12.3529 14.7517 11.2881 15.959 11.2881C17.1662 11.2881 18.1222 12.3529 18.1016 13.6514C18.081 14.95 17.1568 16.0055 15.959 16.0055Z" fill="white"/>
</g>
<defs>
<clipPath id="clip0_3705_9170">
<rect width="23.8333" height="23.8333" fill="white" transform="translate(0.083252 0.84082)"/>
</clipPath>
</defs>
</svg>
