<svg xmlns="http://www.w3.org/2000/svg" width="114" height="22" viewBox="0 0 114 22" fill="none">
  <path d="M0.0523245 21.3285V1.55566H13.3758V5.0022H4.23244V9.71353H12.6896V13.1601H4.23244V17.8809H13.4137V21.3274H0.0512695L0.0523245 21.3285Z" fill="white"/>
  <path d="M23.1957 6.49879V9.58803H14.2653V6.49879H23.1957ZM16.2921 2.9458H20.4047V16.771C20.4047 17.1504 20.4627 17.4455 20.5786 17.6542C20.6946 17.8639 20.8569 18.0104 21.0666 18.0937C21.2753 18.177 21.5188 18.2191 21.796 18.2191C21.9889 18.2191 22.1818 18.2012 22.3757 18.1664C22.5686 18.1317 22.7172 18.1032 22.8194 18.0842L23.4666 21.145C23.26 21.2093 22.9712 21.2852 22.5981 21.3716C22.225 21.458 21.7707 21.5118 21.2363 21.5308C20.2445 21.5698 19.3782 21.437 18.634 21.1345C17.891 20.832 17.3123 20.3619 16.9013 19.7253C16.4892 19.0876 16.2868 18.2834 16.2931 17.3117V2.9458H16.2921Z" fill="white"/>
  <path d="M29.4934 12.7553V21.3285H25.3807V1.55566H29.3775V9.11486H29.5514C29.8855 8.24005 30.4262 7.55285 31.1735 7.05326C31.9197 6.55473 32.8567 6.30493 33.9834 6.30493C35.0131 6.30493 35.9122 6.52838 36.6816 6.97632C37.451 7.42427 38.0497 8.06404 38.4776 8.89774C38.9055 9.73145 39.1163 10.7275 39.11 11.8858V21.3285H34.9973V12.6194C35.0036 11.7056 34.7739 10.9941 34.307 10.4861C33.84 9.97808 33.1887 9.72301 32.3518 9.72301C31.7921 9.72301 31.2978 9.84211 30.8699 10.0803C30.442 10.3185 30.1068 10.6642 29.8655 11.1185C29.6241 11.5728 29.4997 12.1177 29.4934 12.7553Z" fill="white"/>
  <path d="M48.813 21.6181C47.2878 21.6181 45.9756 21.3071 44.8784 20.6863C43.7812 20.0656 42.9359 19.1834 42.3436 18.0408C41.7512 16.8983 41.4551 15.545 41.4551 13.9809C41.4551 12.4168 41.7512 11.1172 42.3436 9.96413C42.9359 8.81212 43.7707 7.91413 44.8489 7.27014C45.9271 6.62615 47.193 6.30469 48.6485 6.30469C49.6266 6.30469 50.5394 6.46068 51.3857 6.77266C52.2321 7.08464 52.972 7.55366 53.6065 8.17762C54.2399 8.80158 54.7343 9.58575 55.0884 10.5291C55.4425 11.4724 55.6196 12.5749 55.6196 13.8354V14.9653H43.0972V12.4168H51.7483C51.7483 11.8244 51.6197 11.3006 51.3626 10.8432C51.1054 10.3868 50.7491 10.0274 50.2959 9.76704C49.8427 9.5067 49.3157 9.37601 48.717 9.37601C48.1184 9.37601 47.5408 9.51935 47.0612 9.80603C46.5817 10.0927 46.2064 10.4753 45.9366 10.9549C45.6658 11.4344 45.5277 11.9667 45.5214 12.5527V14.9758C45.5214 15.7094 45.6584 16.3439 45.9314 16.8783C46.2054 17.4127 46.5933 17.8248 47.095 18.1136C47.5967 18.4034 48.1922 18.5478 48.8815 18.5478C49.3389 18.5478 49.7563 18.4835 50.1368 18.3549C50.5162 18.2263 50.8419 18.0335 51.1117 17.7752C51.3826 17.5181 51.5881 17.2029 51.7293 16.8288L55.5332 17.0796C55.3403 17.9934 54.9461 18.7902 54.3506 19.469C53.7551 20.1478 52.9889 20.6758 52.0529 21.0521C51.117 21.4284 50.0366 21.617 48.814 21.617L48.813 21.6181Z" fill="white"/>
  <path d="M58.0616 21.3281V6.49847H62.0489V9.08601H62.2038C62.4736 8.16588 62.9279 7.46919 63.5656 6.99595C64.2022 6.52271 64.9368 6.28662 65.7663 6.28662C65.9718 6.28662 66.1942 6.29927 66.4324 6.32562C66.6706 6.35197 66.8793 6.38675 67.0606 6.43207V10.082C66.8677 10.0241 66.6 9.97241 66.2596 9.92709C65.9181 9.88177 65.6061 9.85964 65.3236 9.85964C64.7186 9.85964 64.179 9.99033 63.7068 10.2507C63.2336 10.511 62.8604 10.8736 62.5864 11.3373C62.3124 11.8011 62.1764 12.3355 62.1764 12.9404V21.3302H58.0637L58.0616 21.3281Z" fill="white"/>
  <path d="M73.0557 1.55566V21.3285H68.943V1.55566H73.0557Z" fill="white"/>
  <path d="M76.1144 21.3281V6.49854H80.227V21.3281H76.1144Z" fill="white"/>
  <path d="M87.3921 12.7551V21.3282H83.2794V6.49862H87.1992V9.11462H87.3731C87.7009 8.25246 88.2521 7.56842 89.0237 7.0625C89.7962 6.55764 90.7322 6.30469 91.8336 6.30469C92.8633 6.30469 93.7613 6.53024 94.5276 6.98029C95.2938 7.4314 95.8893 8.07328 96.3141 8.90593C96.7388 9.73963 96.9507 10.7325 96.9507 11.8845V21.3272H92.838V12.6181C92.8443 11.7106 92.6125 11.0013 92.1424 10.489C91.6723 9.97783 91.0252 9.72171 90.202 9.72171C89.6487 9.72171 89.1607 9.84082 88.7391 10.079C88.3175 10.3172 87.9886 10.6629 87.7546 11.1172C87.5196 11.5715 87.3984 12.1164 87.3921 12.754V12.7551Z" fill="white"/>
  <path d="M99.9122 21.3285V1.55566H104.025V21.3285H99.9122ZM103.639 17.0609L103.649 12.1272H104.247L108.998 6.49887H113.718L107.337 13.9527H106.362L103.639 17.0619V17.0609ZM109.181 21.3285L104.817 14.8696L107.56 11.9638L114 21.3285H109.182H109.181Z" fill="white"/>
  <path d="M78.1718 4.64025C79.3249 4.64025 80.2598 3.70545 80.2598 2.55231C80.2598 1.39916 79.3249 0.464355 78.1718 0.464355C77.0187 0.464355 76.0839 1.39916 76.0839 2.55231C76.0839 3.70545 77.0187 4.64025 78.1718 4.64025Z" fill="white"/>
</svg>