<svg width="162" height="43" viewBox="0 0 162 43" fill="none" xmlns="http://www.w3.org/2000/svg">
<path d="M23.6758 18.754C23.1773 18.754 22.6777 18.5632 22.2972 18.1827C21.5352 17.4218 21.5352 16.1865 22.2972 15.4255L27.3395 10.3832C28.1005 9.62226 29.3358 9.62226 30.0967 10.3832C30.8588 11.1442 30.8588 12.3795 30.0967 13.1405L25.0545 18.1827C24.674 18.5632 24.1744 18.754 23.6758 18.754Z" fill="#38FF9C"/>
<path d="M20.0205 40.5399C8.98103 40.5399 0 31.5589 0 20.5205C0 9.48208 8.98103 0.5 20.0205 0.5C31.06 0.5 40.041 9.48103 40.041 20.5205C40.041 31.56 31.06 40.541 20.0205 40.541V40.5399ZM20.0205 4.39975C11.1322 4.39975 3.89975 11.6312 3.89975 20.5205C3.89975 29.4098 11.1312 36.6412 20.0205 36.6412C28.9098 36.6412 36.1412 29.4098 36.1412 20.5205C36.1412 11.6312 28.9088 4.39975 20.0205 4.39975Z" fill="#38FF9C"/>
<path d="M11.3219 31.0747C10.8234 31.0747 10.3238 30.8839 9.94332 30.5035C9.18234 29.7425 9.18129 28.5072 9.94332 27.7462L14.9856 22.7039C15.7466 21.943 16.9819 21.9419 17.7428 22.7039C18.5038 23.466 18.5049 24.7002 17.7428 25.4612L12.7006 30.5035C12.3201 30.8839 11.8205 31.0747 11.3219 31.0747Z" fill="#38FF9C"/>
<path d="M19.5841 13.4987C16.0986 13.7485 13.2802 16.5521 13.0441 20.0398C13.0315 20.2284 12.9493 20.4065 12.8144 20.5404L9.9823 23.3767C9.82209 23.5379 9.54489 23.4652 9.48693 23.2449C9.25716 22.367 9.11487 21.4247 9.11487 20.4877C9.11487 14.4589 14.0191 9.55469 20.0479 9.55469C21.0302 9.55469 21.983 9.68538 22.8894 9.92885C23.0728 9.97839 23.1329 10.2082 22.999 10.3431L20.0721 13.2721C19.9414 13.4028 19.7686 13.484 19.5841 13.4977V13.4987Z" fill="#38FF9C"/>
<path d="M27.1981 20.4213L30.1271 17.4944C30.261 17.3605 30.4918 17.4206 30.5414 17.604C30.7859 18.5104 30.9155 19.4632 30.9155 20.4455C30.9155 26.4744 26.0113 31.3786 19.9825 31.3786C19.0466 31.3786 18.1043 31.2363 17.2253 31.0065C17.005 30.9485 16.9333 30.6724 17.0935 30.5111L19.9298 27.6791C20.0637 27.5452 20.2418 27.463 20.4305 27.4493C23.9192 27.2132 26.7217 24.3948 26.9715 20.9093C26.9852 20.7249 27.0664 20.552 27.1971 20.4213H27.1981Z" fill="#38FF9C"/>
<path d="M48.0523 30.8119V11.0391H61.3758V14.4856H52.2324V19.1969H60.6896V22.6435H52.2324V27.3643H61.4137V30.8108H48.0513L48.0523 30.8119Z" fill="white"/>
<path d="M71.1957 15.9827V19.0719H62.2653V15.9827H71.1957ZM64.2921 12.4297H68.4047V26.2548C68.4047 26.6343 68.4627 26.9294 68.5786 27.1381C68.6946 27.3478 68.8569 27.4943 69.0666 27.5776C69.2753 27.6609 69.5188 27.703 69.796 27.703C69.9889 27.703 70.1818 27.6851 70.3757 27.6503C70.5686 27.6155 70.7172 27.5871 70.8194 27.5681L71.4666 30.6289C71.26 30.6932 70.9712 30.7691 70.5981 30.8555C70.225 30.9419 69.7707 30.9957 69.2363 31.0146C68.2445 31.0536 67.3782 30.9208 66.634 30.6184C65.891 30.3159 65.3123 29.8458 64.9013 29.2092C64.4892 28.5715 64.2868 27.7673 64.2931 26.7955V12.4297H64.2921Z" fill="white"/>
<path d="M77.4934 22.2387V30.8119H73.3807V11.0391H77.3775V18.5983H77.5514C77.8855 17.7235 78.4262 17.0363 79.1735 16.5367C79.9197 16.0381 80.8567 15.7883 81.9834 15.7883C83.0131 15.7883 83.9122 16.0118 84.6816 16.4597C85.451 16.9077 86.0497 17.5474 86.4776 18.3811C86.9055 19.2148 87.1163 20.2109 87.11 21.3692V30.8119H82.9973V22.1028C83.0036 21.189 82.7739 20.4775 82.307 19.9695C81.84 19.4615 81.1887 19.2064 80.3518 19.2064C79.7921 19.2064 79.2978 19.3255 78.8699 19.5637C78.442 19.8019 78.1068 20.1476 77.8655 20.6019C77.6241 21.0562 77.4997 21.6011 77.4934 22.2387Z" fill="white"/>
<path d="M96.813 31.1024C95.2878 31.1024 93.9756 30.7915 92.8784 30.1707C91.7812 29.5499 90.9359 28.6677 90.3436 27.5252C89.7512 26.3827 89.4551 25.0294 89.4551 23.4653C89.4551 21.9011 89.7512 20.6016 90.3436 19.4485C90.9359 18.2965 91.7707 17.3985 92.8489 16.7545C93.9271 16.1105 95.193 15.7891 96.6485 15.7891C97.6266 15.7891 98.5394 15.9451 99.3857 16.257C100.232 16.569 100.972 17.038 101.606 17.662C102.24 18.286 102.734 19.0701 103.088 20.0134C103.443 20.9568 103.62 22.0592 103.62 23.3198V24.4497H91.0972V21.9011H99.7483C99.7483 21.3088 99.6197 20.785 99.3626 20.3275C99.1054 19.8712 98.7491 19.5117 98.2959 19.2514C97.8427 18.9911 97.3157 18.8604 96.717 18.8604C96.1184 18.8604 95.5408 19.0037 95.0612 19.2904C94.5817 19.5771 94.2065 19.9597 93.9366 20.4393C93.6658 20.9188 93.5277 21.4511 93.5214 22.0371V24.4602C93.5214 25.1938 93.6584 25.8283 93.9314 26.3627C94.2054 26.897 94.5933 27.3091 95.095 27.5979C95.5967 27.8878 96.1922 28.0322 96.8815 28.0322C97.3389 28.0322 97.7563 27.9679 98.1368 27.8393C98.5162 27.7107 98.8419 27.5178 99.1117 27.2596C99.3826 27.0024 99.5881 26.6873 99.7293 26.3131L103.533 26.564C103.34 27.4778 102.946 28.2746 102.351 28.9534C101.755 29.6321 100.989 30.1602 100.053 30.5365C99.117 30.9127 98.0366 31.1014 96.814 31.1014L96.813 31.1024Z" fill="white"/>
<path d="M106.062 30.8071V15.9775H110.049V18.565H110.204C110.474 17.6449 110.928 16.9482 111.566 16.475C112.202 16.0017 112.937 15.7656 113.766 15.7656C113.972 15.7656 114.194 15.7783 114.432 15.8046C114.671 15.831 114.879 15.8658 115.061 15.9111V19.561C114.868 19.5031 114.6 19.4514 114.26 19.4061C113.918 19.3608 113.606 19.3386 113.324 19.3386C112.719 19.3386 112.179 19.4693 111.707 19.7297C111.234 19.99 110.86 20.3526 110.586 20.8163C110.312 21.2801 110.176 21.8145 110.176 22.4194V30.8092H106.064L106.062 30.8071Z" fill="white"/>
<path d="M121.056 11.0391V30.8119H116.943V11.0391H121.056Z" fill="white"/>
<path d="M124.114 30.8062V15.9766H128.227V30.8062H124.114Z" fill="white"/>
<path d="M135.392 22.2395V30.8126H131.279V15.983H135.199V18.599H135.373C135.701 17.7368 136.252 17.0528 137.024 16.5469C137.796 16.042 138.732 15.7891 139.834 15.7891C140.863 15.7891 141.761 16.0146 142.528 16.4647C143.294 16.9158 143.889 17.5577 144.314 18.3903C144.739 19.224 144.951 20.2169 144.951 21.3689V30.8115H140.838V22.1024C140.844 21.195 140.612 20.4856 140.142 19.9734C139.672 19.4622 139.025 19.2061 138.202 19.2061C137.649 19.2061 137.161 19.3252 136.739 19.5634C136.317 19.8016 135.989 20.1473 135.755 20.6016C135.52 21.0558 135.398 21.6008 135.392 22.2384V22.2395Z" fill="white"/>
<path d="M147.912 30.8119V11.0391H152.025V30.8119H147.912ZM151.639 26.5443L151.649 21.6106H152.247L156.998 15.9823H161.718L155.337 23.4361H154.362L151.639 26.5453V26.5443ZM157.181 30.8119L152.817 24.353L155.56 21.4472L162 30.8119H157.182H157.181Z" fill="white"/>
<path d="M126.172 14.1212C127.325 14.1212 128.26 13.1864 128.26 12.0333C128.26 10.8801 127.325 9.94531 126.172 9.94531C125.019 9.94531 124.084 10.8801 124.084 12.0333C124.084 13.1864 125.019 14.1212 126.172 14.1212Z" fill="white"/>
<path d="M138.178 42.4106V34.0391H141.385C141.99 34.0391 142.499 34.135 142.892 34.3267C143.296 34.5185 143.593 34.7774 143.795 35.1035C143.997 35.4295 144.093 35.8035 144.093 36.2158C144.093 36.6282 144.025 36.8487 143.901 37.0885C143.766 37.3282 143.593 37.5296 143.372 37.6734C143.152 37.8269 142.902 37.9323 142.633 37.9995V38.0858C142.931 38.1049 143.219 38.1913 143.488 38.3543C143.757 38.5173 143.987 38.7474 144.16 39.0543C144.333 39.3612 144.419 39.716 144.419 40.1379C144.419 40.5598 144.313 40.9626 144.102 41.3078C143.891 41.653 143.574 41.9215 143.152 42.1229C142.729 42.3243 142.201 42.4202 141.558 42.4202H138.168L138.178 42.4106ZM139.695 37.6063H141.193C141.452 37.6063 141.692 37.5584 141.903 37.4625C142.115 37.3666 142.278 37.2323 142.403 37.0501C142.528 36.8679 142.585 36.657 142.585 36.4172C142.585 36.1775 142.47 35.8227 142.239 35.6117C142.009 35.4007 141.673 35.2953 141.231 35.2953H139.695V37.6063ZM139.695 41.1448H141.327C141.875 41.1448 142.278 41.0393 142.518 40.8283C142.758 40.6174 142.883 40.3489 142.883 40.0132C142.883 39.6776 142.825 39.5434 142.7 39.342C142.576 39.1406 142.403 38.9872 142.172 38.8721C141.942 38.757 141.673 38.6995 141.366 38.6995H139.695V41.1544V41.1448Z" fill="#38FF9C"/>
<path d="M148.471 42.5275C147.837 42.5275 147.3 42.3933 146.839 42.1343C146.378 41.8754 146.032 41.5014 145.783 41.0124C145.533 40.5329 145.418 39.9576 145.418 39.3055C145.418 38.6534 145.543 38.0972 145.792 37.6082C146.042 37.1191 146.388 36.7355 146.829 36.467C147.271 36.1889 147.799 36.0547 148.394 36.0547C148.99 36.0547 149.143 36.1122 149.489 36.2369C149.835 36.3615 150.142 36.5533 150.401 36.8122C150.67 37.0712 150.881 37.3972 151.025 37.8C151.179 38.2027 151.256 38.6726 151.256 39.2288V39.6795H146.099V38.6822H149.835C149.835 38.3945 149.767 38.1452 149.652 37.9246C149.537 37.7041 149.364 37.5314 149.153 37.3972C148.942 37.2725 148.692 37.2054 148.404 37.2054C148.116 37.2054 147.837 37.2821 147.607 37.426C147.376 37.5698 147.204 37.7616 147.069 38.0013C146.944 38.2411 146.877 38.4904 146.877 38.7781V39.6507C146.877 40.0151 146.944 40.3315 147.079 40.5905C147.213 40.8494 147.396 41.0507 147.636 41.185C147.876 41.3192 148.154 41.396 148.481 41.396C148.807 41.396 148.894 41.3672 149.066 41.3001C149.239 41.2425 149.393 41.1466 149.518 41.0316C149.643 40.9165 149.739 40.7631 149.806 40.5905L151.188 40.7439C151.102 41.1083 150.939 41.4247 150.689 41.7028C150.449 41.9713 150.132 42.1823 149.758 42.3357C149.383 42.4796 148.942 42.5563 148.452 42.5563L148.471 42.5275Z" fill="#38FF9C"/>
<path d="M155.653 36.1305V37.2717H152.043V36.1305H155.653ZM152.936 34.625H154.414V40.5129C154.414 40.7142 154.443 40.8677 154.511 40.9732C154.568 41.0786 154.655 41.1458 154.751 41.1841C154.856 41.2225 154.962 41.2417 155.087 41.2417C155.211 41.2417 155.269 41.2417 155.346 41.2225C155.423 41.2129 155.48 41.1937 155.528 41.1841L155.778 42.3444C155.701 42.3732 155.586 42.402 155.442 42.4307C155.298 42.4595 155.115 42.4787 154.904 42.4883C154.53 42.4979 154.203 42.4403 153.906 42.3157C153.608 42.191 153.377 41.9992 153.195 41.7403C153.022 41.4814 152.936 41.1554 152.936 40.7622V34.625Z" fill="#38FF9C"/>
<path d="M158.707 42.5371C158.313 42.5371 157.948 42.47 157.631 42.3261C157.314 42.1823 157.065 41.9713 156.882 41.6932C156.7 41.4151 156.604 41.0699 156.604 40.6576C156.604 40.2452 156.671 40.0151 156.796 39.7754C156.93 39.5452 157.103 39.363 157.333 39.2192C157.564 39.0849 157.814 38.9794 158.102 38.9027C158.39 38.826 158.678 38.7781 158.985 38.7493C159.35 38.7109 159.648 38.6726 159.878 38.6438C160.108 38.615 160.272 38.5671 160.377 38.5C160.483 38.4329 160.531 38.3274 160.531 38.1835V38.1548C160.531 37.8479 160.435 37.6082 160.252 37.4356C160.07 37.2629 159.811 37.1862 159.465 37.1862C159.119 37.1862 158.812 37.2629 158.601 37.426C158.39 37.5794 158.246 37.7712 158.169 37.9821L156.786 37.7904C156.892 37.4068 157.074 37.0903 157.324 36.8314C157.574 36.5725 157.881 36.3807 158.246 36.2465C158.611 36.1218 159.014 36.0547 159.446 36.0547C159.878 36.0547 160.051 36.093 160.348 36.1602C160.646 36.2273 160.925 36.352 161.174 36.5054C161.424 36.6684 161.625 36.889 161.77 37.1671C161.923 37.4451 162 37.7904 162 38.2123V42.4124H160.579V41.5494H160.531C160.444 41.722 160.31 41.885 160.156 42.0385C159.993 42.1919 159.792 42.307 159.552 42.4028C159.311 42.4987 159.023 42.5371 158.697 42.5371H158.707ZM159.091 41.4439C159.388 41.4439 159.648 41.3864 159.868 41.2617C160.089 41.1466 160.252 40.9836 160.377 40.7918C160.492 40.6 160.56 40.3795 160.56 40.1493V39.411C160.512 39.4493 160.435 39.4877 160.32 39.5164C160.204 39.5452 160.089 39.574 159.945 39.6028C159.811 39.6315 159.676 39.6507 159.542 39.6699C159.407 39.6891 159.292 39.7082 159.196 39.7178C158.975 39.7466 158.774 39.7945 158.601 39.8617C158.428 39.9288 158.284 40.0247 158.188 40.1493C158.082 40.274 158.034 40.4274 158.034 40.6192C158.034 40.8877 158.13 41.0987 158.332 41.2329C158.534 41.3672 158.783 41.4439 159.091 41.4439Z" fill="#38FF9C"/>
</svg>
