<svg xmlns="http://www.w3.org/2000/svg" width="41" height="41" viewBox="0 0 41 41" fill="none">
  <path d="M23.6758 18.2779C23.1773 18.2779 22.6777 18.0872 22.2972 17.7067C21.5352 16.9457 21.5352 15.7104 22.2972 14.9494L27.3395 9.90716C28.1005 9.14618 29.3358 9.14618 30.0967 9.90716C30.8588 10.6681 30.8588 11.9034 30.0967 12.6644L25.0545 17.7067C24.674 18.0872 24.1744 18.2779 23.6758 18.2779Z" fill="#38FF9C"/>
  <path d="M20.0205 40.0604C8.98103 40.0604 0 31.0794 0 20.041C0 9.00259 8.98103 0.0205078 20.0205 0.0205078C31.06 0.0205078 40.041 9.00154 40.041 20.041C40.041 31.0805 31.06 40.0615 20.0205 40.0615V40.0604ZM20.0205 3.92026C11.1322 3.92026 3.89975 11.1517 3.89975 20.041C3.89975 28.9303 11.1312 36.1617 20.0205 36.1617C28.9098 36.1617 36.1412 28.9303 36.1412 20.041C36.1412 11.1517 28.9088 3.92026 20.0205 3.92026Z" fill="#38FF9C"/>
  <path d="M11.3219 30.5923C10.8234 30.5923 10.3238 30.4015 9.94332 30.021C9.18234 29.26 9.18129 28.0248 9.94332 27.2638L14.9856 22.2215C15.7466 21.4605 16.9819 21.4595 17.7428 22.2215C18.5038 22.9836 18.5049 24.2178 17.7428 24.9788L12.7006 30.021C12.3201 30.4015 11.8205 30.5923 11.3219 30.5923Z" fill="#38FF9C"/>
  <path d="M19.5841 13.0221C16.0986 13.2719 13.2802 16.0755 13.0441 19.5632C13.0315 19.7519 12.9493 19.93 12.8144 20.0638L9.9823 22.9001C9.82209 23.0614 9.54489 22.9887 9.48693 22.7684C9.25716 21.8904 9.11487 20.9481 9.11487 20.0111C9.11487 13.9823 14.0191 9.07812 20.0479 9.07812C21.0302 9.07812 21.983 9.20882 22.8894 9.45229C23.0728 9.50183 23.1329 9.7316 22.999 9.86651L20.0721 12.7955C19.9414 12.9262 19.7686 13.0074 19.5841 13.0211V13.0221Z" fill="#38FF9C"/>
  <path d="M27.1981 19.9399L30.1271 17.0129C30.261 16.8791 30.4918 16.9392 30.5414 17.1226C30.7859 18.029 30.9155 18.9818 30.9155 19.9641C30.9155 25.9929 26.0113 30.8971 19.9825 30.8971C19.0466 30.8971 18.1043 30.7548 17.2253 30.5251C17.005 30.4671 16.9333 30.1909 17.0935 30.0297L19.9298 27.1976C20.0637 27.0638 20.2418 26.9816 20.4305 26.9678C23.9192 26.7318 26.7217 23.9134 26.9715 20.4279C26.9852 20.2434 27.0664 20.0706 27.1971 19.9399H27.1981Z" fill="#38FF9C"/>
</svg>