<svg width="31" height="31" viewBox="0 0 31 31" fill="none" xmlns="http://www.w3.org/2000/svg">
<path d="M15.5 0.09375C17.4993 0.09375 19.3903 0.467122 21.1729 1.21387C22.9795 1.96061 24.5573 3.00846 25.9062 4.35742L24.2803 5.9834C23.1481 4.85124 21.8473 3.98405 20.3779 3.38184C18.8363 2.73145 17.2103 2.40625 15.5 2.40625C13.1875 2.40625 11.0436 2.98438 9.06836 4.14062C7.14128 5.2487 5.6237 6.76628 4.51562 8.69336C3.35938 10.6686 2.78125 12.8125 2.78125 15.125C2.78125 17.4375 3.35938 19.5814 4.51562 21.5566C5.6237 23.4837 7.14128 25.0013 9.06836 26.1094C11.0436 27.2656 13.1875 27.8438 15.5 27.8438C17.8125 27.8438 19.9564 27.2656 21.9316 26.1094C23.8587 25.0013 25.3763 23.4837 26.4844 21.5566C27.6406 19.5814 28.2188 17.4375 28.2188 15.125C28.2188 14.1615 28.0983 13.1979 27.8574 12.2344L29.7363 10.3916C30.2663 11.7646 30.5312 13.3424 30.5312 15.125C30.5312 17.847 29.8447 20.3763 28.4717 22.7129C27.1468 24.9772 25.3522 26.7718 23.0879 28.0967C20.7513 29.4697 18.222 30.1562 15.5 30.1562C12.778 30.1562 10.2487 29.4697 7.91211 28.0967C5.64779 26.7718 3.85319 24.9772 2.52832 22.7129C1.15527 20.3763 0.46875 17.847 0.46875 15.125C0.46875 12.403 1.15527 9.8737 2.52832 7.53711C3.85319 5.27279 5.64779 3.47819 7.91211 2.15332C10.2487 0.780273 12.778 0.09375 15.5 0.09375ZM28.5439 5.04395L30.2061 6.70605L16.3311 20.5811L15.5 21.376L14.6689 20.5811L8.8877 14.7998L10.5498 13.1377L15.5 18.0879L28.5439 5.04395Z" fill="#837819"/>
</svg>
