<svg width="16" height="17" viewBox="0 0 16 17" fill="none" xmlns="http://www.w3.org/2000/svg">
<g id="IoWalletOutline">
<path id="Vector (Stroke)" fill-rule="evenodd" clip-rule="evenodd" d="M3 5.02051C2.44772 5.02051 2 5.46822 2 6.02051V12.0205C2 12.5728 2.44772 13.0205 3 13.0205H13C13.5523 13.0205 14 12.5728 14 12.0205V6.02051C14 5.46822 13.5523 5.02051 13 5.02051H3ZM1 6.02051C1 4.91594 1.89543 4.02051 3 4.02051H13C14.1046 4.02051 15 4.91594 15 6.02051V12.0205C15 13.1251 14.1046 14.0205 13 14.0205H3C1.89543 14.0205 1 13.1251 1 12.0205V6.02051Z" fill="#101010"/>
<path id="Vector (Stroke)_2" fill-rule="evenodd" clip-rule="evenodd" d="M10.9115 1.5565C11.208 1.50075 11.5132 1.51075 11.8055 1.58582C12.0995 1.66132 12.3732 1.80077 12.6071 1.99422C12.841 2.18767 13.0293 2.43036 13.1585 2.70496C13.2878 2.97957 13.3549 3.27932 13.355 3.58283V4.52049H12.355V3.58315C12.355 3.5831 12.355 3.58321 12.355 3.58315C12.3549 3.42685 12.3204 3.27233 12.2538 3.13092C12.1872 2.98946 12.0902 2.86444 11.9697 2.76478C11.8492 2.66512 11.7082 2.59328 11.5568 2.55439C11.4054 2.5155 11.2472 2.51051 11.0936 2.53978L11.0841 2.54149L2.85932 3.94529C2.618 3.99231 2.40039 4.12157 2.24366 4.31112C2.08601 4.50179 1.99983 4.7415 2 4.9889V6.52049H1V4.98939C1 4.98934 1 4.98944 1 4.98939C0.999754 4.50926 1.16703 4.04392 1.47299 3.67389C1.77903 3.30377 2.20463 3.05205 2.6764 2.96214L2.68588 2.96043L10.9115 1.5565Z" fill="#101010"/>
<path id="Vector" d="M11.5 10.0205C11.3022 10.0205 11.1089 9.96186 10.9444 9.85198C10.78 9.7421 10.6518 9.58592 10.5761 9.40319C10.5004 9.22047 10.4806 9.0194 10.5192 8.82542C10.5578 8.63144 10.653 8.45325 10.7929 8.3134C10.9327 8.17355 11.1109 8.07831 11.3049 8.03972C11.4989 8.00114 11.7 8.02094 11.8827 8.09663C12.0654 8.17232 12.2216 8.30049 12.3315 8.46494C12.4414 8.62939 12.5 8.82273 12.5 9.02051C12.5 9.28572 12.3946 9.54008 12.2071 9.72761C12.0196 9.91515 11.7652 10.0205 11.5 10.0205Z" fill="#101010"/>
</g>
</svg>
