<svg width="41" height="42" viewBox="0 0 41 42" fill="none" xmlns="http://www.w3.org/2000/svg">
<g id="Group 50">
<path id="Vector" d="M23.6757 19.2306C23.1772 19.2306 22.6776 19.0398 22.2971 18.6593C21.5351 17.8983 21.5351 16.6631 22.2971 15.9021L27.3394 10.8598C28.1004 10.0988 29.3356 10.0988 30.0966 10.8598C30.8587 11.6208 30.8587 12.856 30.0966 13.617L25.0543 18.6593C24.6739 19.0398 24.1743 19.2306 23.6757 19.2306Z" fill="#38FF9C"/>
<path id="Vector_2" d="M20.0205 41.0165C8.98103 41.0165 0 32.0355 0 20.9971C0 9.95864 8.98103 0.976562 20.0205 0.976562C31.06 0.976562 40.041 9.95759 40.041 20.9971C40.041 32.0365 31.06 41.0175 20.0205 41.0175V41.0165ZM20.0205 4.87632C11.1322 4.87632 3.89975 12.1077 3.89975 20.9971C3.89975 29.8864 11.1312 37.1178 20.0205 37.1178C28.9098 37.1178 36.1412 29.8864 36.1412 20.9971C36.1412 12.1077 28.9088 4.87632 20.0205 4.87632Z" fill="#38FF9C"/>
<path id="Vector_3" d="M11.3218 31.5513C10.8233 31.5513 10.3237 31.3605 9.9432 30.98C9.18222 30.219 9.18117 28.9838 9.9432 28.2228L14.9855 23.1805C15.7465 22.4195 16.9817 22.4185 17.7427 23.1805C18.5037 23.9425 18.5047 25.1768 17.7427 25.9377L12.7004 30.98C12.3199 31.3605 11.8204 31.5513 11.3218 31.5513Z" fill="#38FF9C"/>
<path id="Vector_4" d="M19.584 13.9753C16.0985 14.2251 13.2801 17.0287 13.044 20.5163C13.0314 20.705 12.9492 20.8831 12.8142 21.017L9.98218 23.8532C9.82197 24.0145 9.54477 23.9418 9.4868 23.7215C9.25703 22.8435 9.11475 21.9013 9.11475 20.9643C9.11475 14.9355 14.019 10.0312 20.0478 10.0312C21.0301 10.0312 21.9829 10.1619 22.8893 10.4054C23.0727 10.455 23.1328 10.6847 22.9989 10.8196L20.072 13.7487C19.9413 13.8794 19.7685 13.9605 19.584 13.9742V13.9753Z" fill="#38FF9C"/>
<path id="Vector_5" d="M27.1982 20.8979L30.1273 17.9709C30.2611 17.8371 30.4919 17.8972 30.5415 18.0806C30.786 18.987 30.9156 19.9398 30.9156 20.9221C30.9156 26.9509 26.0114 31.8551 19.9826 31.8551C19.0467 31.8551 18.1044 31.7128 17.2254 31.4831C17.0051 31.4251 16.9334 31.149 17.0937 30.9877L19.9299 28.1556C20.0638 28.0218 20.2419 27.9396 20.4306 27.9259C23.9193 27.6898 26.7218 24.8714 26.9716 21.3859C26.9853 21.2014 27.0665 21.0286 27.1972 20.8979H27.1982Z" fill="#38FF9C"/>
</g>
</svg>
