<svg width="122" height="40" viewBox="0 0 122 40" fill="none" xmlns="http://www.w3.org/2000/svg">
<path d="M35.9749 27.6033V12.8028H45.9474V15.3825H39.1037V18.9089H45.4339V21.4885H39.1037V25.022H45.9758V27.6017H35.9741L35.9749 27.6033Z" fill="white"/>
<path d="M53.016 25.175C52.9387 25.1892 52.8283 25.2098 52.6839 25.2366C52.5395 25.2634 52.3951 25.276 52.25 25.276C52.0425 25.276 51.8611 25.2445 51.7041 25.1821C51.5471 25.1198 51.4256 25.0102 51.3388 24.8532C51.252 24.697 51.2086 24.4761 51.2086 24.1921V18.8158H53.2969V16.5035H51.2086V13.8442H48.1303V16.5035H46.6125V18.8158H48.1303V24.5968C48.1256 25.3241 48.2771 25.9261 48.5855 26.4033C48.894 26.8806 49.3263 27.2317 49.8825 27.4581C50.4387 27.6845 51.0879 27.7831 51.8303 27.7547C52.2303 27.7405 52.5695 27.7003 52.8496 27.6356C53.1288 27.5709 53.3458 27.5141 53.4996 27.466L53.016 25.175Z" fill="white"/>
<path d="M58.0114 21.1856V27.6025H54.9331V12.8028H57.9246V18.4608H58.0547C58.3048 17.806 58.7095 17.2916 59.2689 16.9177C59.8274 16.5446 60.5287 16.3576 61.3721 16.3576C62.1428 16.3576 62.8158 16.5248 63.3917 16.8601C63.9676 17.1954 64.4157 17.6742 64.736 18.2983C65.0563 18.9223 65.214 19.6678 65.2093 20.5348V27.6025H62.131V21.0838C62.1357 20.3999 61.9638 19.8674 61.6143 19.4871C61.2648 19.1069 60.7773 18.916 60.1509 18.916C59.732 18.916 59.362 19.0051 59.0417 19.1834C58.7214 19.3617 58.4705 19.6204 58.2898 19.9605C58.1092 20.3005 58.0161 20.7083 58.0114 21.1856Z" fill="white"/>
<path d="M77.5667 21.995C77.5667 21.0507 77.4342 20.2255 77.1691 19.5203C76.904 18.8142 76.534 18.2281 76.0599 17.7602C75.585 17.2932 75.0312 16.9422 74.3977 16.7086C73.7642 16.4751 73.081 16.3584 72.3489 16.3584C71.2602 16.3584 70.3119 16.599 69.5049 17.081C68.6978 17.563 68.073 18.2352 67.6297 19.0974C67.1863 19.9597 66.9646 20.9616 66.9646 22.1039C66.9646 23.2462 67.1863 24.2875 67.6297 25.1427C68.073 25.9979 68.7049 26.6582 69.527 27.1228C70.3482 27.5875 71.3304 27.8202 72.472 27.8202C73.3871 27.8202 74.1957 27.679 74.8963 27.3974C75.5976 27.1157 76.1703 26.7205 76.6161 26.2124C77.0618 25.7044 77.3569 25.108 77.5012 24.424L74.6541 24.2363C74.5484 24.5155 74.3937 24.7522 74.1918 24.9447C73.9898 25.1372 73.746 25.2823 73.462 25.3786C73.178 25.4748 72.8648 25.5229 72.5225 25.5229C72.0065 25.5229 71.5616 25.4149 71.1853 25.1979C70.8097 24.981 70.5194 24.6725 70.3143 24.2733C70.1092 23.8734 70.0074 23.3992 70.0074 22.8494V22.8423H77.5667V21.995ZM71.16 18.9783C71.519 18.7637 71.9324 18.6564 72.3994 18.6564C72.8664 18.6564 73.2411 18.7542 73.5812 18.9491C73.9212 19.144 74.187 19.413 74.3795 19.7546C74.572 20.0969 74.6683 20.489 74.6683 20.9324H70.0114C70.0303 20.534 70.1313 20.1687 70.3183 19.8374C70.521 19.4784 70.8011 19.1929 71.16 18.9783Z" fill="white"/>
<path d="M79.3946 27.6033V16.5035H82.379V18.4403H82.495C82.6969 17.7516 83.0369 17.2301 83.5142 16.8759C83.9907 16.5217 84.5406 16.345 85.1615 16.345C85.3153 16.345 85.4818 16.3544 85.6601 16.3742C85.8384 16.3939 85.9946 16.4199 86.1302 16.4538V19.1858C85.9859 19.1424 85.7855 19.1037 85.5307 19.0698C85.2751 19.0359 85.0416 19.0193 84.8301 19.0193C84.3773 19.0193 83.9734 19.1171 83.6199 19.312C83.2657 19.5068 82.9865 19.7782 82.7813 20.1253C82.5762 20.4725 82.4745 20.8724 82.4745 21.3252V27.6048H79.3962L79.3946 27.6033Z" fill="white"/>
<path d="M90.6175 12.8028V27.6025H87.5392V12.8028H90.6175Z" fill="white"/>
<path d="M92.9069 27.6033V16.5035H95.9852V27.6033H92.9069Z" fill="white"/>
<path d="M101.348 21.1856V27.6025H98.2699V16.5027H101.204V18.4608H101.334C101.579 17.8155 101.992 17.3035 102.569 16.9248C103.148 16.5469 103.848 16.3576 104.673 16.3576C105.443 16.3576 106.116 16.5264 106.689 16.8633C107.263 17.2009 107.708 17.6813 108.026 18.3046C108.344 18.9286 108.503 19.6717 108.503 20.534V27.6017H105.424V21.0831C105.429 20.4038 105.256 19.8729 104.904 19.4895C104.552 19.1069 104.068 18.9152 103.451 18.9152C103.037 18.9152 102.672 19.0043 102.356 19.1826C102.041 19.3609 101.795 19.6197 101.62 19.9597C101.444 20.2997 101.353 20.7083 101.348 21.1856Z" fill="white"/>
<path d="M117.657 27.6033H121.263L116.937 21.311L121.053 16.5027H117.52L113.964 20.7162H113.798V12.8028H110.72V27.6033H113.798V24.0785L114.633 23.1263L117.657 27.6033Z" fill="white"/>
<path d="M94.4469 15.1119C95.31 15.1119 96.0097 14.4122 96.0097 13.5491C96.0097 12.686 95.31 11.9863 94.4469 11.9863C93.5837 11.9863 92.8841 12.686 92.8841 13.5491C92.8841 14.4122 93.5837 15.1119 94.4469 15.1119Z" fill="white"/>
<path d="M17.7386 18.6792C17.3651 18.6792 16.9908 18.5363 16.7057 18.2512C16.1348 17.681 16.1348 16.7555 16.7057 16.1853L20.4835 12.4074C21.0537 11.8372 21.9792 11.8372 22.5493 12.4074C23.1203 12.9776 23.1203 13.9031 22.5493 14.4733L18.7715 18.2512C18.4864 18.5363 18.1121 18.6792 17.7386 18.6792Z" fill="#38FF9C"/>
<path d="M15 35C6.72888 35 0 28.2709 0 20.0004C0 11.7298 6.72888 5 15 5C23.2711 5 30 11.7291 30 20.0004C30 28.2717 23.2711 35 15 35ZM15 7.9219C8.34062 7.9219 2.92182 13.34 2.92182 20.0004C2.92182 26.6607 8.33983 32.0789 15 32.0789C21.6602 32.0789 27.0782 26.6607 27.0782 20.0004C27.0782 13.34 21.6594 7.9219 15 7.9219Z" fill="#38FF9C"/>
<path d="M8.48276 27.9061C8.10924 27.9061 7.73493 27.7632 7.44985 27.4781C6.8797 26.9079 6.87891 25.9824 7.44985 25.4122L11.2277 21.6343C11.7978 21.0641 12.7233 21.0633 13.2935 21.6343C13.8636 22.2052 13.8644 23.13 13.2935 23.7001L9.51566 27.4781C9.23058 27.7632 8.85628 27.9061 8.48276 27.9061Z" fill="#38FF9C"/>
<path d="M14.6731 14.741C12.0616 14.9281 9.94999 17.0287 9.7731 19.6419C9.76362 19.7832 9.70202 19.9167 9.60095 20.017L7.47907 22.1421C7.35904 22.2629 7.15135 22.2084 7.10792 22.0434C6.93577 21.3855 6.82916 20.6795 6.82916 19.9775C6.82916 15.4604 10.5036 11.7859 15.0205 11.7859C15.7565 11.7859 16.4704 11.8838 17.1495 12.0663C17.2869 12.1034 17.3319 12.2755 17.2316 12.3766L15.0387 14.5712C14.9408 14.6691 14.8113 14.7307 14.6731 14.741Z" fill="#38FF9C"/>
<path d="M20.3777 19.9246L22.5723 17.7316C22.6725 17.6313 22.8455 17.6763 22.8826 17.8137C23.0658 18.4928 23.1629 19.2067 23.1629 19.9427C23.1629 24.4598 19.4885 28.1343 14.9716 28.1343C14.2703 28.1343 13.5644 28.0277 12.9058 27.8556C12.7407 27.8121 12.687 27.6052 12.8071 27.4844L14.9321 25.3625C15.0324 25.2622 15.1658 25.2006 15.3072 25.1903C17.921 25.0134 20.0208 22.9018 20.2079 20.2902C20.2182 20.152 20.2798 20.0225 20.3777 19.9246Z" fill="#38FF9C"/>
</svg>
