<svg width="162" height="41" viewBox="0 0 162 41" fill="none" xmlns="http://www.w3.org/2000/svg">
<path d="M23.6758 18.2779C23.1773 18.2779 22.6777 18.0872 22.2972 17.7067C21.5351 16.9457 21.5351 15.7104 22.2972 14.9494L27.3394 9.90716C28.1004 9.14618 29.3357 9.14618 30.0967 9.90716C30.8587 10.6681 30.8587 11.9034 30.0967 12.6644L25.0544 17.7067C24.6739 18.0872 24.1743 18.2779 23.6758 18.2779Z" fill="#38FF9C"/>
<path d="M20.0205 40.0604C8.98103 40.0604 0 31.0794 0 20.041C0 9.00259 8.98103 0.0205078 20.0205 0.0205078C31.06 0.0205078 40.041 9.00154 40.041 20.041C40.041 31.0805 31.06 40.0615 20.0205 40.0615V40.0604ZM20.0205 3.92026C11.1322 3.92026 3.89975 11.1517 3.89975 20.041C3.89975 28.9303 11.1312 36.1617 20.0205 36.1617C28.9098 36.1617 36.1412 28.9303 36.1412 20.041C36.1412 11.1517 28.9088 3.92026 20.0205 3.92026Z" fill="#38FF9C"/>
<path d="M11.3219 30.5923C10.8234 30.5923 10.3238 30.4015 9.94332 30.021C9.18234 29.26 9.18129 28.0248 9.94332 27.2638L14.9856 22.2215C15.7466 21.4605 16.9819 21.4595 17.7428 22.2215C18.5038 22.9836 18.5049 24.2178 17.7428 24.9788L12.7006 30.021C12.3201 30.4015 11.8205 30.5923 11.3219 30.5923Z" fill="#38FF9C"/>
<path d="M19.5841 13.0219C16.0986 13.2717 13.2802 16.0753 13.0441 19.5629C13.0315 19.7516 12.9493 19.9297 12.8144 20.0636L9.9823 22.8999C9.82209 23.0611 9.54489 22.9884 9.48693 22.7681C9.25716 21.8902 9.11487 20.9479 9.11487 20.0109C9.11487 13.9821 14.0191 9.07788 20.0479 9.07788C21.0302 9.07788 21.983 9.20858 22.8894 9.45205C23.0728 9.50158 23.1329 9.73135 22.999 9.86626L20.0721 12.7953C19.9414 12.926 19.7686 13.0071 19.5841 13.0208V13.0219Z" fill="#38FF9C"/>
<path d="M27.1982 19.9399L30.1272 17.0129C30.2611 16.8791 30.4919 16.9392 30.5414 17.1226C30.7859 18.029 30.9156 18.9818 30.9156 19.9641C30.9156 25.9929 26.0114 30.8971 19.9826 30.8971C19.0466 30.8971 18.1044 30.7548 17.2253 30.5251C17.0051 30.4671 16.9334 30.1909 17.0936 30.0297L19.9299 27.1976C20.0637 27.0638 20.2419 26.9816 20.4305 26.9678C23.9192 26.7318 26.7218 23.9134 26.9716 20.4279C26.9853 20.2434 27.0664 20.0706 27.1971 19.9399H27.1982Z" fill="#38FF9C"/>
<path d="M48.0523 30.3282V10.5554H61.3757V14.002H52.2324V18.7133H60.6896V22.1598H52.2324V26.8806H61.4137V30.3272H48.0512L48.0523 30.3282Z" fill="white"/>
<path d="M71.1957 15.4985V18.5878H62.2653V15.4985H71.1957ZM64.2921 11.9456H68.4047V25.7707C68.4047 26.1501 68.4627 26.4453 68.5786 26.654C68.6946 26.8637 68.8569 27.0102 69.0666 27.0935C69.2753 27.1767 69.5188 27.2189 69.796 27.2189C69.9889 27.2189 70.1818 27.201 70.3757 27.1662C70.5686 27.1314 70.7172 27.103 70.8194 27.084L71.4666 30.1448C71.26 30.2091 70.9712 30.2849 70.5981 30.3714C70.225 30.4578 69.7707 30.5115 69.2363 30.5305C68.2445 30.5695 67.3782 30.4367 66.634 30.1342C65.891 29.8317 65.3123 29.3616 64.9013 28.725C64.4892 28.0874 64.2868 27.2832 64.2931 26.3114V11.9456H64.2921Z" fill="white"/>
<path d="M77.4934 21.7551V30.3282H73.3807V10.5554H77.3775V18.1146H77.5514C77.8855 17.2398 78.4262 16.5526 79.1735 16.053C79.9197 15.5545 80.8567 15.3047 81.9834 15.3047C83.0131 15.3047 83.9122 15.5281 84.6816 15.9761C85.451 16.424 86.0497 17.0638 86.4776 17.8975C86.9055 18.7312 87.1163 19.7272 87.11 20.8856V30.3282H82.9973V21.6191C83.0036 20.7053 82.7739 19.9939 82.307 19.4859C81.84 18.9778 81.1887 18.7228 80.3518 18.7228C79.7921 18.7228 79.2978 18.8419 78.8699 19.0801C78.442 19.3183 78.1068 19.664 77.8655 20.1182C77.6241 20.5725 77.4997 21.1174 77.4934 21.7551Z" fill="white"/>
<path d="M96.813 30.6176C95.2878 30.6176 93.9756 30.3067 92.8784 29.6859C91.7812 29.0651 90.9359 28.1829 90.3436 27.0404C89.7512 25.8978 89.4551 24.5445 89.4551 22.9804C89.4551 21.4163 89.7512 20.1167 90.3436 18.9636C90.9359 17.8116 91.7707 16.9136 92.8489 16.2697C93.9271 15.6257 95.193 15.3042 96.6485 15.3042C97.6266 15.3042 98.5394 15.4602 99.3857 15.7722C100.232 16.0842 100.972 16.5532 101.606 17.1771C102.24 17.8011 102.734 18.5853 103.088 19.5286C103.443 20.4719 103.62 21.5744 103.62 22.8349V23.9648H91.0972V21.4163H99.7483C99.7483 20.8239 99.6197 20.3001 99.3626 19.8427C99.1054 19.3863 98.7491 19.0269 98.2959 18.7665C97.8427 18.5062 97.3157 18.3755 96.717 18.3755C96.1184 18.3755 95.5408 18.5189 95.0612 18.8055C94.5817 19.0922 94.2064 19.4748 93.9366 19.9544C93.6658 20.434 93.5277 20.9662 93.5214 21.5522V23.9754C93.5214 24.7089 93.6584 25.3434 93.9314 25.8778C94.2054 26.4122 94.5933 26.8243 95.095 27.1131C95.5967 27.4029 96.1922 27.5473 96.8815 27.5473C97.3389 27.5473 97.7563 27.483 98.1368 27.3544C98.5162 27.2259 98.8419 27.033 99.1117 26.7747C99.3826 26.5176 99.5881 26.2024 99.7293 25.8283L103.533 26.0791C103.34 26.9929 102.946 27.7897 102.351 28.4685C101.755 29.1473 100.989 29.6753 100.053 30.0516C99.117 30.4279 98.0366 30.6165 96.814 30.6165L96.813 30.6176Z" fill="white"/>
<path d="M106.062 30.3278V15.4982H110.049V18.0858H110.204C110.474 17.1656 110.928 16.469 111.566 15.9957C112.202 15.5225 112.937 15.2864 113.766 15.2864C113.972 15.2864 114.194 15.299 114.432 15.3254C114.671 15.3517 114.879 15.3865 115.061 15.4318V19.0818C114.868 19.0238 114.6 18.9722 114.26 18.9268C113.918 18.8815 113.606 18.8594 113.324 18.8594C112.719 18.8594 112.179 18.9901 111.707 19.2504C111.234 19.5108 110.861 19.8733 110.586 20.3371C110.312 20.8008 110.176 21.3352 110.176 21.9402V30.3299H106.064L106.062 30.3278Z" fill="white"/>
<path d="M121.056 10.5554V30.3282H116.943V10.5554H121.056Z" fill="white"/>
<path d="M124.114 30.3279V15.4983H128.227V30.3279H124.114Z" fill="white"/>
<path d="M135.392 21.7546V30.3277H131.279V15.4981H135.199V18.1141H135.373C135.701 17.252 136.252 16.5679 137.024 16.062C137.796 15.5572 138.732 15.3042 139.834 15.3042C140.863 15.3042 141.761 15.5298 142.528 15.9798C143.294 16.4309 143.889 17.0728 144.314 17.9054C144.739 18.7391 144.951 19.732 144.951 20.884V30.3267H140.838V21.6176C140.844 20.7101 140.612 20.0008 140.142 19.4885C139.672 18.9773 139.025 18.7212 138.202 18.7212C137.649 18.7212 137.161 18.8403 136.739 19.0785C136.317 19.3167 135.989 19.6624 135.755 20.1167C135.52 20.571 135.398 21.1159 135.392 21.7535V21.7546Z" fill="white"/>
<path d="M147.912 30.3282V10.5554H152.025V30.3282H147.912ZM151.639 26.0606L151.649 21.1269H152.247L156.998 15.4986H161.718L155.337 22.9524H154.362L151.639 26.0617V26.0606ZM157.181 30.3282L152.817 23.8694L155.56 20.9635L162 30.3282H157.182H157.181Z" fill="white"/>
<path d="M126.172 13.64C127.325 13.64 128.26 12.7052 128.26 11.5521C128.26 10.3989 127.325 9.46411 126.172 9.46411C125.019 9.46411 124.084 10.3989 124.084 11.5521C124.084 12.7052 125.019 13.64 126.172 13.64Z" fill="white"/>
</svg>
