<svg width="93" height="33" viewBox="0 0 93 33" fill="none" xmlns="http://www.w3.org/2000/svg">
<g id="tezos-logo" clip-path="url(#clip0_373_14065)">
<path id="Vector" d="M46.4481 7.69963H40.7446V23.1351H39.344V7.69963H33.655V6.51562H46.4481V7.69963Z" fill="#9B9B9B"/>
<path id="Vector_2" d="M51.7183 23.3842C49.6781 23.4145 47.801 22.2695 46.8957 20.4401C46.4134 19.477 46.1708 18.4128 46.1881 17.3356V16.8447C46.1708 15.7372 46.4091 14.6413 46.8812 13.6392C47.3014 12.7296 47.967 11.9542 48.8016 11.4012C49.5914 10.8698 50.5213 10.5839 51.4729 10.5781C52.9745 10.5781 54.1585 11.0835 55.0393 12.1087C55.9201 13.1339 56.3533 14.5344 56.3533 16.3105V17.0757H47.531V17.3356C47.531 18.7362 47.9353 19.9058 48.7294 20.8299C49.473 21.7352 50.5906 22.2522 51.7616 22.2305C52.4287 22.2464 53.0915 22.1078 53.6965 21.8262C54.3029 21.5273 54.8271 21.0855 55.227 20.5411L56.0789 21.1909C55.0971 22.6478 53.6387 23.3842 51.7183 23.3842ZM51.4729 11.7318C50.4852 11.7159 49.538 12.126 48.8738 12.8581C48.1663 13.6089 47.7476 14.6196 47.5887 15.8903H54.996V15.7459C54.9527 14.5619 54.6206 13.5945 53.9853 12.8436C53.3499 12.0928 52.5125 11.7318 51.4729 11.7318Z" fill="#9B9B9B"/>
<path id="Vector_3" d="M60.3964 21.9938H68.4246V23.149H58.707V22.1382L66.2009 11.9731H58.9381V10.7891H67.9192V11.8142L60.3964 21.9938Z" fill="#9B9B9B"/>
<path id="Vector_4" d="M70.3881 16.7867C70.3708 15.6792 70.609 14.5833 71.0812 13.5812C71.5086 12.6701 72.1843 11.9005 73.0305 11.3576C73.8867 10.8204 74.8801 10.5446 75.8894 10.5634C77.5355 10.5634 78.8639 11.141 79.889 12.2961C80.9142 13.4512 81.4196 14.9818 81.4196 16.8877V17.1765C81.4384 18.2883 81.2001 19.39 80.7265 20.3964C80.3034 21.3061 79.6262 22.0743 78.7772 22.6071C77.9181 23.1327 76.9261 23.4041 75.9183 23.3868C74.2867 23.3868 72.9438 22.8092 71.9186 21.6541C70.8935 20.499 70.3881 18.9684 70.3881 17.0625V16.7867ZM71.7598 17.1621C71.7598 18.6349 72.1497 19.8478 72.9005 20.8007C73.6513 21.7537 74.6621 22.2158 75.9038 22.2158C77.072 22.2432 78.1852 21.7191 78.9072 20.8007C79.6725 19.8478 80.0479 18.606 80.0479 17.0466V16.7867C80.0565 15.8943 79.8804 15.0078 79.5281 14.1876C79.2191 13.4541 78.7079 12.8231 78.0553 12.3683C77.4171 11.9337 76.6604 11.707 75.8894 11.7185C74.7227 11.6969 73.6152 12.2268 72.9005 13.148C72.1352 14.101 71.7454 15.3572 71.7454 16.9022L71.7598 17.1621Z" fill="#9B9B9B"/>
<path id="Vector_5" d="M91.6427 20.0069C91.66 19.36 91.351 18.7463 90.8196 18.3753C90.2709 17.971 89.4623 17.6389 88.3505 17.4078C87.4712 17.2432 86.6135 16.9775 85.7948 16.6137C85.1884 16.3105 84.7408 15.9495 84.452 15.5163C84.1473 15.0485 83.9914 14.4998 84.0044 13.9424C84.0044 12.9606 84.4087 12.1664 85.2317 11.5311C86.0547 10.8958 87.0943 10.5781 88.365 10.5781C89.7367 10.5781 90.8485 10.9247 91.686 11.6033C92.5047 12.2444 92.9711 13.2349 92.9422 14.2745H91.5705C91.5762 13.5612 91.2369 12.8898 90.6608 12.4697C90.0544 11.9932 89.2891 11.7477 88.365 11.7477C87.4698 11.7477 86.7478 11.9498 86.1991 12.3397C85.6793 12.6877 85.3703 13.2739 85.3761 13.8991C85.3486 14.4594 85.6042 14.9951 86.0547 15.3286C86.5023 15.6607 87.3398 15.9784 88.5382 16.2671C89.7367 16.5559 90.6319 16.8447 91.2384 17.1624C91.7712 17.428 92.2289 17.8266 92.5668 18.3175C93.3754 19.7037 93.0216 21.4768 91.7437 22.4471C90.9063 23.068 89.8089 23.3856 88.4516 23.3856C87.0077 23.3856 85.8381 23.0391 84.9573 22.346C84.0766 21.6529 83.6145 20.7722 83.6145 19.7037H84.9862C85.0151 20.4487 85.3876 21.1375 85.997 21.5663C86.6178 22.0139 87.4409 22.2305 88.466 22.2305C89.419 22.2305 90.1843 22.0139 90.7763 21.6096C91.3539 21.175 91.6427 20.6408 91.6427 20.0069Z" fill="#9B9B9B"/>
<path id="Vector_6" d="M23.5621 24.0767C23.23 18.2 15.8371 15.5288 15.1296 15.2544C15.1008 15.24 15.1008 15.2111 15.1152 15.1822L22.7391 7.52948V6.70645C22.7347 6.57217 22.6279 6.46532 22.4936 6.46099H8.44431V1.85491V0.46875L3.26066 1.55168V2.3314H3.54945C3.54945 2.3314 4.82009 2.3314 4.82009 3.60204V6.44655H0.806012C0.728041 6.45233 0.667397 6.51297 0.661621 6.59094V8.39583H4.83453V18.2C4.83453 21.2755 6.81269 23.4125 10.2781 23.1237C10.9914 23.053 11.6772 22.8046 12.2707 22.4018C12.532 22.2343 12.6894 21.947 12.6894 21.6365V20.6691C11.5632 21.4199 10.6102 21.3766 10.6102 21.3766C8.41543 21.3766 8.45875 18.5899 8.45875 18.5899V8.39583H18.5661L11.2888 15.7309C11.2744 16.6983 11.2599 17.4492 11.2599 17.4636C11.2571 17.4853 11.2729 17.504 11.2946 17.5069C11.2975 17.5069 11.3004 17.5069 11.3033 17.5069C17.9741 18.6332 19.779 22.9505 19.779 24.2067C19.779 24.2067 20.501 30.3144 14.3932 30.7332C14.3932 30.7332 10.3936 30.9064 9.68608 29.3037C9.66009 29.2517 9.68319 29.1882 9.73517 29.1636C9.73806 29.1622 9.74095 29.1607 9.74383 29.1593C10.4239 28.8748 10.8643 28.2078 10.8556 27.4699C10.8556 26.2859 10.1337 25.3185 8.61758 25.3185C7.39026 25.3185 6.37952 26.2859 6.37952 27.4699C6.37952 27.4699 5.80195 32.6103 14.3788 32.4659C24.1685 32.2926 23.5621 24.0767 23.5621 24.0767Z" fill="#9B9B9B"/>
</g>
<defs>
<clipPath id="clip0_373_14065">
<rect width="92.3382" height="32" fill="white" transform="translate(0.661621 0.46875)"/>
</clipPath>
</defs>
</svg>
