<svg width="101" height="35" viewBox="0 0 101 35" fill="none" xmlns="http://www.w3.org/2000/svg">
<g id="tezos-xtz-seeklogo.com 3" clip-path="url(#clip0_119_16)">
<path id="Vector" d="M49.9609 7.87736H43.7389V24.6855H42.2109V7.87736H36.0047V6.58805H49.9609V7.87736ZM55.7103 24.9528C54.5604 24.9528 53.5208 24.6698 52.6072 24.1038C51.6936 23.5377 50.9532 22.7516 50.4492 21.7453C49.9294 20.739 49.6773 19.6069 49.6773 18.3648V17.8302C49.6773 16.5409 49.9294 15.3774 50.4334 14.3396C50.9375 13.3019 51.6306 12.4843 52.5284 11.9025C53.4263 11.3208 54.4029 11.0063 55.4425 11.0063C57.0807 11.0063 58.3724 11.5566 59.3332 12.673C60.2941 13.7893 60.7666 15.3145 60.7666 17.2484V18.0818H51.1422V18.3648C51.1422 19.8899 51.5833 21.1635 52.4497 22.1698C53.3318 23.1918 54.4344 23.695 55.7575 23.695C56.5609 23.695 57.254 23.5535 57.8683 23.2547C58.4826 22.9717 59.0339 22.5 59.538 21.8553L60.4674 22.5629C59.3962 24.1509 57.8053 24.9528 55.7103 24.9528ZM55.4425 12.2642C54.3241 12.2642 53.379 12.673 52.6072 13.4906C51.8353 14.3082 51.3785 15.4088 51.2053 16.7925H59.286V16.6352C59.2387 15.3459 58.8764 14.2925 58.1833 13.4748C57.4902 12.6572 56.5766 12.2642 55.4425 12.2642ZM65.1772 23.4434H73.9352V24.7013H63.3342V23.6006L71.5094 12.5314H63.5862V11.2421H73.3839V12.3585L65.1772 23.4434ZM76.0774 17.7673C76.0774 16.478 76.3295 15.3145 76.8335 14.2767C77.3376 13.239 78.0464 12.4371 78.96 11.8553C79.8736 11.2736 80.9133 10.9906 82.0789 10.9906C83.8746 10.9906 85.3238 11.6195 86.4422 12.8774C87.5605 14.1352 88.1119 15.8019 88.1119 17.8774V18.1918C88.1119 19.4969 87.8598 20.6604 87.3558 21.6981C86.8517 22.7358 86.1429 23.5377 85.2293 24.1038C84.3157 24.6698 83.276 24.9528 82.1104 24.9528C80.3304 24.9528 78.8655 24.3239 77.7471 23.066C76.6288 21.8082 76.0774 20.1415 76.0774 18.066V17.7673ZM77.5739 18.1761C77.5739 19.7799 77.9992 21.1006 78.8183 22.1384C79.6531 23.1761 80.74 23.6792 82.0946 23.6792C83.4336 23.6792 84.5362 23.1604 85.371 22.1384C86.2059 21.1006 86.6154 19.7484 86.6154 18.0503V17.7673C86.6154 16.7453 86.4264 15.8019 86.0484 14.9371C85.6703 14.0881 85.1348 13.4277 84.4417 12.956C83.7486 12.4843 82.961 12.2484 82.0789 12.2484C80.7557 12.2484 79.6689 12.7673 78.8183 13.805C77.9834 14.8428 77.5581 16.2107 77.5581 17.8931L77.5739 18.1761ZM99.2642 21.2736C99.2642 20.5346 98.9649 19.9371 98.3663 19.4969C97.7677 19.0566 96.8856 18.695 95.6728 18.4434C94.4599 18.1918 93.5462 17.8931 92.8847 17.5786C92.2231 17.2484 91.7348 16.8553 91.4198 16.3836C91.1047 15.912 90.9314 15.3459 90.9314 14.6698C90.9314 13.6006 91.3725 12.7358 92.2704 12.044C93.1525 11.3522 94.3023 11.0063 95.6885 11.0063C97.1849 11.0063 98.3978 11.3836 99.3114 12.1226C100.225 12.8616 100.682 13.8365 100.682 15.0314H99.1854C99.1854 14.2453 98.8546 13.5849 98.1931 13.066C97.5315 12.5472 96.6966 12.2799 95.6885 12.2799C94.7119 12.2799 93.9243 12.5 93.3257 12.9245C92.7272 13.3648 92.4279 13.9308 92.4279 14.6226C92.4279 15.2987 92.6799 15.8176 93.1682 16.1792C93.6565 16.5409 94.5701 16.8868 95.8775 17.2013C97.1849 17.5157 98.1615 17.8302 98.8231 18.1761C99.469 18.522 99.9573 18.9465 100.272 19.434C100.587 19.9214 100.745 20.5189 100.745 21.2107C100.745 22.3428 100.288 23.2547 99.3744 23.9308C98.4608 24.6069 97.2637 24.9528 95.783 24.9528C94.2078 24.9528 92.9319 24.5755 91.9711 23.8208C90.9944 23.066 90.5061 22.1069 90.5061 20.9434H92.0026C92.0656 21.8082 92.4279 22.4843 93.1052 22.9717C93.7825 23.4591 94.6804 23.695 95.7988 23.695C96.8384 23.695 97.6732 23.4591 98.3191 23.0189C98.9491 22.5472 99.2642 21.9654 99.2642 21.2736ZM24.9942 25.7075C24.6319 19.3082 16.5669 16.3994 15.7951 16.1006C15.7636 16.0849 15.7636 16.0535 15.7793 16.022L24.0963 7.68868V6.79245C24.0963 6.65094 23.9703 6.52516 23.8285 6.52516H8.50197V0L2.84705 1.17925V2.0283H3.16209C3.16209 2.0283 4.54825 2.0283 4.54825 3.41195V6.50943H0.169237C0.090478 6.50943 0.0117188 6.58805 0.0117188 6.66667V8.63207H4.56401V19.3082C4.56401 22.6572 6.72201 24.9843 10.5025 24.6698C11.3058 24.6069 12.0461 24.2925 12.6762 23.8836C12.9597 23.695 13.133 23.3962 13.133 23.0503V21.9969C11.9044 22.8145 10.8647 22.7673 10.8647 22.7673C8.47047 22.7673 8.51772 19.7327 8.51772 19.7327V8.63207H19.544L11.6051 16.6195C11.5893 17.673 11.5736 18.4906 11.5736 18.5063C11.5736 18.5377 11.5893 18.5535 11.6208 18.5535C18.8982 19.7799 20.8672 24.4811 20.8672 25.8491C20.8672 25.8491 21.6548 32.5 14.9917 32.956C14.9917 32.956 10.6285 33.1447 9.85663 31.3994C9.82513 31.3365 9.85663 31.2736 9.91964 31.2421C10.6442 30.9119 11.1325 30.2673 11.1325 29.4025C11.1325 28.1132 10.3449 27.0597 8.69099 27.0597C7.35208 27.0597 6.24945 28.1132 6.24945 29.4025C6.24945 29.4025 5.61938 35 14.976 34.8428C25.6557 34.6541 24.9942 25.7075 24.9942 25.7075Z" fill="#111111"/>
</g>
<defs>
<clipPath id="clip0_119_16">
<rect width="100.758" height="35" fill="white"/>
</clipPath>
</defs>
</svg>
