<svg width="16" height="16" viewBox="0 0 16 16" fill="none" xmlns="http://www.w3.org/2000/svg">
<g id="BiSliderAlt">
<path id="Vector" d="M4.9987 9.66669C3.94536 9.66669 3.06336 10.3734 2.77403 11.3334H1.33203V12.6667H2.77403C3.06336 13.6267 3.94536 14.3334 4.9987 14.3334C6.05203 14.3334 6.93403 13.6267 7.22336 12.6667H14.6654V11.3334H7.22336C6.93403 10.3734 6.05203 9.66669 4.9987 9.66669ZM4.9987 13C4.44736 13 3.9987 12.5514 3.9987 12C3.9987 11.4487 4.44736 11 4.9987 11C5.55003 11 5.9987 11.4487 5.9987 12C5.9987 12.5514 5.55003 13 4.9987 13ZM10.9987 5.66669C9.94536 5.66669 9.06336 6.37335 8.77403 7.33335H1.33203V8.66669H8.77403C9.06336 9.62669 9.94536 10.3334 10.9987 10.3334C12.052 10.3334 12.934 9.62669 13.2234 8.66669H14.6654V7.33335H13.2234C12.934 6.37335 12.052 5.66669 10.9987 5.66669ZM10.9987 9.00002C10.4474 9.00002 9.9987 8.55135 9.9987 8.00002C9.9987 7.44869 10.4474 7.00002 10.9987 7.00002C11.55 7.00002 11.9987 7.44869 11.9987 8.00002C11.9987 8.55135 11.55 9.00002 10.9987 9.00002Z" fill="#38FF9C"/>
<path id="Vector_2" d="M8.5567 3.33335C8.26736 2.37335 7.38537 1.66669 6.33203 1.66669C5.2787 1.66669 4.3967 2.37335 4.10736 3.33335H1.33203V4.66669H4.10736C4.3967 5.62669 5.2787 6.33335 6.33203 6.33335C7.38537 6.33335 8.26736 5.62669 8.5567 4.66669H14.7487V3.33335H8.5567ZM6.33203 5.00002C5.7807 5.00002 5.33203 4.55135 5.33203 4.00002C5.33203 3.44869 5.7807 3.00002 6.33203 3.00002C6.88336 3.00002 7.33203 3.44869 7.33203 4.00002C7.33203 4.55135 6.88336 5.00002 6.33203 5.00002Z" fill="#38FF9C"/>
</g>
</svg>
