<svg width="16" height="16" viewBox="0 0 16 16" fill="none" xmlns="http://www.w3.org/2000/svg">
<g id="FiArrowLeft">
<path id="Vector (Stroke)" fill-rule="evenodd" clip-rule="evenodd" d="M2.66667 8.16667C2.66667 7.79848 2.96515 7.5 3.33334 7.5H12.6667C13.0349 7.5 13.3333 7.79848 13.3333 8.16667C13.3333 8.53486 13.0349 8.83333 12.6667 8.83333H3.33334C2.96515 8.83333 2.66667 8.53486 2.66667 8.16667Z" fill="#BCBCBC"/>
<path id="Vector (Stroke)_2" fill-rule="evenodd" clip-rule="evenodd" d="M8.47141 3.02827C8.73176 3.28862 8.73176 3.71073 8.47141 3.97108L4.27615 8.16634L8.47141 12.3616C8.73176 12.622 8.73176 13.0441 8.47141 13.3044C8.21106 13.5648 7.78895 13.5648 7.5286 13.3044L2.86193 8.63775C2.60158 8.3774 2.60158 7.95529 2.86193 7.69494L7.5286 3.02827C7.78895 2.76792 8.21106 2.76792 8.47141 3.02827Z" fill="#BCBCBC"/>
</g>
</svg>
