<svg width="19" height="18" viewBox="0 0 19 18" fill="none" xmlns="http://www.w3.org/2000/svg">
<g id="discord">
<path id="Vector" d="M15.2271 4.03639C14.143 3.54525 12.9986 3.19682 11.823 3C11.6621 3.28457 11.5166 3.57736 11.3869 3.87714C10.1347 3.69041 8.86132 3.69041 7.60911 3.87714C7.4794 3.57739 7.33385 3.28461 7.17305 3C5.99673 3.19848 4.85154 3.54774 3.76638 4.03896C1.61207 7.19307 1.02807 10.2688 1.32007 13.3009C2.58169 14.2234 3.9938 14.9249 5.49502 15.375C5.83305 14.9251 6.13217 14.4478 6.38919 13.9482C5.90101 13.7678 5.42983 13.5452 4.9811 13.283C5.0992 13.1982 5.2147 13.1109 5.32631 13.0261C6.63201 13.6337 8.0571 13.9488 9.49997 13.9488C10.9428 13.9488 12.3679 13.6337 13.6736 13.0261C13.7865 13.1173 13.902 13.2046 14.0188 13.283C13.5692 13.5456 13.0972 13.7686 12.6082 13.9495C12.8649 14.4489 13.164 14.9258 13.5023 15.375C15.0048 14.9267 16.418 14.2255 17.6799 13.3022C18.0225 9.78596 17.0946 6.73844 15.2271 4.03639ZM6.75906 11.4362C5.94535 11.4362 5.2731 10.7055 5.2731 9.80651C5.2731 8.90753 5.92199 8.17038 6.75647 8.17038C7.59094 8.17038 8.258 8.90753 8.24372 9.80651C8.22944 10.7055 7.58834 11.4362 6.75906 11.4362ZM12.2409 11.4362C11.4259 11.4362 10.7562 10.7055 10.7562 9.80651C10.7562 8.90753 11.4051 8.17038 12.2409 8.17038C13.0767 8.17038 13.7385 8.90753 13.7242 9.80651C13.71 10.7055 13.0702 11.4362 12.2409 11.4362Z" fill="#A3FFD1"/>
</g>
</svg>
