<svg width="16" height="16" viewBox="0 0 16 16" fill="none" xmlns="http://www.w3.org/2000/svg">
<path id="Vector" fill-rule="evenodd" clip-rule="evenodd" d="M2.55661 2.06017C2.55666 1.74197 2.68309 1.43682 2.90808 1.21182C3.13308 0.986825 3.43823 0.8604 3.75643 0.860352L13.9388 0.860352C14.257 0.8604 14.5621 0.986825 14.7871 1.21182C15.0121 1.43682 15.1385 1.74197 15.1386 2.06017V12.2425C15.1331 12.5571 15.0043 12.857 14.7799 13.0775C14.5555 13.2981 14.2534 13.4217 13.9388 13.4217C13.6241 13.4217 13.3221 13.2981 13.0976 13.0775C12.8732 12.857 12.7444 12.5571 12.739 12.2425V4.95705L2.9079 14.7881C2.68286 15.0131 2.37763 15.1396 2.05937 15.1396C1.74111 15.1396 1.43589 15.0131 1.21085 14.7881C0.985803 14.5631 0.859375 14.2578 0.859375 13.9396C0.859375 13.6213 0.985803 13.3161 1.21085 13.091L11.0419 3.25999H3.75643C3.43823 3.25994 3.13308 3.13352 2.90808 2.90852C2.68309 2.68352 2.55666 2.37837 2.55661 2.06017Z" fill="#38FF9C"/>
</svg>
