<svg width="103" height="128" viewBox="0 0 103 128" fill="none" xmlns="http://www.w3.org/2000/svg">
<g id="Layer_1" clip-path="url(#clip0_1263_649)">
<path id="Vector" d="M99.3213 49.5041L56.1932 71.0682C55.4877 71.4276 55.0352 72.1464 55.0352 72.9318V125.91C55.0352 127.468 56.6724 128.466 58.0568 127.774L101.185 106.21C101.89 105.85 102.343 105.131 102.343 104.346V51.3677C102.343 49.8236 100.706 48.812 99.3213 49.5041Z" fill="#38FF9C"/>
<path id="Vector_2" d="M47.0232 71.0549L3.90835 49.5041C2.52399 48.812 0.886719 49.8236 0.886719 51.3677V104.346C0.886719 105.131 1.3393 105.864 2.04479 106.21L45.1729 127.774C46.5573 128.466 48.1945 127.454 48.1945 125.91V72.9318C48.1945 72.1464 47.742 71.4143 47.0365 71.0682L47.0232 71.0549Z" fill="#38FF9C"/>
<path id="Vector_3" d="M50.2472 14.1898L7.85121 35.3812C6.32043 36.1532 6.32043 38.3363 7.85121 39.1083L50.2472 60.313C50.8329 60.6058 51.5251 60.6058 52.1108 60.313L94.5068 39.1083C96.0376 38.3363 96.0376 36.1532 94.5068 35.3812L52.1108 14.1898C51.5251 13.897 50.8329 13.897 50.2472 14.1898Z" stroke="#38FF9C" stroke-width="6.65557" stroke-miterlimit="10"/>
<path id="Vector_4" d="M59.3477 7.72057L44.1996 0.146528C43.3211 -0.292739 42.2695 0.346196 42.2695 1.33122V34.5692C42.2695 35.075 42.5491 35.5276 43.0016 35.7538L58.1497 43.3412C59.0283 43.7805 60.0798 43.1415 60.0798 42.1565V8.90526C60.0798 8.39944 59.8003 7.94686 59.3477 7.72057Z" fill="#38FF9C"/>
</g>
<defs>
<clipPath id="clip0_1263_649">
<rect width="101.444" height="128" fill="white" transform="translate(0.886719)"/>
</clipPath>
</defs>
</svg>
