<svg width="128" height="129" viewBox="0 0 128 129" fill="none" xmlns="http://www.w3.org/2000/svg">
<g id="Layer_1" clip-path="url(#clip0_994_325)">
<path id="Vector" d="M64 128.5C99.3462 128.5 128 99.8462 128 64.5C128 29.1538 99.3462 0.5 64 0.5C28.6538 0.5 0 29.1538 0 64.5C0 99.8462 28.6538 128.5 64 128.5Z" fill="#38FF9C"/>
<path id="Vector_2" d="M54.4243 116.891C54.1565 116.891 53.8886 116.866 53.6207 116.81C28.9163 111.756 10.9844 89.7554 10.9844 64.5052C10.9844 39.2549 28.8152 17.3858 53.3832 12.2408C55.5463 11.8011 57.664 13.1758 58.1189 15.3389C58.5737 17.5021 57.1839 19.6198 55.0207 20.0746C34.1372 24.4464 18.985 43.1314 18.985 64.5001C18.985 85.8688 34.2282 104.675 55.2229 108.971C57.386 109.411 58.7809 111.523 58.3412 113.692C57.9521 115.582 56.2842 116.891 54.4243 116.891Z" fill="#262626"/>
<path id="Vector_3" d="M73.6976 116.891C71.8377 116.891 70.1699 115.587 69.7858 113.691C69.341 111.523 70.7359 109.411 72.8991 108.971C93.8989 104.675 109.137 85.9697 109.137 64.4999C109.137 43.0301 93.9797 24.4412 73.0962 20.0744C70.933 19.6196 69.5482 17.5019 69.998 15.3387C70.4529 13.1806 72.5605 11.8059 74.7337 12.2406C99.3017 17.3857 117.133 39.3659 117.133 64.4999C117.133 89.6339 99.2006 111.751 74.4962 116.805C74.2233 116.86 73.9554 116.886 73.6875 116.886L73.6976 116.891Z" fill="#262626"/>
<path id="Vector_4" d="M82.4001 69.4632C80.0095 64.7629 75.3193 61.2554 69.8608 60.0778C69.2392 59.9464 68.6327 59.8504 68.0313 59.7695V43.93C70.2551 44.5213 72.3323 45.6484 73.7828 47.5942C75.107 49.3631 77.6088 49.7321 79.3828 48.4079C81.1517 47.0837 81.5156 44.5819 80.1965 42.808C77.4066 39.0679 73.0298 36.6167 68.0313 35.7474V30.7236C68.0313 28.515 66.2421 26.7258 64.0284 26.7258C61.8147 26.7258 60.0306 28.515 60.0306 30.7236V35.7272C59.6162 35.7929 59.2068 35.8131 58.7873 35.899C54.8098 36.7026 51.6206 38.2441 49.3109 40.4881C45.3182 44.3646 43.8929 50.6165 45.773 56.0446C47.5116 61.0684 51.9037 65.1016 57.2408 66.5622C58.1859 66.82 59.1158 66.9817 60.0306 67.103V84.7569C57.6451 84.4082 55.2747 83.6046 53.7181 81.9115C52.2221 80.2841 49.695 80.183 48.0676 81.6739C46.4402 83.17 46.334 85.697 47.8301 87.3244C50.6553 90.3973 54.835 92.2421 60.0306 92.798V99.8838C60.0306 102.092 61.8198 103.882 64.0284 103.882C66.2371 103.882 68.0313 102.092 68.0313 99.8838V92.6666C73.9951 91.8579 78.5741 89.4674 81.364 85.606C84.6643 81.0371 85.0686 74.6993 82.4051 69.4531L82.4001 69.4632ZM59.3483 58.8497C56.5635 58.0865 54.1982 55.9587 53.3239 53.4317C52.4545 50.9198 53.0914 47.9581 54.8704 46.2296C56.0025 45.1328 57.7462 44.3292 60.0205 43.8289V58.971C59.8032 58.9255 59.5556 58.9103 59.3483 58.8547V58.8497ZM74.8745 80.931C73.3229 83.079 70.5836 84.105 68.0262 84.5902V67.8763C68.0717 67.8864 68.1273 67.8864 68.1728 67.8965C71.2608 68.5586 73.9799 70.5499 75.2687 73.0921C76.5525 75.6141 76.3857 78.8335 74.8745 80.931Z" fill="#262626"/>
</g>
<defs>
<clipPath id="clip0_994_325">
<rect width="128" height="128" fill="white" transform="translate(0 0.5)"/>
</clipPath>
</defs>
</svg>
