<svg width="129" height="114" viewBox="0 0 129 114" fill="none" xmlns="http://www.w3.org/2000/svg">
<g id="Layer_1" clip-path="url(#clip0_1263_660)">
<path id="Vector" d="M12.3332 72.6201C4.15213 80.8011 4.14999 94.0631 12.3284 102.241C20.5068 110.42 33.7688 110.418 41.9498 102.237L49.4331 94.7534C57.6142 86.5723 57.6163 73.3104 49.4379 65.1319C41.2595 56.9535 27.9976 56.9557 19.8165 65.1367L12.3332 72.6201Z" stroke="#38FF9C" stroke-width="10.7322" stroke-miterlimit="10"/>
<path id="Vector_2" d="M50.7756 54.9853L60.3003 45.4606C61.0466 44.7143 61.0466 43.5068 60.3003 42.747L52.5937 35.0404C51.8475 34.2942 50.6399 34.2942 49.8801 35.0404L36.9092 48.0113C35.783 49.1375 36.4343 51.1048 38.0218 51.2541C41.658 51.6204 45.2263 52.9365 48.3063 55.2024C49.0525 55.7451 50.0972 55.6365 50.7485 54.9853H50.7756Z" fill="#38FF9C"/>
<path id="Vector_3" d="M39.4467 68.051C39.0126 68.7023 38.6462 69.4078 38.3884 70.1541C37.303 73.3561 37.0045 77.1823 40.0302 79.923C42.3231 82.0125 45.2674 82.4059 48.7408 81.117C48.7408 81.117 48.7408 81.117 48.7544 81.117C51.4272 80.1129 53.476 78.4169 53.6795 78.2406C53.6931 78.2406 53.7067 78.2134 53.7202 78.1999L67.3153 65.5138C67.763 65.0932 67.7766 64.3741 67.3424 63.9399L60.6534 57.2509C60.2057 56.8032 59.4866 56.8303 59.066 57.2917L53.7881 63.1666L46.5156 71.1717C46.5156 71.1717 45.8508 71.9722 45.1046 72.2164C44.589 72.3792 44.182 72.2571 43.9513 72.1214C43.5714 71.9043 43.1644 71.6737 43.1237 70.9681C43.1237 70.9681 43.5714 70.344 43.8292 70.3305C43.8292 70.3305 42.2553 68.5666 40.9799 67.7254C40.4779 67.3862 39.7995 67.5219 39.4603 68.0239L39.4467 68.051Z" fill="#38FF9C"/>
<path id="Vector_4" d="M117.315 41.3648C125.496 33.1838 125.498 19.9218 117.32 11.7434C109.142 3.56497 95.8797 3.56712 87.6986 11.7482L80.2153 19.2315C72.0342 27.4125 72.0321 40.6745 80.2105 48.8529C88.3889 57.0313 101.651 57.0292 109.832 48.8481L117.315 41.3648Z" stroke="#38FF9C" stroke-width="10.7322" stroke-miterlimit="10"/>
<path id="Vector_5" d="M78.8617 59.0013L69.337 68.526C68.5908 69.2723 68.5908 70.4798 69.337 71.2396L77.0436 78.9462C77.7899 79.6925 78.9974 79.6925 79.7572 78.9462L92.7282 65.9753C93.8543 64.8491 93.203 62.8818 91.6156 62.7325C87.9794 62.3662 84.411 61.0501 81.3311 58.7843C80.5848 58.2415 79.5401 58.3501 78.8889 59.0013H78.8617Z" fill="#38FF9C"/>
<path id="Vector_6" d="M90.1779 45.9354C90.612 45.2842 90.9784 44.5786 91.2362 43.8324C92.3216 40.6304 92.6201 36.8042 89.5944 34.0635C87.3015 31.974 84.3572 31.5806 80.8838 32.8695C80.8838 32.8695 80.8838 32.8695 80.8703 32.8695C78.1974 33.8735 76.1486 35.5695 75.9451 35.7459C75.9315 35.7459 75.918 35.773 75.9044 35.7866L62.3093 48.4726C61.8616 48.8933 61.848 49.6124 62.2822 50.0465L68.9712 56.7355C69.4189 57.1833 70.138 57.1561 70.5586 56.6948L75.8366 50.8199L83.109 42.8148C83.109 42.8148 83.7738 42.0143 84.52 41.7701C85.0356 41.6073 85.4427 41.7294 85.6733 41.8651C86.0532 42.0821 86.4603 42.3128 86.501 43.0183C86.501 43.0183 86.0532 43.6425 85.7954 43.656C85.7954 43.656 87.3693 45.4199 88.6447 46.2611C89.1467 46.6003 89.8251 46.4646 90.1643 45.9626L90.1779 45.9354Z" fill="#38FF9C"/>
</g>
<defs>
<clipPath id="clip0_1263_660">
<rect width="128" height="113.496" fill="white" transform="translate(0.816406 0.251953)"/>
</clipPath>
</defs>
</svg>
