<svg width="125" height="129" viewBox="0 0 125 129" fill="none" xmlns="http://www.w3.org/2000/svg">
<g id="Layer_1" clip-path="url(#clip0_1263_655)">
<path id="Vector" d="M3.98828 114.916V12.9282C3.98828 7.78287 7.59251 3.60693 12.0543 3.60693H70.6169" stroke="#38FF9C" stroke-width="6.2142" stroke-miterlimit="10"/>
<path id="Vector_2" d="M121.088 10.2314L87.6934 17.3405C85.5681 17.8625 83.9648 19.8634 83.9648 22.983V115.898C83.9648 119.017 85.5308 120.906 87.6934 121.54L121.088 128.488C123.152 128.488 124.817 125.965 124.817 122.845V15.8864C124.817 12.7668 123.152 10.2439 121.088 10.2439V10.2314ZM121.325 69.2042C121.325 69.838 120.815 70.3476 120.181 70.3476H108.188C107.554 70.3476 107.044 69.838 107.044 69.2042V67.141C107.044 66.5072 107.554 65.9976 108.188 65.9976H120.181C120.815 65.9976 121.325 66.5072 121.325 67.141V69.2042Z" fill="#38FF9C"/>
<path id="Vector_3" d="M67.8066 17.353H24.0462C20.1685 17.353 17.0117 20.4974 17.0117 24.3875V114.531C17.0117 118.408 20.1561 121.565 24.0462 121.565H67.8066C71.6842 121.565 74.841 118.421 74.841 114.531V24.375C74.841 20.4974 71.6966 17.3406 67.8066 17.3406V17.353ZM66.5016 57.3351C66.5513 58.3046 66.2157 59.274 65.6316 60.0072L43.6706 84.7397C42.9373 85.5227 42.0176 85.9577 41.0482 86.0074H40.7997C39.88 86.0074 38.9478 85.6719 38.2767 85.038L26.5692 74.3993C25.8359 73.7655 25.4009 72.8458 25.3512 71.8266C25.3015 70.8075 25.6495 69.8381 26.3206 69.1048C26.9544 68.3716 27.8741 67.9366 28.8933 67.8868C29.9124 67.8371 30.8818 68.1851 31.6151 68.8563L40.5014 76.9223L59.9394 55.0607C60.5732 54.3275 61.4929 53.8428 62.5121 53.7931C63.5312 53.6936 64.5006 54.0416 65.2339 54.7127C65.9672 55.3963 66.4519 56.316 66.5016 57.3351Z" fill="#38FF9C"/>
</g>
<defs>
<clipPath id="clip0_1263_655">
<rect width="123.936" height="128" fill="white" transform="translate(0.882812 0.5)"/>
</clipPath>
</defs>
</svg>
