<svg width="16" height="16" viewBox="0 0 16 16" fill="none" xmlns="http://www.w3.org/2000/svg">
<g id="Icons">
<path id="Vector" d="M9.8947 13.3324H4.33203C3.4127 13.3324 2.66536 12.5851 2.66536 11.6658C2.66536 10.7464 3.4127 9.99911 4.33203 9.99911H8.9987C10.2854 9.99911 11.332 8.95244 11.332 7.66577C11.332 6.37911 10.2854 5.33244 8.9987 5.33244H5.75803C5.5132 5.81236 5.21001 6.2602 4.85536 6.66577H8.9987C9.55003 6.66577 9.9987 7.11444 9.9987 7.66577C9.9987 8.21711 9.55003 8.66577 8.9987 8.66577H4.33203C2.67803 8.66577 1.33203 10.0118 1.33203 11.6658C1.33203 13.3198 2.67803 14.6658 4.33203 14.6658H10.7274C10.4002 14.2543 10.1209 13.807 9.8947 13.3324Z" fill="#262626"/>
<rect id="Rectangle 32" x="11" y="10.6667" width="4" height="4" rx="2" fill="#262626"/>
<rect id="Rectangle 34" x="0.667969" y="2.66669" width="4" height="4" rx="2" fill="#262626"/>
</g>
</svg>
