<svg width="20" height="20" viewBox="0 0 20 20" fill="none" xmlns="http://www.w3.org/2000/svg">
<g id="FiArrowLeft">
<path id="Vector (Stroke)" fill-rule="evenodd" clip-rule="evenodd" d="M16.6667 10C16.6667 10.4603 16.2936 10.8334 15.8333 10.8334L4.16666 10.8334C3.70642 10.8334 3.33332 10.4603 3.33332 10C3.33332 9.5398 3.70642 9.16671 4.16666 9.16671L15.8333 9.16671C16.2936 9.16671 16.6667 9.5398 16.6667 10Z" fill="#BCBCBC"/>
<path id="Vector (Stroke)_2" fill-rule="evenodd" clip-rule="evenodd" d="M9.41073 16.4225C9.0853 16.0971 9.0853 15.5695 9.41073 15.244L14.6548 9.99996L9.41074 4.75588C9.0853 4.43044 9.0853 3.90281 9.41074 3.57737C9.73617 3.25193 10.2638 3.25193 10.5892 3.57737L16.4226 9.4107C16.748 9.73614 16.748 10.2638 16.4226 10.5892L10.5892 16.4225C10.2638 16.748 9.73617 16.748 9.41073 16.4225Z" fill="#BCBCBC"/>
</g>
</svg>
