<svg width="20" height="20" viewBox="0 0 20 20" fill="none" xmlns="http://www.w3.org/2000/svg">
<g id="FiArrowLeft">
<path id="Vector (Stroke)" fill-rule="evenodd" clip-rule="evenodd" d="M3.33334 9.99996C3.33334 9.53972 3.70644 9.16663 4.16668 9.16663L15.8333 9.16663C16.2936 9.16663 16.6667 9.53972 16.6667 9.99996C16.6667 10.4602 16.2936 10.8333 15.8333 10.8333L4.16668 10.8333C3.70644 10.8333 3.33334 10.4602 3.33334 9.99996Z" fill="#BCBCBC"/>
<path id="Vector (Stroke)_2" fill-rule="evenodd" clip-rule="evenodd" d="M10.5893 3.57745C10.9147 3.90289 10.9147 4.43053 10.5893 4.75596L5.34519 10L10.5893 15.2441C10.9147 15.5696 10.9147 16.0972 10.5893 16.4226C10.2638 16.7481 9.73619 16.7481 9.41075 16.4226L3.57742 10.5893C3.25198 10.2639 3.25198 9.73622 3.57742 9.41079L9.41075 3.57745C9.73619 3.25202 10.2638 3.25202 10.5893 3.57745Z" fill="#BCBCBC"/>
</g>
</svg>
