<svg width="16" height="16" viewBox="0 0 16 16" fill="none" xmlns="http://www.w3.org/2000/svg">
<path id="Vector" fill-rule="evenodd" clip-rule="evenodd" d="M2.55759 2.06017C2.55764 1.74197 2.68406 1.43682 2.90906 1.21182C3.13406 0.986825 3.43921 0.8604 3.75741 0.860352L13.9397 0.860352C14.2579 0.8604 14.5631 0.986825 14.7881 1.21182C15.0131 1.43682 15.1395 1.74197 15.1396 2.06017V12.2425C15.1341 12.5571 15.0053 12.857 14.7809 13.0775C14.5565 13.2981 14.2544 13.4217 13.9397 13.4217C13.6251 13.4217 13.323 13.2981 13.0986 13.0775C12.8742 12.857 12.7454 12.5571 12.7399 12.2425V4.95705L2.90888 14.7881C2.68384 15.0131 2.37861 15.1396 2.06035 15.1396C1.74209 15.1396 1.43687 15.0131 1.21182 14.7881C0.98678 14.5631 0.860352 14.2578 0.860352 13.9396C0.860352 13.6213 0.98678 13.3161 1.21182 13.091L11.0429 3.25999H3.75741C3.43921 3.25994 3.13406 3.13352 2.90906 2.90852C2.68406 2.68352 2.55764 2.37837 2.55759 2.06017Z" fill="#38FF9C"/>
</svg>
