<svg width="1276" height="399" viewBox="0 0 1276 399" fill="none" xmlns="http://www.w3.org/2000/svg">
<g clip-path="url(#clip0_3705_9013)">
<path d="M0.999978 286H1275C1275.55 286 1276 286.448 1276 287C1276 287.552 1275.55 288 1275 288H1C0.447715 288 0 287.552 0 287C0 286.448 0.447693 286 0.999978 286Z" fill="url(#paint0_linear_3705_9013)" fill-opacity="0.04"/>
<path d="M0.999978 26H1275C1275.55 26 1276 26.4477 1276 27C1276 27.5523 1275.55 28 1275 28H1C0.447715 28 0 27.5523 0 27C0 26.4477 0.447693 26 0.999978 26Z" fill="url(#paint1_linear_3705_9013)" fill-opacity="0.04"/>
<path d="M0.999978 312H1275C1275.55 312 1276 312.448 1276 313C1276 313.552 1275.55 314 1275 314H1C0.447715 314 0 313.552 0 313C0 312.448 0.447693 312 0.999978 312Z" fill="url(#paint2_linear_3705_9013)" fill-opacity="0.04"/>
<path d="M0.999978 52H1275C1275.55 52 1276 52.4477 1276 53C1276 53.5523 1275.55 54 1275 54H1C0.447715 54 0 53.5523 0 53C0 52.4477 0.447693 52 0.999978 52Z" fill="url(#paint3_linear_3705_9013)" fill-opacity="0.04"/>
<path d="M0.999978 338H1275C1275.55 338 1276 338.448 1276 339C1276 339.552 1275.55 340 1275 340H1C0.447715 340 0 339.552 0 339C0 338.448 0.447693 338 0.999978 338Z" fill="url(#paint4_linear_3705_9013)" fill-opacity="0.04"/>
<path d="M0.999978 78H1275C1275.55 78 1276 78.4477 1276 79C1276 79.5523 1275.55 80 1275 80H1C0.447715 80 0 79.5523 0 79C0 78.4477 0.447693 78 0.999978 78Z" fill="url(#paint5_linear_3705_9013)" fill-opacity="0.04"/>
<path d="M0.999978 364H1275C1275.55 364 1276 364.448 1276 365C1276 365.552 1275.55 366 1275 366H1C0.447715 366 0 365.552 0 365C0 364.448 0.447693 364 0.999978 364Z" fill="url(#paint6_linear_3705_9013)" fill-opacity="0.04"/>
<path d="M0.999978 104H1275C1275.55 104 1276 104.448 1276 105C1276 105.552 1275.55 106 1275 106H1C0.447715 106 0 105.552 0 105C0 104.448 0.447693 104 0.999978 104Z" fill="url(#paint7_linear_3705_9013)" fill-opacity="0.04"/>
<path d="M0.999978 390H1275C1275.55 390 1276 390.448 1276 391C1276 391.552 1275.55 392 1275 392H1C0.447715 392 0 391.552 0 391C0 390.448 0.447693 390 0.999978 390Z" fill="url(#paint8_linear_3705_9013)" fill-opacity="0.04"/>
<path d="M0.999978 130H1275C1275.55 130 1276 130.448 1276 131C1276 131.552 1275.55 132 1275 132H1C0.447715 132 0 131.552 0 131C0 130.448 0.447693 130 0.999978 130Z" fill="url(#paint9_linear_3705_9013)" fill-opacity="0.04"/>
<path d="M0.999978 156H1275C1275.55 156 1276 156.448 1276 157C1276 157.552 1275.55 158 1275 158H1C0.447715 158 0 157.552 0 157C0 156.448 0.447693 156 0.999978 156Z" fill="url(#paint10_linear_3705_9013)" fill-opacity="0.04"/>
<path d="M0.999978 182H1275C1275.55 182 1276 182.448 1276 183C1276 183.552 1275.55 184 1275 184H1C0.447715 184 0 183.552 0 183C0 182.448 0.447693 182 0.999978 182Z" fill="url(#paint11_linear_3705_9013)" fill-opacity="0.04"/>
<path d="M0.999978 208H1275C1275.55 208 1276 208.448 1276 209C1276 209.552 1275.55 210 1275 210H1C0.447715 210 0 209.552 0 209C0 208.448 0.447693 208 0.999978 208Z" fill="url(#paint12_linear_3705_9013)" fill-opacity="0.04"/>
<path d="M0.999978 234H1275C1275.55 234 1276 234.448 1276 235C1276 235.552 1275.55 236 1275 236H1C0.447715 236 0 235.552 0 235C0 234.448 0.447693 234 0.999978 234Z" fill="url(#paint13_linear_3705_9013)" fill-opacity="0.04"/>
<path d="M0.999978 260H1275C1275.55 260 1276 260.448 1276 261C1276 261.552 1275.55 262 1275 262H1C0.447715 262 0 261.552 0 261C0 260.448 0.447693 260 0.999978 260Z" fill="url(#paint14_linear_3705_9013)" fill-opacity="0.04"/>
<path d="M262 4.99998L262 547C262 547.552 261.552 548 261 548C260.448 548 260 547.552 260 547L260 4.99999C260 4.44771 260.448 4 261 4C261.552 4 262 4.44771 262 4.99998Z" fill="url(#paint15_linear_3705_9013)" fill-opacity="0.04"/>
<path d="M808 4.99998L808 547C808 547.552 807.552 548 807 548C806.448 548 806 547.552 806 547L806 4.99999C806 4.44771 806.448 4 807 4C807.552 4 808 4.44771 808 4.99998Z" fill="url(#paint16_linear_3705_9013)" fill-opacity="0.04"/>
<path d="M288 4.99998L288 547C288 547.552 287.552 548 287 548C286.448 548 286 547.552 286 547L286 4.99999C286 4.44771 286.448 4 287 4C287.552 4 288 4.44771 288 4.99998Z" fill="url(#paint17_linear_3705_9013)" fill-opacity="0.04"/>
<path d="M834 4.99998L834 547C834 547.552 833.552 548 833 548C832.448 548 832 547.552 832 547L832 4.99999C832 4.44771 832.448 4 833 4C833.552 4 834 4.44771 834 4.99998Z" fill="url(#paint18_linear_3705_9013)" fill-opacity="0.04"/>
<path d="M314 4.99999L314 545C314 545.552 313.552 546 313 546C312.448 546 312 545.552 312 545L312 4.99999C312 4.44771 312.448 4 313 4C313.552 4 314 4.44771 314 4.99999Z" fill="url(#paint19_linear_3705_9013)" fill-opacity="0.04"/>
<path d="M860 4.99999L860 545C860 545.552 859.552 546 859 546C858.448 546 858 545.552 858 545L858 4.99999C858 4.44771 858.448 4 859 4C859.552 4 860 4.44771 860 4.99999Z" fill="url(#paint20_linear_3705_9013)" fill-opacity="0.04"/>
<path d="M340 4.99999L340 545C340 545.552 339.552 546 339 546C338.448 546 338 545.552 338 545L338 4.99999C338 4.44771 338.448 4 339 4C339.552 4 340 4.44771 340 4.99999Z" fill="url(#paint21_linear_3705_9013)" fill-opacity="0.04"/>
<path d="M886 4.99999L886 545C886 545.552 885.552 546 885 546C884.448 546 884 545.552 884 545L884 4.99999C884 4.44771 884.448 4 885 4C885.552 4 886 4.44771 886 4.99999Z" fill="url(#paint22_linear_3705_9013)" fill-opacity="0.04"/>
<path d="M366 2.99999L366 543C366 543.552 365.552 544 365 544C364.448 544 364 543.552 364 543L364 2.99999C364 2.44771 364.448 2 365 2C365.552 2 366 2.44771 366 2.99999Z" fill="url(#paint23_linear_3705_9013)" fill-opacity="0.04"/>
<path d="M912 2.99999L912 543C912 543.552 911.552 544 911 544C910.448 544 910 543.552 910 543L910 2.99999C910 2.44771 910.448 2 911 2C911.552 2 912 2.44771 912 2.99999Z" fill="url(#paint24_linear_3705_9013)" fill-opacity="0.04"/>
<path d="M392 2.99999L392 543C392 543.552 391.552 544 391 544C390.448 544 390 543.552 390 543L390 2.99999C390 2.44771 390.448 2 391 2C391.552 2 392 2.44771 392 2.99999Z" fill="url(#paint25_linear_3705_9013)" fill-opacity="0.04"/>
<path d="M938 2.99999L938 543C938 543.552 937.552 544 937 544C936.448 544 936 543.552 936 543L936 2.99999C936 2.44771 936.448 2 937 2C937.552 2 938 2.44771 938 2.99999Z" fill="url(#paint26_linear_3705_9013)" fill-opacity="0.04"/>
<path d="M1146 2.99999L1146 543C1146 543.552 1145.55 544 1145 544C1144.45 544 1144 543.552 1144 543L1144 2.99999C1144 2.44771 1144.45 2 1145 2C1145.55 2 1146 2.44771 1146 2.99999Z" fill="url(#paint27_linear_3705_9013)" fill-opacity="0.04"/>
<path d="M418 0.999985L418 543C418 543.552 417.552 544 417 544C416.448 544 416 543.552 416 543L416 0.999991C416 0.447711 416.448 -9.0948e-08 417 -5.85898e-08C417.552 -2.62315e-08 418 0.447705 418 0.999985Z" fill="url(#paint28_linear_3705_9013)" fill-opacity="0.04"/>
<path d="M964 0.999985L964 543C964 543.552 963.552 544 963 544C962.448 544 962 543.552 962 543L962 0.999991C962 0.447711 962.448 -9.0948e-08 963 -5.85898e-08C963.552 -2.62315e-08 964 0.447705 964 0.999985Z" fill="url(#paint29_linear_3705_9013)" fill-opacity="0.04"/>
<path d="M1172 0.999985L1172 543C1172 543.552 1171.55 544 1171 544C1170.45 544 1170 543.552 1170 543L1170 0.999991C1170 0.447711 1170.45 -9.0948e-08 1171 -5.85898e-08C1171.55 -2.62315e-08 1172 0.447705 1172 0.999985Z" fill="url(#paint30_linear_3705_9013)" fill-opacity="0.04"/>
<path d="M444 0.999985L444 543C444 543.552 443.552 544 443 544C442.448 544 442 543.552 442 543L442 0.999991C442 0.447711 442.448 -9.16016e-08 443 -5.90108e-08C443.552 -2.64201e-08 444 0.447705 444 0.999985Z" fill="url(#paint31_linear_3705_9013)" fill-opacity="0.04"/>
<path d="M990 0.999985L990 543C990 543.552 989.552 544 989 544C988.448 544 988 543.552 988 543L988 0.999991C988 0.447711 988.448 -9.16016e-08 989 -5.90108e-08C989.552 -2.64201e-08 990 0.447705 990 0.999985Z" fill="url(#paint32_linear_3705_9013)" fill-opacity="0.04"/>
<path d="M1198 0.999985L1198 543C1198 543.552 1197.55 544 1197 544C1196.45 544 1196 543.552 1196 543L1196 0.999991C1196 0.447711 1196.45 -9.16016e-08 1197 -5.90108e-08C1197.55 -2.64201e-08 1198 0.447705 1198 0.999985Z" fill="url(#paint33_linear_3705_9013)" fill-opacity="0.04"/>
<path d="M470 0.999985L470 543C470 543.552 469.552 544 469 544C468.448 544 468 543.552 468 543L468 0.999991C468 0.447711 468.448 -9.16016e-08 469 -5.90108e-08C469.552 -2.64201e-08 470 0.447705 470 0.999985Z" fill="url(#paint34_linear_3705_9013)" fill-opacity="0.04"/>
<path d="M1016 0.999985L1016 543C1016 543.552 1015.55 544 1015 544C1014.45 544 1014 543.552 1014 543L1014 0.999991C1014 0.447711 1014.45 -9.16016e-08 1015 -5.90108e-08C1015.55 -2.64201e-08 1016 0.447705 1016 0.999985Z" fill="url(#paint35_linear_3705_9013)" fill-opacity="0.04"/>
<path d="M496 0.999985L496 543C496 543.552 495.552 544 495 544C494.448 544 494 543.552 494 543L494 0.999991C494 0.447711 494.448 -9.16016e-08 495 -5.90108e-08C495.552 -2.64201e-08 496 0.447705 496 0.999985Z" fill="url(#paint36_linear_3705_9013)" fill-opacity="0.04"/>
<path d="M1042 0.999985L1042 543C1042 543.552 1041.55 544 1041 544C1040.45 544 1040 543.552 1040 543L1040 0.999991C1040 0.447711 1040.45 -9.16016e-08 1041 -5.90108e-08C1041.55 -2.64201e-08 1042 0.447705 1042 0.999985Z" fill="url(#paint37_linear_3705_9013)" fill-opacity="0.04"/>
<path d="M522 0.999985L522 543C522 543.552 521.552 544 521 544C520.448 544 520 543.552 520 543L520 0.999991C520 0.447711 520.448 -9.16016e-08 521 -5.90108e-08C521.552 -2.64201e-08 522 0.447705 522 0.999985Z" fill="url(#paint38_linear_3705_9013)" fill-opacity="0.04"/>
<path d="M1068 0.999985L1068 543C1068 543.552 1067.55 544 1067 544C1066.45 544 1066 543.552 1066 543L1066 0.999991C1066 0.447711 1066.45 -9.16016e-08 1067 -5.90108e-08C1067.55 -2.64201e-08 1068 0.447705 1068 0.999985Z" fill="url(#paint39_linear_3705_9013)" fill-opacity="0.04"/>
<path d="M548 0.999985L548 543C548 543.552 547.552 544 547 544C546.448 544 546 543.552 546 543L546 0.999991C546 0.447711 546.448 -9.16016e-08 547 -5.90108e-08C547.552 -2.64201e-08 548 0.447705 548 0.999985Z" fill="url(#paint40_linear_3705_9013)" fill-opacity="0.04"/>
<path d="M1094 0.999985L1094 543C1094 543.552 1093.55 544 1093 544C1092.45 544 1092 543.552 1092 543L1092 0.999991C1092 0.447711 1092.45 -9.16016e-08 1093 -5.90108e-08C1093.55 -2.64201e-08 1094 0.447705 1094 0.999985Z" fill="url(#paint41_linear_3705_9013)" fill-opacity="0.04"/>
<path d="M574 0.999985L574 543C574 543.552 573.552 544 573 544C572.448 544 572 543.552 572 543L572 0.999991C572 0.447711 572.448 -9.16016e-08 573 -5.90108e-08C573.552 -2.64201e-08 574 0.447705 574 0.999985Z" fill="url(#paint42_linear_3705_9013)" fill-opacity="0.04"/>
<path d="M1120 0.999985L1120 543C1120 543.552 1119.55 544 1119 544C1118.45 544 1118 543.552 1118 543L1118 0.999991C1118 0.447711 1118.45 -9.16016e-08 1119 -5.90108e-08C1119.55 -2.64201e-08 1120 0.447705 1120 0.999985Z" fill="url(#paint43_linear_3705_9013)" fill-opacity="0.04"/>
<path d="M236 4.99998L236 547C236 547.552 235.552 548 235 548C234.448 548 234 547.552 234 547L234 4.99999C234 4.44771 234.448 4 235 4C235.552 4 236 4.44771 236 4.99998Z" fill="url(#paint44_linear_3705_9013)" fill-opacity="0.04"/>
<path d="M782 4.99998L782 547C782 547.552 781.552 548 781 548C780.448 548 780 547.552 780 547L780 4.99999C780 4.44771 780.448 4 781 4C781.552 4 782 4.44771 782 4.99998Z" fill="url(#paint45_linear_3705_9013)" fill-opacity="0.04"/>
<path d="M210 4.99998L210 547C210 547.552 209.552 548 209 548C208.448 548 208 547.552 208 547L208 4.99999C208 4.44771 208.448 4 209 4C209.552 4 210 4.44771 210 4.99998Z" fill="url(#paint46_linear_3705_9013)" fill-opacity="0.04"/>
<path d="M756 4.99998L756 547C756 547.552 755.552 548 755 548C754.448 548 754 547.552 754 547L754 4.99999C754 4.44771 754.448 4 755 4C755.552 4 756 4.44771 756 4.99998Z" fill="url(#paint47_linear_3705_9013)" fill-opacity="0.04"/>
<path d="M184 4.99998L184 547C184 547.552 183.552 548 183 548C182.448 548 182 547.552 182 547L182 4.99999C182 4.44771 182.448 4 183 4C183.552 4 184 4.44771 184 4.99998Z" fill="url(#paint48_linear_3705_9013)" fill-opacity="0.04"/>
<path d="M730 4.99998L730 547C730 547.552 729.552 548 729 548C728.448 548 728 547.552 728 547L728 4.99999C728 4.44771 728.448 4 729 4C729.552 4 730 4.44771 730 4.99998Z" fill="url(#paint49_linear_3705_9013)" fill-opacity="0.04"/>
<path d="M158 4.99998L158 547C158 547.552 157.552 548 157 548C156.448 548 156 547.552 156 547L156 4.99999C156 4.44771 156.448 4 157 4C157.552 4 158 4.44771 158 4.99998Z" fill="url(#paint50_linear_3705_9013)" fill-opacity="0.04"/>
<path d="M704 4.99998L704 547C704 547.552 703.552 548 703 548C702.448 548 702 547.552 702 547L702 4.99999C702 4.44771 702.448 4 703 4C703.552 4 704 4.44771 704 4.99998Z" fill="url(#paint51_linear_3705_9013)" fill-opacity="0.04"/>
<path d="M132 4.99998L132 547C132 547.552 131.552 548 131 548C130.448 548 130 547.552 130 547L130 4.99999C130 4.44771 130.448 4 131 4C131.552 4 132 4.44771 132 4.99998Z" fill="url(#paint52_linear_3705_9013)" fill-opacity="0.04"/>
<path d="M678 4.99998L678 547C678 547.552 677.552 548 677 548C676.448 548 676 547.552 676 547L676 4.99999C676 4.44771 676.448 4 677 4C677.552 4 678 4.44771 678 4.99998Z" fill="url(#paint53_linear_3705_9013)" fill-opacity="0.04"/>
<path d="M106 4.99998L106 547C106 547.552 105.552 548 105 548C104.448 548 104 547.552 104 547L104 4.99999C104 4.44771 104.448 4 105 4C105.552 4 106 4.44771 106 4.99998Z" fill="url(#paint54_linear_3705_9013)" fill-opacity="0.04"/>
<path d="M652 4.99998L652 547C652 547.552 651.552 548 651 548C650.448 548 650 547.552 650 547L650 4.99999C650 4.44771 650.448 4 651 4C651.552 4 652 4.44771 652 4.99998Z" fill="url(#paint55_linear_3705_9013)" fill-opacity="0.04"/>
<path d="M80 4.99998L80 547C80 547.552 79.5523 548 79 548C78.4477 548 78 547.552 78 547L78 4.99999C78 4.44771 78.4477 4 79 4C79.5523 4 80 4.44771 80 4.99998Z" fill="url(#paint56_linear_3705_9013)" fill-opacity="0.04"/>
<path d="M626 4.99998L626 547C626 547.552 625.552 548 625 548C624.448 548 624 547.552 624 547L624 4.99999C624 4.44771 624.448 4 625 4C625.552 4 626 4.44771 626 4.99998Z" fill="url(#paint57_linear_3705_9013)" fill-opacity="0.04"/>
<path d="M600 4.99998L600 547C600 547.552 599.552 548 599 548C598.448 548 598 547.552 598 547L598 4.99999C598 4.44771 598.448 4 599 4C599.552 4 600 4.44771 600 4.99998Z" fill="url(#paint58_linear_3705_9013)" fill-opacity="0.04"/>
</g>
<defs>
<linearGradient id="paint0_linear_3705_9013" x1="0" y1="287" x2="1276" y2="287" gradientUnits="userSpaceOnUse">
<stop stop-color="#38FF9C" stop-opacity="0"/>
<stop offset="0.108435" stop-color="#38FF9C"/>
<stop offset="0.88" stop-color="#38FF9C"/>
<stop offset="1" stop-color="#38FF9C" stop-opacity="0"/>
</linearGradient>
<linearGradient id="paint1_linear_3705_9013" x1="0" y1="27" x2="1276" y2="27" gradientUnits="userSpaceOnUse">
<stop stop-color="#38FF9C" stop-opacity="0"/>
<stop offset="0.108435" stop-color="#38FF9C"/>
<stop offset="0.88" stop-color="#38FF9C"/>
<stop offset="1" stop-color="#38FF9C" stop-opacity="0"/>
</linearGradient>
<linearGradient id="paint2_linear_3705_9013" x1="0" y1="313" x2="1276" y2="313" gradientUnits="userSpaceOnUse">
<stop stop-color="#38FF9C" stop-opacity="0"/>
<stop offset="0.108435" stop-color="#38FF9C"/>
<stop offset="0.88" stop-color="#38FF9C"/>
<stop offset="1" stop-color="#38FF9C" stop-opacity="0"/>
</linearGradient>
<linearGradient id="paint3_linear_3705_9013" x1="0" y1="53" x2="1276" y2="53" gradientUnits="userSpaceOnUse">
<stop stop-color="#38FF9C" stop-opacity="0"/>
<stop offset="0.108435" stop-color="#38FF9C"/>
<stop offset="0.88" stop-color="#38FF9C"/>
<stop offset="1" stop-color="#38FF9C" stop-opacity="0"/>
</linearGradient>
<linearGradient id="paint4_linear_3705_9013" x1="0" y1="339" x2="1276" y2="339" gradientUnits="userSpaceOnUse">
<stop stop-color="#38FF9C" stop-opacity="0"/>
<stop offset="0.108435" stop-color="#38FF9C"/>
<stop offset="0.88" stop-color="#38FF9C"/>
<stop offset="1" stop-color="#38FF9C" stop-opacity="0"/>
</linearGradient>
<linearGradient id="paint5_linear_3705_9013" x1="0" y1="79" x2="1276" y2="79" gradientUnits="userSpaceOnUse">
<stop stop-color="#38FF9C" stop-opacity="0"/>
<stop offset="0.108435" stop-color="#38FF9C"/>
<stop offset="0.88" stop-color="#38FF9C"/>
<stop offset="1" stop-color="#38FF9C" stop-opacity="0"/>
</linearGradient>
<linearGradient id="paint6_linear_3705_9013" x1="0" y1="365" x2="1276" y2="365" gradientUnits="userSpaceOnUse">
<stop stop-color="#38FF9C" stop-opacity="0"/>
<stop offset="0.108435" stop-color="#38FF9C"/>
<stop offset="0.88" stop-color="#38FF9C"/>
<stop offset="1" stop-color="#38FF9C" stop-opacity="0"/>
</linearGradient>
<linearGradient id="paint7_linear_3705_9013" x1="0" y1="105" x2="1276" y2="105" gradientUnits="userSpaceOnUse">
<stop stop-color="#38FF9C" stop-opacity="0"/>
<stop offset="0.108435" stop-color="#38FF9C"/>
<stop offset="0.88" stop-color="#38FF9C"/>
<stop offset="1" stop-color="#38FF9C" stop-opacity="0"/>
</linearGradient>
<linearGradient id="paint8_linear_3705_9013" x1="0" y1="391" x2="1276" y2="391" gradientUnits="userSpaceOnUse">
<stop stop-color="#38FF9C" stop-opacity="0"/>
<stop offset="0.108435" stop-color="#38FF9C"/>
<stop offset="0.88" stop-color="#38FF9C"/>
<stop offset="1" stop-color="#38FF9C" stop-opacity="0"/>
</linearGradient>
<linearGradient id="paint9_linear_3705_9013" x1="0" y1="131" x2="1276" y2="131" gradientUnits="userSpaceOnUse">
<stop stop-color="#38FF9C" stop-opacity="0"/>
<stop offset="0.108435" stop-color="#38FF9C"/>
<stop offset="0.88" stop-color="#38FF9C"/>
<stop offset="1" stop-color="#38FF9C" stop-opacity="0"/>
</linearGradient>
<linearGradient id="paint10_linear_3705_9013" x1="0" y1="157" x2="1276" y2="157" gradientUnits="userSpaceOnUse">
<stop stop-color="#38FF9C" stop-opacity="0"/>
<stop offset="0.108435" stop-color="#38FF9C"/>
<stop offset="0.88" stop-color="#38FF9C"/>
<stop offset="1" stop-color="#38FF9C" stop-opacity="0"/>
</linearGradient>
<linearGradient id="paint11_linear_3705_9013" x1="0" y1="183" x2="1276" y2="183" gradientUnits="userSpaceOnUse">
<stop stop-color="#38FF9C" stop-opacity="0"/>
<stop offset="0.108435" stop-color="#38FF9C"/>
<stop offset="0.88" stop-color="#38FF9C"/>
<stop offset="1" stop-color="#38FF9C" stop-opacity="0"/>
</linearGradient>
<linearGradient id="paint12_linear_3705_9013" x1="0" y1="209" x2="1276" y2="209" gradientUnits="userSpaceOnUse">
<stop stop-color="#38FF9C" stop-opacity="0"/>
<stop offset="0.108435" stop-color="#38FF9C"/>
<stop offset="0.88" stop-color="#38FF9C"/>
<stop offset="1" stop-color="#38FF9C" stop-opacity="0"/>
</linearGradient>
<linearGradient id="paint13_linear_3705_9013" x1="0" y1="235" x2="1276" y2="235" gradientUnits="userSpaceOnUse">
<stop stop-color="#38FF9C" stop-opacity="0"/>
<stop offset="0.108435" stop-color="#38FF9C"/>
<stop offset="0.88" stop-color="#38FF9C"/>
<stop offset="1" stop-color="#38FF9C" stop-opacity="0"/>
</linearGradient>
<linearGradient id="paint14_linear_3705_9013" x1="0" y1="261" x2="1276" y2="261" gradientUnits="userSpaceOnUse">
<stop stop-color="#38FF9C" stop-opacity="0"/>
<stop offset="0.108435" stop-color="#38FF9C"/>
<stop offset="0.88" stop-color="#38FF9C"/>
<stop offset="1" stop-color="#38FF9C" stop-opacity="0"/>
</linearGradient>
<linearGradient id="paint15_linear_3705_9013" x1="261" y1="4" x2="261" y2="548" gradientUnits="userSpaceOnUse">
<stop stop-color="#38FF9C" stop-opacity="0"/>
<stop offset="0.108435" stop-color="#38FF9C"/>
<stop offset="0.88" stop-color="#38FF9C"/>
<stop offset="1" stop-color="#38FF9C" stop-opacity="0"/>
</linearGradient>
<linearGradient id="paint16_linear_3705_9013" x1="807" y1="4" x2="807" y2="548" gradientUnits="userSpaceOnUse">
<stop stop-color="#38FF9C" stop-opacity="0"/>
<stop offset="0.108435" stop-color="#38FF9C"/>
<stop offset="0.88" stop-color="#38FF9C"/>
<stop offset="1" stop-color="#38FF9C" stop-opacity="0"/>
</linearGradient>
<linearGradient id="paint17_linear_3705_9013" x1="287" y1="4" x2="287" y2="548" gradientUnits="userSpaceOnUse">
<stop stop-color="#38FF9C" stop-opacity="0"/>
<stop offset="0.108435" stop-color="#38FF9C"/>
<stop offset="0.88" stop-color="#38FF9C"/>
<stop offset="1" stop-color="#38FF9C" stop-opacity="0"/>
</linearGradient>
<linearGradient id="paint18_linear_3705_9013" x1="833" y1="4" x2="833" y2="548" gradientUnits="userSpaceOnUse">
<stop stop-color="#38FF9C" stop-opacity="0"/>
<stop offset="0.108435" stop-color="#38FF9C"/>
<stop offset="0.88" stop-color="#38FF9C"/>
<stop offset="1" stop-color="#38FF9C" stop-opacity="0"/>
</linearGradient>
<linearGradient id="paint19_linear_3705_9013" x1="313" y1="4" x2="313" y2="546" gradientUnits="userSpaceOnUse">
<stop stop-color="#38FF9C" stop-opacity="0"/>
<stop offset="0.108435" stop-color="#38FF9C"/>
<stop offset="0.88" stop-color="#38FF9C"/>
<stop offset="1" stop-color="#38FF9C" stop-opacity="0"/>
</linearGradient>
<linearGradient id="paint20_linear_3705_9013" x1="859" y1="4" x2="859" y2="546" gradientUnits="userSpaceOnUse">
<stop stop-color="#38FF9C" stop-opacity="0"/>
<stop offset="0.108435" stop-color="#38FF9C"/>
<stop offset="0.88" stop-color="#38FF9C"/>
<stop offset="1" stop-color="#38FF9C" stop-opacity="0"/>
</linearGradient>
<linearGradient id="paint21_linear_3705_9013" x1="339" y1="4" x2="339" y2="546" gradientUnits="userSpaceOnUse">
<stop stop-color="#38FF9C" stop-opacity="0"/>
<stop offset="0.108435" stop-color="#38FF9C"/>
<stop offset="0.88" stop-color="#38FF9C"/>
<stop offset="1" stop-color="#38FF9C" stop-opacity="0"/>
</linearGradient>
<linearGradient id="paint22_linear_3705_9013" x1="885" y1="4" x2="885" y2="546" gradientUnits="userSpaceOnUse">
<stop stop-color="#38FF9C" stop-opacity="0"/>
<stop offset="0.108435" stop-color="#38FF9C"/>
<stop offset="0.88" stop-color="#38FF9C"/>
<stop offset="1" stop-color="#38FF9C" stop-opacity="0"/>
</linearGradient>
<linearGradient id="paint23_linear_3705_9013" x1="365" y1="2" x2="365" y2="544" gradientUnits="userSpaceOnUse">
<stop stop-color="#38FF9C" stop-opacity="0"/>
<stop offset="0.108435" stop-color="#38FF9C"/>
<stop offset="0.88" stop-color="#38FF9C"/>
<stop offset="1" stop-color="#38FF9C" stop-opacity="0"/>
</linearGradient>
<linearGradient id="paint24_linear_3705_9013" x1="911" y1="2" x2="911" y2="544" gradientUnits="userSpaceOnUse">
<stop stop-color="#38FF9C" stop-opacity="0"/>
<stop offset="0.108435" stop-color="#38FF9C"/>
<stop offset="0.88" stop-color="#38FF9C"/>
<stop offset="1" stop-color="#38FF9C" stop-opacity="0"/>
</linearGradient>
<linearGradient id="paint25_linear_3705_9013" x1="391" y1="2" x2="391" y2="544" gradientUnits="userSpaceOnUse">
<stop stop-color="#38FF9C" stop-opacity="0"/>
<stop offset="0.108435" stop-color="#38FF9C"/>
<stop offset="0.88" stop-color="#38FF9C"/>
<stop offset="1" stop-color="#38FF9C" stop-opacity="0"/>
</linearGradient>
<linearGradient id="paint26_linear_3705_9013" x1="937" y1="2" x2="937" y2="544" gradientUnits="userSpaceOnUse">
<stop stop-color="#38FF9C" stop-opacity="0"/>
<stop offset="0.108435" stop-color="#38FF9C"/>
<stop offset="0.88" stop-color="#38FF9C"/>
<stop offset="1" stop-color="#38FF9C" stop-opacity="0"/>
</linearGradient>
<linearGradient id="paint27_linear_3705_9013" x1="1145" y1="2" x2="1145" y2="544" gradientUnits="userSpaceOnUse">
<stop stop-color="#38FF9C" stop-opacity="0"/>
<stop offset="0.108435" stop-color="#38FF9C"/>
<stop offset="0.88" stop-color="#38FF9C"/>
<stop offset="1" stop-color="#38FF9C" stop-opacity="0"/>
</linearGradient>
<linearGradient id="paint28_linear_3705_9013" x1="417" y1="-5.85898e-08" x2="417" y2="544" gradientUnits="userSpaceOnUse">
<stop stop-color="#38FF9C" stop-opacity="0"/>
<stop offset="0.108435" stop-color="#38FF9C"/>
<stop offset="0.88" stop-color="#38FF9C"/>
<stop offset="1" stop-color="#38FF9C" stop-opacity="0"/>
</linearGradient>
<linearGradient id="paint29_linear_3705_9013" x1="963" y1="-5.85898e-08" x2="963" y2="544" gradientUnits="userSpaceOnUse">
<stop stop-color="#38FF9C" stop-opacity="0"/>
<stop offset="0.108435" stop-color="#38FF9C"/>
<stop offset="0.88" stop-color="#38FF9C"/>
<stop offset="1" stop-color="#38FF9C" stop-opacity="0"/>
</linearGradient>
<linearGradient id="paint30_linear_3705_9013" x1="1171" y1="-5.85898e-08" x2="1171" y2="544" gradientUnits="userSpaceOnUse">
<stop stop-color="#38FF9C" stop-opacity="0"/>
<stop offset="0.108435" stop-color="#38FF9C"/>
<stop offset="0.88" stop-color="#38FF9C"/>
<stop offset="1" stop-color="#38FF9C" stop-opacity="0"/>
</linearGradient>
<linearGradient id="paint31_linear_3705_9013" x1="443" y1="-5.90108e-08" x2="443" y2="544" gradientUnits="userSpaceOnUse">
<stop stop-color="#38FF9C" stop-opacity="0"/>
<stop offset="0.108435" stop-color="#38FF9C"/>
<stop offset="0.88" stop-color="#38FF9C"/>
<stop offset="1" stop-color="#38FF9C" stop-opacity="0"/>
</linearGradient>
<linearGradient id="paint32_linear_3705_9013" x1="989" y1="-5.90108e-08" x2="989" y2="544" gradientUnits="userSpaceOnUse">
<stop stop-color="#38FF9C" stop-opacity="0"/>
<stop offset="0.108435" stop-color="#38FF9C"/>
<stop offset="0.88" stop-color="#38FF9C"/>
<stop offset="1" stop-color="#38FF9C" stop-opacity="0"/>
</linearGradient>
<linearGradient id="paint33_linear_3705_9013" x1="1197" y1="-5.90108e-08" x2="1197" y2="544" gradientUnits="userSpaceOnUse">
<stop stop-color="#38FF9C" stop-opacity="0"/>
<stop offset="0.108435" stop-color="#38FF9C"/>
<stop offset="0.88" stop-color="#38FF9C"/>
<stop offset="1" stop-color="#38FF9C" stop-opacity="0"/>
</linearGradient>
<linearGradient id="paint34_linear_3705_9013" x1="469" y1="-5.90108e-08" x2="469" y2="544" gradientUnits="userSpaceOnUse">
<stop stop-color="#38FF9C" stop-opacity="0"/>
<stop offset="0.108435" stop-color="#38FF9C"/>
<stop offset="0.88" stop-color="#38FF9C"/>
<stop offset="1" stop-color="#38FF9C" stop-opacity="0"/>
</linearGradient>
<linearGradient id="paint35_linear_3705_9013" x1="1015" y1="-5.90108e-08" x2="1015" y2="544" gradientUnits="userSpaceOnUse">
<stop stop-color="#38FF9C" stop-opacity="0"/>
<stop offset="0.108435" stop-color="#38FF9C"/>
<stop offset="0.88" stop-color="#38FF9C"/>
<stop offset="1" stop-color="#38FF9C" stop-opacity="0"/>
</linearGradient>
<linearGradient id="paint36_linear_3705_9013" x1="495" y1="-5.90108e-08" x2="495" y2="544" gradientUnits="userSpaceOnUse">
<stop stop-color="#38FF9C" stop-opacity="0"/>
<stop offset="0.108435" stop-color="#38FF9C"/>
<stop offset="0.88" stop-color="#38FF9C"/>
<stop offset="1" stop-color="#38FF9C" stop-opacity="0"/>
</linearGradient>
<linearGradient id="paint37_linear_3705_9013" x1="1041" y1="-5.90108e-08" x2="1041" y2="544" gradientUnits="userSpaceOnUse">
<stop stop-color="#38FF9C" stop-opacity="0"/>
<stop offset="0.108435" stop-color="#38FF9C"/>
<stop offset="0.88" stop-color="#38FF9C"/>
<stop offset="1" stop-color="#38FF9C" stop-opacity="0"/>
</linearGradient>
<linearGradient id="paint38_linear_3705_9013" x1="521" y1="-5.90108e-08" x2="521" y2="544" gradientUnits="userSpaceOnUse">
<stop stop-color="#38FF9C" stop-opacity="0"/>
<stop offset="0.108435" stop-color="#38FF9C"/>
<stop offset="0.88" stop-color="#38FF9C"/>
<stop offset="1" stop-color="#38FF9C" stop-opacity="0"/>
</linearGradient>
<linearGradient id="paint39_linear_3705_9013" x1="1067" y1="-5.90108e-08" x2="1067" y2="544" gradientUnits="userSpaceOnUse">
<stop stop-color="#38FF9C" stop-opacity="0"/>
<stop offset="0.108435" stop-color="#38FF9C"/>
<stop offset="0.88" stop-color="#38FF9C"/>
<stop offset="1" stop-color="#38FF9C" stop-opacity="0"/>
</linearGradient>
<linearGradient id="paint40_linear_3705_9013" x1="547" y1="-5.90108e-08" x2="547" y2="544" gradientUnits="userSpaceOnUse">
<stop stop-color="#38FF9C" stop-opacity="0"/>
<stop offset="0.108435" stop-color="#38FF9C"/>
<stop offset="0.88" stop-color="#38FF9C"/>
<stop offset="1" stop-color="#38FF9C" stop-opacity="0"/>
</linearGradient>
<linearGradient id="paint41_linear_3705_9013" x1="1093" y1="-5.90108e-08" x2="1093" y2="544" gradientUnits="userSpaceOnUse">
<stop stop-color="#38FF9C" stop-opacity="0"/>
<stop offset="0.108435" stop-color="#38FF9C"/>
<stop offset="0.88" stop-color="#38FF9C"/>
<stop offset="1" stop-color="#38FF9C" stop-opacity="0"/>
</linearGradient>
<linearGradient id="paint42_linear_3705_9013" x1="573" y1="-5.90108e-08" x2="573" y2="544" gradientUnits="userSpaceOnUse">
<stop stop-color="#38FF9C" stop-opacity="0"/>
<stop offset="0.108435" stop-color="#38FF9C"/>
<stop offset="0.88" stop-color="#38FF9C"/>
<stop offset="1" stop-color="#38FF9C" stop-opacity="0"/>
</linearGradient>
<linearGradient id="paint43_linear_3705_9013" x1="1119" y1="-5.90108e-08" x2="1119" y2="544" gradientUnits="userSpaceOnUse">
<stop stop-color="#38FF9C" stop-opacity="0"/>
<stop offset="0.108435" stop-color="#38FF9C"/>
<stop offset="0.88" stop-color="#38FF9C"/>
<stop offset="1" stop-color="#38FF9C" stop-opacity="0"/>
</linearGradient>
<linearGradient id="paint44_linear_3705_9013" x1="235" y1="4" x2="235" y2="548" gradientUnits="userSpaceOnUse">
<stop stop-color="#38FF9C" stop-opacity="0"/>
<stop offset="0.108435" stop-color="#38FF9C"/>
<stop offset="0.88" stop-color="#38FF9C"/>
<stop offset="1" stop-color="#38FF9C" stop-opacity="0"/>
</linearGradient>
<linearGradient id="paint45_linear_3705_9013" x1="781" y1="4" x2="781" y2="548" gradientUnits="userSpaceOnUse">
<stop stop-color="#38FF9C" stop-opacity="0"/>
<stop offset="0.108435" stop-color="#38FF9C"/>
<stop offset="0.88" stop-color="#38FF9C"/>
<stop offset="1" stop-color="#38FF9C" stop-opacity="0"/>
</linearGradient>
<linearGradient id="paint46_linear_3705_9013" x1="209" y1="4" x2="209" y2="548" gradientUnits="userSpaceOnUse">
<stop stop-color="#38FF9C" stop-opacity="0"/>
<stop offset="0.108435" stop-color="#38FF9C"/>
<stop offset="0.88" stop-color="#38FF9C"/>
<stop offset="1" stop-color="#38FF9C" stop-opacity="0"/>
</linearGradient>
<linearGradient id="paint47_linear_3705_9013" x1="755" y1="4" x2="755" y2="548" gradientUnits="userSpaceOnUse">
<stop stop-color="#38FF9C" stop-opacity="0"/>
<stop offset="0.108435" stop-color="#38FF9C"/>
<stop offset="0.88" stop-color="#38FF9C"/>
<stop offset="1" stop-color="#38FF9C" stop-opacity="0"/>
</linearGradient>
<linearGradient id="paint48_linear_3705_9013" x1="183" y1="4" x2="183" y2="548" gradientUnits="userSpaceOnUse">
<stop stop-color="#38FF9C" stop-opacity="0"/>
<stop offset="0.108435" stop-color="#38FF9C"/>
<stop offset="0.88" stop-color="#38FF9C"/>
<stop offset="1" stop-color="#38FF9C" stop-opacity="0"/>
</linearGradient>
<linearGradient id="paint49_linear_3705_9013" x1="729" y1="4" x2="729" y2="548" gradientUnits="userSpaceOnUse">
<stop stop-color="#38FF9C" stop-opacity="0"/>
<stop offset="0.108435" stop-color="#38FF9C"/>
<stop offset="0.88" stop-color="#38FF9C"/>
<stop offset="1" stop-color="#38FF9C" stop-opacity="0"/>
</linearGradient>
<linearGradient id="paint50_linear_3705_9013" x1="157" y1="4" x2="157" y2="548" gradientUnits="userSpaceOnUse">
<stop stop-color="#38FF9C" stop-opacity="0"/>
<stop offset="0.108435" stop-color="#38FF9C"/>
<stop offset="0.88" stop-color="#38FF9C"/>
<stop offset="1" stop-color="#38FF9C" stop-opacity="0"/>
</linearGradient>
<linearGradient id="paint51_linear_3705_9013" x1="703" y1="4" x2="703" y2="548" gradientUnits="userSpaceOnUse">
<stop stop-color="#38FF9C" stop-opacity="0"/>
<stop offset="0.108435" stop-color="#38FF9C"/>
<stop offset="0.88" stop-color="#38FF9C"/>
<stop offset="1" stop-color="#38FF9C" stop-opacity="0"/>
</linearGradient>
<linearGradient id="paint52_linear_3705_9013" x1="131" y1="4" x2="131" y2="548" gradientUnits="userSpaceOnUse">
<stop stop-color="#38FF9C" stop-opacity="0"/>
<stop offset="0.108435" stop-color="#38FF9C"/>
<stop offset="0.88" stop-color="#38FF9C"/>
<stop offset="1" stop-color="#38FF9C" stop-opacity="0"/>
</linearGradient>
<linearGradient id="paint53_linear_3705_9013" x1="677" y1="4" x2="677" y2="548" gradientUnits="userSpaceOnUse">
<stop stop-color="#38FF9C" stop-opacity="0"/>
<stop offset="0.108435" stop-color="#38FF9C"/>
<stop offset="0.88" stop-color="#38FF9C"/>
<stop offset="1" stop-color="#38FF9C" stop-opacity="0"/>
</linearGradient>
<linearGradient id="paint54_linear_3705_9013" x1="105" y1="4" x2="105" y2="548" gradientUnits="userSpaceOnUse">
<stop stop-color="#38FF9C" stop-opacity="0"/>
<stop offset="0.108435" stop-color="#38FF9C"/>
<stop offset="0.88" stop-color="#38FF9C"/>
<stop offset="1" stop-color="#38FF9C" stop-opacity="0"/>
</linearGradient>
<linearGradient id="paint55_linear_3705_9013" x1="651" y1="4" x2="651" y2="548" gradientUnits="userSpaceOnUse">
<stop stop-color="#38FF9C" stop-opacity="0"/>
<stop offset="0.108435" stop-color="#38FF9C"/>
<stop offset="0.88" stop-color="#38FF9C"/>
<stop offset="1" stop-color="#38FF9C" stop-opacity="0"/>
</linearGradient>
<linearGradient id="paint56_linear_3705_9013" x1="79" y1="4" x2="79" y2="548" gradientUnits="userSpaceOnUse">
<stop stop-color="#38FF9C" stop-opacity="0"/>
<stop offset="0.108435" stop-color="#38FF9C"/>
<stop offset="0.88" stop-color="#38FF9C"/>
<stop offset="1" stop-color="#38FF9C" stop-opacity="0"/>
</linearGradient>
<linearGradient id="paint57_linear_3705_9013" x1="625" y1="4" x2="625" y2="548" gradientUnits="userSpaceOnUse">
<stop stop-color="#38FF9C" stop-opacity="0"/>
<stop offset="0.108435" stop-color="#38FF9C"/>
<stop offset="0.88" stop-color="#38FF9C"/>
<stop offset="1" stop-color="#38FF9C" stop-opacity="0"/>
</linearGradient>
<linearGradient id="paint58_linear_3705_9013" x1="599" y1="4" x2="599" y2="548" gradientUnits="userSpaceOnUse">
<stop stop-color="#38FF9C" stop-opacity="0"/>
<stop offset="0.108435" stop-color="#38FF9C"/>
<stop offset="0.88" stop-color="#38FF9C"/>
<stop offset="1" stop-color="#38FF9C" stop-opacity="0"/>
</linearGradient>
<clipPath id="clip0_3705_9013">
<rect width="1276" height="399" fill="white"/>
</clipPath>
</defs>
</svg>
