<svg width="40" height="40" viewBox="0 0 40 40" fill="none" xmlns="http://www.w3.org/2000/svg">
<rect width="40" height="40" fill="#2D374B"/>
<path d="M18.7077 7.31715L9.18975 12.8146C8.8279 13.0235 8.52741 13.324 8.31856 13.6859C8.10971 14.0478 7.99985 14.4583 8 14.8761L8.00596 25.8831C8.00623 26.3003 8.11617 26.7101 8.32477 27.0714C8.53337 27.4327 8.83329 27.7327 9.19446 27.9416L18.7235 33.4501C19.0852 33.6589 19.4955 33.7689 19.9132 33.7689C20.3309 33.7689 20.7412 33.6589 21.103 33.4501L30.6209 27.9543C30.9828 27.7454 31.2832 27.4448 31.4921 27.083C31.7009 26.7211 31.8108 26.3106 31.8106 25.8927L31.8047 14.8858C31.8044 14.4686 31.6944 14.0589 31.4858 13.6976C31.2772 13.3364 30.9773 13.0363 30.6162 12.8275L21.0872 7.31879C20.7255 7.10995 20.3151 7 19.8974 7C19.4797 7 19.0694 7.10995 18.7077 7.31879V7.31715Z" fill="white"/>
<path d="M15.567 29.7295C15.5817 29.6578 15.6137 29.5908 15.6605 29.5344C18.5077 24.7033 21.3554 19.8723 24.2035 15.0415C24.2431 14.9744 24.2798 14.9055 24.3134 14.8454C24.2884 14.8017 24.2599 14.8107 24.2357 14.8107C23.0189 14.8151 21.8021 14.8229 20.5844 14.8214C20.5324 14.8205 20.4813 14.8355 20.4381 14.8645C20.3948 14.8935 20.3615 14.935 20.3426 14.9835C19.4247 16.5014 18.5056 18.019 17.5854 19.5361C15.636 22.7524 13.6864 25.9686 11.7366 29.1847C11.7194 29.2132 11.7013 29.2411 11.6859 29.2704C11.6515 29.3369 11.6123 29.3474 11.5423 29.3068C11.2398 29.1281 10.9339 28.9552 10.6125 28.7703L19.2894 14.854C19.2708 14.7974 19.2324 14.8116 19.2029 14.8105C18.7378 14.7966 18.2726 14.7765 17.808 14.7724C17.1553 14.7531 16.5048 14.8579 15.8913 15.0813C15.3325 15.2882 14.8576 15.6738 14.5403 16.1781C12.9549 18.6509 11.3636 21.1198 9.76616 23.5849C9.74113 23.6239 9.71448 23.662 9.68863 23.7006C9.59714 23.7006 9.61065 23.6251 9.60224 23.5724C9.59415 23.493 9.59226 23.4131 9.59653 23.3334C9.59653 20.6069 9.60597 17.8803 9.58812 15.1539C9.57379 14.919 9.63025 14.6852 9.75028 14.4827C9.8703 14.2803 10.0484 14.1185 10.2613 14.0183C12.358 12.8231 14.441 11.6032 16.5309 10.3958C17.4636 9.85691 18.3992 9.32317 19.3251 8.77301C19.4993 8.65615 19.7043 8.59375 19.914 8.59375C20.1238 8.59375 20.3288 8.65615 20.503 8.77301C22.2055 9.77219 23.9233 10.7482 25.6346 11.7332C26.9254 12.4765 28.2169 13.2184 29.5089 13.9591C29.6015 14.0118 29.6915 14.0682 29.7844 14.1201C29.9355 14.2004 30.0604 14.3222 30.1445 14.4713C30.2285 14.6203 30.2681 14.7903 30.2586 14.9611C30.2611 17.927 30.2611 20.8929 30.2586 23.8587C30.2647 23.9317 30.2567 24.0052 30.2353 24.0752C30.1327 24.1742 30.0956 24.0631 30.0583 24.0103C29.9044 23.7939 29.7664 23.566 29.6234 23.342C28.4785 21.5499 27.3298 19.7602 26.1772 17.9728C25.7899 17.3687 25.3977 16.7671 25.0146 16.1605C24.9251 16.019 24.9089 16.0169 24.8195 16.1689C24.2413 17.1472 23.6635 18.1258 23.086 19.1045C23.0543 19.1589 23.0406 19.2219 23.047 19.2846C23.0533 19.3472 23.0793 19.4063 23.1212 19.4532C23.5974 20.2215 24.0727 20.9903 24.5471 21.7597L26.9793 25.694C27.3075 26.2257 27.6362 26.7569 27.9655 27.2877C28.0266 27.3588 28.061 27.4491 28.0628 27.5429C27.9969 27.6737 27.8597 27.7104 27.7454 27.7699C27.5579 27.9053 27.3518 28.0129 27.1335 28.0893C27.0158 28.06 26.9741 27.9537 26.9184 27.8667C26.1653 26.6922 25.422 25.5117 24.6739 24.3342C23.9044 23.124 23.1387 21.9092 22.366 20.7002C22.2669 20.5451 22.2511 20.5441 22.1579 20.7002C21.4857 21.8311 20.8228 22.9673 20.1489 24.0969C20.1145 24.1498 20.0975 24.2123 20.1005 24.2754C20.1035 24.3385 20.1262 24.399 20.1655 24.4485C21.0732 25.8475 21.96 27.2588 22.8581 28.6647C23.1085 29.0565 23.3608 29.4469 23.6068 29.8415C23.6548 29.9182 23.7204 29.9948 23.6769 30.0985C23.4412 30.282 23.1868 30.4401 22.9179 30.5703C22.0791 31.0584 21.2399 31.5458 20.4002 32.0325C20.2657 32.1193 20.109 32.1655 19.9489 32.1655C19.7888 32.1655 19.6321 32.1193 19.4976 32.0325C18.2608 31.317 17.0218 30.6047 15.7805 29.8957C15.695 29.8617 15.6209 29.8041 15.567 29.7295Z" fill="#2D374B"/>
<path d="M30.1984 24.1042C30.2009 24.6884 30.2138 25.2734 30.2007 25.8568C30.2043 25.9935 30.17 26.1285 30.1016 26.2469C30.0332 26.3653 29.9334 26.4624 29.8132 26.5276C29.2249 26.8607 28.6472 27.2127 28.0536 27.5368C27.8175 27.106 27.5449 26.6958 27.2868 26.2773C25.9466 24.1051 24.605 21.9342 23.2618 19.7645C23.1814 19.6344 23.1077 19.4994 23.0179 19.3766C22.9886 19.3413 22.9727 19.2969 22.9727 19.2511C22.9727 19.2053 22.9886 19.161 23.0179 19.1257C23.3385 18.5895 23.6538 18.0502 23.9712 17.5118L24.852 16.0176C24.8676 15.9821 24.8951 15.9531 24.9297 15.9355C25.0829 16.1716 25.2374 16.4098 25.3916 16.6482C26.3183 18.0909 27.2447 19.5336 28.1709 20.9764C28.799 21.9552 29.4271 22.9342 30.055 23.9132C30.0895 23.9859 30.1383 24.0508 30.1984 24.1042Z" fill="white"/>
<path d="M27.1283 28.0722C26.7457 28.3232 26.34 28.5368 25.9457 28.7696C25.2309 29.1899 24.5115 29.6024 23.7941 30.018C23.7531 30.0412 23.7121 30.0629 23.6725 30.0853C23.6634 30.0189 23.6349 29.9567 23.5905 29.9066C22.9517 28.9027 22.3128 27.899 21.6739 26.8955C21.1489 26.0715 20.6224 25.2482 20.0944 24.4258C20.0587 24.3831 20.0379 24.3299 20.0354 24.2743C20.0329 24.2187 20.0487 24.1638 20.0805 24.1181C20.7863 22.9295 21.4891 21.739 22.189 20.5468C22.2056 20.5193 22.2189 20.4873 22.2602 20.4785C22.3176 20.4914 22.3316 20.5489 22.3588 20.5917C23.6306 22.595 24.9024 24.5984 26.1742 26.602C26.4448 27.0285 26.7141 27.456 26.9863 27.8816C27.021 27.9536 27.069 28.0185 27.1279 28.0726L27.1283 28.0722Z" fill="white"/>
</svg>
