<svg width="40" height="40" viewBox="0 0 40 40" fill="none" xmlns="http://www.w3.org/2000/svg">
<rect width="40" height="40" fill="#E84142"/>
<path d="M10.4576 29.948H14.3365H14.3365C15.2497 29.948 15.7063 29.948 16.1139 29.8353C16.5607 29.7025 16.9682 29.4672 17.307 29.1432C17.6181 28.847 17.8426 28.4544 18.2855 27.6798L18.2858 27.6793L18.2988 27.6566L23.3296 18.7695C23.7764 17.9894 23.9973 17.5968 24.0955 17.1847C24.2035 16.7381 24.2035 16.2671 24.0955 15.8206C23.9981 15.4116 23.7749 15.0218 23.3347 14.2533L23.3247 14.2358L21.3558 10.8011C20.9482 10.0847 20.742 9.72649 20.4818 9.59402C20.2019 9.45173 19.868 9.45173 19.5882 9.59402C19.3279 9.72649 19.1217 10.0847 18.7142 10.8011L9.13683 27.6713C8.73422 28.3779 8.53289 28.7313 8.54763 29.0206C8.56727 29.3347 8.72929 29.6193 8.99444 29.7911C9.23993 29.948 9.64253 29.948 10.4576 29.948Z" fill="white"/>
<path d="M29.6898 29.948H24.1319C23.3119 29.948 22.8995 29.948 22.6589 29.7911C22.3937 29.6193 22.2317 29.3299 22.2121 29.0158C22.1974 28.7286 22.4003 28.3786 22.8064 27.6782L22.8065 27.678L22.816 27.6616L25.5901 22.9021C25.9976 22.2005 26.2038 21.8521 26.4592 21.7196C26.7389 21.5773 27.0681 21.5773 27.3478 21.7196C27.6013 21.8486 27.7987 22.1822 28.1896 22.8426L28.1901 22.8436L28.2218 22.8972L31.0058 27.6567C31.0194 27.6801 31.0327 27.7032 31.046 27.7259L31.0461 27.7259C31.4319 28.3914 31.6289 28.731 31.6148 29.011C31.5999 29.3249 31.433 29.6145 31.1679 29.7863C30.9223 29.948 30.5098 29.948 29.6898 29.948H29.6898Z" fill="white"/>
</svg>
