<svg width="40" height="40" viewBox="0 0 40 40" fill="none" xmlns="http://www.w3.org/2000/svg">
<rect width="40" height="40" fill="#14151A"/>
<path d="M12.3253 10.3763L20.0001 6L27.675 10.3763L24.8533 11.993L20.0001 9.23343L15.1467 11.993L12.3253 10.3763ZM27.675 15.8955L24.8533 14.2787L20.0001 17.0384L15.1467 14.2787L12.3253 15.8955V19.129L17.1784 21.8884V27.4077L20.0001 29.0244L22.8218 27.4077V21.8884L27.675 19.129V15.8955ZM27.675 24.648V21.4145L24.8533 23.0313V26.2648L27.675 24.648ZM29.6783 25.7909L24.8252 28.5503V31.7838L32.5 27.4077V18.6551L29.6783 20.2716V25.7909ZM26.8566 13.1358L29.6783 14.7526V17.986L32.5 16.3693V13.1358L29.6783 11.5191L26.8566 13.1358ZM17.1784 29.7212V32.9547L20.0001 34.5714L22.8218 32.9547V29.7212L20.0001 31.3379L17.1784 29.7212ZM12.3253 24.648L15.1467 26.2648V23.0313L12.3253 21.4145V24.648ZM17.1784 13.1358L20.0001 14.7526L22.8218 13.1358L20.0001 11.5191L17.1784 13.1358ZM10.3217 14.7526L13.1434 13.1358L10.3217 11.5191L7.5 13.1358V16.3693L10.3217 17.986V14.7526ZM10.3217 20.2716L7.5 18.6551V27.4077L15.1751 31.7838V28.5503L10.3217 25.7909V20.2716Z" fill="#F0B90B"/>
</svg>
