<svg width="40" height="40" viewBox="0 0 40 40" fill="none" xmlns="http://www.w3.org/2000/svg">
<g clip-path="url(#clip0_2818_33749)">
<path d="M40 0L0 0L0 40H40V0Z" fill="url(#paint0_linear_2818_33749)"/>
<path d="M22.9213 18.5912C22.5229 18.5912 22.1236 18.4387 21.8195 18.1347C21.2105 17.5265 21.2105 16.5393 21.8195 15.9311L25.8492 11.9014C26.4574 11.2933 27.4446 11.2933 28.0528 11.9014C28.6618 12.5096 28.6618 13.4968 28.0528 14.105L24.0231 18.1347C23.719 18.4387 23.3197 18.5912 22.9213 18.5912Z" fill="#38FF9C"/>
<path d="M20 35.9992C11.1775 35.9992 4 28.8217 4 20C4 11.1783 11.1775 4 20 4C28.8225 4 36 11.1775 36 20C36 28.8225 28.8225 36 20 36V35.9992ZM20 7.11661C12.8967 7.11661 7.11661 12.8958 7.11661 20C7.11661 27.1042 12.8958 32.8834 20 32.8834C27.1042 32.8834 32.8834 27.1042 32.8834 20C32.8834 12.8958 27.1033 7.11661 20 7.11661Z" fill="#38FF9C"/>
<path d="M13.0484 28.4333C12.65 28.4333 12.2508 28.2808 11.9467 27.9768C11.3385 27.3686 11.3377 26.3814 11.9467 25.7732L15.9764 21.7435C16.5845 21.1354 17.5717 21.1345 18.1799 21.7435C18.788 22.3525 18.7889 23.3389 18.1799 23.9471L14.1502 27.9768C13.8461 28.2808 13.4469 28.4333 13.0484 28.4333Z" fill="#38FF9C"/>
<path d="M19.6513 14.3903C16.8657 14.5899 14.6133 16.8305 14.4246 19.6178C14.4145 19.7685 14.3488 19.9109 14.241 20.0179L11.9777 22.2846C11.8496 22.4134 11.6281 22.3553 11.5818 22.1793C11.3981 21.4776 11.2844 20.7246 11.2844 19.9757C11.2844 15.1576 15.2038 11.2383 20.0219 11.2383C20.8069 11.2383 21.5684 11.3427 22.2928 11.5373C22.4394 11.5769 22.4874 11.7605 22.3804 11.8683L20.0413 14.2092C19.9368 14.3136 19.7987 14.3785 19.6513 14.3894V14.3903Z" fill="#38FF9C"/>
<path d="M25.7363 19.9186L28.0771 17.5794C28.1841 17.4725 28.3686 17.5205 28.4082 17.667C28.6036 18.3914 28.7072 19.1529 28.7072 19.9379C28.7072 24.7561 24.7879 28.6754 19.9698 28.6754C19.2218 28.6754 18.4687 28.5617 17.7662 28.3781C17.5902 28.3317 17.5329 28.111 17.6609 27.9822L19.9276 25.7188C20.0346 25.6119 20.177 25.5462 20.3277 25.5352C23.1158 25.3465 25.3556 23.0941 25.5552 20.3086C25.5662 20.1612 25.631 20.023 25.7355 19.9186H25.7363Z" fill="#38FF9C"/>
</g>
<defs>
<linearGradient id="paint0_linear_2818_33749" x1="37.5898" y1="3.42942" x2="5.69938" y2="35.3203" gradientUnits="userSpaceOnUse">
<stop stop-color="#262626"/>
<stop offset="1" stop-color="#101010"/>
</linearGradient>
<clipPath id="clip0_2818_33749">
<rect width="40" height="40" rx="8" fill="white"/>
</clipPath>
</defs>
</svg>
