<svg width="40" height="41" viewBox="0 0 40 41" fill="none" xmlns="http://www.w3.org/2000/svg">
<g clip-path="url(#clip0_3994_5776)">
<path d="M40 0.113846L0 0.113846L0 40.1138H40V0.113846Z" fill="black"/>
<path fill-rule="evenodd" clip-rule="evenodd" d="M14.6658 14.3825C14.6098 14.2977 14.5538 14.2181 14.5458 14.2075C14.5378 14.1995 14.4178 14.2685 14.2792 14.364C14.1405 14.4595 13.8818 14.6505 13.7058 14.791C13.5298 14.9316 13.1858 15.2446 12.9432 15.486C12.7005 15.7274 12.3992 16.0484 12.2738 16.2022C12.1485 16.3561 11.9485 16.6187 11.8285 16.7858C11.7085 16.9529 11.6125 17.0962 11.6125 17.1041C11.6125 17.1121 11.6872 17.1652 11.7752 17.2235C11.8658 17.2819 12.0098 17.4065 12.0952 17.5021C12.1832 17.5975 12.3032 17.7646 12.3592 17.8734C12.4152 17.9822 12.4872 18.1679 12.5192 18.2846C12.5538 18.4172 12.5725 18.5817 12.5725 18.7222C12.5725 18.8602 12.5512 19.0299 12.5192 19.1599C12.4898 19.2767 12.4205 19.4624 12.3672 19.571C12.2925 19.7196 12.2072 19.8284 12.0392 19.9982C11.8578 20.1812 11.7672 20.2475 11.5858 20.335C11.4605 20.3961 11.2818 20.465 11.1858 20.4915C11.0845 20.5154 10.9058 20.534 10.7592 20.534C10.6205 20.534 10.4392 20.5207 10.3592 20.5022C10.2792 20.4836 10.2098 20.473 10.2072 20.4783C10.2018 20.4836 10.1752 20.6162 10.1458 20.778C10.1165 20.9372 10.0685 21.2714 10.0392 21.5207C10.0018 21.8284 9.98584 22.1495 9.98584 22.5341C9.98584 22.932 10.0018 23.2317 10.0392 23.5421C10.0685 23.7887 10.1032 24.0593 10.1192 24.1469C10.1303 24.2079 10.1454 24.2922 10.158 24.3627C10.1635 24.3934 10.1685 24.4215 10.1725 24.4439C10.1992 24.5845 10.1992 24.5845 10.2872 24.5687C10.3325 24.5606 10.4578 24.5421 10.5592 24.5289C10.6765 24.5129 10.8258 24.5156 10.9672 24.5315C11.0872 24.5448 11.2605 24.5845 11.3538 24.619C11.4445 24.6509 11.5912 24.7199 11.6792 24.7702C11.7672 24.8206 11.9298 24.9533 12.0418 25.062C12.1965 25.2158 12.2712 25.3167 12.3645 25.4997C12.4312 25.635 12.5058 25.8313 12.5325 25.9507C12.5672 26.1098 12.5752 26.2292 12.5672 26.4281C12.5565 26.6244 12.5325 26.7518 12.4765 26.9189C12.4338 27.0435 12.3458 27.2266 12.2765 27.3301C12.2098 27.4335 12.0898 27.5767 12.0098 27.651C11.9298 27.7253 11.8125 27.8181 11.7458 27.8605C11.7204 27.8768 11.6962 27.8922 11.6755 27.9053C11.6418 27.9267 11.6175 27.9422 11.6125 27.9455C11.6045 27.9481 11.6338 28.0038 11.6765 28.0648C11.7162 28.124 11.8019 28.2427 11.8737 28.3422L11.8898 28.3646C11.9645 28.468 12.1192 28.6696 12.2365 28.8155C12.3538 28.9614 12.6258 29.2585 12.8392 29.476C13.0525 29.6935 13.3698 29.9906 13.5485 30.1392C13.7245 30.2851 14.0072 30.5052 14.1752 30.6246C14.3432 30.7413 14.4925 30.8447 14.5085 30.85C14.5272 30.8527 14.5885 30.7864 14.6472 30.6988C14.7058 30.6113 14.8312 30.4681 14.9245 30.3805C15.0285 30.2851 15.1858 30.1763 15.3218 30.1073C15.4445 30.0463 15.6232 29.9747 15.7192 29.9508C15.8258 29.9243 15.9965 29.9058 16.1592 29.9058C16.3245 29.9058 16.4925 29.9243 16.5992 29.9508C16.6952 29.9747 16.8738 30.0463 16.9992 30.1073C17.1778 30.1922 17.2712 30.2638 17.4418 30.4309C17.6152 30.606 17.6792 30.6935 17.7832 30.8979C17.8498 31.0357 17.9245 31.232 17.9458 31.3355C17.9672 31.439 17.9858 31.6114 17.9858 31.7201C17.9858 31.8289 17.9698 31.996 17.9512 32.0889C17.9298 32.1976 17.9272 32.2586 17.9458 32.2666C17.9618 32.2718 18.0685 32.2931 18.1858 32.3143C18.3032 32.3355 18.4952 32.3647 18.6125 32.3806C18.7298 32.3966 19.0072 32.4283 19.2258 32.4496C19.4472 32.4708 19.7938 32.4894 19.9992 32.4894C20.2045 32.4894 20.6018 32.4655 20.8792 32.4364C21.1565 32.4072 21.5245 32.3594 21.6925 32.3302C21.8605 32.301 22.0098 32.2718 22.0258 32.2666C22.0419 32.2586 22.0392 32.1923 22.0179 32.0756C21.9939 31.9615 21.9858 31.7918 21.9939 31.6273C22.0018 31.4283 22.0258 31.3063 22.0845 31.1366C22.1245 31.0118 22.2151 30.8289 22.2845 30.7254C22.3512 30.6219 22.4845 30.4681 22.5779 30.3805C22.6739 30.293 22.8338 30.179 22.9351 30.1232C23.0365 30.0702 23.1965 30.0039 23.2925 29.9747C23.3885 29.9455 23.5618 29.9137 23.6792 29.9031C23.8232 29.8924 23.9618 29.8977 24.1058 29.9243C24.2232 29.9455 24.3911 29.9906 24.4791 30.0251C24.5672 30.057 24.7218 30.1418 24.8258 30.2108C24.9298 30.2771 25.0765 30.4045 25.1565 30.4893C25.2339 30.5768 25.3271 30.6962 25.3618 30.7572C25.4019 30.8315 25.4392 30.866 25.4605 30.8527C25.4745 30.8458 25.5929 30.7634 25.735 30.6646C25.7551 30.6507 25.7757 30.6364 25.7965 30.6219C25.9645 30.5026 26.2471 30.2851 26.4232 30.1392C26.6018 29.9906 26.9191 29.6935 27.1351 29.476C27.3485 29.2585 27.6418 28.9322 27.7885 28.7492C27.9325 28.5662 28.1245 28.3141 28.2125 28.1868C28.3005 28.0595 28.3671 27.9508 28.3592 27.9455C28.3511 27.9428 28.2739 27.8924 28.1885 27.8341C28.1031 27.7757 27.9645 27.6563 27.8818 27.5688C27.7885 27.4706 27.6845 27.3167 27.6098 27.1708C27.5378 27.0329 27.4658 26.842 27.4392 26.72C27.4045 26.5635 27.3938 26.4387 27.4045 26.2424C27.4152 26.0435 27.4365 25.9215 27.4952 25.7517C27.5378 25.627 27.6285 25.444 27.6979 25.3406C27.7645 25.2371 27.9004 25.0806 28.0018 24.9878C28.1165 24.8843 28.2658 24.7808 28.3991 24.7172C28.5165 24.6615 28.6898 24.5951 28.7858 24.5687C28.8845 24.5448 29.0658 24.5235 29.2125 24.5235C29.3512 24.5235 29.5325 24.5368 29.6125 24.5553C29.6925 24.574 29.7618 24.5845 29.7645 24.5793C29.7698 24.574 29.7965 24.4386 29.8258 24.2795C29.8552 24.1203 29.9032 23.7861 29.9325 23.5368C29.9698 23.2291 29.9858 22.9081 29.9858 22.5208C29.9858 22.1256 29.9698 21.8258 29.9325 21.5128C29.9032 21.2688 29.8552 20.9372 29.8258 20.778C29.7965 20.6162 29.7698 20.4836 29.7645 20.4783C29.7618 20.473 29.6925 20.4836 29.6125 20.5022C29.5325 20.5207 29.3512 20.534 29.2125 20.534C29.0658 20.534 28.8872 20.5154 28.7858 20.4915C28.6898 20.465 28.5165 20.3987 28.3991 20.343C28.2578 20.2741 28.1192 20.1785 27.9885 20.0565C27.8792 19.9557 27.7431 19.7939 27.6765 19.6905C27.6152 19.587 27.5298 19.4093 27.4872 19.2925C27.4205 19.1015 27.4125 19.0459 27.4125 18.7222C27.4125 18.3986 27.4205 18.3429 27.4872 18.1519C27.5298 18.0352 27.6072 17.8681 27.6605 17.7806C27.7138 17.6931 27.8205 17.5551 27.8978 17.4755C27.9724 17.3959 28.1085 17.2819 28.1965 17.2235C28.2845 17.1652 28.3592 17.1094 28.3592 17.0962C28.3592 17.0856 28.2632 16.9423 28.1432 16.7779C28.0232 16.616 27.8365 16.3667 27.7245 16.2288C27.6098 16.0908 27.3618 15.8176 27.1725 15.624C26.9832 15.4277 26.7059 15.1624 26.5591 15.0377C26.4125 14.9104 26.1725 14.7194 26.0258 14.608C25.8792 14.4993 25.6845 14.3587 25.5939 14.2977L25.4259 14.1862C25.2872 14.4223 25.1565 14.5735 25.0498 14.6717C24.9272 14.7857 24.7751 14.8918 24.6525 14.9529C24.5432 15.0086 24.3752 15.0722 24.2792 15.0961C24.1832 15.12 24.0471 15.1465 23.9725 15.1545L23.8392 15.1704C24.5218 15.8203 24.8392 16.1439 24.9858 16.3084C25.1325 16.4728 25.3644 16.746 25.5005 16.9158C25.6365 17.0856 25.8498 17.372 25.9725 17.5551C26.0952 17.7381 26.2792 18.0352 26.3832 18.2182C26.4871 18.4013 26.6498 18.7222 26.7432 18.9345C26.8365 19.1466 26.9565 19.449 27.0125 19.6108C27.0659 19.7727 27.1431 20.0326 27.1858 20.1945C27.2285 20.3563 27.2871 20.6242 27.3165 20.7913C27.3458 20.9584 27.3831 21.2581 27.4018 21.4545C27.4205 21.6772 27.4285 22.0247 27.4178 22.3696C27.4098 22.6746 27.3831 23.0513 27.3591 23.2052C27.3351 23.359 27.2871 23.6217 27.2498 23.7887C27.2125 23.9559 27.1218 24.2716 27.0471 24.4917C26.9751 24.7092 26.8445 25.0461 26.7565 25.2344C26.6685 25.4228 26.5111 25.7252 26.4045 25.9055C26.3005 26.0859 26.1165 26.3618 25.9992 26.5209C25.8818 26.6775 25.6792 26.9295 25.5459 27.0807C25.4125 27.2292 25.1805 27.4653 25.0258 27.6033C24.8711 27.7412 24.6258 27.9455 24.4791 28.0569C24.3325 28.1656 24.0925 28.3327 23.9458 28.4256C23.7992 28.5184 23.5298 28.6696 23.3458 28.7598C23.1618 28.8526 22.8738 28.9826 22.7058 29.0489C22.5378 29.1152 22.2498 29.2108 22.0658 29.2638C21.8818 29.3142 21.6125 29.3805 21.4659 29.4097C21.3191 29.4389 21.0418 29.4813 20.8525 29.5052C20.6552 29.5264 20.2819 29.5449 19.9858 29.5449C19.6898 29.5449 19.3165 29.5264 19.1191 29.5052C18.9299 29.4813 18.6285 29.4335 18.4525 29.399C18.2765 29.362 18.0178 29.2983 17.8792 29.2559C17.7405 29.2134 17.5432 29.1497 17.4392 29.1126C17.3352 29.0755 17.1512 29.0012 17.0258 28.9482C16.9005 28.895 16.6605 28.781 16.4925 28.6908C16.3245 28.6033 16.0472 28.4415 15.8792 28.3301C15.7112 28.2187 15.4525 28.033 15.3058 27.9163C15.1592 27.7996 14.9005 27.5661 14.7298 27.3963C14.5618 27.2292 14.3218 26.9666 14.1992 26.8128C14.0792 26.6589 13.8978 26.4149 13.7992 26.269C13.7005 26.1231 13.5565 25.8896 13.4792 25.7517C13.3992 25.6138 13.2712 25.3565 13.1912 25.1814C13.1138 25.0063 12.9912 24.6907 12.9192 24.4784C12.8472 24.2663 12.7592 23.9559 12.7218 23.7887C12.6845 23.6217 12.6338 23.3458 12.6072 23.1786C12.5698 22.9373 12.5592 22.7171 12.5592 22.1309C12.5592 21.5526 12.5698 21.3218 12.6072 21.0831C12.6338 20.9159 12.6792 20.6587 12.7112 20.5128C12.7405 20.3669 12.8045 20.1095 12.8525 19.9424C12.9032 19.7754 12.9965 19.4941 13.0658 19.3191C13.1325 19.144 13.2658 18.8443 13.3592 18.656C13.4525 18.4676 13.6178 18.1626 13.7272 17.9795C13.8365 17.7965 14.0258 17.5074 14.1485 17.3375C14.2712 17.1678 14.5032 16.8681 14.6658 16.6744C14.8258 16.4808 15.2205 16.0617 15.5378 15.7433L16.1192 15.1677C15.9218 15.1438 15.7938 15.12 15.7058 15.0987C15.6178 15.0775 15.4498 15.0139 15.3325 14.9582C15.2045 14.8945 15.0498 14.791 14.9458 14.6955C14.8498 14.6107 14.7245 14.4701 14.6658 14.3825Z" fill="white"/>
<path d="M17.1435 12.258C17.1595 12.2633 17.1728 12.2792 17.1728 12.2925C17.1728 12.3058 17.1542 12.4251 17.1355 12.5551C17.1115 12.7143 17.1035 12.9185 17.1142 13.1652C17.1195 13.3695 17.1488 13.6321 17.1728 13.7488C17.1968 13.8655 17.2475 14.0618 17.2848 14.1865C17.3195 14.3112 17.3915 14.5181 17.4448 14.6507C17.4955 14.7807 17.6102 15.0327 17.6955 15.2077C17.7808 15.3828 17.9355 15.6746 18.0422 15.8576C18.1462 16.0407 18.4875 16.5951 18.7995 17.0911C19.1115 17.5871 19.4448 18.131 19.5382 18.2981C19.6342 18.4652 19.7782 18.7331 19.8582 18.8949C19.9409 19.0541 20.0635 19.33 20.1329 19.505C20.2022 19.6801 20.2928 19.9612 20.3355 20.1284C20.3808 20.2955 20.4288 20.5766 20.4449 20.7518C20.4688 20.9931 20.4688 21.1443 20.4449 21.3751C20.4261 21.5422 20.3835 21.7942 20.3462 21.9322C20.3035 22.0887 20.2101 22.3248 20.0928 22.5555C19.9728 22.7996 19.8315 23.0277 19.6875 23.2187C19.5648 23.3778 19.3222 23.6537 19.1461 23.8314C18.9702 24.0066 18.6155 24.3381 18.3595 24.5636C18.1035 24.789 17.7782 25.0941 17.6368 25.2374C17.4982 25.3805 17.3195 25.5902 17.2422 25.6989C17.1648 25.8077 17.0555 25.9907 16.9968 26.1021C16.9408 26.2161 16.8635 26.4071 16.8288 26.5265C16.7942 26.6485 16.7515 26.866 16.7355 27.012C16.7168 27.1897 16.7168 27.3753 16.7328 27.569C16.7462 27.7282 16.7488 27.8687 16.7382 27.8793C16.7275 27.8926 16.6128 27.8342 16.4795 27.752C16.3488 27.6698 16.1248 27.5186 15.9862 27.4125C15.8475 27.3091 15.5968 27.0915 15.4288 26.9324C15.2635 26.7732 15.0288 26.5265 14.9142 26.3886C14.7968 26.2506 14.6048 25.9933 14.4875 25.8183C14.3702 25.6432 14.1862 25.3196 14.0795 25.102C13.9702 24.8819 13.8395 24.5848 13.7862 24.4389C13.7302 24.293 13.6475 24.0171 13.5995 23.8288C13.5515 23.6405 13.4875 23.346 13.4608 23.1789C13.4208 22.9296 13.4128 22.7279 13.4155 22.0913C13.4155 21.4255 13.4235 21.2531 13.4742 20.9375C13.5062 20.7331 13.5675 20.4228 13.6102 20.2478C13.6528 20.0727 13.7275 19.8207 13.7728 19.6907C13.8208 19.5607 13.9115 19.3326 13.9782 19.1867C14.0422 19.0408 14.1622 18.8021 14.2422 18.6561C14.3248 18.5102 14.5115 18.1972 14.6608 17.9585C14.8102 17.7224 14.9462 17.5315 14.9595 17.5394C14.9755 17.5447 14.9835 17.558 14.9808 17.5712C14.9782 17.5845 14.9195 17.7517 14.8528 17.94C14.7862 18.1282 14.7035 18.4148 14.6635 18.5766C14.6155 18.7835 14.5915 18.9772 14.5808 19.2397C14.5728 19.452 14.5782 19.6748 14.5942 19.757C14.6102 19.8366 14.6502 19.9746 14.6822 20.0621C14.7168 20.1496 14.7888 20.2769 14.8448 20.3459C14.9168 20.4361 14.9995 20.4997 15.1248 20.5581C15.2848 20.635 15.3275 20.6456 15.5195 20.643C15.6635 20.6403 15.7835 20.6191 15.8928 20.5819C15.9808 20.5502 16.1248 20.4786 16.2128 20.4254C16.3008 20.3724 16.4528 20.2504 16.5488 20.1549C16.6475 20.0594 16.7968 19.8737 16.8822 19.7438C16.9675 19.6137 17.0795 19.4042 17.1275 19.2795C17.1782 19.1548 17.2475 18.9453 17.2795 18.8153C17.3142 18.6853 17.3568 18.4333 17.3728 18.2583C17.3915 18.0752 17.3968 17.8286 17.3862 17.6747C17.3782 17.5288 17.3515 17.2901 17.3302 17.1442C17.3088 16.9983 17.2528 16.7304 17.2022 16.5473C17.1542 16.3643 17.0448 15.9956 16.9622 15.725C16.8795 15.4544 16.7808 15.0963 16.7435 14.9292C16.6928 14.6931 16.6742 14.5207 16.6608 14.16C16.6502 13.8045 16.6555 13.64 16.6875 13.457C16.7115 13.327 16.7675 13.1042 16.8128 12.9663C16.8582 12.8283 16.9462 12.6082 17.0048 12.4808C17.0662 12.3535 17.1275 12.2527 17.1435 12.258Z" fill="white"/>
<path d="M22.4847 9.1072C22.49 9.11515 22.4686 9.15229 22.442 9.19473C22.4127 9.23452 22.3353 9.38041 22.2713 9.51835C22.2046 9.65629 22.1247 9.86585 22.0979 9.98256C22.0686 10.0993 22.0366 10.2797 22.0259 10.3805C22.018 10.4813 22.0207 10.6669 22.0366 10.7916C22.0527 10.9163 22.1007 11.1311 22.1459 11.2691C22.1913 11.407 22.2953 11.659 22.3806 11.8261C22.466 11.9933 22.6633 12.3461 22.8207 12.6087C22.9753 12.8713 23.1619 13.2108 23.2367 13.3647C23.3087 13.5185 23.394 13.7148 23.4206 13.8023C23.4499 13.8899 23.4926 14.0544 23.5166 14.1684C23.5406 14.2798 23.5594 14.4867 23.5594 14.6247C23.5594 14.7626 23.5513 14.8767 23.5406 14.8767C23.5273 14.8767 23.122 14.4867 22.6366 14.0093C22.0767 13.4602 21.682 13.0463 21.5593 12.8872C21.4526 12.7493 21.3193 12.5583 21.2633 12.4628C21.2073 12.3673 21.13 12.2002 21.09 12.0914C21.042 11.9535 21.0153 11.8155 21.0073 11.6405C20.994 11.4362 21.0046 11.346 21.05 11.163C21.0819 11.0383 21.154 10.842 21.21 10.7253C21.2686 10.6086 21.3727 10.4229 21.4447 10.3141C21.5167 10.2054 21.6713 9.99583 21.7887 9.84994C21.9059 9.70404 22.1086 9.47326 22.2393 9.33797C22.3673 9.20269 22.4793 9.09924 22.4847 9.1072Z" fill="white"/>
<path d="M20.2684 7.28973C20.2898 7.28973 20.3058 7.303 20.3058 7.31626C20.3058 7.32952 20.2551 7.44093 20.1964 7.56295C20.1351 7.68232 20.0231 7.93432 19.9458 8.12531C19.8684 8.3163 19.7697 8.60278 19.7244 8.76195C19.679 8.9211 19.6205 9.15984 19.5937 9.29247C19.559 9.4702 19.5485 9.66383 19.5457 10.0485C19.5457 10.4464 19.5564 10.6214 19.5965 10.8045C19.6231 10.9344 19.6871 11.1732 19.7405 11.335C19.7911 11.4968 19.9137 11.7806 20.0097 11.9716C20.1084 12.1626 20.2791 12.4544 20.3911 12.6215C20.5031 12.7886 20.6978 13.0512 20.8204 13.2051C20.9457 13.3589 21.1564 13.6083 21.2924 13.7621C21.4284 13.916 21.6178 14.1229 21.7164 14.2237C21.8124 14.3245 22.215 14.7144 22.6097 15.0858C23.0044 15.4598 23.495 15.9453 23.7005 16.1628C23.9058 16.3829 24.1698 16.6747 24.2844 16.8127C24.4017 16.9506 24.6018 17.2026 24.7298 17.3698C24.8577 17.5368 25.0471 17.7995 25.1511 17.9533C25.2524 18.1072 25.3991 18.3406 25.4791 18.4705C25.5564 18.6006 25.6898 18.8499 25.7751 19.0223C25.863 19.1921 25.9777 19.4441 26.0364 19.5767C26.0925 19.712 26.1831 19.9613 26.2364 20.1284C26.2924 20.2956 26.3644 20.5528 26.4017 20.6987C26.4364 20.8447 26.4871 21.0967 26.5111 21.2558C26.5457 21.476 26.5591 21.7095 26.5591 22.2108C26.5591 22.7227 26.5484 22.9429 26.5084 23.179C26.4817 23.3461 26.4204 23.6405 26.3724 23.8289C26.3244 24.0172 26.2391 24.2984 26.1831 24.4522C26.127 24.6061 25.9937 24.9032 25.8898 25.1154C25.7831 25.3276 25.6044 25.638 25.4924 25.8051C25.3804 25.9722 25.1884 26.2295 25.0658 26.3754C24.9458 26.5213 24.7324 26.7494 24.5965 26.882C24.4578 27.0121 24.2551 27.1924 24.1458 27.28C24.0364 27.3675 23.8497 27.5081 23.7324 27.5877C23.615 27.6699 23.3857 27.8105 23.2258 27.9033C23.0631 27.9935 22.8178 28.1209 22.6791 28.1818C22.5404 28.2429 22.3005 28.3357 22.1458 28.3888C21.9911 28.4444 21.7511 28.5161 21.6124 28.5506C21.4737 28.5851 21.2151 28.6407 21.0391 28.6726C20.8045 28.7124 20.5644 28.7336 20.1457 28.7416C19.7058 28.7521 19.4898 28.7442 19.2124 28.7124C19.0151 28.6885 18.7191 28.6381 18.5591 28.6009C18.3964 28.5664 18.1938 28.5134 17.9458 28.4365L17.8951 28.2694C17.8551 28.1367 17.8444 28.0121 17.8418 27.6884C17.8391 27.333 17.8471 27.2481 17.9004 27.0651C17.9351 26.9484 18.0044 26.7627 18.0551 26.6539C18.1058 26.5452 18.2258 26.3409 18.3191 26.203C18.4124 26.065 18.5671 25.8555 18.6658 25.7388C18.7618 25.6221 19.0791 25.2745 19.3698 24.9695C19.6604 24.6645 19.9724 24.3302 20.0631 24.2268C20.1564 24.1234 20.3164 23.927 20.4231 23.7891C20.5298 23.6511 20.6817 23.423 20.7644 23.2851C20.8471 23.1471 20.9564 22.9322 21.007 22.8076C21.0604 22.6829 21.1324 22.4761 21.1724 22.3434C21.2097 22.2108 21.2657 21.9693 21.2951 21.8049C21.3297 21.6033 21.3458 21.3858 21.3458 21.1232C21.3458 20.9084 21.3271 20.6059 21.3031 20.4389C21.2791 20.277 21.2177 19.9932 21.1671 19.8101C21.1191 19.6271 21.0231 19.3406 20.9564 19.1736C20.8898 19.0064 20.7404 18.6828 20.6284 18.4573C20.5137 18.2318 20.3111 17.8604 20.1724 17.6349C20.0364 17.4095 19.7591 16.9797 19.5564 16.6801C19.3565 16.3803 19.0444 15.9267 18.8657 15.672C18.6871 15.4174 18.4764 15.0832 18.3991 14.9293C18.3218 14.7755 18.2231 14.542 18.1778 14.412C18.1324 14.2821 18.0711 14.0592 18.0418 13.9213C18.0124 13.7834 17.9751 13.5606 17.9591 13.4306C17.9458 13.3006 17.9324 13.038 17.9324 12.847C17.9324 12.656 17.9511 12.3536 17.9724 12.1706C17.9938 11.9875 18.0418 11.6904 18.0818 11.5074C18.1191 11.3244 18.1911 11.0379 18.2418 10.8708C18.2898 10.7037 18.3831 10.4278 18.4471 10.2607C18.5111 10.0936 18.6044 9.86544 18.6524 9.75668C18.7004 9.64792 18.7991 9.43837 18.8711 9.29247C18.9457 9.14658 19.1137 8.84418 19.2471 8.6187C19.3831 8.39588 19.5937 8.07756 19.7165 7.91575C19.8391 7.75394 20.0044 7.54704 20.0844 7.4542C20.1671 7.36401 20.2497 7.28973 20.2684 7.28973Z" fill="white"/>
</g>
<defs>
<clipPath id="clip0_3994_5776">
<rect y="0.113846" width="40" height="40" rx="8" fill="white"/>
</clipPath>
</defs>
</svg>
