<svg width="40" height="40" viewBox="0 0 40 40" fill="none" xmlns="http://www.w3.org/2000/svg">
<g clip-path="url(#clip0_3811_5655)">
<path d="M40 0L0 0L0 40H40V0Z" fill="#211146"/>
<g clip-path="url(#clip1_3811_5655)">
<path d="M16.6062 14.772L21.0256 10.3525L19.9208 9.2477C17.7111 7.03799 15.5014 7.03798 13.2915 9.24755L12.1868 10.3525L16.6062 14.772Z" fill="#D162FC"/>
<path d="M21.0256 21.4012C20.5371 21.9028 12.1868 30.24 12.1868 30.24L13.2917 31.3449C14.3965 32.4498 17.711 33.5547 19.9207 31.345L28.7596 22.5061C29.8645 21.4012 29.8645 19.1915 28.7596 18.0867L23.2353 12.5624L18.8159 16.9818C18.8159 16.9818 20.4732 18.6391 21.0256 19.1915C21.5781 19.7439 21.5141 20.8996 21.0256 21.4012Z" fill="#BFA1EA"/>
</g>
</g>
<defs>
<clipPath id="clip0_3811_5655">
<rect width="40" height="40" rx="8" fill="white"/>
</clipPath>
<clipPath id="clip1_3811_5655">
<rect width="25" height="25.3906" fill="white" transform="translate(7.5 7.59039)"/>
</clipPath>
</defs>
</svg>
