<svg width="84" height="84" viewBox="0 0 84 84" fill="none" xmlns="http://www.w3.org/2000/svg">
<g filter="url(#filter0_d_2671_7399)">
<rect x="22" y="22" width="40" height="40" rx="8" fill="url(#paint0_linear_2671_7399)"/>
</g>
<g clip-path="url(#clip0_2671_7399)">
<path fill-rule="evenodd" clip-rule="evenodd" d="M32 37.8357L27.5343 35.2838C27.2962 35.1478 27 35.3197 27 35.5939V46.7069C27 46.9632 27.1373 47.1999 27.3599 47.327L36.4656 52.5303C36.7038 52.6664 37 52.4944 37 52.2202V46.9428L32 43.9071V37.8357Z" fill="url(#paint1_linear_2671_7399)" fill-opacity="0.5"/>
<path fill-rule="evenodd" clip-rule="evenodd" d="M47 46.9428V52.2202C47 52.4944 47.2962 52.6664 47.5344 52.5303L56.6401 47.327C56.8626 47.1999 57 46.9632 57 46.7069V35.5939C57 35.3197 56.7038 35.1478 56.4656 35.2838L52 37.8357V43.9071L47 46.9428Z" fill="url(#paint2_linear_2671_7399)" fill-opacity="0.5"/>
<path d="M32 32.7368C32 32.4626 32.2962 32.2907 32.5343 32.4267L41.8228 37.7344C41.9326 37.7971 42.0674 37.7971 42.1772 37.7344L51.4656 32.4267C51.7038 32.2907 52 32.4626 52 32.7368V43.9071L42.1854 49.866C42.0714 49.9351 41.9286 49.9351 41.8146 49.866L32 43.9071V32.7368Z" fill="white" fill-opacity="0.8"/>
</g>
<defs>
<filter id="filter0_d_2671_7399" x="0" y="0" width="84" height="84" filterUnits="userSpaceOnUse" color-interpolation-filters="sRGB">
<feFlood flood-opacity="0" result="BackgroundImageFix"/>
<feColorMatrix in="SourceAlpha" type="matrix" values="0 0 0 0 0 0 0 0 0 0 0 0 0 0 0 0 0 0 127 0" result="hardAlpha"/>
<feMorphology radius="1" operator="erode" in="SourceAlpha" result="effect1_dropShadow_2671_7399"/>
<feOffset/>
<feGaussianBlur stdDeviation="11.5"/>
<feComposite in2="hardAlpha" operator="out"/>
<feColorMatrix type="matrix" values="0 0 0 0 0.180664 0 0 0 0 0.180664 0 0 0 0 0.180664 0 0 0 0.22 0"/>
<feBlend mode="normal" in2="BackgroundImageFix" result="effect1_dropShadow_2671_7399"/>
<feBlend mode="normal" in="SourceGraphic" in2="effect1_dropShadow_2671_7399" result="shape"/>
</filter>
<linearGradient id="paint0_linear_2671_7399" x1="17" y1="19" x2="55.5" y2="50.5" gradientUnits="userSpaceOnUse">
<stop stop-color="#C2DAFF"/>
<stop offset="1" stop-color="#6F8FFF"/>
</linearGradient>
<linearGradient id="paint1_linear_2671_7399" x1="27" y1="43.9071" x2="37" y2="43.9071" gradientUnits="userSpaceOnUse">
<stop stop-color="white"/>
<stop offset="1" stop-color="#DDE5FF"/>
</linearGradient>
<linearGradient id="paint2_linear_2671_7399" x1="47" y1="43.9071" x2="57" y2="43.9071" gradientUnits="userSpaceOnUse">
<stop stop-color="white"/>
<stop offset="1" stop-color="#DDE5FF"/>
</linearGradient>
<clipPath id="clip0_2671_7399">
<rect width="30" height="20.7143" fill="white" transform="translate(27 32)"/>
</clipPath>
</defs>
</svg>
