<svg width="40" height="40" viewBox="0 0 40 40" fill="none" xmlns="http://www.w3.org/2000/svg">
<g clip-path="url(#clip0_4031_5648)">
<g filter="url(#filter0_d_4031_5648)">
<rect width="40" height="40" rx="8" fill="#014550"/>
</g>
<path d="M17.8674 17.7174C17.2456 17.8165 16.8236 18.3899 16.9249 18.9982C17.0263 19.6065 17.6126 20.0193 18.2345 19.9201L17.8674 17.7174ZM30.5121 22.4056C30.5121 23.0219 31.023 23.5215 31.6531 23.5215C32.2832 23.5215 32.794 23.0219 32.794 22.4056H30.5121ZM9.05769 20.2546C8.67451 19.7654 7.95836 19.6725 7.4581 20.0473C6.95784 20.422 6.86293 21.1225 7.24609 21.6117L9.05769 20.2546ZM19.4607 23.911L19.9459 24.921C20.2891 24.7632 20.5299 24.4488 20.5881 24.0821C20.6463 23.7156 20.5143 23.3446 20.2361 23.0924L19.4607 23.911ZM18.9873 19.1176C19.1244 18.516 18.7368 17.9197 18.1217 17.7858C17.5067 17.6517 16.897 18.0307 16.76 18.6322L18.9873 19.1176ZM30.6894 20.4423C30.6894 26.0578 25.9215 30.6528 19.9856 30.6528V32.8847C27.1331 32.8847 32.9713 27.3376 32.9713 20.4423H30.6894ZM19.9856 30.6528C14.0497 30.6528 9.28194 26.0578 9.28194 20.4423H7C7 27.3376 12.8382 32.8847 19.9856 32.8847V30.6528ZM9.28194 20.4423C9.28194 14.8268 14.0497 10.2318 19.9856 10.2318V8C12.8382 8 7 13.547 7 20.4423H9.28194ZM19.9856 10.2318C25.9215 10.2318 30.6894 14.8268 30.6894 20.4423H32.9713C32.9713 13.547 27.1331 8 19.9856 8V10.2318ZM18.2345 19.9201C19.7871 19.6726 22.9828 18.908 25.8787 19.0056C27.3194 19.0541 28.4997 19.3176 29.2921 19.8373C30.0033 20.3038 30.5121 21.0448 30.5121 22.4056H32.794C32.794 20.3638 31.9578 18.8985 30.563 17.9837C29.249 17.122 27.5619 16.8292 25.9573 16.775C22.7629 16.6674 19.1578 17.5117 17.8674 17.7174L18.2345 19.9201ZM7.24609 21.6117C9.72263 24.774 12.6187 25.7805 15.0716 25.8751C17.467 25.9676 19.3581 25.1911 19.9459 24.921L18.9755 22.9011C18.5421 23.1001 17.0364 23.7175 15.1616 23.6451C13.3442 23.5749 11.0964 22.8578 9.05769 20.2546L7.24609 21.6117ZM20.2361 23.0924C19.6064 22.5218 19.1211 21.9491 18.9823 21.4217L16.7724 21.9778C17.0905 23.1869 18.0359 24.1413 18.6852 24.7295L20.2361 23.0924ZM18.9823 21.4217C18.8044 20.7454 18.7952 19.961 18.9873 19.1176L16.76 18.6322C16.5001 19.7729 16.4934 20.9174 16.7724 21.9778L18.9823 21.4217Z" fill="#F5F6FC"/>
</g>
<defs>
<filter id="filter0_d_4031_5648" x="-22" y="-22" width="84" height="84" filterUnits="userSpaceOnUse" color-interpolation-filters="sRGB">
<feFlood flood-opacity="0" result="BackgroundImageFix"/>
<feColorMatrix in="SourceAlpha" type="matrix" values="0 0 0 0 0 0 0 0 0 0 0 0 0 0 0 0 0 0 127 0" result="hardAlpha"/>
<feMorphology radius="1" operator="erode" in="SourceAlpha" result="effect1_dropShadow_4031_5648"/>
<feOffset/>
<feGaussianBlur stdDeviation="11.5"/>
<feComposite in2="hardAlpha" operator="out"/>
<feColorMatrix type="matrix" values="0 0 0 0 0.180664 0 0 0 0 0.180664 0 0 0 0 0.180664 0 0 0 0.22 0"/>
<feBlend mode="normal" in2="BackgroundImageFix" result="effect1_dropShadow_4031_5648"/>
<feBlend mode="normal" in="SourceGraphic" in2="effect1_dropShadow_4031_5648" result="shape"/>
</filter>
<clipPath id="clip0_4031_5648">
<rect width="40" height="40" fill="white"/>
</clipPath>
</defs>
</svg>
