<svg width="84" height="85" viewBox="0 0 84 85" fill="none" xmlns="http://www.w3.org/2000/svg">
<g filter="url(#filter0_d_3994_5762)">
<rect x="22" y="22.1138" width="40" height="40" rx="8" fill="#014550"/>
</g>
<g clip-path="url(#clip0_3994_5762)">
<path d="M39.7932 39.4029C39.1714 39.5019 38.7494 40.0754 38.8507 40.6837C38.952 41.292 39.5383 41.7047 40.1603 41.6055L39.7932 39.4029ZM52.4379 44.0911C52.4379 44.7073 52.9488 45.207 53.5789 45.207C54.209 45.207 54.7198 44.7073 54.7198 44.0911H52.4379ZM30.9835 41.9401C30.6003 41.4509 29.8841 41.358 29.3839 41.7328C28.8836 42.1074 28.7887 42.808 29.1719 43.2971L30.9835 41.9401ZM41.3865 45.5964L41.8717 46.6065C42.2149 46.4487 42.4557 46.1343 42.5139 45.7676C42.572 45.401 42.4401 45.0301 42.1619 44.7779L41.3865 45.5964ZM40.9131 40.8031C41.0502 40.2014 40.6626 39.6051 40.0475 39.4712C39.4325 39.3372 38.8228 39.7162 38.6858 40.3176L40.9131 40.8031ZM52.6152 42.1278C52.6152 47.7433 47.8473 52.3383 41.9114 52.3383V54.5701C49.0589 54.5701 54.8971 49.0231 54.8971 42.1278H52.6152ZM41.9114 52.3383C35.9755 52.3383 31.2077 47.7433 31.2077 42.1278H28.9258C28.9258 49.0231 34.764 54.5701 41.9114 54.5701V52.3383ZM31.2077 42.1278C31.2077 36.5123 35.9755 31.9173 41.9114 31.9173V29.6855C34.764 29.6855 28.9258 35.2325 28.9258 42.1278H31.2077ZM41.9114 31.9173C47.8473 31.9173 52.6152 36.5123 52.6152 42.1278H54.8971C54.8971 35.2325 49.0589 29.6855 41.9114 29.6855V31.9173ZM40.1603 41.6055C41.7129 41.3581 44.9086 40.5934 47.8045 40.6911C49.2452 40.7396 50.4255 41.0031 51.2179 41.5228C51.9291 41.9893 52.4379 42.7302 52.4379 44.0911H54.7198C54.7198 42.0493 53.8836 40.5839 52.4888 39.6692C51.1748 38.8074 49.4877 38.5147 47.8831 38.4605C44.6887 38.3528 41.0835 39.1972 39.7932 39.4029L40.1603 41.6055ZM29.1719 43.2971C31.6484 46.4595 34.5445 47.466 36.9974 47.5606C39.3928 47.653 41.2839 46.8765 41.8717 46.6065L40.9013 44.5866C40.4678 44.7856 38.9622 45.403 37.0874 45.3306C35.27 45.2604 33.0222 44.5433 30.9835 41.9401L29.1719 43.2971ZM42.1619 44.7779C41.5322 44.2073 41.0469 43.6346 40.9081 43.1071L38.6982 43.6633C39.0162 44.8724 39.9616 45.8268 40.611 46.4149L42.1619 44.7779ZM40.9081 43.1071C40.7302 42.4309 40.721 41.6464 40.9131 40.8031L38.6858 40.3176C38.4259 41.4584 38.4192 42.6029 38.6982 43.6633L40.9081 43.1071Z" fill="#F5F6FC"/>
</g>
<defs>
<filter id="filter0_d_3994_5762" x="0" y="0.113846" width="84" height="84" filterUnits="userSpaceOnUse" color-interpolation-filters="sRGB">
<feFlood flood-opacity="0" result="BackgroundImageFix"/>
<feColorMatrix in="SourceAlpha" type="matrix" values="0 0 0 0 0 0 0 0 0 0 0 0 0 0 0 0 0 0 127 0" result="hardAlpha"/>
<feMorphology radius="1" operator="erode" in="SourceAlpha" result="effect1_dropShadow_3994_5762"/>
<feOffset/>
<feGaussianBlur stdDeviation="11.5"/>
<feComposite in2="hardAlpha" operator="out"/>
<feColorMatrix type="matrix" values="0 0 0 0 0.180664 0 0 0 0 0.180664 0 0 0 0 0.180664 0 0 0 0.22 0"/>
<feBlend mode="normal" in2="BackgroundImageFix" result="effect1_dropShadow_3994_5762"/>
<feBlend mode="normal" in="SourceGraphic" in2="effect1_dropShadow_3994_5762" result="shape"/>
</filter>
<clipPath id="clip0_3994_5762">
<rect width="26" height="24.9453" fill="white" transform="translate(28.9102 29.6412)"/>
</clipPath>
</defs>
</svg>
