<svg width="40" height="40" viewBox="0 0 40 40" fill="none" xmlns="http://www.w3.org/2000/svg">
<rect width="40" height="40" fill="#FD3A50"/>
<path d="M14.1701 25.3157C12.9793 25.3157 12.0036 25.0355 11.243 24.4751C10.4925 23.9047 10.1172 23.0941 10.1172 22.0433C10.1172 21.8232 10.1422 21.5529 10.1922 21.2327C10.3224 20.5122 10.5075 19.6465 10.7477 18.6358C11.4281 15.8838 13.1845 14.5078 16.0165 14.5078C16.7871 14.5078 17.4776 14.6379 18.0881 14.8981C18.6985 15.1482 19.1789 15.5285 19.5291 16.0389C19.8793 16.5393 20.0545 17.1397 20.0545 17.8402C20.0545 18.0504 20.0295 18.3156 19.9794 18.6358C19.8293 19.5265 19.6492 20.3921 19.439 21.2327C19.0888 22.6037 18.4833 23.6295 17.6227 24.31C16.7621 24.9805 15.6113 25.3157 14.1701 25.3157ZM14.3803 23.1541C14.9408 23.1541 15.4161 22.989 15.8064 22.6588C16.2067 22.3285 16.4919 21.8232 16.662 21.1427C16.8921 20.202 17.0673 19.3813 17.1874 18.6809C17.2274 18.4707 17.2474 18.2556 17.2474 18.0353C17.2474 17.1247 16.7721 16.6693 15.8214 16.6693C15.2609 16.6693 14.7806 16.8345 14.3803 17.1647C13.9901 17.495 13.7098 18.0004 13.5397 18.6809C13.3596 19.3513 13.1794 20.172 12.9993 21.1427C12.9593 21.3428 12.9393 21.5529 12.9393 21.7731C12.9393 22.6938 13.4197 23.1541 14.3803 23.1541Z" fill="white"/>
<path d="M20.7463 25.166C20.6362 25.166 20.5511 25.1309 20.4911 25.0608C20.441 24.9808 20.4261 24.8908 20.4461 24.7907L22.5176 15.0335C22.5376 14.9234 22.5926 14.8333 22.6827 14.7632C22.7728 14.6932 22.8678 14.6582 22.9679 14.6582H26.9609C28.0717 14.6582 28.9623 14.8884 29.6328 15.3487C30.3134 15.8091 30.6536 16.4745 30.6536 17.3452C30.6536 17.5953 30.6236 17.8556 30.5635 18.1257C30.3134 19.2766 29.808 20.1272 29.0474 20.6776C28.2969 21.228 27.2661 21.5032 25.9551 21.5032H23.9286L23.2382 24.7907C23.2181 24.9008 23.163 24.9908 23.073 25.0608C22.983 25.1309 22.8878 25.166 22.7878 25.166H20.7463ZM26.0602 19.4317C26.4805 19.4317 26.8458 19.3166 27.156 19.0864C27.4762 18.8563 27.6864 18.526 27.7865 18.0957C27.8165 17.9256 27.8315 17.7755 27.8315 17.6454C27.8315 17.3552 27.7465 17.135 27.5763 16.9849C27.4062 16.8248 27.116 16.7448 26.7057 16.7448H24.9043L24.3339 19.4317H26.0602Z" fill="white"/>
</svg>
