<svg width="40" height="41" viewBox="0 0 40 41" fill="none" xmlns="http://www.w3.org/2000/svg">
<g clip-path="url(#clip0_3994_5771)">
<path d="M40 0.113846H0V40.1138H40V0.113846Z" fill="black"/>
<g clip-path="url(#clip1_3994_5771)">
<path fill-rule="evenodd" clip-rule="evenodd" d="M27.0109 8.84905C26.4545 8.78925 25.8895 8.75892 25.3175 8.75892C16.617 8.75892 9.53892 15.837 9.53892 24.5366C9.53892 25.6026 9.64552 26.6443 9.84832 27.6514C8.29872 25.5116 7.38525 22.8804 7.38525 20.0368C7.38525 12.8574 13.2058 7.03685 20.3853 7.03685C22.805 7.03685 25.0705 7.69812 27.0109 8.84905ZM28.6489 10.0009C27.5769 9.75558 26.4623 9.62558 25.3175 9.62558C17.0954 9.62558 10.4056 16.3145 10.4056 24.5366C10.4056 26.1581 10.6656 27.7198 11.1466 29.1828C12.0341 30.0789 13.0515 30.8468 14.1678 31.4569C13.7171 30.0226 13.4745 28.4981 13.4745 26.9173C13.4745 18.5479 20.2839 11.7385 28.6541 11.7385C29.2729 11.7385 29.8831 11.7758 30.4819 11.8477C29.9342 11.1734 29.3197 10.5538 28.6489 10.0009ZM32.5758 15.5111C32.3626 14.9365 32.1095 14.3819 31.8201 13.8489C30.8043 13.6027 29.7444 13.4718 28.6541 13.4718C21.2398 13.4718 15.2078 19.5038 15.2078 26.9173C15.2078 28.8725 15.6273 30.7315 16.3813 32.4085C17.4074 32.7404 18.489 32.9484 19.6096 33.0143C19.2681 31.8174 19.0853 30.5538 19.0853 29.2478C19.0853 21.7546 25.1147 15.6437 32.5758 15.5111ZM33.244 18.1163C33.1045 18.1111 32.9649 18.1085 32.8245 18.1085C26.6825 18.1085 21.6853 23.1057 21.6853 29.2478C21.6853 30.5252 21.9011 31.7525 22.2989 32.8965C28.5709 31.9717 33.3853 26.5663 33.3853 20.0368C33.3853 19.3842 33.3376 18.7429 33.244 18.1163Z" fill="url(#paint0_linear_3994_5771)"/>
</g>
</g>
<defs>
<linearGradient id="paint0_linear_3994_5771" x1="7.38525" y1="20.0256" x2="33.3853" y2="20.0256" gradientUnits="userSpaceOnUse">
<stop stop-color="#FF00B4"/>
<stop offset="1" stop-color="#00CBF4"/>
</linearGradient>
<clipPath id="clip0_3994_5771">
<rect y="0.113846" width="40" height="40" rx="8" fill="white"/>
</clipPath>
<clipPath id="clip1_3994_5771">
<rect width="26" height="26" fill="white" transform="translate(7.38525 7.02559)"/>
</clipPath>
</defs>
</svg>
