<svg width="40" height="40" viewBox="0 0 40 40" fill="none" xmlns="http://www.w3.org/2000/svg">
<g clip-path="url(#clip0_2818_33740)">
<path d="M40 0L0 0L0 40H40V0Z" fill="#14151A"/>
<g clip-path="url(#clip1_2818_33740)">
<path d="M20 46C34.3594 46 46 34.3594 46 20C46 5.6406 34.3594 -6 20 -6C5.6406 -6 -6 5.6406 -6 20C-6 34.3594 5.6406 46 20 46Z" fill="url(#paint0_linear_2818_33740)"/>
<path d="M32.5711 18.7439L26.9321 13.1049L26.9218 13.0946L26.8995 13.0751C26.863 13.0421 26.8248 13.0111 26.7851 12.9821C26.7572 12.9597 26.7293 12.9383 26.6995 12.9188C26.6865 12.9095 26.6735 12.9021 26.6595 12.8937C26.338 12.6831 25.9491 12.6012 25.57 12.6641C25.1909 12.727 24.8493 12.9301 24.613 13.2332L15.8428 22.0044V14.1904C15.8428 13.7797 15.6796 13.3857 15.3891 13.0952C15.0986 12.8048 14.7047 12.6416 14.2939 12.6416C13.8831 12.6416 13.4892 12.8048 13.1987 13.0952C12.9083 13.3857 12.7451 13.7797 12.7451 14.1904V22.0044L9.54322 18.8025C9.25055 18.5235 8.86033 18.3699 8.45596 18.3747C8.05159 18.3795 7.66513 18.5423 7.37918 18.8283C7.09323 19.1142 6.93045 19.5007 6.92565 19.905C6.92084 20.3094 7.07438 20.6996 7.35345 20.9923L13.199 26.8379C13.2358 26.8751 13.2746 26.9102 13.3153 26.943C13.3544 26.9746 13.3953 27.0053 13.4362 27.036C13.6475 27.1729 13.8888 27.2562 14.1395 27.2788H14.146C14.1962 27.2835 14.2465 27.2863 14.2967 27.2863H14.32C14.3621 27.2863 14.404 27.2844 14.4455 27.2807H14.4762C14.5162 27.276 14.5562 27.2714 14.5953 27.263H14.613C14.6567 27.2537 14.7004 27.2435 14.7432 27.2304H14.7507C14.7974 27.2164 14.8433 27.1999 14.8883 27.1811C14.9525 27.1546 15.0147 27.1235 15.0744 27.0881L15.1097 27.0676C15.1682 27.0319 15.2242 26.9921 15.2772 26.9486L15.293 26.9346C15.3255 26.9067 15.3581 26.8788 15.386 26.8472L24.279 17.9486V25.7383C24.279 26.1491 24.4422 26.5431 24.7327 26.8335C25.0231 27.124 25.4171 27.2872 25.8279 27.2872C26.2387 27.2872 26.6326 27.124 26.9231 26.8335C27.2135 26.5431 27.3767 26.1491 27.3767 25.7383V17.9244L30.3814 20.9346C30.673 21.2193 31.0652 21.3776 31.4728 21.3751C31.8804 21.3726 32.2705 21.2095 32.5587 20.9213C32.8468 20.633 33.0097 20.2427 33.0121 19.8351C33.0144 19.4276 32.856 19.0355 32.5711 18.7439Z" fill="white"/>
</g>
</g>
<defs>
<linearGradient id="paint0_linear_2818_33740" x1="-2.52073" y1="6.99758" x2="42.5207" y2="33.0012" gradientUnits="userSpaceOnUse">
<stop offset="0.13" stop-color="#348BED"/>
<stop offset="0.31" stop-color="#2B80E8"/>
<stop offset="0.64" stop-color="#1461DB"/>
<stop offset="0.72" stop-color="#0E57D7"/>
</linearGradient>
<clipPath id="clip0_2818_33740">
<rect width="40" height="40" rx="8" fill="white"/>
</clipPath>
<clipPath id="clip1_2818_33740">
<rect width="40" height="40" fill="white"/>
</clipPath>
</defs>
</svg>
