<svg width="40" height="40" viewBox="0 0 40 40" fill="none" xmlns="http://www.w3.org/2000/svg">
<g clip-path="url(#clip0_2671_32139)">
<g filter="url(#filter0_d_2671_32139)">
<rect width="40" height="40" rx="8" fill="#014550"/>
</g>
<path d="M16.3301 23.3372L18.1652 20.7827C18.1682 20.7122 18.1741 20.6447 18.1741 20.5742V16.6543H16.8087V20.5654C16.8087 21.687 16.2861 22.2478 15.2408 22.2478C14.7329 22.2478 14.3482 22.104 14.084 21.8191C13.8197 21.5343 13.6876 21.1145 13.6876 20.5654V16.6543H13.5525L12.3223 18.3661V20.5742C12.3223 21.4903 12.5806 22.2038 13.0945 22.7176C13.6083 23.2285 14.3247 23.484 15.2438 23.484C15.646 23.484 16.0072 23.4311 16.3331 23.3343L16.3301 23.3372Z" fill="#E1FC61"/>
<path d="M25.8196 23.3924L27.7633 20.6852C27.7398 20.2418 27.6253 19.8425 27.4198 19.4872C27.1878 19.0908 26.8707 18.7825 26.4685 18.5564C26.0662 18.3303 25.6111 18.2188 25.1032 18.2188C24.8418 18.2188 24.5952 18.251 24.3603 18.3098L22.4401 20.9818C22.4606 21.4339 22.5751 21.8391 22.7865 22.1944C23.0185 22.5908 23.3356 22.9021 23.7379 23.1311C24.1401 23.3601 24.5952 23.4746 25.1032 23.4746C25.3557 23.4746 25.5935 23.4482 25.8196 23.3895V23.3924ZM23.729 20.8526C23.729 20.4004 23.8582 20.0363 24.1166 19.7573C24.375 19.4784 24.7039 19.3404 25.1061 19.3404C25.5084 19.3404 25.8372 19.4813 26.0897 19.7573C26.3452 20.0363 26.4714 20.3974 26.4714 20.8408C26.4714 21.2842 26.3422 21.6571 26.0838 21.936C25.8255 22.215 25.4996 22.353 25.1061 22.353C24.7127 22.353 24.375 22.212 24.1166 21.936C23.8582 21.6571 23.729 21.2959 23.729 20.8526Z" fill="#E1FC61"/>
<path d="M8.66817 23.3245H7.25L9.11153 20.7964L7.388 18.3828H8.87957L9.89549 19.9155L10.932 18.3828H12.3178C12.3031 18.4474 8.66817 23.3216 8.66817 23.3216V23.3245Z" fill="#E1FC61"/>
<path d="M11.2324 21.5928L10.4573 22.5735L10.9476 23.3193H12.4715L11.2354 21.5898L11.2324 21.5928Z" fill="#E1FC61"/>
<path fill-rule="evenodd" clip-rule="evenodd" d="M19.8434 22.333C20.2398 22.333 20.551 22.2332 20.78 22.0364H20.783C21.012 21.8397 21.1265 21.5696 21.1265 21.2231C21.1265 20.906 21.0237 20.6505 20.8182 20.4567C20.6127 20.2629 20.3367 20.166 19.9931 20.166C19.767 20.166 19.5321 20.2072 19.2855 20.2923L18.9361 19.6258L20.7154 17.7642H18.161L18.9596 16.6543H22.2276V17.6614L20.6185 19.3439C20.9797 19.3498 21.2968 19.4379 21.5698 19.6023C21.8458 19.7697 22.0602 19.9957 22.2158 20.2806C22.3303 20.492 22.4037 20.7269 22.4331 20.9882L20.7066 23.393C20.4424 23.4605 20.1576 23.4928 19.8463 23.4928C19.1035 23.4928 18.4575 23.2902 17.9084 22.8909L18.5984 21.9337C18.989 22.2038 19.4059 22.3389 19.8463 22.3389L19.8434 22.333Z" fill="#E1FC61"/>
<path fill-rule="evenodd" clip-rule="evenodd" d="M28.2541 19.2659C28.4098 19.4451 28.6124 19.6007 28.8619 19.7299C28.445 19.9002 28.122 20.1439 27.8901 20.461C27.6581 20.7781 27.5406 21.1334 27.5406 21.5298C27.5406 21.9262 27.6493 22.258 27.8636 22.5516C28.078 22.8452 28.3745 23.0742 28.7533 23.2445C29.1321 23.4148 29.5666 23.5 30.0599 23.5C30.421 23.5 30.7528 23.453 31.0552 23.362L32.5703 21.2508C32.5292 20.9543 32.4176 20.6841 32.2326 20.4463C31.9948 20.138 31.6572 19.8943 31.2109 19.7122C31.5426 19.5566 31.801 19.3452 31.9831 19.078C32.1681 18.8108 32.2591 18.5113 32.2591 18.1795C32.2591 17.6716 32.0623 17.2634 31.666 16.9581C31.2931 16.6674 30.8057 16.5176 30.2038 16.5L29.411 17.6275C29.5842 17.5101 29.8015 17.4513 30.0599 17.4513C30.3506 17.4513 30.5972 17.5277 30.7792 17.6804C30.9642 17.8331 31.0552 18.0327 31.0552 18.2794C31.0552 18.5113 30.9642 18.7227 30.7851 18.9077C30.606 19.0956 30.3564 19.2366 30.0393 19.3364C29.3963 19.0898 29.0763 18.7345 29.0763 18.2676C29.0763 18.2001 29.0821 18.1384 29.0968 18.0797L28.2571 19.2718L28.2541 19.2659ZM29.1497 20.6871C28.9295 20.9044 28.8208 21.1539 28.8208 21.4446C28.8208 21.7353 28.9353 21.9937 29.1644 22.1787C29.3934 22.3666 29.6929 22.4606 30.0569 22.4606C30.421 22.4606 30.7176 22.3637 30.9407 22.1699C31.1639 21.9761 31.2755 21.7236 31.2755 21.4123C31.2755 21.151 31.1844 20.9279 30.9995 20.7458C30.8145 20.5608 30.5003 20.3817 30.0569 20.2055C29.6694 20.3112 29.3669 20.4727 29.1467 20.6871H29.1497Z" fill="#E1FC61"/>
</g>
<defs>
<filter id="filter0_d_2671_32139" x="-22" y="-22" width="84" height="84" filterUnits="userSpaceOnUse" color-interpolation-filters="sRGB">
<feFlood flood-opacity="0" result="BackgroundImageFix"/>
<feColorMatrix in="SourceAlpha" type="matrix" values="0 0 0 0 0 0 0 0 0 0 0 0 0 0 0 0 0 0 127 0" result="hardAlpha"/>
<feMorphology radius="1" operator="erode" in="SourceAlpha" result="effect1_dropShadow_2671_32139"/>
<feOffset/>
<feGaussianBlur stdDeviation="11.5"/>
<feComposite in2="hardAlpha" operator="out"/>
<feColorMatrix type="matrix" values="0 0 0 0 0.180664 0 0 0 0 0.180664 0 0 0 0 0.180664 0 0 0 0.22 0"/>
<feBlend mode="normal" in2="BackgroundImageFix" result="effect1_dropShadow_2671_32139"/>
<feBlend mode="normal" in="SourceGraphic" in2="effect1_dropShadow_2671_32139" result="shape"/>
</filter>
<clipPath id="clip0_2671_32139">
<rect width="40" height="40" fill="white"/>
</clipPath>
</defs>
</svg>
