<svg width="84" height="84" viewBox="0 0 84 84" fill="none" xmlns="http://www.w3.org/2000/svg">
<g filter="url(#filter0_d_2671_7377)">
<rect x="22" y="22" width="40" height="40" rx="8" fill="#014550"/>
</g>
<path d="M38.3301 45.337L40.1652 42.7825C40.1682 42.712 40.1741 42.6445 40.1741 42.574V38.6541H38.8087V42.5652C38.8087 43.6868 38.2861 44.2476 37.2408 44.2476C36.7329 44.2476 36.3482 44.1038 36.084 43.819C35.8197 43.5341 35.6876 43.1143 35.6876 42.5652V38.6541H35.5525L34.3223 40.3659V42.574C34.3223 43.4901 34.5806 44.2036 35.0945 44.7174C35.6083 45.2283 36.3247 45.4838 37.2438 45.4838C37.646 45.4838 38.0072 45.4309 38.3331 45.3341L38.3301 45.337Z" fill="#E1FC61"/>
<path d="M47.8195 45.3929L49.7633 42.6857C49.7398 42.2423 49.6253 41.843 49.4197 41.4877C49.1878 41.0913 48.8707 40.783 48.4684 40.5569C48.0662 40.3308 47.6111 40.2192 47.1031 40.2192C46.8418 40.2192 46.5952 40.2515 46.3603 40.3103L44.44 42.9822C44.4606 43.4344 44.5751 43.8396 44.7865 44.1949C45.0184 44.5913 45.3355 44.9025 45.7378 45.1316C46.14 45.3606 46.5952 45.4751 47.1031 45.4751C47.3556 45.4751 47.5934 45.4487 47.8195 45.39V45.3929ZM45.729 42.853C45.729 42.4009 45.8582 42.0368 46.1166 41.7578C46.3749 41.4789 46.7038 41.3409 47.106 41.3409C47.5083 41.3409 47.8371 41.4818 48.0897 41.7578C48.3451 42.0368 48.4714 42.3979 48.4714 42.8413C48.4714 43.2847 48.3422 43.6576 48.0838 43.9365C47.8254 44.2155 47.4995 44.3535 47.106 44.3535C46.7126 44.3535 46.3749 44.2125 46.1166 43.9365C45.8582 43.6576 45.729 43.2964 45.729 42.853Z" fill="#E1FC61"/>
<path d="M30.6682 45.325H29.25L31.1115 42.7969L29.388 40.3833H30.8796L31.8955 41.916L32.932 40.3833H34.3178C34.3031 40.4479 30.6682 45.3221 30.6682 45.3221V45.325Z" fill="#E1FC61"/>
<path d="M33.2325 43.593L32.4573 44.5737L32.9477 45.3195H34.4715L33.2354 43.5901L33.2325 43.593Z" fill="#E1FC61"/>
<path fill-rule="evenodd" clip-rule="evenodd" d="M41.8434 44.3328C42.2398 44.3328 42.5511 44.233 42.7801 44.0362H42.783C43.012 43.8395 43.1265 43.5694 43.1265 43.2229C43.1265 42.9058 43.0238 42.6503 42.8183 42.4565C42.6127 42.2627 42.3367 42.1658 41.9932 42.1658C41.7671 42.1658 41.5322 42.207 41.2856 42.2921L40.9362 41.6256L42.7155 39.764H40.161L40.9597 38.6541H44.2276V39.6612L42.6186 41.3437C42.9797 41.3496 43.2968 41.4377 43.5699 41.6021C43.8459 41.7695 44.0603 41.9955 44.2159 42.2804C44.3304 42.4918 44.4038 42.7267 44.4331 42.988L42.7067 45.3928C42.4424 45.4603 42.1576 45.4926 41.8464 45.4926C41.1035 45.4926 40.4576 45.29 39.9085 44.8907L40.5985 43.9335C40.989 44.2036 41.406 44.3387 41.8464 44.3387L41.8434 44.3328Z" fill="#E1FC61"/>
<path fill-rule="evenodd" clip-rule="evenodd" d="M50.2541 41.2659C50.4098 41.4451 50.6124 41.6007 50.8619 41.7299C50.445 41.9002 50.122 42.1439 49.8901 42.461C49.6581 42.7781 49.5406 43.1334 49.5406 43.5298C49.5406 43.9262 49.6493 44.258 49.8636 44.5516C50.078 44.8452 50.3745 45.0742 50.7533 45.2445C51.1321 45.4148 51.5666 45.5 52.0599 45.5C52.421 45.5 52.7528 45.453 53.0552 45.362L54.5703 43.2508C54.5292 42.9543 54.4176 42.6841 54.2326 42.4463C53.9948 42.138 53.6572 41.8943 53.2109 41.7122C53.5426 41.5566 53.801 41.3452 53.9831 41.078C54.1681 40.8108 54.2591 40.5113 54.2591 40.1795C54.2591 39.6716 54.0623 39.2634 53.666 38.9581C53.2931 38.6674 52.8057 38.5176 52.2038 38.5L51.411 39.6275C51.5842 39.5101 51.8015 39.4513 52.0599 39.4513C52.3506 39.4513 52.5972 39.5277 52.7792 39.6804C52.9642 39.8331 53.0552 40.0327 53.0552 40.2794C53.0552 40.5113 52.9642 40.7227 52.7851 40.9077C52.606 41.0956 52.3564 41.2366 52.0393 41.3364C51.3963 41.0898 51.0763 40.7345 51.0763 40.2676C51.0763 40.2001 51.0821 40.1384 51.0968 40.0797L50.2571 41.2718L50.2541 41.2659ZM51.1497 42.6871C50.9295 42.9044 50.8208 43.1539 50.8208 43.4446C50.8208 43.7353 50.9353 43.9937 51.1644 44.1787C51.3934 44.3666 51.6929 44.4606 52.0569 44.4606C52.421 44.4606 52.7176 44.3637 52.9407 44.1699C53.1639 43.9761 53.2755 43.7236 53.2755 43.4123C53.2755 43.151 53.1844 42.9279 52.9995 42.7458C52.8145 42.5608 52.5003 42.3817 52.0569 42.2055C51.6694 42.3112 51.3669 42.4727 51.1467 42.6871H51.1497Z" fill="#E1FC61"/>
<defs>
<filter id="filter0_d_2671_7377" x="0" y="0" width="84" height="84" filterUnits="userSpaceOnUse" color-interpolation-filters="sRGB">
<feFlood flood-opacity="0" result="BackgroundImageFix"/>
<feColorMatrix in="SourceAlpha" type="matrix" values="0 0 0 0 0 0 0 0 0 0 0 0 0 0 0 0 0 0 127 0" result="hardAlpha"/>
<feMorphology radius="1" operator="erode" in="SourceAlpha" result="effect1_dropShadow_2671_7377"/>
<feOffset/>
<feGaussianBlur stdDeviation="11.5"/>
<feComposite in2="hardAlpha" operator="out"/>
<feColorMatrix type="matrix" values="0 0 0 0 0.180664 0 0 0 0 0.180664 0 0 0 0 0.180664 0 0 0 0.22 0"/>
<feBlend mode="normal" in2="BackgroundImageFix" result="effect1_dropShadow_2671_7377"/>
<feBlend mode="normal" in="SourceGraphic" in2="effect1_dropShadow_2671_7377" result="shape"/>
</filter>
</defs>
</svg>
