<svg width="16" height="16" viewBox="0 0 16 16" fill="none" xmlns="http://www.w3.org/2000/svg">
<g id="Icons">
<path id="Vector" fill-rule="evenodd" clip-rule="evenodd" d="M4.46499 4.13389C4.46502 3.92176 4.5493 3.71833 4.6993 3.56833C4.8493 3.41833 5.05274 3.33405 5.26487 3.33402L12.0531 3.33401C12.2652 3.33405 12.4687 3.41833 12.6187 3.56833C12.7687 3.71833 12.8529 3.92176 12.853 4.13389V10.9221C12.8493 11.1319 12.7635 11.3318 12.6138 11.4788C12.4642 11.6258 12.2629 11.7082 12.0531 11.7082C11.8433 11.7082 11.642 11.6258 11.4923 11.4788C11.3427 11.3318 11.2569 11.1319 11.2532 10.9221V6.06514L4.69918 12.6192C4.54915 12.7692 4.34567 12.8535 4.1335 12.8535C3.92132 12.8535 3.71784 12.7692 3.56781 12.6192C3.41778 12.4691 3.3335 12.2657 3.3335 12.0535C3.3335 11.8413 3.41778 11.6378 3.56781 11.4878L10.1218 4.93377H5.26487C5.05274 4.93374 4.8493 4.84946 4.6993 4.69946C4.5493 4.54946 4.46502 4.34603 4.46499 4.13389Z" fill="#262626"/>
</g>
</svg>
