<svg width="16" height="16" viewBox="0 0 16 16" fill="none" xmlns="http://www.w3.org/2000/svg">
<g id="FiArrowLeft">
<path id="Vector (Stroke)" fill-rule="evenodd" clip-rule="evenodd" d="M2.66675 8.66667C2.66675 8.29848 2.96522 8 3.33341 8H12.6667C13.0349 8 13.3334 8.29848 13.3334 8.66667C13.3334 9.03486 13.0349 9.33333 12.6667 9.33333H3.33341C2.96522 9.33333 2.66675 9.03486 2.66675 8.66667Z" fill="#BCBCBC"/>
<path id="Vector (Stroke)_2" fill-rule="evenodd" clip-rule="evenodd" d="M8.47149 3.52827C8.73184 3.78862 8.73184 4.21073 8.47149 4.47108L4.27622 8.66634L8.47149 12.8616C8.73184 13.122 8.73184 13.5441 8.47149 13.8044C8.21114 14.0648 7.78903 14.0648 7.52868 13.8044L2.86201 9.13775C2.60166 8.8774 2.60166 8.45529 2.86201 8.19494L7.52868 3.52827C7.78903 3.26792 8.21114 3.26792 8.47149 3.52827Z" fill="#BCBCBC"/>
</g>
</svg>
