<svg width="36" height="36" viewBox="0 0 36 36" fill="none" xmlns="http://www.w3.org/2000/svg">
<path d="M26.5803 1.69634C30.2727 3.99578 33.5568 7.58584 35.1687 11.6372C36.2131 16.3616 36.5188 22.5421 34.0737 26.8629C31.2416 30.8266 28.3291 34.3368 23.4197 35.5672C18.3581 36.1905 12.5136 36.5323 8.05069 33.753C4.27369 30.671 0.761885 26.9156 0.213723 21.9188C-0.24139 15.4245 0.337671 10.8464 4.52513 5.68717C10.0564 -0.0145337 19.1495 -1.59167 26.5803 1.69634Z" fill="#2CA049"/>
<path d="M14.0754 8.82499C15.7591 8.78069 17.4415 8.74827 19.1254 8.72266C19.8381 8.70208 19.8381 8.70208 20.5651 8.68109C23.2129 8.65087 25.1811 8.6309 27.2673 10.4623C27.5765 12.3042 27.5765 12.3042 27.2673 14.2825C26.7061 14.9241 26.7061 14.9241 26.1336 15.5787C24.9318 16.867 24.9318 16.867 25.161 18.1369C25.2439 18.5534 25.3268 18.9699 25.4122 19.399C25.6819 20.9689 25.7652 21.6563 24.9871 23.07C23.6095 24.6913 22.7279 25.6085 20.6714 26.2891C19.8171 26.3334 18.961 26.3478 18.1056 26.3424C17.6149 26.3407 17.1242 26.3389 16.6187 26.3371C15.8529 26.3302 15.8529 26.3302 15.0717 26.3232C14.2964 26.3195 14.2964 26.3195 13.5054 26.3158C12.2296 26.3093 10.9539 26.3004 9.67814 26.2891C9.84772 25.22 10.02 24.1513 10.1934 23.0828C10.2891 22.4876 10.3848 21.8925 10.4833 21.2793C10.7775 19.7401 10.7775 19.7401 11.3271 18.6486C10.0574 18.6486 8.78769 18.6486 7.47949 18.6486C7.47949 17.7481 7.47949 16.8476 7.47949 15.9198C9.11199 15.9198 10.7445 15.9198 12.4264 15.9198C12.4945 15.4583 12.5625 14.9968 12.6326 14.5213C12.9892 12.574 13.5162 10.7234 14.0754 8.82499Z" fill="#E7F3F4"/>
<path d="M24.519 1.18359C29.1216 3.0605 32.2532 6.10347 34.6877 10.4273C36.4373 14.8244 36.4373 21.3796 34.6877 25.7766C32.1216 30.3111 28.5285 34.0555 23.4197 35.5661C21.3782 35.7614 19.4152 35.7396 17.3734 35.5661C17.6809 35.4198 17.9884 35.2735 18.3053 35.1227C23.0674 32.6864 26.0156 29.9891 28.3666 25.1968C28.5466 24.8394 28.7266 24.482 28.912 24.1138C30.9037 19.8573 31.3726 14.5558 30.1509 10.0116C28.9029 6.76081 27.4883 4.24055 24.519 2.2751C24.519 1.9149 24.519 1.55471 24.519 1.18359Z" fill="#33C658"/>
<path d="M20.1217 0.63761C20.1217 0.817709 20.1217 0.997808 20.1217 1.18336C19.8156 1.22417 19.5095 1.26497 19.1942 1.30701C15.0311 2.0192 12.3218 3.59202 9.70607 6.90739C6.00626 12.3522 4.57104 17.5323 5.28087 24.105C6.22707 28.1708 8.05363 31.3281 10.7775 34.4744C6.85887 33.3801 3.96551 30.4073 2.01726 26.9703C-0.347203 22.4182 -0.402808 16.6145 0.671019 11.623C2.54743 7.0187 6.31516 3.1251 10.8462 1.07251C13.8933 0.233939 16.9922 0.436133 20.1217 0.63761Z" fill="#33C658"/>
<path d="M15.7245 18.6484C17.5383 18.6484 19.3522 18.6484 21.2211 18.6484C21.4025 19.3688 21.5839 20.0892 21.7707 20.8315C20.6714 21.923 20.6714 21.923 19.3617 22.0296C18.8643 22.0169 18.3669 22.0042 17.8544 21.9912C17.1041 21.9764 17.1041 21.9764 16.3385 21.9613C15.9545 21.9487 15.5705 21.936 15.1748 21.923C15.3562 20.8424 15.5376 19.7618 15.7245 18.6484Z" fill="#3DA757"/>
<path d="M18.5092 12.5918C19.1883 12.6013 19.1883 12.6013 19.8812 12.611C20.3354 12.6159 20.7896 12.6208 21.2575 12.6259C21.6082 12.6322 21.959 12.6386 22.3203 12.6451C22.5017 13.5456 22.6831 14.4461 22.87 15.3739C21.5478 16.0303 20.6988 15.9746 19.2285 15.9537C18.5546 15.9463 18.5546 15.9463 17.8672 15.9388C17.3507 15.9293 17.3507 15.9293 16.8237 15.9196C16.8002 15.0103 16.8014 14.1002 16.8237 13.1908C17.3734 12.6451 17.3734 12.6451 18.5092 12.5918Z" fill="#3DA757"/>
</svg>
