<svg width="36" height="36" viewBox="0 0 36 36" fill="none" xmlns="http://www.w3.org/2000/svg">
<g clip-path="url(#clip0_3872_4056)">
<path d="M0 0H36V36H0V0Z" fill="#2775CA"/>
<path d="M22.95 20.8499C22.95 18.225 21.375 17.325 18.225 16.9501C15.975 16.65 15.525 16.0501 15.525 14.9999C15.525 13.9498 16.2751 13.275 17.775 13.275C19.125 13.275 19.8751 13.725 20.25 14.85C20.3251 15.075 20.5501 15.2249 20.7751 15.2249H21.9749C22.275 15.2249 22.5 14.9999 22.5 14.7001V14.625C22.1999 12.9749 20.8499 11.7 19.125 11.5501V9.75006C19.125 9.45 18.9 9.225 18.5251 9.14994H17.4001C17.1 9.14994 16.875 9.37494 16.7999 9.75006V11.475C14.5499 11.7751 13.1251 13.275 13.1251 15.1501C13.1251 17.6251 14.625 18.5999 17.775 18.9751C19.8751 19.35 20.5501 19.8 20.5501 21.0001C20.5501 22.2001 19.4999 23.0251 18.0751 23.0251C16.1249 23.0251 15.4499 22.1999 15.2249 21.0749C15.1501 20.7751 14.9251 20.6249 14.7001 20.6249H13.4249C13.1251 20.6249 12.9001 20.8499 12.9001 21.15V21.2251C13.1999 23.0999 14.4 24.4499 16.875 24.8251V26.6251C16.875 26.9249 17.1 27.1499 17.4749 27.225H18.5999C18.9 27.225 19.125 27 19.2001 26.6251V24.8251C21.4501 24.4499 22.95 22.8749 22.95 20.8499Z" fill="white"/>
<path d="M14.175 28.7249C8.325 26.6251 5.32494 20.1001 7.50006 14.3249C8.62506 11.1749 11.1001 8.775 14.175 7.65C14.4751 7.50006 14.625 7.27506 14.625 6.89994V5.85C14.625 5.54994 14.4751 5.32494 14.175 5.25006C14.0999 5.25006 13.95 5.25006 13.8749 5.32494C6.75 7.57494 2.84994 15.1501 5.09994 22.275C6.44994 26.4749 9.675 29.7 13.8749 31.05C14.175 31.1999 14.4751 31.05 14.5499 30.7499C14.625 30.6751 14.625 30.6 14.625 30.4501V29.3999C14.625 29.1749 14.4 28.8751 14.175 28.7249ZM22.1251 5.32494C21.825 5.175 21.5249 5.32494 21.4501 5.625C21.375 5.70006 21.375 5.77494 21.375 5.92506V6.975C21.375 7.27506 21.6 7.57494 21.825 7.72506C27.675 9.82494 30.6751 16.3499 28.4999 22.1251C27.3749 25.2751 24.8999 27.675 21.825 28.8C21.5249 28.9499 21.375 29.1749 21.375 29.5501V30.6C21.375 30.9001 21.5249 31.1251 21.825 31.1999C21.9001 31.1999 22.05 31.1999 22.1251 31.1251C29.25 28.8751 33.1501 21.2999 30.9001 14.175C29.5501 9.9 26.2499 6.67494 22.1251 5.32494Z" fill="white"/>
</g>
<defs>
<clipPath id="clip0_3872_4056">
<path d="M0 18C0 8.05888 8.05888 0 18 0C27.9411 0 36 8.05888 36 18C36 27.9411 27.9411 36 18 36C8.05888 36 0 27.9411 0 18Z" fill="white"/>
</clipPath>
</defs>
</svg>
