<svg width="36" height="36" viewBox="0 0 36 36" fill="none" xmlns="http://www.w3.org/2000/svg">
<g clip-path="url(#clip0_3709_12357)">
<path d="M35.8045 17.9997C35.8045 27.8331 27.8336 35.804 18.0001 35.804C8.16667 35.804 0.195801 27.8331 0.195801 17.9997C0.195801 8.16618 8.16667 0.195312 18.0001 0.195312C27.8336 0.195312 35.8045 8.16618 35.8045 17.9997Z" fill="white" stroke="#383D51" stroke-width="0.391304"/>
<path d="M12.802 31.1472C19.5325 31.1472 19.5325 31.0471 20.6735 30.709C22.1636 30.266 16.4631 26.3193 12.802 26.3193C9.14099 26.3193 6.17334 27.3993 6.17334 28.7329C6.17334 30.0665 9.14099 31.1472 12.802 31.1472Z" fill="black"/>
<path d="M28.0838 10.6193L28.3929 10.9527L28.1221 11.3182C19.346 23.1856 14.2887 28.559 12.1436 27.8382C10.8367 27.3992 9.52658 26.0789 8.21649 24.1623C7.75626 23.4856 7.32694 22.7884 6.92988 22.0728C6.71957 21.6982 6.51993 21.3177 6.33118 20.9317C6.21076 20.6961 6.12384 20.4448 6.07292 20.1851L6.06666 20.1546C6.05473 20.0886 6.04037 20.0231 6.02362 19.9582C5.4209 17.6877 5.49979 15.29 6.25048 13.0641C7.00117 10.8381 8.39043 8.88238 10.2451 7.44063C12.0997 5.99889 14.3377 5.13493 16.68 4.95646C19.0224 4.778 21.3654 5.29292 23.4171 6.43703L23.4625 6.4652C24.9103 7.4732 26.4497 8.85764 28.0838 10.6193ZM22.8583 7.38164C20.9941 6.3494 18.8677 5.88782 16.7433 6.05428C14.6189 6.22073 12.5903 7.00789 10.9097 8.31788C9.22905 9.62788 7.97048 11.4029 7.29045 13.4224C6.61042 15.4419 6.53892 17.6167 7.08484 19.6764C7.10832 19.7664 7.11927 19.8173 7.14431 19.9464L7.14979 19.973C7.18266 20.1429 7.24058 20.3072 7.32197 20.4606C7.42684 20.6805 7.63736 21.089 7.88858 21.539C8.26928 22.2251 8.68083 22.8936 9.12197 23.5425C10.3061 25.2752 11.48 26.4577 12.4934 26.7982C13.8442 27.2521 18.9304 21.8677 26.9678 11.0341C25.509 9.49312 24.1387 8.27616 22.8583 7.38164Z" fill="black"/>
<path d="M22.858 7.38156C20.9939 6.34957 18.8675 5.88818 16.7433 6.05476C14.6191 6.22133 12.5906 7.00852 10.9101 8.31847C9.2296 9.62843 7.97112 11.4034 7.29111 13.4227C6.61109 15.442 6.53953 17.6167 7.08532 19.6763C7.10879 19.7663 7.11975 19.8172 7.14479 19.9463L7.15027 19.973C7.18314 20.1428 7.24105 20.3071 7.32245 20.4597C7.42732 20.6804 7.63784 21.0882 7.88905 21.539C8.26974 22.225 8.6813 22.8936 9.12245 23.5424C10.3065 25.2743 11.4804 26.4577 12.4939 26.7981C13.8447 27.252 18.9309 21.8677 26.9683 11.034C25.5087 9.49304 24.1391 8.27609 22.858 7.38156Z" fill="#EC1C79"/>
<path d="M19.7803 31.0386C18.2014 31.0514 16.6356 30.7514 15.1733 30.1561C13.7109 29.5607 12.3808 28.6817 11.2599 27.5697C10.1389 26.4578 9.24913 25.1349 8.64195 23.6774C8.03477 22.2198 7.72217 20.6565 7.72217 19.0776C7.72217 17.4987 8.03477 15.9354 8.64195 14.4778C9.24913 13.0203 10.1389 11.6974 11.2599 10.5855C12.3808 9.47353 13.7109 8.59452 15.1733 7.99915C16.6356 7.40378 18.2014 7.10383 19.7803 7.1166C22.9358 7.14213 25.9534 8.41355 28.1757 10.6539C30.398 12.8942 31.6449 15.922 31.6449 19.0776C31.6449 22.2332 30.398 25.261 28.1757 27.5013C25.9534 29.7417 22.9358 31.0131 19.7803 31.0386ZM19.7803 29.9422C22.6614 29.9422 25.4244 28.7977 27.4616 26.7605C29.4988 24.7233 30.6433 21.9602 30.6433 19.0792C30.6433 16.1981 29.4988 13.4351 27.4616 11.3979C25.4244 9.36066 22.6614 8.21617 19.7803 8.21617C16.8994 8.21617 14.1364 9.36062 12.0993 11.3978C10.0622 13.4349 8.9177 16.1978 8.9177 19.0788C8.9177 21.9597 10.0622 24.7227 12.0993 26.7598C14.1364 28.7969 16.8994 29.9422 19.7803 29.9422Z" fill="black"/>
<path d="M19.7813 29.9414C22.6625 29.9414 25.4258 28.7969 27.4631 26.7595C29.5005 24.7222 30.645 21.9589 30.645 19.0776C30.645 16.1964 29.5005 13.4332 27.4631 11.3958C25.4258 9.35844 22.6625 8.21387 19.7813 8.21387C16.9 8.21387 14.1368 9.35844 12.0994 11.3958C10.0621 13.4332 8.91748 16.1964 8.91748 19.0776C8.91748 21.9589 10.0621 24.7222 12.0994 26.7595C14.1368 28.7969 16.9 29.9414 19.7813 29.9414Z" fill="white"/>
<path fill-rule="evenodd" clip-rule="evenodd" d="M11.6547 21.3023L10.2163 16.9705H11.4763L12.226 19.4592L13.0556 16.958H14.0824L14.912 19.4592L15.6617 16.9705H16.8967L15.4582 21.3023H14.4197L13.5534 18.8261L12.6925 21.3023H11.6547ZM17.3694 21.2717V16.9705H20.8285V17.984H18.5495V18.6359H20.614V19.5758H18.5495V20.2583H20.8598V21.2717H17.3694ZM22.5189 21.2717V18.0153H21.2284V16.9705H25.0014V18.0153H23.7108V21.2717H22.5189ZM25.5241 21.2717V16.9705H26.716V18.5804H28.246V16.9705H29.438V21.2717H28.246V19.6377H26.716V21.2717H25.5241Z" fill="black"/>
<path d="M6.33778 15.6771C6.19197 15.6042 6.08107 15.4764 6.02948 15.3218C5.9779 15.1672 5.98984 14.9984 6.0627 14.8526C6.13555 14.7068 6.26334 14.5959 6.41796 14.5443C6.57258 14.4927 6.74136 14.5046 6.88717 14.5775L8.64335 15.4556C8.71953 15.4892 8.78808 15.538 8.84486 15.5989C8.90163 15.6599 8.94544 15.7317 8.97363 15.8101C9.00182 15.8884 9.01381 15.9717 9.00886 16.0548C9.00391 16.138 8.98213 16.2192 8.94485 16.2937C8.90756 16.3682 8.85554 16.4343 8.79194 16.488C8.72834 16.5418 8.65449 16.5821 8.57485 16.6065C8.49522 16.6308 8.41147 16.6388 8.32867 16.6298C8.24587 16.6209 8.16575 16.5952 8.09317 16.5544L6.33778 15.6771ZM6.13587 18.5876C5.98788 18.5193 5.87308 18.395 5.81672 18.2421C5.76036 18.0892 5.76706 17.9201 5.83535 17.7721C5.90364 17.6241 6.02792 17.5093 6.18085 17.453C6.33378 17.3966 6.50284 17.4033 6.65083 17.4716L8.407 18.2824C8.48436 18.3135 8.55457 18.3601 8.61338 18.4192C8.67219 18.4783 8.71837 18.5488 8.7491 18.6263C8.77984 18.7038 8.79449 18.7868 8.79216 18.8701C8.78984 18.9535 8.77059 19.0355 8.73559 19.1112C8.70059 19.1869 8.65056 19.2547 8.58855 19.3104C8.52654 19.3662 8.45384 19.4087 8.37487 19.4355C8.2959 19.4623 8.2123 19.4728 8.12917 19.4662C8.04603 19.4597 7.96509 19.4364 7.89126 19.3976L6.13587 18.5884V18.5876Z" fill="black"/>
</g>
<defs>
<clipPath id="clip0_3709_12357">
<rect width="36" height="36" fill="white"/>
</clipPath>
</defs>
</svg>
