<svg width="36" height="36" viewBox="0 0 36 36" fill="none" xmlns="http://www.w3.org/2000/svg">
<g clip-path="url(#clip0_3709_11955)">
<rect width="36" height="36" rx="18" fill="white"/>
<rect x="-6.30005" y="-4.32031" width="51.03" height="48.42" fill="#014550"/>
<path d="M16.409 14.9933V18.6458L14.7575 20.9248C14.476 21.0066 14.1637 21.0493 13.8175 21.0493C13.0068 21.0493 12.3725 20.8224 11.9176 20.3692C11.4612 19.9161 11.2341 19.2824 11.2341 18.4697V16.5244L12.3417 14.9933H12.4401V18.4601C12.4401 18.9479 12.557 19.3192 12.7907 19.5712C13.0244 19.8254 13.3655 19.9514 13.8153 19.9514C14.7391 19.9514 15.2007 19.4541 15.2007 18.4593V14.9933H16.4083H16.409ZM24.8964 18.5662L23.1553 20.969C22.962 21.0161 22.7584 21.039 22.5423 21.039C22.0925 21.039 21.6912 20.9373 21.3348 20.7339C20.9783 20.5306 20.6975 20.2543 20.4925 19.9043C20.3058 19.5889 20.2044 19.2308 20.1875 18.8322L21.9125 16.4522C22.1109 16.4043 22.3211 16.3793 22.5423 16.3793C22.9921 16.3793 23.3934 16.478 23.7499 16.6792C24.1063 16.8796 24.3871 17.1544 24.5922 17.5051C24.7752 17.819 24.8766 18.1734 24.8964 18.5669V18.5662ZM23.7499 18.7054C23.7499 18.312 23.6382 17.9915 23.4133 17.7439C23.1884 17.4978 22.8973 17.374 22.5423 17.374C22.1873 17.374 21.8948 17.4963 21.6677 17.7439C21.4406 17.99 21.3259 18.3149 21.3259 18.7143C21.3259 19.1136 21.4399 19.4283 21.6677 19.6758C21.8955 19.9219 22.1932 20.0457 22.5423 20.0457C22.8914 20.0457 23.1803 19.9234 23.4081 19.6758C23.6352 19.4297 23.7499 19.0989 23.7499 18.7054ZM8.05825 20.9049L11.2333 16.5244H10.0074L9.08941 17.8846L8.19128 16.5244H6.87201L8.39633 18.6627L6.75 20.9049H8.05825ZM10.2698 19.3723L9.60904 20.2823L10.0162 20.9049H11.3641L10.2698 19.373V19.3723ZM19.9964 18.2051C19.8589 17.9524 19.6686 17.752 19.426 17.6046C19.1828 17.4572 18.902 17.3806 18.5838 17.3755L20.0059 15.8834V14.9933H17.1219L16.4097 15.9755H18.6683L17.0955 17.626L17.4049 18.2177C17.6232 18.1418 17.8326 18.1057 18.0311 18.1057C18.3368 18.1057 18.5794 18.1919 18.7616 18.3636C18.9424 18.5352 19.0336 18.7622 19.0336 19.0436C19.0336 19.3494 18.9321 19.5904 18.7293 19.765H18.7264C18.5235 19.9382 18.2479 20.0273 17.8988 20.0273C17.5114 20.0273 17.1447 19.9079 16.7993 19.6707L16.1973 20.5004L16.1856 20.5166C16.6728 20.8725 17.2439 21.0508 17.9002 21.0508C18.1663 21.0508 18.4118 21.0228 18.6396 20.9675L20.1882 18.8307C20.1882 18.8307 20.0985 18.3915 19.9971 18.2037L19.9964 18.2051ZM28.0149 19.2109C28.0149 18.9788 27.9348 18.7821 27.7716 18.6192C27.6092 18.4564 27.3314 18.2972 26.9382 18.141C26.5949 18.2346 26.3274 18.3783 26.1334 18.5684C25.9401 18.76 25.8438 18.9825 25.8438 19.2396C25.8438 19.4968 25.9452 19.7259 26.1481 19.891C26.3509 20.0568 26.6148 20.14 26.9382 20.14C27.2616 20.14 27.5232 20.0538 27.7195 19.8822C27.9157 19.7105 28.0142 19.4857 28.0142 19.2109H28.0149ZM29.16 19.0665L27.8003 20.9432C27.5394 21.0198 27.252 21.0596 26.9404 21.0596C26.5038 21.0596 26.1187 20.9837 25.785 20.8341C25.4513 20.6831 25.1882 20.479 24.9986 20.2189C24.8075 19.9595 24.7127 19.6641 24.7127 19.3133C24.7127 18.9626 24.8163 18.6472 25.0221 18.3665C25.2272 18.085 25.5145 17.8684 25.8828 17.7188C25.6608 17.6024 25.4822 17.4646 25.3448 17.3069L26.0775 16.296C26.0717 16.3343 26.0687 16.3741 26.0687 16.4154C26.0687 16.828 26.3524 17.1434 26.9198 17.3622C27.2006 17.2738 27.4218 17.147 27.5798 16.9813C27.74 16.8162 27.8187 16.6298 27.8187 16.4235C27.8187 16.2046 27.7386 16.0278 27.5754 15.893C27.413 15.7589 27.1947 15.6911 26.9382 15.6911C26.7397 15.6911 26.57 15.7301 26.4274 15.809L27.1227 14.8496C27.6313 14.8717 28.0436 15.0066 28.3611 15.2541C28.7109 15.526 28.8851 15.8871 28.8851 16.338C28.8851 16.6327 28.805 16.898 28.6418 17.1353C28.4794 17.3725 28.2516 17.5611 27.9583 17.6982C28.3523 17.861 28.6521 18.0769 28.8616 18.3496C29.0255 18.5618 29.1225 18.8005 29.1593 19.0635L29.16 19.0665Z" fill="#E1FC61"/>
</g>
<defs>
<clipPath id="clip0_3709_11955">
<rect width="36" height="36" rx="18" fill="white"/>
</clipPath>
</defs>
</svg>
