<svg width="36" height="36" viewBox="0 0 36 36" fill="none" xmlns="http://www.w3.org/2000/svg">
<rect width="36" height="36" rx="18" fill="#4FAAE7"/>
<g clip-path="url(#clip0_3709_12760)">
<path d="M25.0562 22.7719C24.8506 19.0637 20.2725 17.3781 19.8344 17.2049C19.8165 17.1958 19.8165 17.1776 19.8254 17.1594L24.5466 12.3304V11.8111C24.5439 11.7263 24.4777 11.6589 24.3945 11.6562H15.6945V8.74968V7.875L12.4845 8.55835V9.05035H12.6633C12.6633 9.05035 13.4502 9.05035 13.4502 9.85215V11.6471H10.9644C10.9161 11.6507 10.8786 11.689 10.875 11.7382V12.8771H13.4591V19.0637C13.4591 21.0044 14.6841 22.3528 16.83 22.1706C17.2717 22.1259 17.6965 21.9692 18.064 21.715C18.2258 21.6093 18.3233 21.428 18.3233 21.2321V20.6217C17.6258 21.0955 17.0357 21.0681 17.0357 21.0681C15.6766 21.0681 15.7034 19.3097 15.7034 19.3097V12.8771H21.9625L17.4559 17.5056C17.447 18.1161 17.4381 18.5899 17.4381 18.599C17.4363 18.6126 17.4461 18.6245 17.4595 18.6263C17.4613 18.6263 17.4631 18.6263 17.4649 18.6263C21.5959 19.337 22.7135 22.0613 22.7135 22.8539C22.7135 22.8539 23.1606 26.708 19.3784 26.9722C19.3784 26.9722 16.9016 27.0816 16.4634 26.0702C16.4473 26.0374 16.4616 25.9973 16.4938 25.9818C16.4956 25.9809 16.4974 25.98 16.4992 25.9791C16.9203 25.7996 17.1931 25.3787 17.1877 24.9131C17.1877 24.166 16.7406 23.5555 15.8018 23.5555C15.0417 23.5555 14.4158 24.166 14.4158 24.9131C14.4158 24.9131 14.0582 28.1567 19.3694 28.0656C25.4318 27.9563 25.0562 22.7719 25.0562 22.7719Z" fill="white"/>
</g>
<defs>
<clipPath id="clip0_3709_12760">
<rect width="15.1875" height="20.7102" fill="white" transform="translate(10.4062 7.875)"/>
</clipPath>
</defs>
</svg>
